%TF.GenerationSoftware,KiCad,Pcbnew,(6.0.10-0)*%
%TF.CreationDate,2023-01-05T17:16:11+09:00*%
%TF.ProjectId,Tiny Dimply Qazy,54696e79-2044-4696-9d70-6c792051617a,rev?*%
%TF.SameCoordinates,Original*%
%TF.FileFunction,Legend,Bot*%
%TF.FilePolarity,Positive*%
%FSLAX46Y46*%
G04 Gerber Fmt 4.6, Leading zero omitted, Abs format (unit mm)*
G04 Created by KiCad (PCBNEW (6.0.10-0)) date 2023-01-05 17:16:11*
%MOMM*%
%LPD*%
G01*
G04 APERTURE LIST*
G04 Aperture macros list*
%AMRoundRect*
0 Rectangle with rounded corners*
0 $1 Rounding radius*
0 $2 $3 $4 $5 $6 $7 $8 $9 X,Y pos of 4 corners*
0 Add a 4 corners polygon primitive as box body*
4,1,4,$2,$3,$4,$5,$6,$7,$8,$9,$2,$3,0*
0 Add four circle primitives for the rounded corners*
1,1,$1+$1,$2,$3*
1,1,$1+$1,$4,$5*
1,1,$1+$1,$6,$7*
1,1,$1+$1,$8,$9*
0 Add four rect primitives between the rounded corners*
20,1,$1+$1,$2,$3,$4,$5,0*
20,1,$1+$1,$4,$5,$6,$7,0*
20,1,$1+$1,$6,$7,$8,$9,0*
20,1,$1+$1,$8,$9,$2,$3,0*%
G04 Aperture macros list end*
%ADD10C,0.150000*%
%ADD11C,0.120000*%
%ADD12C,1.750000*%
%ADD13C,3.987800*%
%ADD14C,2.250000*%
%ADD15C,3.048000*%
%ADD16RoundRect,0.225000X0.225000X0.250000X-0.225000X0.250000X-0.225000X-0.250000X0.225000X-0.250000X0*%
%ADD17RoundRect,0.150000X-0.150000X0.587500X-0.150000X-0.587500X0.150000X-0.587500X0.150000X0.587500X0*%
%ADD18RoundRect,0.150000X0.625000X-0.150000X0.625000X0.150000X-0.625000X0.150000X-0.625000X-0.150000X0*%
%ADD19RoundRect,0.250000X0.650000X-0.350000X0.650000X0.350000X-0.650000X0.350000X-0.650000X-0.350000X0*%
%ADD20RoundRect,0.135000X0.135000X0.185000X-0.135000X0.185000X-0.135000X-0.185000X0.135000X-0.185000X0*%
%ADD21RoundRect,0.150000X0.150000X-0.512500X0.150000X0.512500X-0.150000X0.512500X-0.150000X-0.512500X0*%
%ADD22RoundRect,0.200000X0.275000X-0.200000X0.275000X0.200000X-0.275000X0.200000X-0.275000X-0.200000X0*%
%ADD23RoundRect,0.140000X0.140000X0.170000X-0.140000X0.170000X-0.140000X-0.170000X0.140000X-0.170000X0*%
%ADD24RoundRect,0.200000X-0.275000X0.200000X-0.275000X-0.200000X0.275000X-0.200000X0.275000X0.200000X0*%
%ADD25RoundRect,0.150000X0.275000X-0.150000X0.275000X0.150000X-0.275000X0.150000X-0.275000X-0.150000X0*%
%ADD26RoundRect,0.175000X0.225000X-0.175000X0.225000X0.175000X-0.225000X0.175000X-0.225000X-0.175000X0*%
%ADD27RoundRect,0.225000X-0.250000X0.225000X-0.250000X-0.225000X0.250000X-0.225000X0.250000X0.225000X0*%
%ADD28RoundRect,0.150000X0.150000X-0.587500X0.150000X0.587500X-0.150000X0.587500X-0.150000X-0.587500X0*%
%ADD29R,1.000000X1.700000*%
%ADD30RoundRect,0.150000X0.587500X0.150000X-0.587500X0.150000X-0.587500X-0.150000X0.587500X-0.150000X0*%
%ADD31RoundRect,0.218750X0.256250X-0.218750X0.256250X0.218750X-0.256250X0.218750X-0.256250X-0.218750X0*%
%ADD32RoundRect,0.135000X0.185000X-0.135000X0.185000X0.135000X-0.185000X0.135000X-0.185000X-0.135000X0*%
%ADD33RoundRect,0.140000X0.170000X-0.140000X0.170000X0.140000X-0.170000X0.140000X-0.170000X-0.140000X0*%
%ADD34RoundRect,0.075000X-0.662500X-0.075000X0.662500X-0.075000X0.662500X0.075000X-0.662500X0.075000X0*%
%ADD35RoundRect,0.075000X-0.075000X-0.662500X0.075000X-0.662500X0.075000X0.662500X-0.075000X0.662500X0*%
%ADD36C,0.650000*%
%ADD37R,0.600000X1.450000*%
%ADD38R,0.300000X1.450000*%
%ADD39O,1.000000X2.100000*%
%ADD40O,1.000000X1.600000*%
%ADD41RoundRect,0.140000X-0.170000X0.140000X-0.170000X-0.140000X0.170000X-0.140000X0.170000X0.140000X0*%
%ADD42RoundRect,0.140000X-0.140000X-0.170000X0.140000X-0.170000X0.140000X0.170000X-0.140000X0.170000X0*%
%ADD43R,0.900000X1.200000*%
G04 APERTURE END LIST*
D10*
%TO.C,C_VDDIO1*%
X57198095Y-95997142D02*
X57245714Y-96044761D01*
X57388571Y-96092380D01*
X57483809Y-96092380D01*
X57626666Y-96044761D01*
X57721904Y-95949523D01*
X57769523Y-95854285D01*
X57817142Y-95663809D01*
X57817142Y-95520952D01*
X57769523Y-95330476D01*
X57721904Y-95235238D01*
X57626666Y-95140000D01*
X57483809Y-95092380D01*
X57388571Y-95092380D01*
X57245714Y-95140000D01*
X57198095Y-95187619D01*
X57007619Y-96187619D02*
X56245714Y-96187619D01*
X56150476Y-95092380D02*
X55817142Y-96092380D01*
X55483809Y-95092380D01*
X55150476Y-96092380D02*
X55150476Y-95092380D01*
X54912380Y-95092380D01*
X54769523Y-95140000D01*
X54674285Y-95235238D01*
X54626666Y-95330476D01*
X54579047Y-95520952D01*
X54579047Y-95663809D01*
X54626666Y-95854285D01*
X54674285Y-95949523D01*
X54769523Y-96044761D01*
X54912380Y-96092380D01*
X55150476Y-96092380D01*
X54150476Y-96092380D02*
X54150476Y-95092380D01*
X53912380Y-95092380D01*
X53769523Y-95140000D01*
X53674285Y-95235238D01*
X53626666Y-95330476D01*
X53579047Y-95520952D01*
X53579047Y-95663809D01*
X53626666Y-95854285D01*
X53674285Y-95949523D01*
X53769523Y-96044761D01*
X53912380Y-96092380D01*
X54150476Y-96092380D01*
X53150476Y-96092380D02*
X53150476Y-95092380D01*
X52483809Y-95092380D02*
X52293333Y-95092380D01*
X52198095Y-95140000D01*
X52102857Y-95235238D01*
X52055238Y-95425714D01*
X52055238Y-95759047D01*
X52102857Y-95949523D01*
X52198095Y-96044761D01*
X52293333Y-96092380D01*
X52483809Y-96092380D01*
X52579047Y-96044761D01*
X52674285Y-95949523D01*
X52721904Y-95759047D01*
X52721904Y-95425714D01*
X52674285Y-95235238D01*
X52579047Y-95140000D01*
X52483809Y-95092380D01*
X51102857Y-96092380D02*
X51674285Y-96092380D01*
X51388571Y-96092380D02*
X51388571Y-95092380D01*
X51483809Y-95235238D01*
X51579047Y-95330476D01*
X51674285Y-95378095D01*
%TO.C,D13*%
X174264880Y-123404464D02*
X173264880Y-123404464D01*
X173264880Y-123642559D01*
X173312500Y-123785416D01*
X173407738Y-123880654D01*
X173502976Y-123928273D01*
X173693452Y-123975892D01*
X173836309Y-123975892D01*
X174026785Y-123928273D01*
X174122023Y-123880654D01*
X174217261Y-123785416D01*
X174264880Y-123642559D01*
X174264880Y-123404464D01*
X174264880Y-124928273D02*
X174264880Y-124356845D01*
X174264880Y-124642559D02*
X173264880Y-124642559D01*
X173407738Y-124547321D01*
X173502976Y-124452083D01*
X173550595Y-124356845D01*
X173264880Y-125261607D02*
X173264880Y-125880654D01*
X173645833Y-125547321D01*
X173645833Y-125690178D01*
X173693452Y-125785416D01*
X173741071Y-125833035D01*
X173836309Y-125880654D01*
X174074404Y-125880654D01*
X174169642Y-125833035D01*
X174217261Y-125785416D01*
X174264880Y-125690178D01*
X174264880Y-125404464D01*
X174217261Y-125309226D01*
X174169642Y-125261607D01*
%TO.C,J1*%
X213195880Y-70403166D02*
X213910166Y-70403166D01*
X214053023Y-70355547D01*
X214148261Y-70260309D01*
X214195880Y-70117452D01*
X214195880Y-70022214D01*
X214195880Y-71403166D02*
X214195880Y-70831738D01*
X214195880Y-71117452D02*
X213195880Y-71117452D01*
X213338738Y-71022214D01*
X213433976Y-70926976D01*
X213481595Y-70831738D01*
%TO.C,D7*%
X109177380Y-103243154D02*
X108177380Y-103243154D01*
X108177380Y-103481250D01*
X108225000Y-103624107D01*
X108320238Y-103719345D01*
X108415476Y-103766964D01*
X108605952Y-103814583D01*
X108748809Y-103814583D01*
X108939285Y-103766964D01*
X109034523Y-103719345D01*
X109129761Y-103624107D01*
X109177380Y-103481250D01*
X109177380Y-103243154D01*
X108177380Y-104147916D02*
X108177380Y-104814583D01*
X109177380Y-104386011D01*
%TO.C,D3*%
X66314880Y-103243154D02*
X65314880Y-103243154D01*
X65314880Y-103481250D01*
X65362500Y-103624107D01*
X65457738Y-103719345D01*
X65552976Y-103766964D01*
X65743452Y-103814583D01*
X65886309Y-103814583D01*
X66076785Y-103766964D01*
X66172023Y-103719345D01*
X66267261Y-103624107D01*
X66314880Y-103481250D01*
X66314880Y-103243154D01*
X65314880Y-104147916D02*
X65314880Y-104766964D01*
X65695833Y-104433630D01*
X65695833Y-104576488D01*
X65743452Y-104671726D01*
X65791071Y-104719345D01*
X65886309Y-104766964D01*
X66124404Y-104766964D01*
X66219642Y-104719345D01*
X66267261Y-104671726D01*
X66314880Y-104576488D01*
X66314880Y-104290773D01*
X66267261Y-104195535D01*
X66219642Y-104147916D01*
%TO.C,R2*%
X60846666Y-105312380D02*
X61180000Y-104836190D01*
X61418095Y-105312380D02*
X61418095Y-104312380D01*
X61037142Y-104312380D01*
X60941904Y-104360000D01*
X60894285Y-104407619D01*
X60846666Y-104502857D01*
X60846666Y-104645714D01*
X60894285Y-104740952D01*
X60941904Y-104788571D01*
X61037142Y-104836190D01*
X61418095Y-104836190D01*
X60465714Y-104407619D02*
X60418095Y-104360000D01*
X60322857Y-104312380D01*
X60084761Y-104312380D01*
X59989523Y-104360000D01*
X59941904Y-104407619D01*
X59894285Y-104502857D01*
X59894285Y-104598095D01*
X59941904Y-104740952D01*
X60513333Y-105312380D01*
X59894285Y-105312380D01*
%TO.C,U3*%
X219002380Y-69463095D02*
X219811904Y-69463095D01*
X219907142Y-69510714D01*
X219954761Y-69558333D01*
X220002380Y-69653571D01*
X220002380Y-69844047D01*
X219954761Y-69939285D01*
X219907142Y-69986904D01*
X219811904Y-70034523D01*
X219002380Y-70034523D01*
X219002380Y-70415476D02*
X219002380Y-71034523D01*
X219383333Y-70701190D01*
X219383333Y-70844047D01*
X219430952Y-70939285D01*
X219478571Y-70986904D01*
X219573809Y-71034523D01*
X219811904Y-71034523D01*
X219907142Y-70986904D01*
X219954761Y-70939285D01*
X220002380Y-70844047D01*
X220002380Y-70558333D01*
X219954761Y-70463095D01*
X219907142Y-70415476D01*
%TO.C,C_VDDA1*%
X44094761Y-88787142D02*
X44142380Y-88834761D01*
X44285238Y-88882380D01*
X44380476Y-88882380D01*
X44523333Y-88834761D01*
X44618571Y-88739523D01*
X44666190Y-88644285D01*
X44713809Y-88453809D01*
X44713809Y-88310952D01*
X44666190Y-88120476D01*
X44618571Y-88025238D01*
X44523333Y-87930000D01*
X44380476Y-87882380D01*
X44285238Y-87882380D01*
X44142380Y-87930000D01*
X44094761Y-87977619D01*
X43904285Y-88977619D02*
X43142380Y-88977619D01*
X43047142Y-87882380D02*
X42713809Y-88882380D01*
X42380476Y-87882380D01*
X42047142Y-88882380D02*
X42047142Y-87882380D01*
X41809047Y-87882380D01*
X41666190Y-87930000D01*
X41570952Y-88025238D01*
X41523333Y-88120476D01*
X41475714Y-88310952D01*
X41475714Y-88453809D01*
X41523333Y-88644285D01*
X41570952Y-88739523D01*
X41666190Y-88834761D01*
X41809047Y-88882380D01*
X42047142Y-88882380D01*
X41047142Y-88882380D02*
X41047142Y-87882380D01*
X40809047Y-87882380D01*
X40666190Y-87930000D01*
X40570952Y-88025238D01*
X40523333Y-88120476D01*
X40475714Y-88310952D01*
X40475714Y-88453809D01*
X40523333Y-88644285D01*
X40570952Y-88739523D01*
X40666190Y-88834761D01*
X40809047Y-88882380D01*
X41047142Y-88882380D01*
X40094761Y-88596666D02*
X39618571Y-88596666D01*
X40190000Y-88882380D02*
X39856666Y-87882380D01*
X39523333Y-88882380D01*
X38666190Y-88882380D02*
X39237619Y-88882380D01*
X38951904Y-88882380D02*
X38951904Y-87882380D01*
X39047142Y-88025238D01*
X39142380Y-88120476D01*
X39237619Y-88168095D01*
%TO.C,R_USB1*%
X58772380Y-93432380D02*
X58296190Y-93099047D01*
X58772380Y-92860952D02*
X57772380Y-92860952D01*
X57772380Y-93241904D01*
X57820000Y-93337142D01*
X57867619Y-93384761D01*
X57962857Y-93432380D01*
X58105714Y-93432380D01*
X58200952Y-93384761D01*
X58248571Y-93337142D01*
X58296190Y-93241904D01*
X58296190Y-92860952D01*
X58867619Y-93622857D02*
X58867619Y-94384761D01*
X57772380Y-94622857D02*
X58581904Y-94622857D01*
X58677142Y-94670476D01*
X58724761Y-94718095D01*
X58772380Y-94813333D01*
X58772380Y-95003809D01*
X58724761Y-95099047D01*
X58677142Y-95146666D01*
X58581904Y-95194285D01*
X57772380Y-95194285D01*
X58724761Y-95622857D02*
X58772380Y-95765714D01*
X58772380Y-96003809D01*
X58724761Y-96099047D01*
X58677142Y-96146666D01*
X58581904Y-96194285D01*
X58486666Y-96194285D01*
X58391428Y-96146666D01*
X58343809Y-96099047D01*
X58296190Y-96003809D01*
X58248571Y-95813333D01*
X58200952Y-95718095D01*
X58153333Y-95670476D01*
X58058095Y-95622857D01*
X57962857Y-95622857D01*
X57867619Y-95670476D01*
X57820000Y-95718095D01*
X57772380Y-95813333D01*
X57772380Y-96051428D01*
X57820000Y-96194285D01*
X58248571Y-96956190D02*
X58296190Y-97099047D01*
X58343809Y-97146666D01*
X58439047Y-97194285D01*
X58581904Y-97194285D01*
X58677142Y-97146666D01*
X58724761Y-97099047D01*
X58772380Y-97003809D01*
X58772380Y-96622857D01*
X57772380Y-96622857D01*
X57772380Y-96956190D01*
X57820000Y-97051428D01*
X57867619Y-97099047D01*
X57962857Y-97146666D01*
X58058095Y-97146666D01*
X58153333Y-97099047D01*
X58200952Y-97051428D01*
X58248571Y-96956190D01*
X58248571Y-96622857D01*
X58772380Y-98146666D02*
X58772380Y-97575238D01*
X58772380Y-97860952D02*
X57772380Y-97860952D01*
X57915238Y-97765714D01*
X58010476Y-97670476D01*
X58058095Y-97575238D01*
%TO.C,D16*%
X185377380Y-102766964D02*
X184377380Y-102766964D01*
X184377380Y-103005059D01*
X184425000Y-103147916D01*
X184520238Y-103243154D01*
X184615476Y-103290773D01*
X184805952Y-103338392D01*
X184948809Y-103338392D01*
X185139285Y-103290773D01*
X185234523Y-103243154D01*
X185329761Y-103147916D01*
X185377380Y-103005059D01*
X185377380Y-102766964D01*
X185377380Y-104290773D02*
X185377380Y-103719345D01*
X185377380Y-104005059D02*
X184377380Y-104005059D01*
X184520238Y-103909821D01*
X184615476Y-103814583D01*
X184663095Y-103719345D01*
X184377380Y-105147916D02*
X184377380Y-104957440D01*
X184425000Y-104862202D01*
X184472619Y-104814583D01*
X184615476Y-104719345D01*
X184805952Y-104671726D01*
X185186904Y-104671726D01*
X185282142Y-104719345D01*
X185329761Y-104766964D01*
X185377380Y-104862202D01*
X185377380Y-105052678D01*
X185329761Y-105147916D01*
X185282142Y-105195535D01*
X185186904Y-105243154D01*
X184948809Y-105243154D01*
X184853571Y-105195535D01*
X184805952Y-105147916D01*
X184758333Y-105052678D01*
X184758333Y-104862202D01*
X184805952Y-104766964D01*
X184853571Y-104719345D01*
X184948809Y-104671726D01*
%TO.C,D9*%
X146483630Y-123880654D02*
X145483630Y-123880654D01*
X145483630Y-124118750D01*
X145531250Y-124261607D01*
X145626488Y-124356845D01*
X145721726Y-124404464D01*
X145912202Y-124452083D01*
X146055059Y-124452083D01*
X146245535Y-124404464D01*
X146340773Y-124356845D01*
X146436011Y-124261607D01*
X146483630Y-124118750D01*
X146483630Y-123880654D01*
X146483630Y-124928273D02*
X146483630Y-125118750D01*
X146436011Y-125213988D01*
X146388392Y-125261607D01*
X146245535Y-125356845D01*
X146055059Y-125404464D01*
X145674107Y-125404464D01*
X145578869Y-125356845D01*
X145531250Y-125309226D01*
X145483630Y-125213988D01*
X145483630Y-125023511D01*
X145531250Y-124928273D01*
X145578869Y-124880654D01*
X145674107Y-124833035D01*
X145912202Y-124833035D01*
X146007440Y-124880654D01*
X146055059Y-124928273D01*
X146102678Y-125023511D01*
X146102678Y-125213988D01*
X146055059Y-125309226D01*
X146007440Y-125356845D01*
X145912202Y-125404464D01*
%TO.C,C3*%
X211941666Y-74997142D02*
X211989285Y-75044761D01*
X212132142Y-75092380D01*
X212227380Y-75092380D01*
X212370238Y-75044761D01*
X212465476Y-74949523D01*
X212513095Y-74854285D01*
X212560714Y-74663809D01*
X212560714Y-74520952D01*
X212513095Y-74330476D01*
X212465476Y-74235238D01*
X212370238Y-74140000D01*
X212227380Y-74092380D01*
X212132142Y-74092380D01*
X211989285Y-74140000D01*
X211941666Y-74187619D01*
X211608333Y-74092380D02*
X210989285Y-74092380D01*
X211322619Y-74473333D01*
X211179761Y-74473333D01*
X211084523Y-74520952D01*
X211036904Y-74568571D01*
X210989285Y-74663809D01*
X210989285Y-74901904D01*
X211036904Y-74997142D01*
X211084523Y-75044761D01*
X211179761Y-75092380D01*
X211465476Y-75092380D01*
X211560714Y-75044761D01*
X211608333Y-74997142D01*
%TO.C,C_VDDA2*%
X44079761Y-90297142D02*
X44127380Y-90344761D01*
X44270238Y-90392380D01*
X44365476Y-90392380D01*
X44508333Y-90344761D01*
X44603571Y-90249523D01*
X44651190Y-90154285D01*
X44698809Y-89963809D01*
X44698809Y-89820952D01*
X44651190Y-89630476D01*
X44603571Y-89535238D01*
X44508333Y-89440000D01*
X44365476Y-89392380D01*
X44270238Y-89392380D01*
X44127380Y-89440000D01*
X44079761Y-89487619D01*
X43889285Y-90487619D02*
X43127380Y-90487619D01*
X43032142Y-89392380D02*
X42698809Y-90392380D01*
X42365476Y-89392380D01*
X42032142Y-90392380D02*
X42032142Y-89392380D01*
X41794047Y-89392380D01*
X41651190Y-89440000D01*
X41555952Y-89535238D01*
X41508333Y-89630476D01*
X41460714Y-89820952D01*
X41460714Y-89963809D01*
X41508333Y-90154285D01*
X41555952Y-90249523D01*
X41651190Y-90344761D01*
X41794047Y-90392380D01*
X42032142Y-90392380D01*
X41032142Y-90392380D02*
X41032142Y-89392380D01*
X40794047Y-89392380D01*
X40651190Y-89440000D01*
X40555952Y-89535238D01*
X40508333Y-89630476D01*
X40460714Y-89820952D01*
X40460714Y-89963809D01*
X40508333Y-90154285D01*
X40555952Y-90249523D01*
X40651190Y-90344761D01*
X40794047Y-90392380D01*
X41032142Y-90392380D01*
X40079761Y-90106666D02*
X39603571Y-90106666D01*
X40175000Y-90392380D02*
X39841666Y-89392380D01*
X39508333Y-90392380D01*
X39222619Y-89487619D02*
X39175000Y-89440000D01*
X39079761Y-89392380D01*
X38841666Y-89392380D01*
X38746428Y-89440000D01*
X38698809Y-89487619D01*
X38651190Y-89582857D01*
X38651190Y-89678095D01*
X38698809Y-89820952D01*
X39270238Y-90392380D01*
X38651190Y-90392380D01*
%TO.C,C_VDDIO2*%
X57203095Y-97487142D02*
X57250714Y-97534761D01*
X57393571Y-97582380D01*
X57488809Y-97582380D01*
X57631666Y-97534761D01*
X57726904Y-97439523D01*
X57774523Y-97344285D01*
X57822142Y-97153809D01*
X57822142Y-97010952D01*
X57774523Y-96820476D01*
X57726904Y-96725238D01*
X57631666Y-96630000D01*
X57488809Y-96582380D01*
X57393571Y-96582380D01*
X57250714Y-96630000D01*
X57203095Y-96677619D01*
X57012619Y-97677619D02*
X56250714Y-97677619D01*
X56155476Y-96582380D02*
X55822142Y-97582380D01*
X55488809Y-96582380D01*
X55155476Y-97582380D02*
X55155476Y-96582380D01*
X54917380Y-96582380D01*
X54774523Y-96630000D01*
X54679285Y-96725238D01*
X54631666Y-96820476D01*
X54584047Y-97010952D01*
X54584047Y-97153809D01*
X54631666Y-97344285D01*
X54679285Y-97439523D01*
X54774523Y-97534761D01*
X54917380Y-97582380D01*
X55155476Y-97582380D01*
X54155476Y-97582380D02*
X54155476Y-96582380D01*
X53917380Y-96582380D01*
X53774523Y-96630000D01*
X53679285Y-96725238D01*
X53631666Y-96820476D01*
X53584047Y-97010952D01*
X53584047Y-97153809D01*
X53631666Y-97344285D01*
X53679285Y-97439523D01*
X53774523Y-97534761D01*
X53917380Y-97582380D01*
X54155476Y-97582380D01*
X53155476Y-97582380D02*
X53155476Y-96582380D01*
X52488809Y-96582380D02*
X52298333Y-96582380D01*
X52203095Y-96630000D01*
X52107857Y-96725238D01*
X52060238Y-96915714D01*
X52060238Y-97249047D01*
X52107857Y-97439523D01*
X52203095Y-97534761D01*
X52298333Y-97582380D01*
X52488809Y-97582380D01*
X52584047Y-97534761D01*
X52679285Y-97439523D01*
X52726904Y-97249047D01*
X52726904Y-96915714D01*
X52679285Y-96725238D01*
X52584047Y-96630000D01*
X52488809Y-96582380D01*
X51679285Y-96677619D02*
X51631666Y-96630000D01*
X51536428Y-96582380D01*
X51298333Y-96582380D01*
X51203095Y-96630000D01*
X51155476Y-96677619D01*
X51107857Y-96772857D01*
X51107857Y-96868095D01*
X51155476Y-97010952D01*
X51726904Y-97582380D01*
X51107857Y-97582380D01*
%TO.C,D1*%
X56789880Y-66080654D02*
X55789880Y-66080654D01*
X55789880Y-66318750D01*
X55837500Y-66461607D01*
X55932738Y-66556845D01*
X56027976Y-66604464D01*
X56218452Y-66652083D01*
X56361309Y-66652083D01*
X56551785Y-66604464D01*
X56647023Y-66556845D01*
X56742261Y-66461607D01*
X56789880Y-66318750D01*
X56789880Y-66080654D01*
X56789880Y-67604464D02*
X56789880Y-67033035D01*
X56789880Y-67318750D02*
X55789880Y-67318750D01*
X55932738Y-67223511D01*
X56027976Y-67128273D01*
X56075595Y-67033035D01*
%TO.C,D8*%
X100446130Y-123086904D02*
X99446130Y-123086904D01*
X99446130Y-123325000D01*
X99493750Y-123467857D01*
X99588988Y-123563095D01*
X99684226Y-123610714D01*
X99874702Y-123658333D01*
X100017559Y-123658333D01*
X100208035Y-123610714D01*
X100303273Y-123563095D01*
X100398511Y-123467857D01*
X100446130Y-123325000D01*
X100446130Y-123086904D01*
X99874702Y-124229761D02*
X99827083Y-124134523D01*
X99779464Y-124086904D01*
X99684226Y-124039285D01*
X99636607Y-124039285D01*
X99541369Y-124086904D01*
X99493750Y-124134523D01*
X99446130Y-124229761D01*
X99446130Y-124420238D01*
X99493750Y-124515476D01*
X99541369Y-124563095D01*
X99636607Y-124610714D01*
X99684226Y-124610714D01*
X99779464Y-124563095D01*
X99827083Y-124515476D01*
X99874702Y-124420238D01*
X99874702Y-124229761D01*
X99922321Y-124134523D01*
X99969940Y-124086904D01*
X100065178Y-124039285D01*
X100255654Y-124039285D01*
X100350892Y-124086904D01*
X100398511Y-124134523D01*
X100446130Y-124229761D01*
X100446130Y-124420238D01*
X100398511Y-124515476D01*
X100350892Y-124563095D01*
X100255654Y-124610714D01*
X100065178Y-124610714D01*
X99969940Y-124563095D01*
X99922321Y-124515476D01*
X99874702Y-124420238D01*
%TO.C,D2*%
X61552380Y-84193154D02*
X60552380Y-84193154D01*
X60552380Y-84431250D01*
X60600000Y-84574107D01*
X60695238Y-84669345D01*
X60790476Y-84716964D01*
X60980952Y-84764583D01*
X61123809Y-84764583D01*
X61314285Y-84716964D01*
X61409523Y-84669345D01*
X61504761Y-84574107D01*
X61552380Y-84431250D01*
X61552380Y-84193154D01*
X60647619Y-85145535D02*
X60600000Y-85193154D01*
X60552380Y-85288392D01*
X60552380Y-85526488D01*
X60600000Y-85621726D01*
X60647619Y-85669345D01*
X60742857Y-85716964D01*
X60838095Y-85716964D01*
X60980952Y-85669345D01*
X61552380Y-85097916D01*
X61552380Y-85716964D01*
%TO.C,R5*%
X218891130Y-70058333D02*
X218414940Y-69725000D01*
X218891130Y-69486904D02*
X217891130Y-69486904D01*
X217891130Y-69867857D01*
X217938750Y-69963095D01*
X217986369Y-70010714D01*
X218081607Y-70058333D01*
X218224464Y-70058333D01*
X218319702Y-70010714D01*
X218367321Y-69963095D01*
X218414940Y-69867857D01*
X218414940Y-69486904D01*
X217891130Y-70963095D02*
X217891130Y-70486904D01*
X218367321Y-70439285D01*
X218319702Y-70486904D01*
X218272083Y-70582142D01*
X218272083Y-70820238D01*
X218319702Y-70915476D01*
X218367321Y-70963095D01*
X218462559Y-71010714D01*
X218700654Y-71010714D01*
X218795892Y-70963095D01*
X218843511Y-70915476D01*
X218891130Y-70820238D01*
X218891130Y-70582142D01*
X218843511Y-70486904D01*
X218795892Y-70439285D01*
%TO.C,C2*%
X40956666Y-92137142D02*
X41004285Y-92184761D01*
X41147142Y-92232380D01*
X41242380Y-92232380D01*
X41385238Y-92184761D01*
X41480476Y-92089523D01*
X41528095Y-91994285D01*
X41575714Y-91803809D01*
X41575714Y-91660952D01*
X41528095Y-91470476D01*
X41480476Y-91375238D01*
X41385238Y-91280000D01*
X41242380Y-91232380D01*
X41147142Y-91232380D01*
X41004285Y-91280000D01*
X40956666Y-91327619D01*
X40575714Y-91327619D02*
X40528095Y-91280000D01*
X40432857Y-91232380D01*
X40194761Y-91232380D01*
X40099523Y-91280000D01*
X40051904Y-91327619D01*
X40004285Y-91422857D01*
X40004285Y-91518095D01*
X40051904Y-91660952D01*
X40623333Y-92232380D01*
X40004285Y-92232380D01*
%TO.C,D6*%
X99652380Y-84193154D02*
X98652380Y-84193154D01*
X98652380Y-84431250D01*
X98700000Y-84574107D01*
X98795238Y-84669345D01*
X98890476Y-84716964D01*
X99080952Y-84764583D01*
X99223809Y-84764583D01*
X99414285Y-84716964D01*
X99509523Y-84669345D01*
X99604761Y-84574107D01*
X99652380Y-84431250D01*
X99652380Y-84193154D01*
X98652380Y-85621726D02*
X98652380Y-85431250D01*
X98700000Y-85336011D01*
X98747619Y-85288392D01*
X98890476Y-85193154D01*
X99080952Y-85145535D01*
X99461904Y-85145535D01*
X99557142Y-85193154D01*
X99604761Y-85240773D01*
X99652380Y-85336011D01*
X99652380Y-85526488D01*
X99604761Y-85621726D01*
X99557142Y-85669345D01*
X99461904Y-85716964D01*
X99223809Y-85716964D01*
X99128571Y-85669345D01*
X99080952Y-85621726D01*
X99033333Y-85526488D01*
X99033333Y-85336011D01*
X99080952Y-85240773D01*
X99128571Y-85193154D01*
X99223809Y-85145535D01*
%TO.C,D10*%
X132989880Y-65460714D02*
X131989880Y-65460714D01*
X131989880Y-65698809D01*
X132037500Y-65841666D01*
X132132738Y-65936904D01*
X132227976Y-65984523D01*
X132418452Y-66032142D01*
X132561309Y-66032142D01*
X132751785Y-65984523D01*
X132847023Y-65936904D01*
X132942261Y-65841666D01*
X132989880Y-65698809D01*
X132989880Y-65460714D01*
X132989880Y-66984523D02*
X132989880Y-66413095D01*
X132989880Y-66698809D02*
X131989880Y-66698809D01*
X132132738Y-66603571D01*
X132227976Y-66508333D01*
X132275595Y-66413095D01*
X131989880Y-67603571D02*
X131989880Y-67698809D01*
X132037500Y-67794047D01*
X132085119Y-67841666D01*
X132180357Y-67889285D01*
X132370833Y-67936904D01*
X132608928Y-67936904D01*
X132799404Y-67889285D01*
X132894642Y-67841666D01*
X132942261Y-67794047D01*
X132989880Y-67698809D01*
X132989880Y-67603571D01*
X132942261Y-67508333D01*
X132894642Y-67460714D01*
X132799404Y-67413095D01*
X132608928Y-67365476D01*
X132370833Y-67365476D01*
X132180357Y-67413095D01*
X132085119Y-67460714D01*
X132037500Y-67508333D01*
X131989880Y-67603571D01*
%TO.C,D5*%
X94889880Y-66080654D02*
X93889880Y-66080654D01*
X93889880Y-66318750D01*
X93937500Y-66461607D01*
X94032738Y-66556845D01*
X94127976Y-66604464D01*
X94318452Y-66652083D01*
X94461309Y-66652083D01*
X94651785Y-66604464D01*
X94747023Y-66556845D01*
X94842261Y-66461607D01*
X94889880Y-66318750D01*
X94889880Y-66080654D01*
X93889880Y-67556845D02*
X93889880Y-67080654D01*
X94366071Y-67033035D01*
X94318452Y-67080654D01*
X94270833Y-67175892D01*
X94270833Y-67413988D01*
X94318452Y-67509226D01*
X94366071Y-67556845D01*
X94461309Y-67604464D01*
X94699404Y-67604464D01*
X94794642Y-67556845D01*
X94842261Y-67509226D01*
X94889880Y-67413988D01*
X94889880Y-67175892D01*
X94842261Y-67080654D01*
X94794642Y-67033035D01*
%TO.C,D18*%
X191542380Y-65225714D02*
X190542380Y-65225714D01*
X190542380Y-65463809D01*
X190590000Y-65606666D01*
X190685238Y-65701904D01*
X190780476Y-65749523D01*
X190970952Y-65797142D01*
X191113809Y-65797142D01*
X191304285Y-65749523D01*
X191399523Y-65701904D01*
X191494761Y-65606666D01*
X191542380Y-65463809D01*
X191542380Y-65225714D01*
X191542380Y-66749523D02*
X191542380Y-66178095D01*
X191542380Y-66463809D02*
X190542380Y-66463809D01*
X190685238Y-66368571D01*
X190780476Y-66273333D01*
X190828095Y-66178095D01*
X190970952Y-67320952D02*
X190923333Y-67225714D01*
X190875714Y-67178095D01*
X190780476Y-67130476D01*
X190732857Y-67130476D01*
X190637619Y-67178095D01*
X190590000Y-67225714D01*
X190542380Y-67320952D01*
X190542380Y-67511428D01*
X190590000Y-67606666D01*
X190637619Y-67654285D01*
X190732857Y-67701904D01*
X190780476Y-67701904D01*
X190875714Y-67654285D01*
X190923333Y-67606666D01*
X190970952Y-67511428D01*
X190970952Y-67320952D01*
X191018571Y-67225714D01*
X191066190Y-67178095D01*
X191161428Y-67130476D01*
X191351904Y-67130476D01*
X191447142Y-67178095D01*
X191494761Y-67225714D01*
X191542380Y-67320952D01*
X191542380Y-67511428D01*
X191494761Y-67606666D01*
X191447142Y-67654285D01*
X191351904Y-67701904D01*
X191161428Y-67701904D01*
X191066190Y-67654285D01*
X191018571Y-67606666D01*
X190970952Y-67511428D01*
%TO.C,C_VDD1*%
X53837142Y-85983809D02*
X53884761Y-85936190D01*
X53932380Y-85793333D01*
X53932380Y-85698095D01*
X53884761Y-85555238D01*
X53789523Y-85460000D01*
X53694285Y-85412380D01*
X53503809Y-85364761D01*
X53360952Y-85364761D01*
X53170476Y-85412380D01*
X53075238Y-85460000D01*
X52980000Y-85555238D01*
X52932380Y-85698095D01*
X52932380Y-85793333D01*
X52980000Y-85936190D01*
X53027619Y-85983809D01*
X54027619Y-86174285D02*
X54027619Y-86936190D01*
X52932380Y-87031428D02*
X53932380Y-87364761D01*
X52932380Y-87698095D01*
X53932380Y-88031428D02*
X52932380Y-88031428D01*
X52932380Y-88269523D01*
X52980000Y-88412380D01*
X53075238Y-88507619D01*
X53170476Y-88555238D01*
X53360952Y-88602857D01*
X53503809Y-88602857D01*
X53694285Y-88555238D01*
X53789523Y-88507619D01*
X53884761Y-88412380D01*
X53932380Y-88269523D01*
X53932380Y-88031428D01*
X53932380Y-89031428D02*
X52932380Y-89031428D01*
X52932380Y-89269523D01*
X52980000Y-89412380D01*
X53075238Y-89507619D01*
X53170476Y-89555238D01*
X53360952Y-89602857D01*
X53503809Y-89602857D01*
X53694285Y-89555238D01*
X53789523Y-89507619D01*
X53884761Y-89412380D01*
X53932380Y-89269523D01*
X53932380Y-89031428D01*
X53932380Y-90555238D02*
X53932380Y-89983809D01*
X53932380Y-90269523D02*
X52932380Y-90269523D01*
X53075238Y-90174285D01*
X53170476Y-90079047D01*
X53218095Y-89983809D01*
%TO.C,U2*%
X214302380Y-79313095D02*
X215111904Y-79313095D01*
X215207142Y-79360714D01*
X215254761Y-79408333D01*
X215302380Y-79503571D01*
X215302380Y-79694047D01*
X215254761Y-79789285D01*
X215207142Y-79836904D01*
X215111904Y-79884523D01*
X214302380Y-79884523D01*
X214397619Y-80313095D02*
X214350000Y-80360714D01*
X214302380Y-80455952D01*
X214302380Y-80694047D01*
X214350000Y-80789285D01*
X214397619Y-80836904D01*
X214492857Y-80884523D01*
X214588095Y-80884523D01*
X214730952Y-80836904D01*
X215302380Y-80265476D01*
X215302380Y-80884523D01*
%TO.C,SW1*%
X69784761Y-110086666D02*
X69832380Y-110229523D01*
X69832380Y-110467619D01*
X69784761Y-110562857D01*
X69737142Y-110610476D01*
X69641904Y-110658095D01*
X69546666Y-110658095D01*
X69451428Y-110610476D01*
X69403809Y-110562857D01*
X69356190Y-110467619D01*
X69308571Y-110277142D01*
X69260952Y-110181904D01*
X69213333Y-110134285D01*
X69118095Y-110086666D01*
X69022857Y-110086666D01*
X68927619Y-110134285D01*
X68880000Y-110181904D01*
X68832380Y-110277142D01*
X68832380Y-110515238D01*
X68880000Y-110658095D01*
X68832380Y-110991428D02*
X69832380Y-111229523D01*
X69118095Y-111420000D01*
X69832380Y-111610476D01*
X68832380Y-111848571D01*
X69832380Y-112753333D02*
X69832380Y-112181904D01*
X69832380Y-112467619D02*
X68832380Y-112467619D01*
X68975238Y-112372380D01*
X69070476Y-112277142D01*
X69118095Y-112181904D01*
%TO.C,D19*%
X213952380Y-83716964D02*
X212952380Y-83716964D01*
X212952380Y-83955059D01*
X213000000Y-84097916D01*
X213095238Y-84193154D01*
X213190476Y-84240773D01*
X213380952Y-84288392D01*
X213523809Y-84288392D01*
X213714285Y-84240773D01*
X213809523Y-84193154D01*
X213904761Y-84097916D01*
X213952380Y-83955059D01*
X213952380Y-83716964D01*
X213952380Y-85240773D02*
X213952380Y-84669345D01*
X213952380Y-84955059D02*
X212952380Y-84955059D01*
X213095238Y-84859821D01*
X213190476Y-84764583D01*
X213238095Y-84669345D01*
X213952380Y-85716964D02*
X213952380Y-85907440D01*
X213904761Y-86002678D01*
X213857142Y-86050297D01*
X213714285Y-86145535D01*
X213523809Y-86193154D01*
X213142857Y-86193154D01*
X213047619Y-86145535D01*
X213000000Y-86097916D01*
X212952380Y-86002678D01*
X212952380Y-85812202D01*
X213000000Y-85716964D01*
X213047619Y-85669345D01*
X213142857Y-85621726D01*
X213380952Y-85621726D01*
X213476190Y-85669345D01*
X213523809Y-85716964D01*
X213571428Y-85812202D01*
X213571428Y-86002678D01*
X213523809Y-86097916D01*
X213476190Y-86145535D01*
X213380952Y-86193154D01*
%TO.C,C_VDD2*%
X46061190Y-97737142D02*
X46108809Y-97784761D01*
X46251666Y-97832380D01*
X46346904Y-97832380D01*
X46489761Y-97784761D01*
X46585000Y-97689523D01*
X46632619Y-97594285D01*
X46680238Y-97403809D01*
X46680238Y-97260952D01*
X46632619Y-97070476D01*
X46585000Y-96975238D01*
X46489761Y-96880000D01*
X46346904Y-96832380D01*
X46251666Y-96832380D01*
X46108809Y-96880000D01*
X46061190Y-96927619D01*
X45870714Y-97927619D02*
X45108809Y-97927619D01*
X45013571Y-96832380D02*
X44680238Y-97832380D01*
X44346904Y-96832380D01*
X44013571Y-97832380D02*
X44013571Y-96832380D01*
X43775476Y-96832380D01*
X43632619Y-96880000D01*
X43537380Y-96975238D01*
X43489761Y-97070476D01*
X43442142Y-97260952D01*
X43442142Y-97403809D01*
X43489761Y-97594285D01*
X43537380Y-97689523D01*
X43632619Y-97784761D01*
X43775476Y-97832380D01*
X44013571Y-97832380D01*
X43013571Y-97832380D02*
X43013571Y-96832380D01*
X42775476Y-96832380D01*
X42632619Y-96880000D01*
X42537380Y-96975238D01*
X42489761Y-97070476D01*
X42442142Y-97260952D01*
X42442142Y-97403809D01*
X42489761Y-97594285D01*
X42537380Y-97689523D01*
X42632619Y-97784761D01*
X42775476Y-97832380D01*
X43013571Y-97832380D01*
X42061190Y-96927619D02*
X42013571Y-96880000D01*
X41918333Y-96832380D01*
X41680238Y-96832380D01*
X41585000Y-96880000D01*
X41537380Y-96927619D01*
X41489761Y-97022857D01*
X41489761Y-97118095D01*
X41537380Y-97260952D01*
X42108809Y-97832380D01*
X41489761Y-97832380D01*
%TO.C,D4*%
X60758630Y-123086904D02*
X59758630Y-123086904D01*
X59758630Y-123325000D01*
X59806250Y-123467857D01*
X59901488Y-123563095D01*
X59996726Y-123610714D01*
X60187202Y-123658333D01*
X60330059Y-123658333D01*
X60520535Y-123610714D01*
X60615773Y-123563095D01*
X60711011Y-123467857D01*
X60758630Y-123325000D01*
X60758630Y-123086904D01*
X60091964Y-124515476D02*
X60758630Y-124515476D01*
X59711011Y-124277380D02*
X60425297Y-124039285D01*
X60425297Y-124658333D01*
%TO.C,Q1*%
X56342738Y-105887619D02*
X56437976Y-105840000D01*
X56533214Y-105744761D01*
X56676071Y-105601904D01*
X56771309Y-105554285D01*
X56866547Y-105554285D01*
X56818928Y-105792380D02*
X56914166Y-105744761D01*
X57009404Y-105649523D01*
X57057023Y-105459047D01*
X57057023Y-105125714D01*
X57009404Y-104935238D01*
X56914166Y-104840000D01*
X56818928Y-104792380D01*
X56628452Y-104792380D01*
X56533214Y-104840000D01*
X56437976Y-104935238D01*
X56390357Y-105125714D01*
X56390357Y-105459047D01*
X56437976Y-105649523D01*
X56533214Y-105744761D01*
X56628452Y-105792380D01*
X56818928Y-105792380D01*
X55437976Y-105792380D02*
X56009404Y-105792380D01*
X55723690Y-105792380D02*
X55723690Y-104792380D01*
X55818928Y-104935238D01*
X55914166Y-105030476D01*
X56009404Y-105078095D01*
%TO.C,D12*%
X147277380Y-102766964D02*
X146277380Y-102766964D01*
X146277380Y-103005059D01*
X146325000Y-103147916D01*
X146420238Y-103243154D01*
X146515476Y-103290773D01*
X146705952Y-103338392D01*
X146848809Y-103338392D01*
X147039285Y-103290773D01*
X147134523Y-103243154D01*
X147229761Y-103147916D01*
X147277380Y-103005059D01*
X147277380Y-102766964D01*
X147277380Y-104290773D02*
X147277380Y-103719345D01*
X147277380Y-104005059D02*
X146277380Y-104005059D01*
X146420238Y-103909821D01*
X146515476Y-103814583D01*
X146563095Y-103719345D01*
X146372619Y-104671726D02*
X146325000Y-104719345D01*
X146277380Y-104814583D01*
X146277380Y-105052678D01*
X146325000Y-105147916D01*
X146372619Y-105195535D01*
X146467857Y-105243154D01*
X146563095Y-105243154D01*
X146705952Y-105195535D01*
X147277380Y-104624107D01*
X147277380Y-105243154D01*
%TO.C,R4*%
X213347380Y-67548333D02*
X212871190Y-67215000D01*
X213347380Y-66976904D02*
X212347380Y-66976904D01*
X212347380Y-67357857D01*
X212395000Y-67453095D01*
X212442619Y-67500714D01*
X212537857Y-67548333D01*
X212680714Y-67548333D01*
X212775952Y-67500714D01*
X212823571Y-67453095D01*
X212871190Y-67357857D01*
X212871190Y-66976904D01*
X212680714Y-68405476D02*
X213347380Y-68405476D01*
X212299761Y-68167380D02*
X213014047Y-67929285D01*
X213014047Y-68548333D01*
%TO.C,F1*%
X212433571Y-64641666D02*
X212433571Y-64308333D01*
X212957380Y-64308333D02*
X211957380Y-64308333D01*
X211957380Y-64784523D01*
X212957380Y-65689285D02*
X212957380Y-65117857D01*
X212957380Y-65403571D02*
X211957380Y-65403571D01*
X212100238Y-65308333D01*
X212195476Y-65213095D01*
X212243095Y-65117857D01*
%TO.C,D14*%
X171089880Y-65460714D02*
X170089880Y-65460714D01*
X170089880Y-65698809D01*
X170137500Y-65841666D01*
X170232738Y-65936904D01*
X170327976Y-65984523D01*
X170518452Y-66032142D01*
X170661309Y-66032142D01*
X170851785Y-65984523D01*
X170947023Y-65936904D01*
X171042261Y-65841666D01*
X171089880Y-65698809D01*
X171089880Y-65460714D01*
X171089880Y-66984523D02*
X171089880Y-66413095D01*
X171089880Y-66698809D02*
X170089880Y-66698809D01*
X170232738Y-66603571D01*
X170327976Y-66508333D01*
X170375595Y-66413095D01*
X170423214Y-67841666D02*
X171089880Y-67841666D01*
X170042261Y-67603571D02*
X170756547Y-67365476D01*
X170756547Y-67984523D01*
%TO.C,R3*%
X70862380Y-113893333D02*
X70386190Y-113560000D01*
X70862380Y-113321904D02*
X69862380Y-113321904D01*
X69862380Y-113702857D01*
X69910000Y-113798095D01*
X69957619Y-113845714D01*
X70052857Y-113893333D01*
X70195714Y-113893333D01*
X70290952Y-113845714D01*
X70338571Y-113798095D01*
X70386190Y-113702857D01*
X70386190Y-113321904D01*
X69862380Y-114226666D02*
X69862380Y-114845714D01*
X70243333Y-114512380D01*
X70243333Y-114655238D01*
X70290952Y-114750476D01*
X70338571Y-114798095D01*
X70433809Y-114845714D01*
X70671904Y-114845714D01*
X70767142Y-114798095D01*
X70814761Y-114750476D01*
X70862380Y-114655238D01*
X70862380Y-114369523D01*
X70814761Y-114274285D01*
X70767142Y-114226666D01*
%TO.C,D15*%
X175852380Y-83716964D02*
X174852380Y-83716964D01*
X174852380Y-83955059D01*
X174900000Y-84097916D01*
X174995238Y-84193154D01*
X175090476Y-84240773D01*
X175280952Y-84288392D01*
X175423809Y-84288392D01*
X175614285Y-84240773D01*
X175709523Y-84193154D01*
X175804761Y-84097916D01*
X175852380Y-83955059D01*
X175852380Y-83716964D01*
X175852380Y-85240773D02*
X175852380Y-84669345D01*
X175852380Y-84955059D02*
X174852380Y-84955059D01*
X174995238Y-84859821D01*
X175090476Y-84764583D01*
X175138095Y-84669345D01*
X174852380Y-86145535D02*
X174852380Y-85669345D01*
X175328571Y-85621726D01*
X175280952Y-85669345D01*
X175233333Y-85764583D01*
X175233333Y-86002678D01*
X175280952Y-86097916D01*
X175328571Y-86145535D01*
X175423809Y-86193154D01*
X175661904Y-86193154D01*
X175757142Y-86145535D01*
X175804761Y-86097916D01*
X175852380Y-86002678D01*
X175852380Y-85764583D01*
X175804761Y-85669345D01*
X175757142Y-85621726D01*
%TO.C,C2*%
X57167142Y-111123333D02*
X57214761Y-111075714D01*
X57262380Y-110932857D01*
X57262380Y-110837619D01*
X57214761Y-110694761D01*
X57119523Y-110599523D01*
X57024285Y-110551904D01*
X56833809Y-110504285D01*
X56690952Y-110504285D01*
X56500476Y-110551904D01*
X56405238Y-110599523D01*
X56310000Y-110694761D01*
X56262380Y-110837619D01*
X56262380Y-110932857D01*
X56310000Y-111075714D01*
X56357619Y-111123333D01*
X56357619Y-111504285D02*
X56310000Y-111551904D01*
X56262380Y-111647142D01*
X56262380Y-111885238D01*
X56310000Y-111980476D01*
X56357619Y-112028095D01*
X56452857Y-112075714D01*
X56548095Y-112075714D01*
X56690952Y-112028095D01*
X57262380Y-111456666D01*
X57262380Y-112075714D01*
%TO.C,D11*%
X137752380Y-83716964D02*
X136752380Y-83716964D01*
X136752380Y-83955059D01*
X136800000Y-84097916D01*
X136895238Y-84193154D01*
X136990476Y-84240773D01*
X137180952Y-84288392D01*
X137323809Y-84288392D01*
X137514285Y-84240773D01*
X137609523Y-84193154D01*
X137704761Y-84097916D01*
X137752380Y-83955059D01*
X137752380Y-83716964D01*
X137752380Y-85240773D02*
X137752380Y-84669345D01*
X137752380Y-84955059D02*
X136752380Y-84955059D01*
X136895238Y-84859821D01*
X136990476Y-84764583D01*
X137038095Y-84669345D01*
X137752380Y-86193154D02*
X137752380Y-85621726D01*
X137752380Y-85907440D02*
X136752380Y-85907440D01*
X136895238Y-85812202D01*
X136990476Y-85716964D01*
X137038095Y-85621726D01*
%TO.C,R1*%
X61616666Y-107552380D02*
X61950000Y-107076190D01*
X62188095Y-107552380D02*
X62188095Y-106552380D01*
X61807142Y-106552380D01*
X61711904Y-106600000D01*
X61664285Y-106647619D01*
X61616666Y-106742857D01*
X61616666Y-106885714D01*
X61664285Y-106980952D01*
X61711904Y-107028571D01*
X61807142Y-107076190D01*
X62188095Y-107076190D01*
X60664285Y-107552380D02*
X61235714Y-107552380D01*
X60950000Y-107552380D02*
X60950000Y-106552380D01*
X61045238Y-106695238D01*
X61140476Y-106790476D01*
X61235714Y-106838095D01*
%TO.C,U1*%
X49591904Y-97832380D02*
X49591904Y-98641904D01*
X49544285Y-98737142D01*
X49496666Y-98784761D01*
X49401428Y-98832380D01*
X49210952Y-98832380D01*
X49115714Y-98784761D01*
X49068095Y-98737142D01*
X49020476Y-98641904D01*
X49020476Y-97832380D01*
X48020476Y-98832380D02*
X48591904Y-98832380D01*
X48306190Y-98832380D02*
X48306190Y-97832380D01*
X48401428Y-97975238D01*
X48496666Y-98070476D01*
X48591904Y-98118095D01*
%TO.C,J2*%
X213852083Y-63041130D02*
X213852083Y-63755416D01*
X213899702Y-63898273D01*
X213994940Y-63993511D01*
X214137797Y-64041130D01*
X214233035Y-64041130D01*
X213423511Y-63136369D02*
X213375892Y-63088750D01*
X213280654Y-63041130D01*
X213042559Y-63041130D01*
X212947321Y-63088750D01*
X212899702Y-63136369D01*
X212852083Y-63231607D01*
X212852083Y-63326845D01*
X212899702Y-63469702D01*
X213471130Y-64041130D01*
X212852083Y-64041130D01*
%TO.C,D17*%
X215539880Y-123404464D02*
X214539880Y-123404464D01*
X214539880Y-123642559D01*
X214587500Y-123785416D01*
X214682738Y-123880654D01*
X214777976Y-123928273D01*
X214968452Y-123975892D01*
X215111309Y-123975892D01*
X215301785Y-123928273D01*
X215397023Y-123880654D01*
X215492261Y-123785416D01*
X215539880Y-123642559D01*
X215539880Y-123404464D01*
X215539880Y-124928273D02*
X215539880Y-124356845D01*
X215539880Y-124642559D02*
X214539880Y-124642559D01*
X214682738Y-124547321D01*
X214777976Y-124452083D01*
X214825595Y-124356845D01*
X214539880Y-125261607D02*
X214539880Y-125928273D01*
X215539880Y-125499702D01*
%TO.C,C1*%
X62937142Y-105983333D02*
X62984761Y-105935714D01*
X63032380Y-105792857D01*
X63032380Y-105697619D01*
X62984761Y-105554761D01*
X62889523Y-105459523D01*
X62794285Y-105411904D01*
X62603809Y-105364285D01*
X62460952Y-105364285D01*
X62270476Y-105411904D01*
X62175238Y-105459523D01*
X62080000Y-105554761D01*
X62032380Y-105697619D01*
X62032380Y-105792857D01*
X62080000Y-105935714D01*
X62127619Y-105983333D01*
X63032380Y-106935714D02*
X63032380Y-106364285D01*
X63032380Y-106650000D02*
X62032380Y-106650000D01*
X62175238Y-106554761D01*
X62270476Y-106459523D01*
X62318095Y-106364285D01*
%TO.C,C4*%
X211186666Y-84017142D02*
X211234285Y-84064761D01*
X211377142Y-84112380D01*
X211472380Y-84112380D01*
X211615238Y-84064761D01*
X211710476Y-83969523D01*
X211758095Y-83874285D01*
X211805714Y-83683809D01*
X211805714Y-83540952D01*
X211758095Y-83350476D01*
X211710476Y-83255238D01*
X211615238Y-83160000D01*
X211472380Y-83112380D01*
X211377142Y-83112380D01*
X211234285Y-83160000D01*
X211186666Y-83207619D01*
X210329523Y-83445714D02*
X210329523Y-84112380D01*
X210567619Y-83064761D02*
X210805714Y-83779047D01*
X210186666Y-83779047D01*
%TO.C,D20*%
X209189880Y-102766964D02*
X208189880Y-102766964D01*
X208189880Y-103005059D01*
X208237500Y-103147916D01*
X208332738Y-103243154D01*
X208427976Y-103290773D01*
X208618452Y-103338392D01*
X208761309Y-103338392D01*
X208951785Y-103290773D01*
X209047023Y-103243154D01*
X209142261Y-103147916D01*
X209189880Y-103005059D01*
X209189880Y-102766964D01*
X208285119Y-103719345D02*
X208237500Y-103766964D01*
X208189880Y-103862202D01*
X208189880Y-104100297D01*
X208237500Y-104195535D01*
X208285119Y-104243154D01*
X208380357Y-104290773D01*
X208475595Y-104290773D01*
X208618452Y-104243154D01*
X209189880Y-103671726D01*
X209189880Y-104290773D01*
X208189880Y-104909821D02*
X208189880Y-105005059D01*
X208237500Y-105100297D01*
X208285119Y-105147916D01*
X208380357Y-105195535D01*
X208570833Y-105243154D01*
X208808928Y-105243154D01*
X208999404Y-105195535D01*
X209094642Y-105147916D01*
X209142261Y-105100297D01*
X209189880Y-105005059D01*
X209189880Y-104909821D01*
X209142261Y-104814583D01*
X209094642Y-104766964D01*
X208999404Y-104719345D01*
X208808928Y-104671726D01*
X208570833Y-104671726D01*
X208380357Y-104719345D01*
X208285119Y-104766964D01*
X208237500Y-104814583D01*
X208189880Y-104909821D01*
%TO.C,D_PWR1*%
X205970476Y-75302380D02*
X205970476Y-74302380D01*
X205732380Y-74302380D01*
X205589523Y-74350000D01*
X205494285Y-74445238D01*
X205446666Y-74540476D01*
X205399047Y-74730952D01*
X205399047Y-74873809D01*
X205446666Y-75064285D01*
X205494285Y-75159523D01*
X205589523Y-75254761D01*
X205732380Y-75302380D01*
X205970476Y-75302380D01*
X205208571Y-75397619D02*
X204446666Y-75397619D01*
X204208571Y-75302380D02*
X204208571Y-74302380D01*
X203827619Y-74302380D01*
X203732380Y-74350000D01*
X203684761Y-74397619D01*
X203637142Y-74492857D01*
X203637142Y-74635714D01*
X203684761Y-74730952D01*
X203732380Y-74778571D01*
X203827619Y-74826190D01*
X204208571Y-74826190D01*
X203303809Y-74302380D02*
X203065714Y-75302380D01*
X202875238Y-74588095D01*
X202684761Y-75302380D01*
X202446666Y-74302380D01*
X201494285Y-75302380D02*
X201827619Y-74826190D01*
X202065714Y-75302380D02*
X202065714Y-74302380D01*
X201684761Y-74302380D01*
X201589523Y-74350000D01*
X201541904Y-74397619D01*
X201494285Y-74492857D01*
X201494285Y-74635714D01*
X201541904Y-74730952D01*
X201589523Y-74778571D01*
X201684761Y-74826190D01*
X202065714Y-74826190D01*
X200541904Y-75302380D02*
X201113333Y-75302380D01*
X200827619Y-75302380D02*
X200827619Y-74302380D01*
X200922857Y-74445238D01*
X201018095Y-74540476D01*
X201113333Y-74588095D01*
D11*
%TO.C,C_VDDIO1*%
X54600580Y-96560000D02*
X54319420Y-96560000D01*
X54600580Y-97580000D02*
X54319420Y-97580000D01*
%TO.C,D13*%
X174652500Y-124618750D02*
X174652500Y-125268750D01*
X174652500Y-124618750D02*
X174652500Y-122943750D01*
X177772500Y-124618750D02*
X177772500Y-123968750D01*
X177772500Y-124618750D02*
X177772500Y-125268750D01*
%TO.C,J1*%
X211548500Y-72796500D02*
X212538500Y-72796500D01*
X209048500Y-73846500D02*
X211548500Y-73846500D01*
X207078500Y-72676500D02*
X207078500Y-68796500D01*
X209048500Y-67626500D02*
X211548500Y-67626500D01*
X211548500Y-73846500D02*
X211548500Y-72796500D01*
X211548500Y-67626500D02*
X211548500Y-68676500D01*
%TO.C,D7*%
X109565000Y-103981250D02*
X109565000Y-104631250D01*
X112685000Y-103981250D02*
X112685000Y-104631250D01*
X112685000Y-103981250D02*
X112685000Y-103331250D01*
X109565000Y-103981250D02*
X109565000Y-102306250D01*
%TO.C,D3*%
X69822500Y-103981250D02*
X69822500Y-103331250D01*
X66702500Y-103981250D02*
X66702500Y-102306250D01*
X69822500Y-103981250D02*
X69822500Y-104631250D01*
X66702500Y-103981250D02*
X66702500Y-104631250D01*
%TO.C,R2*%
X60833641Y-106410000D02*
X60526359Y-106410000D01*
X60833641Y-105650000D02*
X60526359Y-105650000D01*
%TO.C,U3*%
X215590000Y-70225000D02*
X215590000Y-69425000D01*
X218710000Y-70225000D02*
X218710000Y-69425000D01*
X215590000Y-70225000D02*
X215590000Y-71025000D01*
X218710000Y-70225000D02*
X218710000Y-72025000D01*
%TO.C,C_VDDA1*%
X41830580Y-90370000D02*
X41549420Y-90370000D01*
X41830580Y-89350000D02*
X41549420Y-89350000D01*
%TO.C,R_USB1*%
X57412500Y-95717258D02*
X57412500Y-95242742D01*
X56367500Y-95717258D02*
X56367500Y-95242742D01*
%TO.C,G\u002A\u002A\u002A*%
G36*
X146813810Y-108047427D02*
G01*
X146736171Y-108112500D01*
X146528107Y-108182584D01*
X146194298Y-108200121D01*
X145718119Y-108194433D01*
X145718119Y-107725979D01*
X146116377Y-107725979D01*
X146159868Y-107787204D01*
X146315506Y-107842762D01*
X146453544Y-107835522D01*
X146514634Y-107725979D01*
X146477785Y-107630653D01*
X146315506Y-107609197D01*
X146191649Y-107646117D01*
X146116377Y-107725979D01*
X145718119Y-107725979D01*
X145718119Y-107557523D01*
X145729152Y-107242661D01*
X145766470Y-106961613D01*
X145824321Y-106814412D01*
X145876706Y-106782165D01*
X146081886Y-106729147D01*
X146355331Y-106708209D01*
X146502758Y-106709714D01*
X146687565Y-106730635D01*
X146764673Y-106795231D01*
X146780140Y-106927251D01*
X146772449Y-107040070D01*
X146705957Y-107113046D01*
X146525368Y-107095339D01*
X146334457Y-107085827D01*
X146210389Y-107141802D01*
X146222062Y-107210373D01*
X146382477Y-107239220D01*
X146521303Y-107250004D01*
X146791033Y-107356873D01*
X146942431Y-107549264D01*
X146952621Y-107725979D01*
X146956392Y-107791382D01*
X146813810Y-108047427D01*
G37*
G36*
X150189755Y-106709888D02*
G01*
X150323800Y-106749324D01*
X150417191Y-106874334D01*
X150509149Y-107128593D01*
X150640663Y-107548976D01*
X150802216Y-107128593D01*
X150916629Y-106873147D01*
X151029917Y-106742914D01*
X151173000Y-106708209D01*
X151179386Y-106708225D01*
X151301323Y-106723529D01*
X151358243Y-106786828D01*
X151348404Y-106926551D01*
X151270066Y-107171125D01*
X151121486Y-107548976D01*
X151004265Y-107862840D01*
X150932662Y-108150730D01*
X150949113Y-108317548D01*
X150989676Y-108407409D01*
X151028223Y-108560928D01*
X150977554Y-108621833D01*
X150815288Y-108655248D01*
X150690905Y-108633589D01*
X150576277Y-108522623D01*
X150471551Y-108279115D01*
X150382625Y-108030200D01*
X150250466Y-107670765D01*
X150113191Y-107305596D01*
X149885633Y-106708209D01*
X150131634Y-106708209D01*
X150189755Y-106709888D01*
G37*
G36*
X163463809Y-106708210D02*
G01*
X163570663Y-106715328D01*
X163635758Y-106759823D01*
X163669443Y-106876600D01*
X163682065Y-107100567D01*
X163683972Y-107466630D01*
X163682164Y-107808975D01*
X163670485Y-108041429D01*
X163639796Y-108161214D01*
X163580961Y-108201829D01*
X163484844Y-108196769D01*
X163418942Y-108183364D01*
X163344720Y-108133805D01*
X163300763Y-108017647D01*
X163276162Y-107798093D01*
X163260010Y-107438349D01*
X163249385Y-107088294D01*
X163254041Y-106868689D01*
X163284089Y-106755837D01*
X163349223Y-106714192D01*
X163459139Y-106708209D01*
X163463809Y-106708210D01*
G37*
G36*
X152090244Y-108212739D02*
G01*
X151647735Y-108212739D01*
X151647735Y-106088697D01*
X152090244Y-106088697D01*
X152090244Y-108212739D01*
G37*
G36*
X140548965Y-107813284D02*
G01*
X140379685Y-108000239D01*
X140170977Y-108133409D01*
X139860106Y-108194869D01*
X139571590Y-108120557D01*
X139341952Y-107932234D01*
X139207712Y-107651659D01*
X139205928Y-107381638D01*
X139651557Y-107381638D01*
X139654216Y-107588394D01*
X139706364Y-107693722D01*
X139857305Y-107807434D01*
X140024238Y-107784168D01*
X140092583Y-107720310D01*
X140172085Y-107526955D01*
X140164036Y-107310794D01*
X140077428Y-107134868D01*
X139921255Y-107062216D01*
X139875827Y-107069668D01*
X139737762Y-107184427D01*
X139651557Y-107381638D01*
X139205928Y-107381638D01*
X139205392Y-107300591D01*
X139210990Y-107273807D01*
X139341879Y-106949058D01*
X139572272Y-106765790D01*
X139921255Y-106708209D01*
X140082564Y-106717968D01*
X140378393Y-106824309D01*
X140553346Y-107055752D01*
X140617148Y-107422278D01*
X140614880Y-107526955D01*
X140613393Y-107595552D01*
X140548965Y-107813284D01*
G37*
G36*
X141194614Y-106068362D02*
G01*
X141391366Y-106254132D01*
X141470035Y-106500672D01*
X141495561Y-106632057D01*
X141602788Y-106708209D01*
X141680203Y-106741062D01*
X141735540Y-106885213D01*
X141710901Y-106988433D01*
X141602788Y-107062216D01*
X141570925Y-107067008D01*
X141509858Y-107137779D01*
X141478736Y-107319000D01*
X141470035Y-107643633D01*
X141469932Y-107724984D01*
X141463472Y-108002121D01*
X141437172Y-108148064D01*
X141377495Y-108200414D01*
X141270906Y-108196769D01*
X141173455Y-108170604D01*
X141103655Y-108091845D01*
X141066461Y-107920897D01*
X141045429Y-107615352D01*
X141044648Y-107599317D01*
X141016871Y-107282238D01*
X140968122Y-107112549D01*
X140890551Y-107062216D01*
X140815519Y-107028701D01*
X140762021Y-106885213D01*
X140786661Y-106781993D01*
X140894774Y-106708209D01*
X140956684Y-106692790D01*
X141027526Y-106575457D01*
X141012107Y-106513547D01*
X140894774Y-106442704D01*
X140808182Y-106399400D01*
X140762021Y-106221450D01*
X140762100Y-106209648D01*
X140805520Y-106045383D01*
X140954181Y-106000196D01*
X141194614Y-106068362D01*
G37*
G36*
X133681882Y-107466630D02*
G01*
X133680074Y-107808975D01*
X133668395Y-108041429D01*
X133637705Y-108161214D01*
X133578870Y-108201829D01*
X133482753Y-108196769D01*
X133403430Y-108178484D01*
X133322694Y-108108895D01*
X133280098Y-107950661D01*
X133257082Y-107659603D01*
X133236107Y-107398670D01*
X133185303Y-107214161D01*
X133083860Y-107141246D01*
X132907492Y-107144112D01*
X132833835Y-107099611D01*
X132796864Y-106933343D01*
X132801171Y-106840688D01*
X132845897Y-106751714D01*
X132976855Y-106715242D01*
X133239373Y-106708209D01*
X133681882Y-106708209D01*
X133681882Y-107466630D01*
G37*
G36*
X145624490Y-111014022D02*
G01*
X145604366Y-111248450D01*
X145563676Y-111366379D01*
X145496864Y-111398802D01*
X145411781Y-111357562D01*
X145364112Y-111185833D01*
X145363348Y-111146982D01*
X145321530Y-111019537D01*
X145187265Y-111019111D01*
X145007409Y-111011577D01*
X144789007Y-110920283D01*
X144705403Y-110857226D01*
X144596573Y-110689856D01*
X144572944Y-110474113D01*
X144839750Y-110474113D01*
X144939303Y-110673087D01*
X144997769Y-110724791D01*
X145098607Y-110779290D01*
X145137983Y-110765765D01*
X145257910Y-110673087D01*
X145316267Y-110598203D01*
X145364516Y-110407491D01*
X145309579Y-110237724D01*
X145178056Y-110140404D01*
X144996547Y-110167033D01*
X144882752Y-110272595D01*
X144839750Y-110474113D01*
X144572944Y-110474113D01*
X144567596Y-110425283D01*
X144582040Y-110253741D01*
X144702549Y-109993709D01*
X144942983Y-109863110D01*
X145300604Y-109864040D01*
X145629617Y-109917432D01*
X145629617Y-110658117D01*
X145624490Y-111014022D01*
G37*
G36*
X128418263Y-110703834D02*
G01*
X128435311Y-110865209D01*
X128426023Y-110959664D01*
X128476249Y-111164977D01*
X128511617Y-111268971D01*
X128431163Y-111310300D01*
X128410471Y-111307984D01*
X128285414Y-111210249D01*
X128184243Y-111022624D01*
X128137140Y-110819652D01*
X128174286Y-110675875D01*
X128174288Y-110675873D01*
X128310455Y-110625634D01*
X128418263Y-110703834D01*
G37*
G36*
X160200762Y-106710055D02*
G01*
X160332861Y-106748978D01*
X160420639Y-106872611D01*
X160503227Y-107125459D01*
X160620050Y-107542708D01*
X160791284Y-107125459D01*
X160795448Y-107115343D01*
X160917209Y-106862542D01*
X161033914Y-106740139D01*
X161183045Y-106708209D01*
X161264024Y-106709841D01*
X161338611Y-106731816D01*
X161361722Y-106803026D01*
X161330434Y-106952499D01*
X161241822Y-107209262D01*
X161092961Y-107602344D01*
X161008788Y-107840437D01*
X160934287Y-108144164D01*
X160947926Y-108310358D01*
X160981659Y-108374200D01*
X161027565Y-108544621D01*
X160977585Y-108616170D01*
X160815985Y-108655248D01*
X160691602Y-108633589D01*
X160576974Y-108522623D01*
X160472248Y-108279115D01*
X160383322Y-108030200D01*
X160251163Y-107670765D01*
X160113887Y-107305596D01*
X159886330Y-106708209D01*
X160136367Y-106708209D01*
X160200762Y-106710055D01*
G37*
G36*
X146830964Y-110627521D02*
G01*
X146691638Y-110867791D01*
X146602802Y-110938798D01*
X146375913Y-111027591D01*
X146145572Y-111032425D01*
X145966926Y-110957506D01*
X145895122Y-110807040D01*
X145896167Y-110787029D01*
X145959559Y-110715332D01*
X146146525Y-110731941D01*
X146331962Y-110746020D01*
X146511369Y-110650472D01*
X146522511Y-110636769D01*
X146560327Y-110557275D01*
X146483083Y-110521865D01*
X146259966Y-110513784D01*
X146218275Y-110513642D01*
X146006114Y-110497959D01*
X145914712Y-110435974D01*
X145895122Y-110298852D01*
X145911045Y-110230432D01*
X146196961Y-110230432D01*
X146337631Y-110248279D01*
X146380227Y-110247633D01*
X146487397Y-110221336D01*
X146443833Y-110142077D01*
X146351861Y-110081444D01*
X146231429Y-110142077D01*
X146211100Y-110163698D01*
X146196961Y-110230432D01*
X145911045Y-110230432D01*
X145945252Y-110083445D01*
X146111099Y-109884552D01*
X146343953Y-109805770D01*
X146356442Y-109805950D01*
X146596505Y-109888570D01*
X146766727Y-110086987D01*
X146809441Y-110221336D01*
X146850437Y-110350279D01*
X146830964Y-110627521D01*
G37*
G36*
X158572997Y-108212245D02*
G01*
X158213172Y-108188365D01*
X157764453Y-108061436D01*
X157451701Y-107829023D01*
X157279903Y-107495461D01*
X157255014Y-107081221D01*
X157710969Y-107081221D01*
X157736751Y-107372287D01*
X157899228Y-107636954D01*
X158022667Y-107717010D01*
X158247437Y-107770230D01*
X158300479Y-107769187D01*
X158391359Y-107745185D01*
X158439722Y-107659795D01*
X158458936Y-107474484D01*
X158462370Y-107150718D01*
X158460696Y-106933754D01*
X158441337Y-106683914D01*
X158383301Y-106566703D01*
X158265859Y-106554109D01*
X158068286Y-106618121D01*
X158034237Y-106632348D01*
X157813069Y-106816870D01*
X157710969Y-107081221D01*
X157255014Y-107081221D01*
X157254045Y-107065087D01*
X157268436Y-106955036D01*
X157364913Y-106663724D01*
X157570047Y-106423450D01*
X157649481Y-106355743D01*
X157832525Y-106242217D01*
X158051016Y-106189870D01*
X158375264Y-106177199D01*
X158904878Y-106177199D01*
X158904878Y-108212739D01*
X158572997Y-108212245D01*
G37*
G36*
X115560177Y-106162950D02*
G01*
X115598043Y-106227739D01*
X115595423Y-106398712D01*
X115521165Y-106489318D01*
X115361974Y-106521600D01*
X115209104Y-106457195D01*
X115140767Y-106311164D01*
X115142517Y-106284533D01*
X115230721Y-106143711D01*
X115396006Y-106093973D01*
X115560177Y-106162950D01*
G37*
G36*
X164852855Y-106177201D02*
G01*
X165249995Y-106180038D01*
X165503302Y-106192429D01*
X165644705Y-106220567D01*
X165706132Y-106270647D01*
X165719512Y-106348860D01*
X165708865Y-106422312D01*
X165614729Y-106508118D01*
X165387631Y-106547989D01*
X165055749Y-106575457D01*
X165030227Y-107399808D01*
X165028942Y-107441087D01*
X165014762Y-107811478D01*
X164994620Y-108039996D01*
X164959571Y-108158843D01*
X164900670Y-108200219D01*
X164808973Y-108196324D01*
X164722131Y-108174214D01*
X164660696Y-108112443D01*
X164623858Y-107977536D01*
X164602572Y-107734876D01*
X164587794Y-107349847D01*
X164562348Y-106531206D01*
X164255913Y-106531206D01*
X164121165Y-106525737D01*
X163984573Y-106476712D01*
X163949478Y-106354202D01*
X163949550Y-106344723D01*
X163964798Y-106267328D01*
X164028879Y-106218285D01*
X164173831Y-106191188D01*
X164431690Y-106179628D01*
X164834495Y-106177199D01*
X164852855Y-106177201D01*
G37*
G36*
X139199520Y-110933148D02*
G01*
X139191216Y-110938929D01*
X138985562Y-111011385D01*
X138726481Y-111026608D01*
X138578761Y-111010068D01*
X138463642Y-110958498D01*
X138412631Y-110828457D01*
X138396207Y-110646537D01*
X138726481Y-110646537D01*
X138756201Y-110728670D01*
X138879742Y-110779854D01*
X139021487Y-110720288D01*
X139062682Y-110668266D01*
X139057666Y-110558075D01*
X138903485Y-110513784D01*
X138800265Y-110538424D01*
X138726481Y-110646537D01*
X138396207Y-110646537D01*
X138389368Y-110570785D01*
X138386703Y-110515220D01*
X138428168Y-110146185D01*
X138571833Y-109906028D01*
X138805633Y-109806534D01*
X139117501Y-109859490D01*
X139162432Y-109882007D01*
X139249201Y-109997049D01*
X139228036Y-110112427D01*
X139102614Y-110155149D01*
X138986899Y-110146107D01*
X138824317Y-110155031D01*
X138823737Y-110200602D01*
X138991986Y-110275400D01*
X139167629Y-110364112D01*
X139320786Y-110545803D01*
X139329882Y-110668266D01*
X139335940Y-110749819D01*
X139199520Y-110933148D01*
G37*
G36*
X148107596Y-110306162D02*
G01*
X148100978Y-110674687D01*
X148080019Y-110900468D01*
X148039678Y-111013755D01*
X147974913Y-111044795D01*
X147962823Y-111044235D01*
X147870948Y-110964140D01*
X147842161Y-110735039D01*
X147842132Y-110715080D01*
X147825568Y-110517926D01*
X147742142Y-110439404D01*
X147538726Y-110425283D01*
X147245680Y-110371291D01*
X147033428Y-110202243D01*
X146957143Y-109938523D01*
X147311150Y-109938523D01*
X147317491Y-110034738D01*
X147386906Y-110135964D01*
X147576655Y-110159777D01*
X147692113Y-110154494D01*
X147813585Y-110096647D01*
X147842161Y-109938523D01*
X147835820Y-109842308D01*
X147766405Y-109741082D01*
X147576655Y-109717269D01*
X147461198Y-109722553D01*
X147339726Y-109780399D01*
X147311150Y-109938523D01*
X146957143Y-109938523D01*
X146959972Y-109876522D01*
X147055238Y-109637700D01*
X147290319Y-109497536D01*
X147671479Y-109451763D01*
X148107666Y-109451763D01*
X148107666Y-110248279D01*
X148107596Y-110306162D01*
G37*
G36*
X135321171Y-107855417D02*
G01*
X135192733Y-108029414D01*
X135089852Y-108108377D01*
X134869625Y-108179425D01*
X134528970Y-108200096D01*
X134035889Y-108200096D01*
X134035889Y-107703854D01*
X134500482Y-107703854D01*
X134557591Y-107782834D01*
X134714034Y-107845014D01*
X134858846Y-107802790D01*
X134913998Y-107725518D01*
X134879787Y-107628971D01*
X134692277Y-107593227D01*
X134543673Y-107617389D01*
X134500482Y-107703854D01*
X134035889Y-107703854D01*
X134035889Y-107593227D01*
X134042922Y-107319331D01*
X134093390Y-107001359D01*
X134210864Y-106814245D01*
X134416764Y-106731323D01*
X134732510Y-106725924D01*
X134751097Y-106727159D01*
X135000596Y-106758406D01*
X135124122Y-106823550D01*
X135169830Y-106946925D01*
X135171549Y-107068993D01*
X135095437Y-107113092D01*
X134893451Y-107092049D01*
X134889835Y-107091468D01*
X134655865Y-107083983D01*
X134528677Y-107140964D01*
X134552388Y-107213770D01*
X134738680Y-107239220D01*
X134839818Y-107249298D01*
X135091046Y-107351169D01*
X135285408Y-107525513D01*
X135363236Y-107725518D01*
X135363415Y-107725979D01*
X135321171Y-107855417D01*
G37*
G36*
X136195592Y-110877282D02*
G01*
X136029761Y-110982324D01*
X135708833Y-111028696D01*
X135363415Y-111023929D01*
X135363415Y-110624412D01*
X135651004Y-110624412D01*
X135675973Y-110673332D01*
X135794180Y-110754334D01*
X135922660Y-110749821D01*
X135982927Y-110653026D01*
X135950689Y-110570006D01*
X135798549Y-110513784D01*
X135691713Y-110535035D01*
X135651004Y-110624412D01*
X135363415Y-110624412D01*
X135363415Y-110506465D01*
X135364679Y-110372090D01*
X135384811Y-110120280D01*
X135441157Y-109976120D01*
X135548662Y-109889861D01*
X135679323Y-109843465D01*
X135902994Y-109839622D01*
X136084863Y-109910099D01*
X136159931Y-110039033D01*
X136132363Y-110124018D01*
X135992724Y-110136696D01*
X135888167Y-110125160D01*
X135705093Y-110169270D01*
X135693696Y-110176743D01*
X135663886Y-110230039D01*
X135798955Y-110246924D01*
X135863470Y-110252974D01*
X136081317Y-110335799D01*
X136261733Y-110477998D01*
X136336934Y-110631160D01*
X136329489Y-110653026D01*
X136306661Y-110720075D01*
X136195592Y-110877282D01*
G37*
G36*
X138903485Y-107466630D02*
G01*
X138901676Y-107808975D01*
X138889997Y-108041429D01*
X138859308Y-108161214D01*
X138800473Y-108201829D01*
X138704356Y-108196769D01*
X138625033Y-108178484D01*
X138544297Y-108108895D01*
X138501701Y-107950661D01*
X138478685Y-107659603D01*
X138457710Y-107398670D01*
X138406906Y-107214161D01*
X138305463Y-107141246D01*
X138129094Y-107144112D01*
X138055438Y-107099611D01*
X138018467Y-106933343D01*
X138022773Y-106840688D01*
X138067500Y-106751714D01*
X138198458Y-106715242D01*
X138460976Y-106708209D01*
X138903485Y-106708209D01*
X138903485Y-107466630D01*
G37*
G36*
X114347264Y-106710913D02*
G01*
X114632727Y-106768515D01*
X114785618Y-106915972D01*
X114831011Y-107172934D01*
X114820760Y-107292123D01*
X114734635Y-107437580D01*
X114521255Y-107554680D01*
X114409731Y-107606143D01*
X114228122Y-107732515D01*
X114207007Y-107820890D01*
X114335820Y-107843460D01*
X114603995Y-107772421D01*
X114721097Y-107733457D01*
X114812358Y-107752576D01*
X114831011Y-107897798D01*
X114806251Y-108040877D01*
X114720384Y-108154126D01*
X114685362Y-108166651D01*
X114416958Y-108204420D01*
X114126939Y-108179228D01*
X113911065Y-108097748D01*
X113793590Y-107949468D01*
X113774421Y-107723301D01*
X113880546Y-107498279D01*
X114098956Y-107327722D01*
X114275955Y-107230598D01*
X114375407Y-107130347D01*
X114325100Y-107077923D01*
X114122997Y-107093192D01*
X113973813Y-107115247D01*
X113877609Y-107076438D01*
X113857492Y-106927251D01*
X113858242Y-106884196D01*
X113888665Y-106767901D01*
X113999175Y-106718501D01*
X114238049Y-106708209D01*
X114347264Y-106710913D01*
G37*
G36*
X129187373Y-106178955D02*
G01*
X129292372Y-106214606D01*
X129336381Y-106332663D01*
X129345296Y-106580306D01*
X129345296Y-106983413D01*
X129765680Y-106956438D01*
X130186063Y-106929464D01*
X130213277Y-106553331D01*
X130216273Y-106513820D01*
X130248397Y-106294804D01*
X130318171Y-106198599D01*
X130456657Y-106177199D01*
X130526410Y-106178980D01*
X130597786Y-106202661D01*
X130641115Y-106279152D01*
X130663397Y-106439501D01*
X130671633Y-106714757D01*
X130672823Y-107135968D01*
X130669496Y-107455933D01*
X130657161Y-107800511D01*
X130637849Y-108046115D01*
X130613821Y-108153738D01*
X130560846Y-108183845D01*
X130392567Y-108212739D01*
X130370237Y-108211979D01*
X130282256Y-108171171D01*
X130240738Y-108037894D01*
X130230314Y-107770230D01*
X130230314Y-107327722D01*
X129345296Y-107327722D01*
X129345296Y-107770230D01*
X129343201Y-107947819D01*
X129320863Y-108125174D01*
X129255354Y-108198392D01*
X129124042Y-108212739D01*
X128902788Y-108212739D01*
X128902788Y-106177199D01*
X129124042Y-106177199D01*
X129187373Y-106178955D01*
G37*
G36*
X163705125Y-106162950D02*
G01*
X163742990Y-106227739D01*
X163740370Y-106398712D01*
X163666113Y-106489318D01*
X163506921Y-106521600D01*
X163354052Y-106457195D01*
X163285715Y-106311164D01*
X163287464Y-106284533D01*
X163375668Y-106143711D01*
X163540954Y-106093973D01*
X163705125Y-106162950D01*
G37*
G36*
X153550523Y-108655248D02*
G01*
X153470522Y-108651178D01*
X153356685Y-108587658D01*
X153329269Y-108405070D01*
X153319007Y-108257484D01*
X153247335Y-108183688D01*
X153058808Y-108194588D01*
X152867498Y-108188748D01*
X152619991Y-108062691D01*
X152441149Y-107830920D01*
X152348664Y-107533792D01*
X152349979Y-107497150D01*
X152815909Y-107497150D01*
X152826268Y-107547289D01*
X152936921Y-107706306D01*
X153106623Y-107773288D01*
X153266534Y-107714962D01*
X153316094Y-107614521D01*
X153328752Y-107410343D01*
X153285251Y-107208248D01*
X153195389Y-107093788D01*
X153160784Y-107083407D01*
X152980711Y-107117973D01*
X152850522Y-107272077D01*
X152815909Y-107497150D01*
X152349979Y-107497150D01*
X152360224Y-107211667D01*
X152493520Y-106904905D01*
X152555707Y-106829096D01*
X152679056Y-106752534D01*
X152877409Y-106716940D01*
X153201534Y-106708209D01*
X153771777Y-106708209D01*
X153771777Y-108655248D01*
X153550523Y-108655248D01*
G37*
G36*
X129585805Y-109365111D02*
G01*
X129642488Y-109413456D01*
X129677176Y-109549609D01*
X129694552Y-109803243D01*
X129699303Y-110204028D01*
X129699011Y-110325969D01*
X129691378Y-110684964D01*
X129669880Y-110904652D01*
X129629833Y-111014704D01*
X129566551Y-111044795D01*
X129550447Y-111043784D01*
X129461501Y-110960615D01*
X129433798Y-110729220D01*
X129428849Y-110601777D01*
X129371943Y-110320582D01*
X129264431Y-110152206D01*
X129122692Y-110128291D01*
X129087425Y-110149606D01*
X129014409Y-110305106D01*
X128991290Y-110611755D01*
X128983452Y-110829909D01*
X128942824Y-110996511D01*
X128858537Y-111044795D01*
X128843661Y-111043897D01*
X128772583Y-110988757D01*
X128736086Y-110824206D01*
X128725784Y-110516898D01*
X128727094Y-110378339D01*
X128747051Y-110123615D01*
X128802057Y-109977842D01*
X128906131Y-109892483D01*
X129043895Y-109846649D01*
X129260138Y-109851082D01*
X129342829Y-109869082D01*
X129416414Y-109819562D01*
X129433798Y-109634731D01*
X129462205Y-109440604D01*
X129566551Y-109363262D01*
X129585805Y-109365111D01*
G37*
G36*
X162887457Y-107466630D02*
G01*
X162885649Y-107808975D01*
X162873970Y-108041429D01*
X162843280Y-108161214D01*
X162784445Y-108201829D01*
X162688328Y-108196769D01*
X162620237Y-108182310D01*
X162532697Y-108117257D01*
X162486561Y-107965434D01*
X162462004Y-107681729D01*
X162437384Y-107408673D01*
X162376254Y-107166839D01*
X162278773Y-107083121D01*
X162138943Y-107147605D01*
X162116157Y-107169981D01*
X162030460Y-107377747D01*
X162002439Y-107742971D01*
X161999416Y-107968482D01*
X161977138Y-108136329D01*
X161917699Y-108198911D01*
X161803310Y-108196769D01*
X161720268Y-108177048D01*
X161641743Y-108105725D01*
X161600165Y-107945048D01*
X161577389Y-107651192D01*
X161571923Y-107381383D01*
X161616982Y-107047796D01*
X161748710Y-106841771D01*
X161988686Y-106737258D01*
X162358487Y-106708209D01*
X162887457Y-106708209D01*
X162887457Y-107466630D01*
G37*
G36*
X125805227Y-107156874D02*
G01*
X125804271Y-107589067D01*
X125797729Y-107895438D01*
X125780121Y-108080774D01*
X125745967Y-108173694D01*
X125689786Y-108202819D01*
X125606098Y-108196769D01*
X125542228Y-108184119D01*
X125477534Y-108143385D01*
X125435586Y-108048063D01*
X125409966Y-107867555D01*
X125394255Y-107571265D01*
X125382035Y-107128593D01*
X125357101Y-106088697D01*
X125805227Y-106088697D01*
X125805227Y-107156874D01*
G37*
G36*
X123605162Y-106717767D02*
G01*
X123681185Y-106746423D01*
X123677825Y-106761787D01*
X123632012Y-106903076D01*
X123543775Y-107155118D01*
X123427483Y-107476562D01*
X123320940Y-107789740D01*
X123236676Y-108140200D01*
X123244259Y-108345492D01*
X123286109Y-108459977D01*
X123320958Y-108588871D01*
X123275905Y-108631449D01*
X123117899Y-108655248D01*
X123045915Y-108647363D01*
X122952034Y-108592146D01*
X122858369Y-108458436D01*
X122745961Y-108216500D01*
X122595851Y-107836607D01*
X122513618Y-107621678D01*
X122380932Y-107276216D01*
X122276494Y-107005971D01*
X122217694Y-106856034D01*
X122194834Y-106784906D01*
X122230494Y-106719542D01*
X122401035Y-106723282D01*
X122565310Y-106770006D01*
X122679336Y-106896063D01*
X122781292Y-107148694D01*
X122837046Y-107311717D01*
X122896912Y-107432792D01*
X122954742Y-107420529D01*
X123031109Y-107263828D01*
X123146584Y-106951589D01*
X123262629Y-106764933D01*
X123457740Y-106708209D01*
X123605162Y-106717767D01*
G37*
G36*
X141503584Y-109454805D02*
G01*
X141752124Y-109473390D01*
X141877774Y-109514493D01*
X141912544Y-109584516D01*
X141857825Y-109677689D01*
X141647039Y-109717269D01*
X141381533Y-109717269D01*
X141381533Y-110381032D01*
X141378492Y-110635835D01*
X141359907Y-110884374D01*
X141318804Y-111010025D01*
X141248781Y-111044795D01*
X141197820Y-111029587D01*
X141148112Y-110936664D01*
X141122982Y-110731149D01*
X141116028Y-110381032D01*
X141116028Y-109717269D01*
X140850523Y-109717269D01*
X140664176Y-109689909D01*
X140585018Y-109584516D01*
X140600226Y-109533555D01*
X140693149Y-109483848D01*
X140898664Y-109458717D01*
X141248781Y-109451763D01*
X141503584Y-109454805D01*
G37*
G36*
X150845748Y-111028890D02*
G01*
X150757201Y-111026780D01*
X150427387Y-110938877D01*
X150217075Y-110733526D01*
X150146080Y-110437274D01*
X150421820Y-110437274D01*
X150500327Y-110608104D01*
X150547277Y-110687694D01*
X150654316Y-110764835D01*
X150829094Y-110720677D01*
X150907514Y-110626952D01*
X150936960Y-110438098D01*
X150903366Y-110243808D01*
X150809530Y-110128756D01*
X150707101Y-110125383D01*
X150544025Y-110214110D01*
X150441682Y-110327928D01*
X150421820Y-110437274D01*
X150146080Y-110437274D01*
X150143206Y-110425283D01*
X150160218Y-110282237D01*
X150282674Y-110029295D01*
X150486331Y-109863250D01*
X150727129Y-109829087D01*
X150827181Y-109841772D01*
X150919205Y-109793834D01*
X150939722Y-109616494D01*
X150966721Y-109441819D01*
X151072474Y-109363262D01*
X151089583Y-109364688D01*
X151147325Y-109411013D01*
X151182670Y-109544734D01*
X151200382Y-109795659D01*
X151205227Y-110193595D01*
X151205227Y-111023929D01*
X150845748Y-111028890D01*
G37*
G36*
X142773489Y-106724462D02*
G01*
X142920379Y-106765062D01*
X143045139Y-106890677D01*
X143159055Y-107144361D01*
X143303309Y-107536261D01*
X143433393Y-107144361D01*
X143530451Y-106902024D01*
X143644104Y-106772267D01*
X143812197Y-106723282D01*
X143914505Y-106713187D01*
X143994066Y-106726467D01*
X144019128Y-106794282D01*
X143987620Y-106944373D01*
X143897474Y-107204480D01*
X143746619Y-107602344D01*
X143662446Y-107840437D01*
X143587946Y-108144164D01*
X143601584Y-108310358D01*
X143635318Y-108374200D01*
X143681223Y-108544621D01*
X143631415Y-108616114D01*
X143469982Y-108655248D01*
X143294223Y-108604732D01*
X143169371Y-108411868D01*
X143151578Y-108362973D01*
X143064369Y-108126021D01*
X142942574Y-107797332D01*
X142806767Y-107432476D01*
X142532178Y-106696464D01*
X142773489Y-106724462D01*
G37*
G36*
X128466601Y-108029414D02*
G01*
X128363719Y-108108377D01*
X128143492Y-108179425D01*
X127802838Y-108200096D01*
X127309756Y-108200096D01*
X127309756Y-107703854D01*
X127774349Y-107703854D01*
X127831458Y-107782834D01*
X127987901Y-107845014D01*
X128132713Y-107802790D01*
X128187865Y-107725518D01*
X128153654Y-107628971D01*
X127966144Y-107593227D01*
X127817540Y-107617389D01*
X127774349Y-107703854D01*
X127309756Y-107703854D01*
X127309756Y-107600622D01*
X127314910Y-107381813D01*
X127366536Y-107037277D01*
X127489831Y-106829007D01*
X127704651Y-106732888D01*
X128030850Y-106724804D01*
X128262350Y-106753813D01*
X128394696Y-106819811D01*
X128443698Y-106946925D01*
X128445417Y-107068993D01*
X128369304Y-107113092D01*
X128167318Y-107092049D01*
X128163703Y-107091468D01*
X127929732Y-107083983D01*
X127802544Y-107140964D01*
X127800914Y-107143701D01*
X127831757Y-107214894D01*
X128027704Y-107239220D01*
X128197862Y-107255669D01*
X128456581Y-107369063D01*
X128600938Y-107559812D01*
X128608079Y-107725518D01*
X128610941Y-107791927D01*
X128466601Y-108029414D01*
G37*
G36*
X140533333Y-110741903D02*
G01*
X140388322Y-110907024D01*
X140224633Y-110995671D01*
X140034315Y-111044795D01*
X140018556Y-111044491D01*
X139786278Y-110959753D01*
X139622133Y-110759907D01*
X139542271Y-110496258D01*
X139548187Y-110416844D01*
X139841051Y-110416844D01*
X139877004Y-110602286D01*
X139949342Y-110710748D01*
X140039421Y-110779290D01*
X140133619Y-110743969D01*
X140262117Y-110601509D01*
X140319512Y-110425283D01*
X140291566Y-110306226D01*
X140178851Y-110143818D01*
X140039421Y-110071276D01*
X139981300Y-110089168D01*
X139883524Y-110220608D01*
X139841051Y-110416844D01*
X139548187Y-110416844D01*
X139562843Y-110220112D01*
X139700000Y-109982774D01*
X139866103Y-109861858D01*
X140121851Y-109813156D01*
X140353042Y-109903887D01*
X140520493Y-110114461D01*
X140585018Y-110425283D01*
X140583952Y-110485905D01*
X140533333Y-110741903D01*
G37*
G36*
X138023939Y-110862320D02*
G01*
X137842333Y-110977690D01*
X137492928Y-111028890D01*
X137133450Y-111023929D01*
X137133450Y-110425283D01*
X137398955Y-110425283D01*
X137433635Y-110605712D01*
X137529146Y-110721810D01*
X137545289Y-110726574D01*
X137704756Y-110692298D01*
X137860102Y-110571803D01*
X137929965Y-110425283D01*
X137928693Y-110407634D01*
X137843721Y-110261074D01*
X137683418Y-110148050D01*
X137529146Y-110128756D01*
X137440904Y-110228297D01*
X137398955Y-110425283D01*
X137133450Y-110425283D01*
X137133450Y-110193595D01*
X137133678Y-110086584D01*
X137141084Y-109725420D01*
X137162463Y-109504349D01*
X137202581Y-109393566D01*
X137266202Y-109363262D01*
X137357773Y-109414765D01*
X137398955Y-109616494D01*
X137404362Y-109734639D01*
X137459376Y-109833738D01*
X137611548Y-109829087D01*
X137719123Y-109822503D01*
X137942278Y-109909454D01*
X138102948Y-110103536D01*
X138182521Y-110358126D01*
X138177485Y-110425283D01*
X138162388Y-110626595D01*
X138023939Y-110862320D01*
G37*
G36*
X128412592Y-109923737D02*
G01*
X128460279Y-110064786D01*
X128428093Y-110189970D01*
X128276786Y-110248279D01*
X128182164Y-110225177D01*
X128119754Y-110120758D01*
X128163176Y-109993195D01*
X128306417Y-109910925D01*
X128412592Y-109923737D01*
G37*
G36*
X116024828Y-106708237D02*
G01*
X116221288Y-106763193D01*
X116339131Y-106951589D01*
X116426914Y-107192062D01*
X116512219Y-107391468D01*
X116573191Y-107443309D01*
X116630401Y-107358684D01*
X116704422Y-107148694D01*
X116797290Y-106914167D01*
X116910556Y-106775950D01*
X117072505Y-106724456D01*
X117233612Y-106719659D01*
X117309060Y-106749437D01*
X117304747Y-106770016D01*
X117254754Y-106921930D01*
X117160575Y-107181643D01*
X117037121Y-107507580D01*
X117006093Y-107587501D01*
X116872507Y-107908375D01*
X116767947Y-108098502D01*
X116671091Y-108189439D01*
X116560616Y-108212739D01*
X116465796Y-108197771D01*
X116363481Y-108116497D01*
X116260538Y-107933763D01*
X116132445Y-107615352D01*
X116129107Y-107606436D01*
X116009284Y-107287697D01*
X115908125Y-107020936D01*
X115847217Y-106863087D01*
X115832551Y-106819991D01*
X115855836Y-106731024D01*
X116018506Y-106708209D01*
X116024828Y-106708237D01*
G37*
G36*
X156842880Y-106714922D02*
G01*
X156908636Y-106758460D01*
X156942843Y-106873869D01*
X156955809Y-107096193D01*
X156957840Y-107460474D01*
X156955866Y-107821876D01*
X156943060Y-108045444D01*
X156909117Y-108161749D01*
X156843727Y-108205832D01*
X156736586Y-108212739D01*
X156630291Y-108206027D01*
X156564536Y-108162488D01*
X156530329Y-108047079D01*
X156517363Y-107824756D01*
X156515331Y-107460474D01*
X156517306Y-107099073D01*
X156530111Y-106875504D01*
X156564055Y-106759200D01*
X156629444Y-106715116D01*
X156736586Y-106708209D01*
X156842880Y-106714922D01*
G37*
G36*
X148904543Y-107732007D02*
G01*
X148684739Y-107993698D01*
X148377950Y-108154396D01*
X147997056Y-108181560D01*
X147941010Y-108175935D01*
X147727314Y-108179068D01*
X147615552Y-108221402D01*
X147550767Y-108252461D01*
X147388567Y-108206806D01*
X147280127Y-108120214D01*
X147298126Y-108007178D01*
X147334209Y-107906731D01*
X147262726Y-107681468D01*
X147191894Y-107504314D01*
X147171237Y-107314576D01*
X147622040Y-107314576D01*
X147667483Y-107446710D01*
X147752044Y-107461472D01*
X147767934Y-107452993D01*
X147915376Y-107450123D01*
X148042586Y-107530745D01*
X148071279Y-107648898D01*
X148067403Y-107660022D01*
X148090478Y-107753115D01*
X148203437Y-107768825D01*
X148346168Y-107714889D01*
X148458559Y-107599045D01*
X148462425Y-107591543D01*
X148524530Y-107379252D01*
X148550175Y-107114326D01*
X148548879Y-107054027D01*
X148491287Y-106816905D01*
X148319982Y-106649964D01*
X148289122Y-106630643D01*
X148056990Y-106559355D01*
X147859421Y-106652741D01*
X147681771Y-106916926D01*
X147677806Y-106925197D01*
X147623040Y-107121821D01*
X147622040Y-107314576D01*
X147171237Y-107314576D01*
X147153429Y-107151003D01*
X147210858Y-106788895D01*
X147351667Y-106476623D01*
X147563345Y-106272824D01*
X147807090Y-106191505D01*
X148149553Y-106174106D01*
X148474820Y-106239257D01*
X148709969Y-106380135D01*
X148913262Y-106666396D01*
X149031683Y-107035814D01*
X149030139Y-107114326D01*
X149024484Y-107401865D01*
X148904543Y-107732007D01*
G37*
G36*
X149916023Y-109894780D02*
G01*
X149985561Y-109913935D01*
X149998596Y-109988056D01*
X149952545Y-110153799D01*
X149844829Y-110447819D01*
X149768029Y-110667588D01*
X149693346Y-110988832D01*
X149709985Y-111200084D01*
X149727565Y-111251193D01*
X149730022Y-111369997D01*
X149609344Y-111398802D01*
X149509536Y-111391857D01*
X149435192Y-111360588D01*
X149430642Y-111341178D01*
X149381818Y-111192831D01*
X149290841Y-110935022D01*
X149171913Y-110608324D01*
X149081820Y-110360793D01*
X148998401Y-110108798D01*
X148971855Y-109968331D01*
X148997687Y-109907466D01*
X149071402Y-109894272D01*
X149223747Y-109977082D01*
X149362660Y-110226154D01*
X149491149Y-110558035D01*
X149602787Y-110226154D01*
X149610761Y-110203000D01*
X149733113Y-109968834D01*
X149883804Y-109894272D01*
X149916023Y-109894780D01*
G37*
G36*
X126955749Y-107466630D02*
G01*
X126953941Y-107808975D01*
X126942262Y-108041429D01*
X126911573Y-108161214D01*
X126852738Y-108201829D01*
X126756621Y-108196769D01*
X126677298Y-108178484D01*
X126596562Y-108108895D01*
X126553966Y-107950661D01*
X126530950Y-107659603D01*
X126509975Y-107398670D01*
X126459170Y-107214161D01*
X126357728Y-107141246D01*
X126181359Y-107144112D01*
X126107703Y-107099611D01*
X126070732Y-106933343D01*
X126075038Y-106840688D01*
X126119765Y-106751714D01*
X126250723Y-106715242D01*
X126513241Y-106708209D01*
X126955749Y-106708209D01*
X126955749Y-107466630D01*
G37*
G36*
X133687354Y-110862320D02*
G01*
X133505748Y-110977690D01*
X133156343Y-111028890D01*
X132796864Y-111023929D01*
X132796864Y-110409960D01*
X133064796Y-110409960D01*
X133098168Y-110606044D01*
X133202361Y-110725570D01*
X133275261Y-110751868D01*
X133376250Y-110779290D01*
X133396876Y-110765107D01*
X133474479Y-110654054D01*
X133555763Y-110502008D01*
X133593380Y-110393172D01*
X133591179Y-110374316D01*
X133500021Y-110248474D01*
X133338119Y-110147470D01*
X133192561Y-110128756D01*
X133103617Y-110220875D01*
X133064796Y-110409960D01*
X132796864Y-110409960D01*
X132796864Y-110193595D01*
X132797092Y-110086584D01*
X132804499Y-109725420D01*
X132825878Y-109504349D01*
X132865996Y-109393566D01*
X132929617Y-109363262D01*
X133021187Y-109414765D01*
X133062370Y-109616494D01*
X133067777Y-109734639D01*
X133122790Y-109833738D01*
X133274962Y-109829087D01*
X133382537Y-109822503D01*
X133605693Y-109909454D01*
X133766362Y-110103536D01*
X133845935Y-110358126D01*
X133843307Y-110393172D01*
X133825802Y-110626595D01*
X133687354Y-110862320D01*
G37*
G36*
X136608201Y-108212739D02*
G01*
X136490835Y-108210157D01*
X136097398Y-108161073D01*
X135788705Y-108059786D01*
X135609951Y-107919572D01*
X135594969Y-107892435D01*
X135546370Y-107679198D01*
X135553727Y-107548976D01*
X136027178Y-107548976D01*
X136030458Y-107595161D01*
X136106484Y-107705136D01*
X136314809Y-107753712D01*
X136486649Y-107760417D01*
X136582464Y-107706753D01*
X136602439Y-107548976D01*
X136590235Y-107411268D01*
X136512407Y-107341332D01*
X136314809Y-107344240D01*
X136240271Y-107353445D01*
X136073475Y-107416312D01*
X136027178Y-107548976D01*
X135553727Y-107548976D01*
X135559895Y-107439785D01*
X135632209Y-107271332D01*
X135677864Y-107173384D01*
X135634399Y-106943875D01*
X135622706Y-106910133D01*
X135617493Y-106851746D01*
X136043563Y-106851746D01*
X136146911Y-106935868D01*
X136346403Y-106973715D01*
X136446535Y-106969483D01*
X136572405Y-106912630D01*
X136602439Y-106752460D01*
X136602096Y-106727773D01*
X136555179Y-106572503D01*
X136398885Y-106531206D01*
X136205532Y-106567235D01*
X136057357Y-106686237D01*
X136043563Y-106851746D01*
X135617493Y-106851746D01*
X135597824Y-106631454D01*
X135680534Y-106383793D01*
X135850633Y-106233520D01*
X135959428Y-106210094D01*
X136211457Y-106186383D01*
X136521176Y-106177199D01*
X137044948Y-106177199D01*
X137044948Y-108212739D01*
X136608201Y-108212739D01*
G37*
G36*
X120536447Y-106180492D02*
G01*
X120613626Y-106214036D01*
X120654254Y-106314526D01*
X120670237Y-106518649D01*
X120673481Y-106863087D01*
X120679726Y-107198611D01*
X120710601Y-107508688D01*
X120777190Y-107685362D01*
X120890336Y-107753076D01*
X121060884Y-107736272D01*
X121160050Y-107715564D01*
X121267666Y-107741023D01*
X121291638Y-107886547D01*
X121279064Y-108027221D01*
X121232637Y-108153738D01*
X121090750Y-108211288D01*
X120849814Y-108209122D01*
X120596236Y-108146956D01*
X120406621Y-108035736D01*
X120365366Y-107990603D01*
X120295409Y-107870929D01*
X120254161Y-107695936D01*
X120234579Y-107425118D01*
X120229617Y-107017966D01*
X120229673Y-106875749D01*
X120233103Y-106535858D01*
X120248213Y-106329212D01*
X120283728Y-106222657D01*
X120348372Y-106183038D01*
X120450871Y-106177199D01*
X120536447Y-106180492D01*
G37*
G36*
X143129634Y-109916537D02*
G01*
X143124941Y-109997681D01*
X143063802Y-110173276D01*
X142943884Y-110479157D01*
X142879798Y-110653008D01*
X142794655Y-110986052D01*
X142808280Y-111203952D01*
X142821228Y-111240896D01*
X142829543Y-111367020D01*
X142716530Y-111398802D01*
X142622407Y-111374786D01*
X142509055Y-111243924D01*
X142508183Y-111240869D01*
X142453958Y-111078821D01*
X142356822Y-110810249D01*
X142237193Y-110491659D01*
X142179641Y-110340031D01*
X142092151Y-110092382D01*
X142065091Y-109958930D01*
X142095011Y-109904589D01*
X142178463Y-109894272D01*
X142228959Y-109900938D01*
X142353383Y-110006291D01*
X142457853Y-110261103D01*
X142567758Y-110627934D01*
X142690035Y-110261103D01*
X142721797Y-110172572D01*
X142840871Y-109959934D01*
X142981940Y-109894272D01*
X143080210Y-109894011D01*
X143129634Y-109916537D01*
G37*
G36*
X125108655Y-107475703D02*
G01*
X125038199Y-107790972D01*
X124864023Y-108029312D01*
X124654383Y-108148967D01*
X124377488Y-108213815D01*
X124120739Y-108195148D01*
X123931764Y-108097824D01*
X123858188Y-107926702D01*
X123864019Y-107852762D01*
X123930668Y-107782560D01*
X124112787Y-107799025D01*
X124292983Y-107808808D01*
X124533171Y-107724400D01*
X124594844Y-107673116D01*
X124607562Y-107624125D01*
X124496199Y-107602218D01*
X124234321Y-107596042D01*
X124086644Y-107593663D01*
X123881865Y-107573295D01*
X123790558Y-107517940D01*
X123769687Y-107410405D01*
X123804862Y-107207815D01*
X123830389Y-107150718D01*
X124256446Y-107150718D01*
X124279648Y-107211693D01*
X124433450Y-107239220D01*
X124578710Y-107215963D01*
X124610453Y-107150718D01*
X124581901Y-107118325D01*
X124433450Y-107062216D01*
X124384868Y-107068391D01*
X124256446Y-107150718D01*
X123830389Y-107150718D01*
X123919560Y-106951268D01*
X124070566Y-106775941D01*
X124151962Y-106737378D01*
X124415790Y-106708099D01*
X124701461Y-106761183D01*
X124920209Y-106885213D01*
X124924871Y-106889938D01*
X125071065Y-107150718D01*
X125072006Y-107152396D01*
X125108655Y-107475703D01*
G37*
G36*
X132302500Y-106392406D02*
G01*
X132354356Y-106531206D01*
X132378995Y-106634426D01*
X132487108Y-106708209D01*
X132564523Y-106741062D01*
X132619861Y-106885213D01*
X132595221Y-106988433D01*
X132487108Y-107062216D01*
X132456980Y-107066429D01*
X132394886Y-107135462D01*
X132363218Y-107314805D01*
X132354356Y-107637478D01*
X132354228Y-107731432D01*
X132347221Y-108001987D01*
X132318285Y-108145731D01*
X132252038Y-108202652D01*
X132133101Y-108212739D01*
X132096965Y-108212407D01*
X131992905Y-108194189D01*
X131937619Y-108118954D01*
X131915727Y-107946713D01*
X131911847Y-107637478D01*
X131910875Y-107506922D01*
X131894944Y-107237849D01*
X131853557Y-107100621D01*
X131779094Y-107062216D01*
X131701679Y-107029364D01*
X131646342Y-106885213D01*
X131670981Y-106781993D01*
X131779094Y-106708209D01*
X131856509Y-106675357D01*
X131911847Y-106531206D01*
X131959602Y-106395687D01*
X132133101Y-106354202D01*
X132302500Y-106392406D01*
G37*
G36*
X156991114Y-106224757D02*
G01*
X157012111Y-106306961D01*
X156997155Y-106450691D01*
X156912908Y-106502426D01*
X156725207Y-106531206D01*
X156672582Y-106529814D01*
X156543887Y-106481913D01*
X156531301Y-106332077D01*
X156576029Y-106218380D01*
X156714722Y-106114902D01*
X156876415Y-106111582D01*
X156991114Y-106224757D01*
G37*
G36*
X144296949Y-111014168D02*
G01*
X144276817Y-111248510D01*
X144236130Y-111366393D01*
X144169338Y-111398802D01*
X144085016Y-111358543D01*
X144036586Y-111189820D01*
X144034797Y-111133278D01*
X143983970Y-111020360D01*
X143823993Y-111021478D01*
X143712540Y-111027994D01*
X143489670Y-110939847D01*
X143330571Y-110745007D01*
X143253361Y-110489719D01*
X143258811Y-110425283D01*
X143505575Y-110425283D01*
X143533131Y-110498030D01*
X143644649Y-110640215D01*
X143733538Y-110724253D01*
X143799527Y-110772303D01*
X143814076Y-110766198D01*
X143925958Y-110720677D01*
X144004378Y-110626952D01*
X144033824Y-110438098D01*
X144000230Y-110243808D01*
X143906394Y-110128756D01*
X143890252Y-110123991D01*
X143730785Y-110158267D01*
X143575438Y-110278762D01*
X143505575Y-110425283D01*
X143258811Y-110425283D01*
X143276156Y-110220226D01*
X143417073Y-109982774D01*
X143503412Y-109899780D01*
X143622499Y-109825222D01*
X143772955Y-109817040D01*
X144025523Y-109861084D01*
X144302091Y-109916398D01*
X144302091Y-110657600D01*
X144296949Y-111014168D01*
G37*
G36*
X130573557Y-109890909D02*
G01*
X130718804Y-110034802D01*
X130767071Y-110216292D01*
X130699146Y-110394125D01*
X130495819Y-110527046D01*
X130484921Y-110530912D01*
X130304732Y-110618209D01*
X130230314Y-110699446D01*
X130247965Y-110750253D01*
X130373005Y-110770973D01*
X130590139Y-110687674D01*
X130627918Y-110668338D01*
X130735721Y-110650132D01*
X130761324Y-110768801D01*
X130742931Y-110871311D01*
X130650697Y-110986182D01*
X130493714Y-111032485D01*
X130222366Y-111017985D01*
X130034820Y-110875967D01*
X129964809Y-110624233D01*
X129965159Y-110606245D01*
X130031239Y-110435817D01*
X130237019Y-110321182D01*
X130245255Y-110318280D01*
X130418306Y-110227212D01*
X130423524Y-110140583D01*
X130347367Y-110104114D01*
X130151314Y-110154692D01*
X130084568Y-110188159D01*
X129986551Y-110197870D01*
X129964809Y-110076076D01*
X130000712Y-109954287D01*
X130177820Y-109844182D01*
X130350542Y-109825867D01*
X130573557Y-109890909D01*
G37*
G36*
X134680129Y-109852198D02*
G01*
X135009408Y-109913971D01*
X135009408Y-110479383D01*
X135008621Y-110595422D01*
X134993072Y-110867145D01*
X134951675Y-111005900D01*
X134876655Y-111044795D01*
X134807319Y-111016478D01*
X134758114Y-110880563D01*
X134743903Y-110602286D01*
X134737930Y-110442888D01*
X134705886Y-110239373D01*
X134655401Y-110159777D01*
X134646852Y-110159768D01*
X134500523Y-110157606D01*
X134475685Y-110181471D01*
X134428050Y-110332850D01*
X134389896Y-110577989D01*
X134371689Y-110717174D01*
X134309080Y-110932929D01*
X134212892Y-111000544D01*
X134195123Y-110998670D01*
X134101216Y-110901338D01*
X134052358Y-110696269D01*
X134049854Y-110439013D01*
X134095011Y-110185119D01*
X134189135Y-109990136D01*
X134287060Y-109888010D01*
X134440504Y-109828386D01*
X134680129Y-109852198D01*
G37*
G36*
X131859007Y-110877282D02*
G01*
X131693175Y-110982324D01*
X131372247Y-111028696D01*
X131026830Y-111023929D01*
X131026830Y-110647749D01*
X131354036Y-110647749D01*
X131362622Y-110675324D01*
X131460403Y-110755675D01*
X131584897Y-110745955D01*
X131646342Y-110646537D01*
X131623081Y-110565150D01*
X131491464Y-110530633D01*
X131411142Y-110560336D01*
X131354036Y-110647749D01*
X131026830Y-110647749D01*
X131026830Y-110506465D01*
X131028093Y-110372090D01*
X131048226Y-110120280D01*
X131104571Y-109976120D01*
X131212076Y-109889861D01*
X131342738Y-109843465D01*
X131566408Y-109839622D01*
X131748278Y-109910099D01*
X131823345Y-110039033D01*
X131795777Y-110124018D01*
X131656139Y-110136696D01*
X131551582Y-110125160D01*
X131368508Y-110169270D01*
X131357111Y-110176743D01*
X131327300Y-110230039D01*
X131462370Y-110246924D01*
X131526885Y-110252974D01*
X131744732Y-110335799D01*
X131925148Y-110477998D01*
X132000349Y-110631160D01*
X131995114Y-110646537D01*
X131970076Y-110720075D01*
X131859007Y-110877282D01*
G37*
G36*
X144882414Y-106708259D02*
G01*
X145188647Y-106714529D01*
X145360526Y-106738902D01*
X145435900Y-106792192D01*
X145452614Y-106885213D01*
X145443039Y-106963389D01*
X145357958Y-107042023D01*
X145145636Y-107062216D01*
X144838659Y-107062216D01*
X145145636Y-107585993D01*
X145148717Y-107591252D01*
X145301920Y-107859870D01*
X145411033Y-108064515D01*
X145452614Y-108161254D01*
X145452127Y-108163300D01*
X145359734Y-108188285D01*
X145138467Y-108206005D01*
X144833101Y-108212739D01*
X144667908Y-108212336D01*
X144411289Y-108203729D01*
X144275742Y-108173234D01*
X144222699Y-108107078D01*
X144213589Y-107991485D01*
X144219930Y-107895270D01*
X144289345Y-107794043D01*
X144479094Y-107770230D01*
X144481944Y-107770228D01*
X144667545Y-107757470D01*
X144744600Y-107727309D01*
X144719470Y-107668293D01*
X144623049Y-107493746D01*
X144479094Y-107252887D01*
X144367371Y-107066027D01*
X144256500Y-106865287D01*
X144213589Y-106764798D01*
X144214076Y-106762548D01*
X144306475Y-106735086D01*
X144527740Y-106715610D01*
X144833101Y-106708209D01*
X144882414Y-106708259D01*
G37*
G36*
X115494645Y-106711825D02*
G01*
X115570251Y-106746460D01*
X115609835Y-106848618D01*
X115625045Y-107054791D01*
X115627526Y-107401473D01*
X115627157Y-107479374D01*
X115617202Y-107802367D01*
X115596423Y-108042908D01*
X115568525Y-108153738D01*
X115515550Y-108183845D01*
X115347271Y-108212739D01*
X115305879Y-108209464D01*
X115241971Y-108168268D01*
X115205428Y-108052435D01*
X115188895Y-107827869D01*
X115185018Y-107460474D01*
X115186992Y-107099073D01*
X115199797Y-106875504D01*
X115233741Y-106759200D01*
X115299130Y-106715116D01*
X115406272Y-106708209D01*
X115494645Y-106711825D01*
G37*
G36*
X119820779Y-108047427D02*
G01*
X119743140Y-108112500D01*
X119535076Y-108182584D01*
X119201266Y-108200121D01*
X118725087Y-108194433D01*
X118725087Y-107725979D01*
X119123345Y-107725979D01*
X119166837Y-107787204D01*
X119322474Y-107842762D01*
X119460513Y-107835522D01*
X119521603Y-107725979D01*
X119484754Y-107630653D01*
X119322474Y-107609197D01*
X119198618Y-107646117D01*
X119123345Y-107725979D01*
X118725087Y-107725979D01*
X118725087Y-107557523D01*
X118736121Y-107242661D01*
X118773439Y-106961613D01*
X118831290Y-106814412D01*
X118883675Y-106782165D01*
X119088854Y-106729147D01*
X119362300Y-106708209D01*
X119509727Y-106709714D01*
X119694534Y-106730635D01*
X119771641Y-106795231D01*
X119787108Y-106927251D01*
X119779417Y-107040070D01*
X119712925Y-107113046D01*
X119532337Y-107095339D01*
X119341425Y-107085827D01*
X119217357Y-107141802D01*
X119239956Y-107213353D01*
X119421557Y-107239220D01*
X119527569Y-107247197D01*
X119784834Y-107354229D01*
X119933737Y-107552184D01*
X119947272Y-107725979D01*
X119952858Y-107797704D01*
X119820779Y-108047427D01*
G37*
G36*
X118371080Y-107465542D02*
G01*
X118369183Y-107819828D01*
X118356521Y-108044469D01*
X118322682Y-108161394D01*
X118257255Y-108205763D01*
X118149826Y-108212739D01*
X118047294Y-108206405D01*
X117967479Y-108155628D01*
X117934834Y-108016077D01*
X117928572Y-107743680D01*
X117926638Y-107636932D01*
X117880166Y-107304457D01*
X117773271Y-107131755D01*
X117608031Y-107122852D01*
X117519522Y-107109443D01*
X117486063Y-106947428D01*
X117490225Y-106858703D01*
X117534875Y-106769014D01*
X117665901Y-106731066D01*
X117928572Y-106721772D01*
X118371080Y-106718345D01*
X118371080Y-107465542D01*
G37*
G36*
X156161324Y-107467654D02*
G01*
X156159531Y-107808589D01*
X156147877Y-108041251D01*
X156117207Y-108161156D01*
X156058364Y-108201823D01*
X155962195Y-108196769D01*
X155878683Y-108176250D01*
X155798544Y-108101992D01*
X155751488Y-107936725D01*
X155718816Y-107637478D01*
X155681885Y-107333764D01*
X155625363Y-107158675D01*
X155541812Y-107106467D01*
X155529386Y-107107182D01*
X155454839Y-107165647D01*
X155408881Y-107339590D01*
X155382711Y-107659603D01*
X155381893Y-107676659D01*
X155362145Y-107972023D01*
X155327528Y-108132789D01*
X155260509Y-108199510D01*
X155143554Y-108212739D01*
X155136992Y-108212725D01*
X155022653Y-108197966D01*
X154957464Y-108127894D01*
X154923890Y-107961957D01*
X154904398Y-107659603D01*
X154901767Y-107607968D01*
X154873492Y-107308962D01*
X154824268Y-107151992D01*
X154745296Y-107106467D01*
X154665494Y-107152951D01*
X154607745Y-107320677D01*
X154568293Y-107637478D01*
X154546611Y-107858697D01*
X154506120Y-108061650D01*
X154438454Y-108160017D01*
X154324913Y-108196769D01*
X154264240Y-108203304D01*
X154186789Y-108184713D01*
X154145397Y-108096054D01*
X154128812Y-107901685D01*
X154125784Y-107565968D01*
X154133815Y-107268295D01*
X154171186Y-106964847D01*
X154236411Y-106816947D01*
X154307185Y-106790609D01*
X154532503Y-106755920D01*
X154862590Y-106730535D01*
X155254181Y-106718633D01*
X156161324Y-106710258D01*
X156161324Y-107467654D01*
G37*
%TO.C,D16*%
X188885000Y-103981250D02*
X188885000Y-104631250D01*
X185765000Y-103981250D02*
X185765000Y-104631250D01*
X185765000Y-103981250D02*
X185765000Y-102306250D01*
X188885000Y-103981250D02*
X188885000Y-103331250D01*
%TO.C,D9*%
X146871250Y-124618750D02*
X146871250Y-125268750D01*
X149991250Y-124618750D02*
X149991250Y-125268750D01*
X146871250Y-124618750D02*
X146871250Y-122943750D01*
X149991250Y-124618750D02*
X149991250Y-123968750D01*
%TO.C,C3*%
X211882836Y-76160000D02*
X211667164Y-76160000D01*
X211882836Y-75440000D02*
X211667164Y-75440000D01*
%TO.C,C_VDDA2*%
X41815580Y-90860000D02*
X41534420Y-90860000D01*
X41815580Y-91880000D02*
X41534420Y-91880000D01*
%TO.C,C_VDDIO2*%
X54605580Y-98050000D02*
X54324420Y-98050000D01*
X54605580Y-99070000D02*
X54324420Y-99070000D01*
%TO.C,D1*%
X60297500Y-66818750D02*
X60297500Y-67468750D01*
X57177500Y-66818750D02*
X57177500Y-67468750D01*
X60297500Y-66818750D02*
X60297500Y-66168750D01*
X57177500Y-66818750D02*
X57177500Y-65143750D01*
%TO.C,D8*%
X103953750Y-123825000D02*
X103953750Y-124475000D01*
X100833750Y-123825000D02*
X100833750Y-122150000D01*
X103953750Y-123825000D02*
X103953750Y-123175000D01*
X100833750Y-123825000D02*
X100833750Y-124475000D01*
%TO.C,D2*%
X61940000Y-84931250D02*
X61940000Y-83256250D01*
X61940000Y-84931250D02*
X61940000Y-85581250D01*
X65060000Y-84931250D02*
X65060000Y-84281250D01*
X65060000Y-84931250D02*
X65060000Y-85581250D01*
%TO.C,R5*%
X219346250Y-69987742D02*
X219346250Y-70462258D01*
X220391250Y-69987742D02*
X220391250Y-70462258D01*
%TO.C,C2*%
X40897836Y-93300000D02*
X40682164Y-93300000D01*
X40897836Y-92580000D02*
X40682164Y-92580000D01*
%TO.C,D6*%
X100040000Y-84931250D02*
X100040000Y-85581250D01*
X100040000Y-84931250D02*
X100040000Y-83256250D01*
X103160000Y-84931250D02*
X103160000Y-84281250D01*
X103160000Y-84931250D02*
X103160000Y-85581250D01*
%TO.C,D10*%
X136497500Y-66675000D02*
X136497500Y-66025000D01*
X133377500Y-66675000D02*
X133377500Y-67325000D01*
X136497500Y-66675000D02*
X136497500Y-67325000D01*
X133377500Y-66675000D02*
X133377500Y-65000000D01*
%TO.C,D5*%
X98397500Y-66818750D02*
X98397500Y-66168750D01*
X98397500Y-66818750D02*
X98397500Y-67468750D01*
X95277500Y-66818750D02*
X95277500Y-65143750D01*
X95277500Y-66818750D02*
X95277500Y-67468750D01*
%TO.C,J3*%
X209990000Y-74110000D02*
X209990000Y-73060000D01*
X211053553Y-72250000D02*
X211053553Y-72750000D01*
X205770000Y-69160000D02*
X205270000Y-68860000D01*
X205270000Y-73040000D02*
X205270000Y-72540000D01*
X205770000Y-72240000D02*
X205770000Y-69160000D01*
X206660000Y-67290000D02*
X209990000Y-67290000D01*
X206660000Y-74110000D02*
X209990000Y-74110000D01*
X209990000Y-67290000D02*
X209990000Y-68340000D01*
X209990000Y-73060000D02*
X210200000Y-73060000D01*
X205270000Y-72540000D02*
X205770000Y-72240000D01*
X205270000Y-68860000D02*
X205270000Y-68360000D01*
X211053553Y-72750000D02*
X210700000Y-72500000D01*
X210700000Y-72500000D02*
X211053553Y-72250000D01*
%TO.C,D18*%
X191930000Y-66440000D02*
X191930000Y-64765000D01*
X191930000Y-66440000D02*
X191930000Y-67090000D01*
X195050000Y-66440000D02*
X195050000Y-65790000D01*
X195050000Y-66440000D02*
X195050000Y-67090000D01*
%TO.C,Geon*%
G36*
X217232056Y-130267319D02*
G01*
X217085911Y-130566357D01*
X217050932Y-130608626D01*
X216850516Y-130758190D01*
X216571815Y-130799547D01*
X216353584Y-130777613D01*
X216122145Y-130699732D01*
X215980883Y-130588140D01*
X215972924Y-130466798D01*
X216077561Y-130418876D01*
X216298452Y-130473625D01*
X216564345Y-130519159D01*
X216784423Y-130438282D01*
X216899694Y-130236925D01*
X216903544Y-130201441D01*
X216863258Y-130132790D01*
X216719226Y-130099950D01*
X216435060Y-130091533D01*
X216245677Y-130089259D01*
X216048894Y-130068883D01*
X215961590Y-130014432D01*
X215941811Y-129910507D01*
X215960434Y-129836864D01*
X216295818Y-129836864D01*
X216299306Y-129848355D01*
X216405263Y-129895437D01*
X216612950Y-129914530D01*
X216692163Y-129911718D01*
X216867780Y-129860974D01*
X216878217Y-129757645D01*
X216718353Y-129616228D01*
X216708032Y-129610230D01*
X216535570Y-129597617D01*
X216369893Y-129687925D01*
X216295818Y-129836864D01*
X215960434Y-129836864D01*
X215980515Y-129757455D01*
X216140015Y-129537509D01*
X216368300Y-129364881D01*
X216605574Y-129295017D01*
X216700613Y-129302667D01*
X216967872Y-129421749D01*
X217156534Y-129651337D01*
X217190090Y-129757645D01*
X217250096Y-129947753D01*
X217232056Y-130267319D01*
G37*
G36*
X233702000Y-127376471D02*
G01*
X233420905Y-127599264D01*
X233213044Y-127679818D01*
X232848277Y-127691986D01*
X232502164Y-127567973D01*
X232220396Y-127327990D01*
X232048664Y-126992248D01*
X232000053Y-126659793D01*
X232022363Y-126524821D01*
X232530905Y-126524821D01*
X232533247Y-126793703D01*
X232596433Y-126981675D01*
X232686592Y-127148355D01*
X232689981Y-127152338D01*
X232872308Y-127246758D01*
X233101702Y-127238108D01*
X233286003Y-127129316D01*
X233349116Y-127010342D01*
X233397369Y-126742791D01*
X233379502Y-126459277D01*
X233294635Y-126249518D01*
X233239026Y-126193234D01*
X233032932Y-126108391D01*
X232820028Y-126154091D01*
X232639592Y-126302259D01*
X232530905Y-126524821D01*
X232022363Y-126524821D01*
X232065671Y-126262806D01*
X232265680Y-125948207D01*
X232582148Y-125741064D01*
X232997140Y-125666446D01*
X233184509Y-125675260D01*
X233427467Y-125747758D01*
X233648968Y-125925143D01*
X233689389Y-125966465D01*
X233828502Y-126147661D01*
X233891660Y-126351830D01*
X233905697Y-126655283D01*
X233895562Y-126742791D01*
X233857699Y-127069713D01*
X233702000Y-127376471D01*
G37*
G36*
X223527374Y-127441541D02*
G01*
X223398083Y-127609743D01*
X223253189Y-127657094D01*
X223021951Y-127653492D01*
X222851447Y-127624691D01*
X222601568Y-127607593D01*
X222568284Y-127607705D01*
X222476695Y-127587534D01*
X222426983Y-127505808D01*
X222406460Y-127324059D01*
X222403532Y-127090842D01*
X222667944Y-127090842D01*
X222714104Y-127220170D01*
X222894960Y-127350170D01*
X222954374Y-127372639D01*
X223124756Y-127426197D01*
X223205344Y-127404767D01*
X223256916Y-127299911D01*
X223271326Y-127259325D01*
X223276028Y-127150713D01*
X223179372Y-127075030D01*
X222945469Y-126997419D01*
X222788265Y-126959443D01*
X222689676Y-126978295D01*
X222667944Y-127090842D01*
X222403532Y-127090842D01*
X222402439Y-127003817D01*
X222408884Y-126744022D01*
X222449128Y-126443471D01*
X222528650Y-126291386D01*
X222654783Y-126233525D01*
X222887785Y-126206352D01*
X223140412Y-126226390D01*
X223347859Y-126287209D01*
X223445323Y-126382376D01*
X223438978Y-126456309D01*
X223339046Y-126506203D01*
X223101046Y-126515128D01*
X223043356Y-126514918D01*
X222802905Y-126544662D01*
X222691661Y-126617840D01*
X222722220Y-126696778D01*
X222906382Y-126728467D01*
X223115225Y-126760847D01*
X223356266Y-126866238D01*
X223464174Y-126978404D01*
X223527279Y-127150713D01*
X223548078Y-127207506D01*
X223527374Y-127441541D01*
G37*
G36*
X217904788Y-128833046D02*
G01*
X217938758Y-128883378D01*
X217934838Y-129026701D01*
X217827898Y-129096769D01*
X217666520Y-129076904D01*
X217556942Y-128963182D01*
X217551739Y-128920708D01*
X217624428Y-128820213D01*
X217768184Y-128781238D01*
X217904788Y-128833046D01*
G37*
G36*
X227747886Y-129363357D02*
G01*
X227922253Y-129413186D01*
X228146144Y-129411492D01*
X228215957Y-129397644D01*
X228280556Y-129419098D01*
X228315303Y-129518073D01*
X228329401Y-129727726D01*
X228332055Y-130081211D01*
X228331300Y-130283187D01*
X228322141Y-130562143D01*
X228295523Y-130717611D01*
X228242731Y-130784957D01*
X228155052Y-130799547D01*
X228075733Y-130789451D01*
X228012537Y-130724357D01*
X227984439Y-130563231D01*
X227978048Y-130265685D01*
X227974749Y-130039337D01*
X227950990Y-129831104D01*
X227890878Y-129719250D01*
X227778919Y-129656365D01*
X227604394Y-129620403D01*
X227461128Y-129693516D01*
X227382514Y-129908224D01*
X227358536Y-130279373D01*
X227358390Y-130326474D01*
X227344922Y-130611542D01*
X227303559Y-130758108D01*
X227225784Y-130799547D01*
X227174458Y-130784047D01*
X227124968Y-130690634D01*
X227099952Y-130484575D01*
X227093031Y-130133887D01*
X227093561Y-129970804D01*
X227103276Y-129690021D01*
X227134974Y-129524711D01*
X227201147Y-129431601D01*
X227314285Y-129367416D01*
X227496757Y-129313336D01*
X227747886Y-129363357D01*
G37*
G36*
X230337226Y-125675419D02*
G01*
X230413906Y-125733842D01*
X230452585Y-125884344D01*
X230473806Y-126169374D01*
X230500348Y-126672303D01*
X230879347Y-126169374D01*
X230893845Y-126150204D01*
X231130522Y-125865416D01*
X231315296Y-125712180D01*
X231476734Y-125666446D01*
X231695122Y-125666446D01*
X231695122Y-127613484D01*
X231473867Y-127613484D01*
X231453112Y-127613390D01*
X231340737Y-127598335D01*
X231280821Y-127528901D01*
X231256925Y-127364221D01*
X231252613Y-127063431D01*
X231252613Y-126513378D01*
X230876480Y-127060774D01*
X230732864Y-127262959D01*
X230554764Y-127474981D01*
X230407366Y-127580963D01*
X230256968Y-127610827D01*
X230013588Y-127613484D01*
X230013588Y-125666446D01*
X230230426Y-125666446D01*
X230337226Y-125675419D01*
G37*
G36*
X215162578Y-129338925D02*
G01*
X215396629Y-129447459D01*
X215429267Y-129473928D01*
X215601753Y-129724922D01*
X215674799Y-130044892D01*
X215642539Y-130366582D01*
X215499110Y-130622736D01*
X215356720Y-130717062D01*
X215111292Y-130783965D01*
X214854375Y-130786872D01*
X214645221Y-130726877D01*
X214543080Y-130605075D01*
X214544519Y-130520524D01*
X214629098Y-130485264D01*
X214843218Y-130508181D01*
X214877292Y-130513122D01*
X215169344Y-130487233D01*
X215349351Y-130325175D01*
X215410801Y-130032407D01*
X215380455Y-129893175D01*
X215233159Y-129710750D01*
X215019624Y-129613764D01*
X214803042Y-129642734D01*
X214629470Y-129722838D01*
X214544657Y-129704237D01*
X214525784Y-129564533D01*
X214545211Y-129482575D01*
X214682695Y-129363766D01*
X214906541Y-129313455D01*
X215162578Y-129338925D01*
G37*
G36*
X225021099Y-125493216D02*
G01*
X225079097Y-125526871D01*
X225115697Y-125620190D01*
X225135787Y-125802508D01*
X225144256Y-126103155D01*
X225145993Y-126551463D01*
X225145364Y-126864123D01*
X225139755Y-127212112D01*
X225124201Y-127431710D01*
X225093815Y-127552251D01*
X225043707Y-127603065D01*
X224968989Y-127613484D01*
X224914670Y-127609777D01*
X224835806Y-127560377D01*
X224800264Y-127419446D01*
X224791986Y-127144425D01*
X224790399Y-127045581D01*
X224743971Y-126710818D01*
X224626700Y-126522155D01*
X224429747Y-126462962D01*
X224352031Y-126475261D01*
X224246253Y-126577154D01*
X224189412Y-126803098D01*
X224172473Y-127178214D01*
X224164480Y-127399438D01*
X224123816Y-127565420D01*
X224039721Y-127613484D01*
X224000750Y-127605767D01*
X223943898Y-127527456D01*
X223915013Y-127338029D01*
X223906968Y-127004809D01*
X223909854Y-126821582D01*
X223947076Y-126488960D01*
X224042175Y-126294060D01*
X224213903Y-126211053D01*
X224481011Y-126214111D01*
X224791986Y-126250416D01*
X224791986Y-125869929D01*
X224804468Y-125629421D01*
X224856394Y-125516833D01*
X224968989Y-125489443D01*
X225021099Y-125493216D01*
G37*
G36*
X222313684Y-130545228D02*
G01*
X222309168Y-130909155D01*
X222294718Y-131139199D01*
X222264851Y-131265811D01*
X222214084Y-131319447D01*
X222136933Y-131330557D01*
X222091242Y-131327818D01*
X221987746Y-131259394D01*
X221959930Y-131065052D01*
X221943646Y-130889421D01*
X221858287Y-130814348D01*
X221650174Y-130799547D01*
X221514586Y-130790694D01*
X221221532Y-130675466D01*
X221045285Y-130427449D01*
X220991046Y-130077214D01*
X221273506Y-130077214D01*
X221327288Y-130319314D01*
X221461465Y-130485133D01*
X221692527Y-130534042D01*
X221796663Y-130531629D01*
X221908649Y-130495871D01*
X221952430Y-130378934D01*
X221959930Y-130132932D01*
X221946095Y-129879494D01*
X221887475Y-129735287D01*
X221760801Y-129657802D01*
X221615683Y-129621453D01*
X221450281Y-129626165D01*
X221398234Y-129658925D01*
X221301418Y-129833059D01*
X221273506Y-130077214D01*
X220991046Y-130077214D01*
X220986411Y-130047282D01*
X220986447Y-130034524D01*
X221029528Y-129697010D01*
X221163414Y-129472021D01*
X221248264Y-129404197D01*
X221469532Y-129312687D01*
X221686087Y-129302780D01*
X221827378Y-129383844D01*
X221915142Y-129428482D01*
X222098106Y-129418501D01*
X222313937Y-129364331D01*
X222313937Y-130347444D01*
X222313684Y-130545228D01*
G37*
G36*
X219475458Y-130566357D02*
G01*
X219424664Y-130626317D01*
X219228784Y-130762451D01*
X218950871Y-130799547D01*
X218861197Y-130797066D01*
X218614289Y-130736372D01*
X218426284Y-130566357D01*
X218335331Y-130425544D01*
X218280842Y-130229644D01*
X218611669Y-130229644D01*
X218703066Y-130427840D01*
X218765041Y-130474997D01*
X218950871Y-130534042D01*
X218952127Y-130534039D01*
X219142076Y-130458535D01*
X219267473Y-130273419D01*
X219316053Y-130037865D01*
X219275549Y-129811046D01*
X219133692Y-129652138D01*
X218980897Y-129578926D01*
X218867974Y-129585006D01*
X218735938Y-129699597D01*
X218699949Y-129742619D01*
X218611969Y-129971567D01*
X218611669Y-130229644D01*
X218280842Y-130229644D01*
X218250915Y-130122048D01*
X218290487Y-129831412D01*
X218428147Y-129580525D01*
X218637994Y-129396277D01*
X218894128Y-129305555D01*
X219170648Y-129335250D01*
X219441653Y-129512249D01*
X219505851Y-129585839D01*
X219643151Y-129897279D01*
X219639254Y-130037865D01*
X219633594Y-130242027D01*
X219475458Y-130566357D01*
G37*
G36*
X236854469Y-128881784D02*
G01*
X237015717Y-128956263D01*
X237184551Y-129106720D01*
X237243030Y-129167101D01*
X237374194Y-129344714D01*
X237433709Y-129549403D01*
X237447735Y-129855604D01*
X237445539Y-130017348D01*
X237417543Y-130253056D01*
X237336241Y-130414494D01*
X237175439Y-130570425D01*
X237057435Y-130659763D01*
X236806260Y-130769464D01*
X236474664Y-130799547D01*
X236233844Y-130796309D01*
X235975471Y-130763848D01*
X235835308Y-130669958D01*
X235777503Y-130482807D01*
X235766202Y-130170566D01*
X235766202Y-129649024D01*
X236196438Y-129649024D01*
X236381523Y-129651074D01*
X236543894Y-129672866D01*
X236597735Y-129738077D01*
X236584378Y-129870279D01*
X236527727Y-130012986D01*
X236375397Y-130091533D01*
X236351278Y-130092665D01*
X236229386Y-130161888D01*
X236226003Y-130286013D01*
X236347874Y-130391503D01*
X236500933Y-130411631D01*
X236709495Y-130321618D01*
X236870093Y-130128694D01*
X236950570Y-129876869D01*
X236918770Y-129610155D01*
X236783585Y-129392679D01*
X236544687Y-129263426D01*
X236252994Y-129295005D01*
X236148498Y-129332897D01*
X235954732Y-129374736D01*
X235872935Y-129314828D01*
X235870950Y-129140139D01*
X235896161Y-129009679D01*
X235965246Y-128930024D01*
X236121639Y-128890995D01*
X236410161Y-128870148D01*
X236632470Y-128862409D01*
X236854469Y-128881784D01*
G37*
G36*
X226662656Y-128837802D02*
G01*
X226683812Y-128981911D01*
X226622883Y-129068919D01*
X226472327Y-129113039D01*
X226336000Y-129021801D01*
X226330306Y-128888741D01*
X226438617Y-128794351D01*
X226598830Y-128793156D01*
X226662656Y-128837802D01*
G37*
G36*
X228207162Y-125493216D02*
G01*
X228265160Y-125526871D01*
X228301760Y-125620190D01*
X228321850Y-125802508D01*
X228330319Y-126103155D01*
X228332055Y-126551463D01*
X228331426Y-126864123D01*
X228325817Y-127212112D01*
X228310264Y-127431710D01*
X228279878Y-127552251D01*
X228229770Y-127603065D01*
X228155052Y-127613484D01*
X228100733Y-127609777D01*
X228021868Y-127560377D01*
X227986327Y-127419446D01*
X227978048Y-127144425D01*
X227976461Y-127045581D01*
X227930034Y-126710818D01*
X227812763Y-126522155D01*
X227615810Y-126462962D01*
X227538094Y-126475261D01*
X227432316Y-126577154D01*
X227375475Y-126803098D01*
X227358536Y-127178214D01*
X227350543Y-127399438D01*
X227309879Y-127565420D01*
X227225784Y-127613484D01*
X227186813Y-127605767D01*
X227129960Y-127527456D01*
X227101075Y-127338029D01*
X227093031Y-127004809D01*
X227096380Y-126808963D01*
X227135080Y-126478285D01*
X227231502Y-126286825D01*
X227403529Y-126210364D01*
X227669041Y-126224685D01*
X227978048Y-126274830D01*
X227978048Y-125882136D01*
X227978078Y-125863263D01*
X227991636Y-125625432D01*
X228043831Y-125515902D01*
X228155052Y-125489443D01*
X228207162Y-125493216D01*
G37*
G36*
X233907589Y-129854457D02*
G01*
X233887093Y-130146406D01*
X233810471Y-130348717D01*
X233648968Y-130540850D01*
X233530300Y-130648624D01*
X233304069Y-130768310D01*
X233004897Y-130799547D01*
X232610416Y-130741426D01*
X232297628Y-130547177D01*
X232080895Y-130208057D01*
X232020515Y-129918214D01*
X232523973Y-129918214D01*
X232596909Y-130181920D01*
X232761504Y-130359373D01*
X232891710Y-130424698D01*
X232990454Y-130426433D01*
X233138181Y-130347204D01*
X233292252Y-130212799D01*
X233396968Y-129985008D01*
X233406657Y-129733715D01*
X233335095Y-129498633D01*
X233196058Y-129319475D01*
X233003323Y-129235953D01*
X232770666Y-129287780D01*
X232650857Y-129391365D01*
X232542140Y-129633085D01*
X232523973Y-129918214D01*
X232020515Y-129918214D01*
X231998465Y-129812367D01*
X232070435Y-129415235D01*
X232291788Y-129076494D01*
X232432493Y-128958570D01*
X232644481Y-128874687D01*
X232953022Y-128852509D01*
X233237345Y-128869736D01*
X233449569Y-128945601D01*
X233648968Y-129111206D01*
X233665048Y-129127422D01*
X233819007Y-129317518D01*
X233890293Y-129523900D01*
X233902357Y-129733715D01*
X233907665Y-129826028D01*
X233907589Y-129854457D01*
G37*
G36*
X220170203Y-129432788D02*
G01*
X220307264Y-129502914D01*
X220366899Y-129477039D01*
X220381917Y-129433961D01*
X220499651Y-129383519D01*
X220558451Y-129406058D01*
X220603464Y-129510242D01*
X220626151Y-129728257D01*
X220632404Y-130091533D01*
X220631752Y-130278206D01*
X220622866Y-130559700D01*
X220596446Y-130716685D01*
X220543591Y-130784766D01*
X220455400Y-130799547D01*
X220394256Y-130794558D01*
X220319654Y-130741381D01*
X220286152Y-130595557D01*
X220278397Y-130315060D01*
X220275014Y-130103714D01*
X220246470Y-129906385D01*
X220168197Y-129789204D01*
X220015937Y-129694850D01*
X219839056Y-129566887D01*
X219804151Y-129427072D01*
X219869213Y-129319233D01*
X219977380Y-129316774D01*
X220170203Y-129432788D01*
G37*
G36*
X225586754Y-129382796D02*
G01*
X225726685Y-129463576D01*
X225921822Y-129706466D01*
X226001859Y-130018143D01*
X225958988Y-130348844D01*
X225785401Y-130648805D01*
X225624067Y-130746330D01*
X225379191Y-130792224D01*
X225120520Y-130780048D01*
X224909449Y-130713179D01*
X224807373Y-130594994D01*
X224806435Y-130500419D01*
X224886955Y-130466532D01*
X225095178Y-130494399D01*
X225136212Y-130501436D01*
X225436976Y-130492785D01*
X225617077Y-130354759D01*
X225677003Y-130087018D01*
X225664636Y-129974771D01*
X225576233Y-129760532D01*
X225437383Y-129613681D01*
X225289459Y-129587539D01*
X225082275Y-129661625D01*
X224896973Y-129706396D01*
X224812225Y-129677366D01*
X224791986Y-129573518D01*
X224862567Y-129430972D01*
X225053496Y-129339552D01*
X225312401Y-129319292D01*
X225586754Y-129382796D01*
G37*
G36*
X226584146Y-127609743D02*
G01*
X226439285Y-127657124D01*
X226208014Y-127653654D01*
X226020414Y-127624461D01*
X225743379Y-127610153D01*
X225611223Y-127605369D01*
X225534740Y-127553319D01*
X225505012Y-127410535D01*
X225500000Y-127133892D01*
X225500829Y-127106347D01*
X225871468Y-127106347D01*
X225875868Y-127128263D01*
X225992370Y-127293908D01*
X226190150Y-127379420D01*
X226387230Y-127346611D01*
X226438303Y-127294136D01*
X226423217Y-127172041D01*
X226289079Y-127051745D01*
X226067894Y-126970903D01*
X225996890Y-126959476D01*
X225881279Y-126980318D01*
X225871468Y-127106347D01*
X225500829Y-127106347D01*
X225505442Y-126953039D01*
X225537264Y-126642445D01*
X225588075Y-126419832D01*
X225629907Y-126323765D01*
X225713013Y-126236483D01*
X225865364Y-126206815D01*
X226140382Y-126214942D01*
X226357566Y-126234873D01*
X226556955Y-126289304D01*
X226631321Y-126382376D01*
X226625004Y-126456334D01*
X226525091Y-126506209D01*
X226287109Y-126515128D01*
X226229419Y-126514918D01*
X225988968Y-126544662D01*
X225877723Y-126617840D01*
X225908283Y-126696778D01*
X226092444Y-126728467D01*
X226301288Y-126760847D01*
X226542328Y-126866238D01*
X226650237Y-126978404D01*
X226734140Y-127207506D01*
X226726477Y-127294136D01*
X226713437Y-127441541D01*
X226584146Y-127609743D01*
G37*
G36*
X230323637Y-128856701D02*
G01*
X230412315Y-128901376D01*
X230448924Y-129032393D01*
X230456097Y-129295017D01*
X230460571Y-129454319D01*
X230484604Y-129657831D01*
X230522473Y-129737355D01*
X230585064Y-129689386D01*
X230720653Y-129528971D01*
X230890332Y-129294846D01*
X230934739Y-129230586D01*
X231118832Y-128998063D01*
X231274352Y-128883277D01*
X231443467Y-128852509D01*
X231695122Y-128852509D01*
X231695122Y-130799547D01*
X231477677Y-130799547D01*
X231357413Y-130786416D01*
X231289216Y-130719678D01*
X231254509Y-130558213D01*
X231234710Y-130260902D01*
X231208362Y-129722256D01*
X230829180Y-130260902D01*
X230755659Y-130363552D01*
X230546416Y-130623243D01*
X230381483Y-130759839D01*
X230231793Y-130799547D01*
X230013588Y-130799547D01*
X230013588Y-128852509D01*
X230234843Y-128852509D01*
X230323637Y-128856701D01*
G37*
G36*
X224538563Y-130355868D02*
G01*
X224373116Y-130644669D01*
X224199450Y-130751689D01*
X223900490Y-130799547D01*
X223841485Y-130799086D01*
X223518745Y-130767587D01*
X223341542Y-130679435D01*
X223287456Y-130524573D01*
X223305615Y-130424041D01*
X223395546Y-130358730D01*
X223508710Y-130445540D01*
X223578226Y-130497682D01*
X223771187Y-130531243D01*
X223991634Y-130507188D01*
X224154773Y-130427840D01*
X224245796Y-130315481D01*
X224253321Y-130188926D01*
X224097338Y-130115346D01*
X223774216Y-130091533D01*
X223594456Y-130089454D01*
X223395779Y-130069389D01*
X223307507Y-130014969D01*
X223287456Y-129910507D01*
X223319206Y-129787741D01*
X223641463Y-129787741D01*
X223717200Y-129883166D01*
X223951219Y-129914530D01*
X223982530Y-129914250D01*
X224200664Y-129881303D01*
X224250762Y-129793898D01*
X224132470Y-129652549D01*
X224068549Y-129614675D01*
X223882589Y-129594737D01*
X223714572Y-129659490D01*
X223641463Y-129787741D01*
X223319206Y-129787741D01*
X223326686Y-129758819D01*
X223483274Y-129540029D01*
X223703126Y-129366774D01*
X223925071Y-129297832D01*
X224089493Y-129323502D01*
X224339395Y-129476009D01*
X224507205Y-129727958D01*
X224522462Y-129793898D01*
X224578427Y-130035771D01*
X224538563Y-130355868D01*
G37*
G36*
X217766388Y-129384000D02*
G01*
X217827492Y-129424256D01*
X217864925Y-129550668D01*
X217883705Y-129793449D01*
X217888850Y-130182812D01*
X217893949Y-130550109D01*
X217914518Y-130818522D01*
X217955455Y-130969165D01*
X218021602Y-131033048D01*
X218082967Y-131070648D01*
X218154355Y-131207274D01*
X218134248Y-131275649D01*
X217999047Y-131328453D01*
X217763335Y-131276838D01*
X217703284Y-131192016D01*
X217652202Y-130974556D01*
X217620383Y-130670590D01*
X217607995Y-130323842D01*
X217615205Y-129978037D01*
X217642181Y-129676899D01*
X217689089Y-129464151D01*
X217756097Y-129383519D01*
X217766388Y-129384000D01*
G37*
G36*
X226576569Y-129406058D02*
G01*
X226621583Y-129510242D01*
X226644270Y-129728257D01*
X226650522Y-130091533D01*
X226646296Y-130405131D01*
X226626762Y-130645203D01*
X226585884Y-130766199D01*
X226517770Y-130799547D01*
X226458970Y-130777008D01*
X226413956Y-130672824D01*
X226391270Y-130454809D01*
X226385017Y-130091533D01*
X226389243Y-129777936D01*
X226408777Y-129537863D01*
X226449655Y-129416867D01*
X226517770Y-129383519D01*
X226576569Y-129406058D01*
G37*
G36*
X214037598Y-128896512D02*
G01*
X214083275Y-129076541D01*
X214114998Y-129233643D01*
X214216027Y-129351515D01*
X214277392Y-129389115D01*
X214348780Y-129525740D01*
X214333469Y-129583044D01*
X214216027Y-129649024D01*
X214205499Y-129649459D01*
X214131874Y-129701015D01*
X214093994Y-129861829D01*
X214083275Y-130165285D01*
X214077555Y-130392106D01*
X214056132Y-130626404D01*
X214024274Y-130740546D01*
X213900130Y-130796088D01*
X213709285Y-130800538D01*
X213538038Y-130754046D01*
X213463763Y-130666794D01*
X213496615Y-130589379D01*
X213640766Y-130534042D01*
X213681707Y-130532148D01*
X213768895Y-130489326D01*
X213808451Y-130356952D01*
X213817770Y-130091533D01*
X213817012Y-129989181D01*
X213799883Y-129771210D01*
X213746934Y-129672322D01*
X213640766Y-129649024D01*
X213537546Y-129624385D01*
X213463763Y-129516272D01*
X213496615Y-129438857D01*
X213640766Y-129383519D01*
X213686458Y-129380780D01*
X213789954Y-129312356D01*
X213817770Y-129118014D01*
X213845129Y-128931667D01*
X213950522Y-128852509D01*
X214037598Y-128896512D01*
G37*
G36*
X235412195Y-127613484D02*
G01*
X234748432Y-127613484D01*
X234628950Y-127613207D01*
X234335806Y-127605562D01*
X234171831Y-127580080D01*
X234100346Y-127526980D01*
X234084669Y-127436481D01*
X234084821Y-127423765D01*
X234116359Y-127319148D01*
X234234047Y-127271059D01*
X234482926Y-127259477D01*
X234590345Y-127258632D01*
X234783539Y-127239442D01*
X234864677Y-127174754D01*
X234881184Y-127038223D01*
X234866659Y-126907888D01*
X234780903Y-126833499D01*
X234571428Y-126816969D01*
X234431591Y-126811183D01*
X234296322Y-126761960D01*
X234261672Y-126639965D01*
X234271797Y-126560058D01*
X234357938Y-126482762D01*
X234571428Y-126462962D01*
X234711265Y-126457176D01*
X234846534Y-126407953D01*
X234881184Y-126285958D01*
X234861142Y-126183792D01*
X234758781Y-126123798D01*
X234527177Y-126108955D01*
X234496348Y-126108876D01*
X234283632Y-126093609D01*
X234192493Y-126030251D01*
X234173170Y-125887700D01*
X234174298Y-125828703D01*
X234198399Y-125737053D01*
X234283783Y-125688644D01*
X234469021Y-125669700D01*
X234792682Y-125666446D01*
X235412195Y-125666446D01*
X235412195Y-127613484D01*
G37*
G36*
X235412195Y-130799547D02*
G01*
X234748432Y-130799547D01*
X234515296Y-130798734D01*
X234270970Y-130788624D01*
X234142613Y-130756800D01*
X234092941Y-130690832D01*
X234084669Y-130578293D01*
X234086190Y-130518616D01*
X234120733Y-130411285D01*
X234237170Y-130366209D01*
X234482926Y-130357038D01*
X234511537Y-130356971D01*
X234746924Y-130342954D01*
X234855126Y-130290648D01*
X234881184Y-130180035D01*
X234869805Y-130096456D01*
X234781338Y-130022000D01*
X234565273Y-130003031D01*
X234375040Y-129992794D01*
X234281347Y-129937098D01*
X234277642Y-129803902D01*
X234287147Y-129755790D01*
X234378577Y-129629946D01*
X234593554Y-129577041D01*
X234664494Y-129567824D01*
X234853472Y-129499933D01*
X234888196Y-129408963D01*
X234776740Y-129329222D01*
X234527177Y-129295017D01*
X234496348Y-129294938D01*
X234283632Y-129279672D01*
X234192493Y-129216313D01*
X234173170Y-129073763D01*
X234174298Y-129014765D01*
X234198399Y-128923116D01*
X234283783Y-128874706D01*
X234469021Y-128855762D01*
X234792682Y-128852509D01*
X235412195Y-128852509D01*
X235412195Y-130799547D01*
G37*
G36*
X236503984Y-125668337D02*
G01*
X236854506Y-125741203D01*
X237160626Y-125896921D01*
X237356609Y-126104052D01*
X237369720Y-126131636D01*
X237428133Y-126384614D01*
X237444491Y-126714014D01*
X237419099Y-127037440D01*
X237352265Y-127272498D01*
X237349224Y-127277994D01*
X237198588Y-127437373D01*
X236976132Y-127572972D01*
X236768453Y-127649907D01*
X236423177Y-127690869D01*
X236044913Y-127604827D01*
X235905872Y-127549255D01*
X235811002Y-127463814D01*
X235773083Y-127308412D01*
X235766202Y-127029565D01*
X235766202Y-126551463D01*
X236164459Y-126551463D01*
X236193070Y-126551531D01*
X236428458Y-126565548D01*
X236536659Y-126617854D01*
X236562717Y-126728467D01*
X236533627Y-126842890D01*
X236385714Y-126905470D01*
X236271291Y-126934560D01*
X236208710Y-127082474D01*
X236248421Y-127210619D01*
X236413049Y-127259477D01*
X236685458Y-127200956D01*
X236882568Y-127009692D01*
X236952125Y-126702856D01*
X236934650Y-126472841D01*
X236832613Y-126243834D01*
X236621006Y-126141063D01*
X236278926Y-126147278D01*
X236098166Y-126169344D01*
X235932458Y-126170352D01*
X235866529Y-126115834D01*
X235854703Y-125988719D01*
X235857111Y-125937556D01*
X235926528Y-125776896D01*
X236112211Y-125691547D01*
X236441598Y-125666446D01*
X236503984Y-125668337D01*
G37*
%TO.C,C_VDD1*%
X54400000Y-87819420D02*
X54400000Y-88100580D01*
X55420000Y-87819420D02*
X55420000Y-88100580D01*
%TO.C,U2*%
X214010000Y-80075000D02*
X214010000Y-81750000D01*
X210890000Y-80075000D02*
X210890000Y-80725000D01*
X210890000Y-80075000D02*
X210890000Y-79425000D01*
X214010000Y-80075000D02*
X214010000Y-79425000D01*
%TO.C,SW1*%
X66630000Y-108670000D02*
X64630000Y-108670000D01*
X63330000Y-113120000D02*
X62880000Y-112670000D01*
X63330000Y-109720000D02*
X62880000Y-110170000D01*
X67930000Y-109720000D02*
X68380000Y-110170000D01*
X62880000Y-112670000D02*
X62880000Y-110170000D01*
X66630000Y-114170000D02*
X64630000Y-114170000D01*
X68380000Y-112670000D02*
X68380000Y-110170000D01*
X67930000Y-113120000D02*
X68380000Y-112670000D01*
%TO.C,D19*%
X214340000Y-84931250D02*
X214340000Y-85581250D01*
X217460000Y-84931250D02*
X217460000Y-84281250D01*
X217460000Y-84931250D02*
X217460000Y-85581250D01*
X214340000Y-84931250D02*
X214340000Y-83256250D01*
%TO.C,C_VDD2*%
X44225580Y-99320000D02*
X43944420Y-99320000D01*
X44225580Y-98300000D02*
X43944420Y-98300000D01*
%TO.C,D4*%
X61146250Y-123825000D02*
X61146250Y-124475000D01*
X64266250Y-123825000D02*
X64266250Y-123175000D01*
X64266250Y-123825000D02*
X64266250Y-124475000D01*
X61146250Y-123825000D02*
X61146250Y-122150000D01*
%TO.C,Q1*%
X56247500Y-106180000D02*
X57922500Y-106180000D01*
X56247500Y-109300000D02*
X55597500Y-109300000D01*
X56247500Y-106180000D02*
X55597500Y-106180000D01*
X56247500Y-109300000D02*
X56897500Y-109300000D01*
%TO.C,D12*%
X150785000Y-103981250D02*
X150785000Y-104631250D01*
X147665000Y-103981250D02*
X147665000Y-104631250D01*
X147665000Y-103981250D02*
X147665000Y-102306250D01*
X150785000Y-103981250D02*
X150785000Y-103331250D01*
%TO.C,R4*%
X213802500Y-67477742D02*
X213802500Y-67952258D01*
X214847500Y-67477742D02*
X214847500Y-67952258D01*
%TO.C,F1*%
X211585000Y-65137779D02*
X211585000Y-64812221D01*
X210565000Y-65137779D02*
X210565000Y-64812221D01*
%TO.C,D14*%
X171477500Y-66675000D02*
X171477500Y-67325000D01*
X171477500Y-66675000D02*
X171477500Y-65000000D01*
X174597500Y-66675000D02*
X174597500Y-66025000D01*
X174597500Y-66675000D02*
X174597500Y-67325000D01*
%TO.C,R3*%
X68860000Y-114213641D02*
X68860000Y-113906359D01*
X69620000Y-114213641D02*
X69620000Y-113906359D01*
%TO.C,D15*%
X179360000Y-84931250D02*
X179360000Y-85581250D01*
X176240000Y-84931250D02*
X176240000Y-85581250D01*
X176240000Y-84931250D02*
X176240000Y-83256250D01*
X179360000Y-84931250D02*
X179360000Y-84281250D01*
%TO.C,C2*%
X56010000Y-111397836D02*
X56010000Y-111182164D01*
X55290000Y-111397836D02*
X55290000Y-111182164D01*
%TO.C,D11*%
X138140000Y-84931250D02*
X138140000Y-83256250D01*
X138140000Y-84931250D02*
X138140000Y-85581250D01*
X141260000Y-84931250D02*
X141260000Y-84281250D01*
X141260000Y-84931250D02*
X141260000Y-85581250D01*
%TO.C,R1*%
X61603641Y-108650000D02*
X61296359Y-108650000D01*
X61603641Y-107890000D02*
X61296359Y-107890000D01*
%TO.C,U1*%
X51990000Y-88920000D02*
X52440000Y-88920000D01*
X52440000Y-96140000D02*
X52440000Y-95690000D01*
X45220000Y-96140000D02*
X45220000Y-95690000D01*
X45220000Y-95690000D02*
X43930000Y-95690000D01*
X45670000Y-96140000D02*
X45220000Y-96140000D01*
X51990000Y-96140000D02*
X52440000Y-96140000D01*
X45220000Y-88920000D02*
X45220000Y-89370000D01*
X52440000Y-88920000D02*
X52440000Y-89370000D01*
X45670000Y-88920000D02*
X45220000Y-88920000D01*
%TO.C,J2*%
X218218750Y-59843750D02*
X218218750Y-57843750D01*
X208818750Y-54043750D02*
X218218750Y-54043750D01*
X218218750Y-55943750D02*
X218218750Y-54043750D01*
X208818750Y-55943750D02*
X208818750Y-54043750D01*
X208818750Y-59843750D02*
X208818750Y-57843750D01*
%TO.C,D17*%
X215927500Y-124618750D02*
X215927500Y-122943750D01*
X219047500Y-124618750D02*
X219047500Y-123968750D01*
X219047500Y-124618750D02*
X219047500Y-125268750D01*
X215927500Y-124618750D02*
X215927500Y-125268750D01*
%TO.C,C1*%
X63380000Y-106042164D02*
X63380000Y-106257836D01*
X64100000Y-106042164D02*
X64100000Y-106257836D01*
%TO.C,C4*%
X210912164Y-82860000D02*
X211127836Y-82860000D01*
X210912164Y-82140000D02*
X211127836Y-82140000D01*
%TO.C,D20*%
X209577500Y-103981250D02*
X209577500Y-102306250D01*
X212697500Y-103981250D02*
X212697500Y-103331250D01*
X209577500Y-103981250D02*
X209577500Y-104631250D01*
X212697500Y-103981250D02*
X212697500Y-104631250D01*
%TO.C,D_PWR1*%
X205530000Y-77850000D02*
X201630000Y-77850000D01*
X205530000Y-75850000D02*
X205530000Y-77850000D01*
X205530000Y-75850000D02*
X201630000Y-75850000D01*
%TD*%
%LPC*%
D12*
%TO.C,MX22*%
X135255000Y-84137500D03*
X125095000Y-84137500D03*
D13*
X130175000Y-84137500D03*
D14*
X126365000Y-81597500D03*
X132715000Y-79057500D03*
%TD*%
D13*
%TO.C,MX39*%
X225425000Y-122237500D03*
D12*
X230505000Y-122237500D03*
X220345000Y-122237500D03*
D14*
X221615000Y-119697500D03*
X227965000Y-117157500D03*
%TD*%
D12*
%TO.C,MX33*%
X177482500Y-65087500D03*
X187642500Y-65087500D03*
D13*
X182562500Y-65087500D03*
D14*
X178752500Y-62547500D03*
X185102500Y-60007500D03*
%TD*%
D12*
%TO.C,MX20*%
X144780000Y-122237500D03*
D13*
X92075000Y-113982500D03*
X139700000Y-122237500D03*
D15*
X187325000Y-129222500D03*
D13*
X187325000Y-113982500D03*
D12*
X134620000Y-122237500D03*
D15*
X92075000Y-129222500D03*
D14*
X135890000Y-119697500D03*
X142240000Y-117157500D03*
%TD*%
D12*
%TO.C,MX29*%
X168592500Y-65087500D03*
X158432500Y-65087500D03*
D13*
X163512500Y-65087500D03*
D14*
X159702500Y-62547500D03*
X166052500Y-60007500D03*
%TD*%
D12*
%TO.C,MX25*%
X161448750Y-122237500D03*
X151288750Y-122237500D03*
D13*
X156368750Y-122237500D03*
D14*
X152558750Y-119697500D03*
X158908750Y-117157500D03*
%TD*%
D12*
%TO.C,MX23*%
X144780000Y-103187500D03*
D13*
X139700000Y-103187500D03*
D12*
X134620000Y-103187500D03*
D14*
X135890000Y-100647500D03*
X142240000Y-98107500D03*
%TD*%
D12*
%TO.C,MX43*%
X222726250Y-84137500D03*
X232886250Y-84137500D03*
D13*
X227806250Y-84137500D03*
D14*
X223996250Y-81597500D03*
X230346250Y-79057500D03*
%TD*%
D12*
%TO.C,MX1*%
X48895000Y-122237500D03*
D13*
X53975000Y-122237500D03*
D12*
X59055000Y-122237500D03*
D14*
X50165000Y-119697500D03*
X56515000Y-117157500D03*
%TD*%
D12*
%TO.C,MX6*%
X63182500Y-65087500D03*
X73342500Y-65087500D03*
D13*
X68262500Y-65087500D03*
D14*
X64452500Y-62547500D03*
X70802500Y-60007500D03*
%TD*%
D12*
%TO.C,MX3*%
X54292500Y-65087500D03*
D13*
X49212500Y-65087500D03*
D12*
X44132500Y-65087500D03*
D14*
X45402500Y-62547500D03*
X51752500Y-60007500D03*
%TD*%
D12*
%TO.C,MX31*%
X172720000Y-103187500D03*
X182880000Y-103187500D03*
D13*
X177800000Y-103187500D03*
D14*
X173990000Y-100647500D03*
X180340000Y-98107500D03*
%TD*%
D13*
%TO.C,MX14*%
X92075000Y-113982500D03*
X111125000Y-122237500D03*
D15*
X130175000Y-129222500D03*
D12*
X116205000Y-122237500D03*
D13*
X130175000Y-113982500D03*
D15*
X92075000Y-129222500D03*
D12*
X106045000Y-122237500D03*
D14*
X107315000Y-119697500D03*
X113665000Y-117157500D03*
%TD*%
D12*
%TO.C,MX40*%
X225107500Y-122237500D03*
D13*
X230187500Y-122237500D03*
D12*
X235267500Y-122237500D03*
D14*
X226377500Y-119697500D03*
X232727500Y-117157500D03*
%TD*%
D12*
%TO.C,MX5*%
X51276250Y-103187500D03*
D13*
X56356250Y-103187500D03*
D12*
X61436250Y-103187500D03*
D14*
X52546250Y-100647500D03*
X58896250Y-98107500D03*
%TD*%
D13*
%TO.C,MX24*%
X149225000Y-113982500D03*
X187325000Y-113982500D03*
D12*
X163195000Y-122237500D03*
D15*
X187325000Y-129222500D03*
X149225000Y-129222500D03*
D13*
X168275000Y-122237500D03*
D12*
X173355000Y-122237500D03*
D14*
X164465000Y-119697500D03*
X170815000Y-117157500D03*
%TD*%
D13*
%TO.C,MX9*%
X70643750Y-122237500D03*
D12*
X75723750Y-122237500D03*
X65563750Y-122237500D03*
D14*
X66833750Y-119697500D03*
X73183750Y-117157500D03*
%TD*%
D12*
%TO.C,MX37*%
X196532500Y-65087500D03*
D13*
X201612500Y-65087500D03*
D12*
X206692500Y-65087500D03*
D14*
X197802500Y-62547500D03*
X204152500Y-60007500D03*
%TD*%
D15*
%TO.C,MX19*%
X196850000Y-129222500D03*
D13*
X82550000Y-113982500D03*
X196850000Y-113982500D03*
D15*
X73525000Y-129222500D03*
D12*
X144780000Y-122237500D03*
D13*
X73525000Y-113982500D03*
D15*
X205875000Y-129222500D03*
D12*
X134620000Y-122237500D03*
D15*
X82550000Y-129222500D03*
D13*
X205875000Y-113982500D03*
X139700000Y-122237500D03*
D14*
X135890000Y-119697500D03*
X142240000Y-117157500D03*
%TD*%
D13*
%TO.C,MX16*%
X106362500Y-65087500D03*
D12*
X111442500Y-65087500D03*
X101282500Y-65087500D03*
D14*
X102552500Y-62547500D03*
X108902500Y-60007500D03*
%TD*%
D12*
%TO.C,MX38*%
X211455000Y-84137500D03*
X201295000Y-84137500D03*
D13*
X206375000Y-84137500D03*
D14*
X202565000Y-81597500D03*
X208915000Y-79057500D03*
%TD*%
D12*
%TO.C,MX17*%
X106045000Y-84137500D03*
D13*
X111125000Y-84137500D03*
D12*
X116205000Y-84137500D03*
D14*
X107315000Y-81597500D03*
X113665000Y-79057500D03*
%TD*%
D13*
%TO.C,MX12*%
X101600000Y-103187500D03*
D12*
X106680000Y-103187500D03*
X96520000Y-103187500D03*
D14*
X97790000Y-100647500D03*
X104140000Y-98107500D03*
%TD*%
D12*
%TO.C,MX34*%
X182245000Y-84137500D03*
D13*
X187325000Y-84137500D03*
D12*
X192405000Y-84137500D03*
D14*
X183515000Y-81597500D03*
X189865000Y-79057500D03*
%TD*%
D13*
%TO.C,MX36*%
X208756250Y-122237500D03*
D12*
X203676250Y-122237500D03*
X213836250Y-122237500D03*
D14*
X204946250Y-119697500D03*
X211296250Y-117157500D03*
%TD*%
D12*
%TO.C,MX30*%
X173355000Y-84137500D03*
D13*
X168275000Y-84137500D03*
D12*
X163195000Y-84137500D03*
D14*
X164465000Y-81597500D03*
X170815000Y-79057500D03*
%TD*%
D12*
%TO.C,MX41*%
X230505000Y-65087500D03*
X220345000Y-65087500D03*
D13*
X225425000Y-65087500D03*
D14*
X221615000Y-62547500D03*
X227965000Y-60007500D03*
%TD*%
D12*
%TO.C,MX11*%
X86995000Y-84137500D03*
X97155000Y-84137500D03*
D13*
X92075000Y-84137500D03*
D14*
X88265000Y-81597500D03*
X94615000Y-79057500D03*
%TD*%
D12*
%TO.C,MX13*%
X89376250Y-122237500D03*
X99536250Y-122237500D03*
D13*
X94456250Y-122237500D03*
D14*
X90646250Y-119697500D03*
X96996250Y-117157500D03*
%TD*%
D12*
%TO.C,MX15*%
X128111250Y-122237500D03*
X117951250Y-122237500D03*
D13*
X123031250Y-122237500D03*
D14*
X119221250Y-119697500D03*
X125571250Y-117157500D03*
%TD*%
D12*
%TO.C,MX28*%
X163830000Y-103187500D03*
X153670000Y-103187500D03*
D13*
X158750000Y-103187500D03*
D14*
X154940000Y-100647500D03*
X161290000Y-98107500D03*
%TD*%
D13*
%TO.C,MX21*%
X125412500Y-65087500D03*
D12*
X130492500Y-65087500D03*
X120332500Y-65087500D03*
D14*
X121602500Y-62547500D03*
X127952500Y-60007500D03*
%TD*%
D12*
%TO.C,MX35*%
X191770000Y-103187500D03*
X201930000Y-103187500D03*
D13*
X196850000Y-103187500D03*
D14*
X193040000Y-100647500D03*
X199390000Y-98107500D03*
%TD*%
D12*
%TO.C,MX2*%
X44132500Y-122237500D03*
D13*
X49212500Y-122237500D03*
D12*
X54292500Y-122237500D03*
D14*
X45402500Y-119697500D03*
X51752500Y-117157500D03*
%TD*%
D12*
%TO.C,MX7*%
X78105000Y-84137500D03*
X67945000Y-84137500D03*
D13*
X73025000Y-84137500D03*
D14*
X69215000Y-81597500D03*
X75565000Y-79057500D03*
%TD*%
D12*
%TO.C,MX44*%
X217963750Y-103187500D03*
D13*
X223043750Y-103187500D03*
D12*
X228123750Y-103187500D03*
D14*
X219233750Y-100647500D03*
X225583750Y-98107500D03*
%TD*%
D13*
%TO.C,MX42*%
X236061250Y-62674500D03*
D15*
X220821250Y-86550500D03*
D12*
X232886250Y-74612500D03*
D13*
X227806250Y-74612500D03*
D12*
X222726250Y-74612500D03*
D15*
X220821250Y-62674500D03*
D13*
X236061250Y-86550500D03*
D14*
X223996250Y-72072500D03*
X230346250Y-69532500D03*
%TD*%
D12*
%TO.C,MX32*%
X179863750Y-122237500D03*
X190023750Y-122237500D03*
D13*
X184943750Y-122237500D03*
D14*
X181133750Y-119697500D03*
X187483750Y-117157500D03*
%TD*%
D13*
%TO.C,MX18*%
X120650000Y-103187500D03*
D12*
X115570000Y-103187500D03*
X125730000Y-103187500D03*
D14*
X116840000Y-100647500D03*
X123190000Y-98107500D03*
%TD*%
D13*
%TO.C,MX10*%
X87312500Y-65087500D03*
D12*
X82232500Y-65087500D03*
X92392500Y-65087500D03*
D14*
X83502500Y-62547500D03*
X89852500Y-60007500D03*
%TD*%
D12*
%TO.C,MX8*%
X87630000Y-103187500D03*
X77470000Y-103187500D03*
D13*
X82550000Y-103187500D03*
D14*
X78740000Y-100647500D03*
X85090000Y-98107500D03*
%TD*%
D13*
%TO.C,MX4*%
X51593750Y-84137500D03*
D12*
X56673750Y-84137500D03*
X46513750Y-84137500D03*
D14*
X47783750Y-81597500D03*
X54133750Y-79057500D03*
%TD*%
D13*
%TO.C,MX26*%
X144462500Y-65087500D03*
D12*
X139382500Y-65087500D03*
X149542500Y-65087500D03*
D14*
X140652500Y-62547500D03*
X147002500Y-60007500D03*
%TD*%
D12*
%TO.C,MX27*%
X154305000Y-84137500D03*
D13*
X149225000Y-84137500D03*
D12*
X144145000Y-84137500D03*
D14*
X145415000Y-81597500D03*
X151765000Y-79057500D03*
%TD*%
D16*
%TO.C,C_VDDIO1*%
X55235000Y-97070000D03*
X53685000Y-97070000D03*
%TD*%
D17*
%TO.C,D13*%
X175262500Y-123681250D03*
X177162500Y-123681250D03*
X176212500Y-125556250D03*
%TD*%
D18*
%TO.C,J1*%
X211763500Y-72236500D03*
X211763500Y-71236500D03*
X211763500Y-70236500D03*
X211763500Y-69236500D03*
D19*
X207888500Y-67936500D03*
X207888500Y-73536500D03*
%TD*%
D17*
%TO.C,D7*%
X110175000Y-103043750D03*
X112075000Y-103043750D03*
X111125000Y-104918750D03*
%TD*%
%TO.C,D3*%
X67312500Y-103043750D03*
X69212500Y-103043750D03*
X68262500Y-104918750D03*
%TD*%
D20*
%TO.C,R2*%
X61190000Y-106030000D03*
X60170000Y-106030000D03*
%TD*%
D21*
%TO.C,U3*%
X218100000Y-71362500D03*
X217150000Y-71362500D03*
X216200000Y-71362500D03*
X216200000Y-69087500D03*
X217150000Y-69087500D03*
X218100000Y-69087500D03*
%TD*%
D16*
%TO.C,C_VDDA1*%
X42465000Y-89860000D03*
X40915000Y-89860000D03*
%TD*%
D22*
%TO.C,R_USB1*%
X56890000Y-96305000D03*
X56890000Y-94655000D03*
%TD*%
D17*
%TO.C,D16*%
X186375000Y-103043750D03*
X188275000Y-103043750D03*
X187325000Y-104918750D03*
%TD*%
%TO.C,D9*%
X147481250Y-123681250D03*
X149381250Y-123681250D03*
X148431250Y-125556250D03*
%TD*%
D23*
%TO.C,C3*%
X212255000Y-75800000D03*
X211295000Y-75800000D03*
%TD*%
D16*
%TO.C,C_VDDA2*%
X42450000Y-91370000D03*
X40900000Y-91370000D03*
%TD*%
%TO.C,C_VDDIO2*%
X55240000Y-98560000D03*
X53690000Y-98560000D03*
%TD*%
D17*
%TO.C,D1*%
X57787500Y-65881250D03*
X59687500Y-65881250D03*
X58737500Y-67756250D03*
%TD*%
%TO.C,D8*%
X101443750Y-122887500D03*
X103343750Y-122887500D03*
X102393750Y-124762500D03*
%TD*%
%TO.C,D2*%
X62550000Y-83993750D03*
X64450000Y-83993750D03*
X63500000Y-85868750D03*
%TD*%
D24*
%TO.C,R5*%
X219868750Y-69400000D03*
X219868750Y-71050000D03*
%TD*%
D23*
%TO.C,C2*%
X41270000Y-92940000D03*
X40310000Y-92940000D03*
%TD*%
D17*
%TO.C,D6*%
X100650000Y-83993750D03*
X102550000Y-83993750D03*
X101600000Y-85868750D03*
%TD*%
%TO.C,D10*%
X133987500Y-65737500D03*
X135887500Y-65737500D03*
X134937500Y-67612500D03*
%TD*%
%TO.C,D5*%
X95887500Y-65881250D03*
X97787500Y-65881250D03*
X96837500Y-67756250D03*
%TD*%
D25*
%TO.C,J3*%
X209775000Y-72500000D03*
X209775000Y-71300000D03*
X209775000Y-70100000D03*
X209775000Y-68900000D03*
D26*
X206000000Y-73650000D03*
X206000000Y-67750000D03*
%TD*%
D17*
%TO.C,D18*%
X192540000Y-65502500D03*
X194440000Y-65502500D03*
X193490000Y-67377500D03*
%TD*%
D27*
%TO.C,C_VDD1*%
X54910000Y-87185000D03*
X54910000Y-88735000D03*
%TD*%
D28*
%TO.C,U2*%
X213400000Y-81012500D03*
X211500000Y-81012500D03*
X212450000Y-79137500D03*
%TD*%
D29*
%TO.C,SW1*%
X67530000Y-108270000D03*
X67530000Y-114570000D03*
X63730000Y-114570000D03*
X63730000Y-108270000D03*
%TD*%
D17*
%TO.C,D19*%
X214950000Y-83993750D03*
X216850000Y-83993750D03*
X215900000Y-85868750D03*
%TD*%
D16*
%TO.C,C_VDD2*%
X44860000Y-98810000D03*
X43310000Y-98810000D03*
%TD*%
D17*
%TO.C,D4*%
X61756250Y-122887500D03*
X63656250Y-122887500D03*
X62706250Y-124762500D03*
%TD*%
D30*
%TO.C,Q1*%
X57185000Y-106790000D03*
X57185000Y-108690000D03*
X55310000Y-107740000D03*
%TD*%
D17*
%TO.C,D12*%
X148275000Y-103043750D03*
X150175000Y-103043750D03*
X149225000Y-104918750D03*
%TD*%
D24*
%TO.C,R4*%
X214325000Y-66890000D03*
X214325000Y-68540000D03*
%TD*%
D31*
%TO.C,F1*%
X211075000Y-65762500D03*
X211075000Y-64187500D03*
%TD*%
D17*
%TO.C,D14*%
X172087500Y-65737500D03*
X173987500Y-65737500D03*
X173037500Y-67612500D03*
%TD*%
D32*
%TO.C,R3*%
X69240000Y-114570000D03*
X69240000Y-113550000D03*
%TD*%
D17*
%TO.C,D15*%
X176850000Y-83993750D03*
X178750000Y-83993750D03*
X177800000Y-85868750D03*
%TD*%
D33*
%TO.C,C2*%
X55650000Y-111770000D03*
X55650000Y-110810000D03*
%TD*%
D17*
%TO.C,D11*%
X138750000Y-83993750D03*
X140650000Y-83993750D03*
X139700000Y-85868750D03*
%TD*%
D20*
%TO.C,R1*%
X61960000Y-108270000D03*
X60940000Y-108270000D03*
%TD*%
D34*
%TO.C,U1*%
X44667500Y-95280000D03*
X44667500Y-94780000D03*
X44667500Y-94280000D03*
X44667500Y-93780000D03*
X44667500Y-93280000D03*
X44667500Y-92780000D03*
X44667500Y-92280000D03*
X44667500Y-91780000D03*
X44667500Y-91280000D03*
X44667500Y-90780000D03*
X44667500Y-90280000D03*
X44667500Y-89780000D03*
D35*
X46080000Y-88367500D03*
X46580000Y-88367500D03*
X47080000Y-88367500D03*
X47580000Y-88367500D03*
X48080000Y-88367500D03*
X48580000Y-88367500D03*
X49080000Y-88367500D03*
X49580000Y-88367500D03*
X50080000Y-88367500D03*
X50580000Y-88367500D03*
X51080000Y-88367500D03*
X51580000Y-88367500D03*
D34*
X52992500Y-89780000D03*
X52992500Y-90280000D03*
X52992500Y-90780000D03*
X52992500Y-91280000D03*
X52992500Y-91780000D03*
X52992500Y-92280000D03*
X52992500Y-92780000D03*
X52992500Y-93280000D03*
X52992500Y-93780000D03*
X52992500Y-94280000D03*
X52992500Y-94780000D03*
X52992500Y-95280000D03*
D35*
X51580000Y-96692500D03*
X51080000Y-96692500D03*
X50580000Y-96692500D03*
X50080000Y-96692500D03*
X49580000Y-96692500D03*
X49080000Y-96692500D03*
X48580000Y-96692500D03*
X48080000Y-96692500D03*
X47580000Y-96692500D03*
X47080000Y-96692500D03*
X46580000Y-96692500D03*
X46080000Y-96692500D03*
%TD*%
D36*
%TO.C,J2*%
X216408750Y-60543750D03*
X210628750Y-60543750D03*
D37*
X210268750Y-61988750D03*
X211068750Y-61988750D03*
D38*
X212268750Y-61988750D03*
X213268750Y-61988750D03*
X213768750Y-61988750D03*
X214768750Y-61988750D03*
D37*
X215968750Y-61988750D03*
X216768750Y-61988750D03*
X216768750Y-61988750D03*
X215968750Y-61988750D03*
D38*
X215268750Y-61988750D03*
X214268750Y-61988750D03*
X212768750Y-61988750D03*
X211768750Y-61988750D03*
D37*
X211068750Y-61988750D03*
X210268750Y-61988750D03*
D39*
X217838750Y-61073750D03*
D40*
X209198750Y-56893750D03*
D39*
X209198750Y-61073750D03*
D40*
X217838750Y-56893750D03*
%TD*%
D17*
%TO.C,D17*%
X216537500Y-123681250D03*
X218437500Y-123681250D03*
X217487500Y-125556250D03*
%TD*%
D41*
%TO.C,C1*%
X63740000Y-105670000D03*
X63740000Y-106630000D03*
%TD*%
D42*
%TO.C,C4*%
X210540000Y-82500000D03*
X211500000Y-82500000D03*
%TD*%
D17*
%TO.C,D20*%
X210187500Y-103043750D03*
X212087500Y-103043750D03*
X211137500Y-104918750D03*
%TD*%
D43*
%TO.C,D_PWR1*%
X204930000Y-76850000D03*
X201630000Y-76850000D03*
%TD*%
M02*
