M48
; DRILL file {KiCad (6.0.10-0)} date 2023 January 05, Thursday 17:16:11
; FORMAT={-:-/ absolute / inch / decimal}
; #@! TF.CreationDate,2023-01-05T17:16:11+09:00
; #@! TF.GenerationSoftware,Kicad,Pcbnew,(6.0.10-0)
; #@! TF.FileFunction,Plated,1,2,PTH
FMAT,2
INCH
; #@! TA.AperFunction,Plated,PTH,ViaDrill
T1C0.0157
; #@! TA.AperFunction,Plated,PTH,ComponentDrill
T2C0.0236
; #@! TA.AperFunction,Plated,PTH,ComponentDrill
T3C0.0579
%
G90
G05
T1
X1.6051Y-3.8413
X1.6106Y-3.4783
X1.6193Y-3.4083
X1.6488Y-3.8272
X1.672Y-3.4791
X1.7705Y-3.9362
X1.7866Y-4.5531
X1.8937Y-3.9157
X1.9211Y-3.6313
X2.0039Y-4.2417
X2.0063Y-3.9154
X2.061Y-3.852
X2.0681Y-3.8039
X2.1027Y-3.4571
X2.1975Y-3.7241
X2.2039Y-3.4965
X2.2074Y-3.4311
X2.2335Y-3.8831
X2.2531Y-4.3327
X2.2866Y-3.7272
X2.2882Y-4.1524
X2.313Y-3.4269
X2.3177Y-3.703
X2.335Y-3.4896
X2.3473Y-4.0866
X2.3504Y-4.2638
X2.3528Y-4.363
X2.3585Y-3.4269
X2.3594Y-3.934
X2.4169Y-3.4327
X2.4803Y-3.991
X2.4945Y-3.8571
X2.6429Y-4.1913
X2.728Y-4.428
X3.1913Y-3.8012
X3.3165Y-3.7702
X4.4075Y-3.6459
X5.2811Y-3.6282
X6.0217Y-3.6105
X6.7599Y-3.5928
X7.5051Y-3.5751
X7.6587Y-2.5201
X8.1424Y-3.5466
X8.2535Y-3.211
X8.2549Y-2.5896
X8.2551Y-3.285
X8.2854Y-2.938
X8.3051Y-3.4719
X8.3051Y-3.5132
X8.3583Y-2.5433
X8.372Y-3.0295
X8.3807Y-3.2484
X8.3882Y-3.4343
X8.4193Y-2.7928
X8.4224Y-3.289
X8.4378Y-2.6045
X8.4577Y-2.7377
X8.4626Y-3.2421
X8.4807Y-3.1496
X8.5Y-2.5312
X8.548Y-2.9445
X8.5482Y-2.6614
X8.5692Y-3.1717
X8.5985Y-3.1425
X8.6562Y-2.6875
T3
X1.7875Y-2.4625
X1.7875Y-4.7125
X1.8812Y-3.2125
X1.975Y-4.7125
X2.0375Y-2.3625
X2.0375Y-4.6125
X2.0688Y-3.9625
X2.1313Y-3.1125
X2.225Y-4.6125
X2.3188Y-3.8625
X2.5375Y-2.4625
X2.6313Y-4.7125
X2.725Y-3.2125
X2.7875Y-2.3625
X2.8813Y-4.6125
X2.975Y-3.1125
X3.1Y-3.9625
X3.2875Y-2.4625
X3.35Y-3.8625
X3.475Y-3.2125
X3.5375Y-2.3625
X3.5688Y-4.7125
X3.725Y-3.1125
X3.8188Y-4.6125
X3.85Y-3.9625
X4.0375Y-2.4625
X4.1Y-3.8625
X4.225Y-3.2125
X4.225Y-4.7125
X4.2875Y-2.3625
X4.475Y-3.1125
X4.475Y-4.6125
X4.6Y-3.9625
X4.6937Y-4.7125
X4.7875Y-2.4625
X4.85Y-3.8625
X4.9437Y-4.6125
X4.975Y-3.2125
X5.0375Y-2.3625
X5.225Y-3.1125
X5.35Y-3.9625
X5.35Y-4.7125
X5.35Y-4.7125
X5.5375Y-2.4625
X5.6Y-3.8625
X5.6Y-4.6125
X5.6Y-4.6125
X5.725Y-3.2125
X5.7875Y-2.3625
X5.975Y-3.1125
X6.0062Y-4.7125
X6.1Y-3.9625
X6.2562Y-4.6125
X6.2875Y-2.4625
X6.35Y-3.8625
X6.475Y-3.2125
X6.475Y-4.7125
X6.5375Y-2.3625
X6.725Y-3.1125
X6.725Y-4.6125
X6.85Y-3.9625
X7.0375Y-2.4625
X7.1Y-3.8625
X7.1312Y-4.7125
X7.225Y-3.2125
X7.2875Y-2.3625
X7.3812Y-4.6125
X7.475Y-3.1125
X7.6Y-3.9625
X7.7875Y-2.4625
X7.85Y-3.8625
X7.975Y-3.2125
X8.0375Y-2.3625
X8.0687Y-4.7125
X8.225Y-3.1125
X8.3187Y-4.6125
X8.6312Y-3.9625
X8.725Y-2.4625
X8.725Y-4.7125
X8.8187Y-2.8375
X8.8187Y-3.2125
X8.8812Y-3.8625
X8.9125Y-4.7125
X8.975Y-2.3625
X8.975Y-4.6125
X9.0687Y-2.7375
X9.0687Y-3.1125
X9.1625Y-4.6125
T2
G00X8.2362Y-2.2281
M15
G01X8.2362Y-2.2517
M16
G05
G00X8.2362Y-2.3828
M15
G01X8.2362Y-2.4261
M16
G05
G00X8.5763Y-2.2281
M15
G01X8.5763Y-2.2517
M16
G05
G00X8.5763Y-2.3828
M15
G01X8.5763Y-2.4261
M16
G05
T0
M30
