G04 #@! TF.GenerationSoftware,KiCad,Pcbnew,(6.0.11-0)*
G04 #@! TF.CreationDate,2023-07-12T13:11:58+09:00*
G04 #@! TF.ProjectId,Tiny Dimply Qazy,54696e79-2044-4696-9d70-6c792051617a,rev?*
G04 #@! TF.SameCoordinates,Original*
G04 #@! TF.FileFunction,Soldermask,Top*
G04 #@! TF.FilePolarity,Negative*
%FSLAX46Y46*%
G04 Gerber Fmt 4.6, Leading zero omitted, Abs format (unit mm)*
G04 Created by KiCad (PCBNEW (6.0.11-0)) date 2023-07-12 13:11:58*
%MOMM*%
%LPD*%
G01*
G04 APERTURE LIST*
%ADD10C,1.750000*%
%ADD11C,3.987800*%
%ADD12C,2.250000*%
%ADD13C,3.048000*%
%ADD14C,3.750000*%
%ADD15C,0.650000*%
%ADD16O,1.000000X2.100000*%
%ADD17O,1.000000X1.600000*%
G04 APERTURE END LIST*
D10*
X135255000Y-84137500D03*
X125095000Y-84137500D03*
D11*
X130175000Y-84137500D03*
D12*
X126365000Y-81597500D03*
X132715000Y-79057500D03*
D11*
X220662500Y-122237500D03*
D10*
X225742500Y-122237500D03*
X215582500Y-122237500D03*
D12*
X216852500Y-119697500D03*
X223202500Y-117157500D03*
D10*
X177482500Y-65087500D03*
X187642500Y-65087500D03*
D11*
X182562500Y-65087500D03*
D12*
X178752500Y-62547500D03*
X185102500Y-60007500D03*
D10*
X144780000Y-122237500D03*
D11*
X92075000Y-113982500D03*
X139700000Y-122237500D03*
D13*
X187325000Y-129222500D03*
D11*
X187325000Y-113982500D03*
D10*
X134620000Y-122237500D03*
D13*
X92075000Y-129222500D03*
D12*
X135890000Y-119697500D03*
X142240000Y-117157500D03*
D10*
X168592500Y-65087500D03*
X158432500Y-65087500D03*
D11*
X163512500Y-65087500D03*
D12*
X159702500Y-62547500D03*
X166052500Y-60007500D03*
D10*
X161448750Y-122237500D03*
X151288750Y-122237500D03*
D11*
X156368750Y-122237500D03*
D12*
X152558750Y-119697500D03*
X158908750Y-117157500D03*
D10*
X144780000Y-103187500D03*
D11*
X139700000Y-103187500D03*
D10*
X134620000Y-103187500D03*
D12*
X135890000Y-100647500D03*
X142240000Y-98107500D03*
D10*
X222726250Y-84137500D03*
X232886250Y-84137500D03*
D11*
X227806250Y-84137500D03*
D12*
X223996250Y-81597500D03*
X230346250Y-79057500D03*
D10*
X53657500Y-122237500D03*
D11*
X58737500Y-122237500D03*
D10*
X63817500Y-122237500D03*
D12*
X54927500Y-119697500D03*
X61277500Y-117157500D03*
D10*
X63182500Y-65087500D03*
X73342500Y-65087500D03*
D11*
X68262500Y-65087500D03*
D12*
X64452500Y-62547500D03*
X70802500Y-60007500D03*
D10*
X54292500Y-65087500D03*
D11*
X49212500Y-65087500D03*
D10*
X44132500Y-65087500D03*
D12*
X45402500Y-62547500D03*
X51752500Y-60007500D03*
D10*
X172720000Y-103187500D03*
X182880000Y-103187500D03*
D11*
X177800000Y-103187500D03*
D12*
X173990000Y-100647500D03*
X180340000Y-98107500D03*
D11*
X92075000Y-113982500D03*
X111125000Y-122237500D03*
D13*
X130175000Y-129222500D03*
D10*
X116205000Y-122237500D03*
D11*
X130175000Y-113982500D03*
D13*
X92075000Y-129222500D03*
D10*
X106045000Y-122237500D03*
D12*
X107315000Y-119697500D03*
X113665000Y-117157500D03*
D10*
X225107500Y-122237500D03*
D11*
X230187500Y-122237500D03*
D10*
X235267500Y-122237500D03*
D12*
X226377500Y-119697500D03*
X232727500Y-117157500D03*
D10*
X51276250Y-103187500D03*
D11*
X56356250Y-103187500D03*
D10*
X61436250Y-103187500D03*
D12*
X52546250Y-100647500D03*
X58896250Y-98107500D03*
D11*
X149225000Y-113982500D03*
X187325000Y-113982500D03*
D10*
X163195000Y-122237500D03*
D13*
X187325000Y-129222500D03*
X149225000Y-129222500D03*
D11*
X168275000Y-122237500D03*
D10*
X173355000Y-122237500D03*
D12*
X164465000Y-119697500D03*
X170815000Y-117157500D03*
D11*
X70643750Y-122237500D03*
D10*
X75723750Y-122237500D03*
X65563750Y-122237500D03*
D12*
X66833750Y-119697500D03*
X73183750Y-117157500D03*
D10*
X196532500Y-65087500D03*
D11*
X201612500Y-65087500D03*
D10*
X206692500Y-65087500D03*
D12*
X197802500Y-62547500D03*
X204152500Y-60007500D03*
D13*
X196850000Y-129222500D03*
D11*
X82550000Y-113982500D03*
X196850000Y-113982500D03*
D13*
X73525000Y-129222500D03*
D10*
X144780000Y-122237500D03*
D11*
X73525000Y-113982500D03*
D13*
X205875000Y-129222500D03*
D10*
X134620000Y-122237500D03*
D13*
X82550000Y-129222500D03*
D11*
X205875000Y-113982500D03*
X139700000Y-122237500D03*
D12*
X135890000Y-119697500D03*
X142240000Y-117157500D03*
D11*
X106362500Y-65087500D03*
D10*
X111442500Y-65087500D03*
X101282500Y-65087500D03*
D12*
X102552500Y-62547500D03*
X108902500Y-60007500D03*
D10*
X211455000Y-84137500D03*
X201295000Y-84137500D03*
D11*
X206375000Y-84137500D03*
D12*
X202565000Y-81597500D03*
X208915000Y-79057500D03*
D10*
X194151253Y-103187500D03*
D11*
X199231253Y-103187500D03*
D10*
X204311253Y-103187500D03*
D12*
X195421253Y-100647500D03*
X201771253Y-98107500D03*
D10*
X106045000Y-84137500D03*
D11*
X111125000Y-84137500D03*
D10*
X116205000Y-84137500D03*
D12*
X107315000Y-81597500D03*
X113665000Y-79057500D03*
D11*
X101600000Y-103187500D03*
D10*
X106680000Y-103187500D03*
X96520000Y-103187500D03*
D12*
X97790000Y-100647500D03*
X104140000Y-98107500D03*
D10*
X182245000Y-84137500D03*
D11*
X187325000Y-84137500D03*
D10*
X192405000Y-84137500D03*
D12*
X183515000Y-81597500D03*
X189865000Y-79057500D03*
D11*
X208756250Y-122237500D03*
D10*
X203676250Y-122237500D03*
X213836250Y-122237500D03*
D12*
X204946250Y-119697500D03*
X211296250Y-117157500D03*
D10*
X173355000Y-84137500D03*
D11*
X168275000Y-84137500D03*
D10*
X163195000Y-84137500D03*
D12*
X164465000Y-81597500D03*
X170815000Y-79057500D03*
D10*
X230505000Y-65087500D03*
X220345000Y-65087500D03*
D11*
X225425000Y-65087500D03*
D12*
X221615000Y-62547500D03*
X227965000Y-60007500D03*
D10*
X86995000Y-84137500D03*
X97155000Y-84137500D03*
D11*
X92075000Y-84137500D03*
D12*
X88265000Y-81597500D03*
X94615000Y-79057500D03*
D10*
X89376250Y-122237500D03*
X99536250Y-122237500D03*
D11*
X94456250Y-122237500D03*
D12*
X90646250Y-119697500D03*
X96996250Y-117157500D03*
D10*
X128111250Y-122237500D03*
X117951250Y-122237500D03*
D11*
X123031250Y-122237500D03*
D12*
X119221250Y-119697500D03*
X125571250Y-117157500D03*
D10*
X163830000Y-103187500D03*
X153670000Y-103187500D03*
D11*
X158750000Y-103187500D03*
D12*
X154940000Y-100647500D03*
X161290000Y-98107500D03*
D11*
X125412500Y-65087500D03*
D10*
X130492500Y-65087500D03*
X120332500Y-65087500D03*
D12*
X121602500Y-62547500D03*
X127952500Y-60007500D03*
D10*
X191770000Y-103187500D03*
X201930000Y-103187500D03*
D11*
X196850000Y-103187500D03*
D12*
X193040000Y-100647500D03*
X199390000Y-98107500D03*
D10*
X44132500Y-122237500D03*
D11*
X49212500Y-122237500D03*
D10*
X54292500Y-122237500D03*
D12*
X45402500Y-119697500D03*
X51752500Y-117157500D03*
D10*
X78105000Y-84137500D03*
X67945000Y-84137500D03*
D11*
X73025000Y-84137500D03*
D12*
X69215000Y-81597500D03*
X75565000Y-79057500D03*
D10*
X85248748Y-103187500D03*
D11*
X80168748Y-103187500D03*
D10*
X75088748Y-103187500D03*
D12*
X76358748Y-100647500D03*
X82708748Y-98107500D03*
D10*
X217963750Y-103187500D03*
D11*
X223043750Y-103187500D03*
D10*
X228123750Y-103187500D03*
D12*
X219233750Y-100647500D03*
X225583750Y-98107500D03*
D11*
X236061250Y-62674500D03*
D13*
X220821250Y-86550500D03*
D10*
X232886250Y-74612500D03*
D11*
X227806250Y-74612500D03*
D10*
X222726250Y-74612500D03*
D14*
X220821250Y-62674500D03*
D11*
X236061250Y-86550500D03*
D12*
X223996250Y-72072500D03*
X230346250Y-69532500D03*
D10*
X190023750Y-122237500D03*
D11*
X184943750Y-122237500D03*
D10*
X179863750Y-122237500D03*
D12*
X181133750Y-119697500D03*
X187483750Y-117157500D03*
D11*
X120650000Y-103187500D03*
D10*
X115570000Y-103187500D03*
X125730000Y-103187500D03*
D12*
X116840000Y-100647500D03*
X123190000Y-98107500D03*
D11*
X87312500Y-65087500D03*
D10*
X82232500Y-65087500D03*
X92392500Y-65087500D03*
D12*
X83502500Y-62547500D03*
X89852500Y-60007500D03*
D11*
X53974998Y-103187500D03*
D10*
X48894998Y-103187500D03*
X59054998Y-103187500D03*
D12*
X50164998Y-100647500D03*
X56514998Y-98107500D03*
D10*
X87630000Y-103187500D03*
X77470000Y-103187500D03*
D11*
X82550000Y-103187500D03*
D12*
X78740000Y-100647500D03*
X85090000Y-98107500D03*
D10*
X230505003Y-103187500D03*
X220345003Y-103187500D03*
D11*
X225425003Y-103187500D03*
D12*
X221615003Y-100647500D03*
X227965003Y-98107500D03*
D11*
X51593750Y-84137500D03*
D10*
X56673750Y-84137500D03*
X46513750Y-84137500D03*
D12*
X47783750Y-81597500D03*
X54133750Y-79057500D03*
D11*
X144462500Y-65087500D03*
D10*
X139382500Y-65087500D03*
X149542500Y-65087500D03*
D12*
X140652500Y-62547500D03*
X147002500Y-60007500D03*
D10*
X154305000Y-84137500D03*
D11*
X149225000Y-84137500D03*
D10*
X144145000Y-84137500D03*
D12*
X145415000Y-81597500D03*
X151765000Y-79057500D03*
D15*
X216408750Y-60543750D03*
X210628750Y-60543750D03*
D16*
X217838750Y-61073750D03*
D17*
X209198750Y-56893750D03*
D16*
X209198750Y-61073750D03*
D17*
X217838750Y-56893750D03*
M02*
