%TF.GenerationSoftware,KiCad,Pcbnew,(6.0.11-0)*%
%TF.CreationDate,2023-07-13T08:17:10+09:00*%
%TF.ProjectId,Tiny Dimply Qazy,54696e79-2044-4696-9d70-6c792051617a,rev?*%
%TF.SameCoordinates,Original*%
%TF.FileFunction,Drillmap*%
%TF.FilePolarity,Positive*%
%FSLAX45Y45*%
G04 Gerber Fmt 4.5, Leading zero omitted, Abs format (unit mm)*
G04 Created by KiCad (PCBNEW (6.0.11-0)) date 2023-07-13 08:17:10*
%MOMM*%
%LPD*%
G01*
G04 APERTURE LIST*
%ADD10C,0.200000*%
%ADD11C,0.040000*%
%ADD12C,0.060000*%
%ADD13C,0.147000*%
%ADD14C,0.304800*%
G04 APERTURE END LIST*
D10*
X6230937Y-9386600D02*
X6230937Y-9346600D01*
X21709062Y-9346600D02*
X21709062Y-9386600D01*
X23821250Y-5906600D02*
G75*
G03*
X23521250Y-5606600I-300000J0D01*
G01*
X4418750Y-5606600D02*
G75*
G03*
X4118750Y-5906600I0J-300000D01*
G01*
X23521250Y-13126600D02*
X4418750Y-13126600D01*
X21709060Y-9346600D02*
G75*
G03*
X21679062Y-9316600I-30000J0D01*
G01*
X23521250Y-13126600D02*
G75*
G03*
X23821250Y-12826600I0J300000D01*
G01*
X4118750Y-12826600D02*
G75*
G03*
X4418750Y-13126600I300000J0D01*
G01*
X4418750Y-5606600D02*
X23521250Y-5606600D01*
X6230940Y-9386600D02*
G75*
G03*
X6260937Y-9416600I30000J0D01*
G01*
X4118750Y-12826600D02*
X4118750Y-5906600D01*
X23821250Y-5906600D02*
X23821250Y-12826600D01*
X21679062Y-9416602D02*
G75*
G03*
X21709062Y-9386600I-2J30002D01*
G01*
X6260937Y-9316597D02*
G75*
G03*
X6230937Y-9346600I3J-30003D01*
G01*
X21679062Y-9416600D02*
X6260937Y-9416600D01*
X6260937Y-9316600D02*
X21679062Y-9316600D01*
D11*
X4168000Y-9566600D02*
X4208000Y-9606600D01*
X4208000Y-9566600D02*
X4168000Y-9606600D01*
X4272000Y-9504000D02*
X4312000Y-9544000D01*
X4312000Y-9504000D02*
X4272000Y-9544000D01*
X4300176Y-8567019D02*
X4340176Y-8607019D01*
X4340176Y-8567019D02*
X4300176Y-8607019D01*
X4441000Y-8813600D02*
X4481000Y-8853600D01*
X4481000Y-8813600D02*
X4441000Y-8853600D01*
X4466000Y-9959222D02*
X4506000Y-9999222D01*
X4506000Y-9959222D02*
X4466000Y-9999222D01*
X4707000Y-10081600D02*
X4747000Y-10121600D01*
X4747000Y-10081600D02*
X4707000Y-10121600D01*
X4859500Y-9203500D02*
X4899500Y-9243500D01*
X4899500Y-9203500D02*
X4859500Y-9243500D01*
X5070000Y-10754000D02*
X5110000Y-10794000D01*
X5110000Y-10754000D02*
X5070000Y-10794000D01*
X5233000Y-9642000D02*
X5273000Y-9682000D01*
X5273000Y-9642000D02*
X5233000Y-9682000D01*
X5320925Y-8761000D02*
X5360925Y-8801000D01*
X5360925Y-8761000D02*
X5320925Y-8801000D01*
X5339000Y-11155600D02*
X5379000Y-11195600D01*
X5379000Y-11155600D02*
X5339000Y-11195600D01*
X5471000Y-9972300D02*
X5511000Y-10012300D01*
X5511000Y-9972300D02*
X5471000Y-10012300D01*
X5481000Y-9595600D02*
X5521000Y-9635600D01*
X5521000Y-9595600D02*
X5481000Y-9635600D01*
X5561550Y-9439212D02*
X5601550Y-9479212D01*
X5601550Y-9439212D02*
X5561550Y-9479212D01*
X5578000Y-8861000D02*
X5618000Y-8901000D01*
X5618000Y-8861000D02*
X5578000Y-8901000D01*
X5586792Y-8695000D02*
X5626791Y-8735000D01*
X5626791Y-8695000D02*
X5586792Y-8735000D01*
X5703000Y-10985000D02*
X5743000Y-11025000D01*
X5743000Y-10985000D02*
X5703000Y-11025000D01*
X5788000Y-9447000D02*
X5828000Y-9487000D01*
X5828000Y-9447000D02*
X5788000Y-9487000D01*
X5855000Y-8684450D02*
X5895000Y-8724450D01*
X5895000Y-8684450D02*
X5855000Y-8724450D01*
X5866896Y-9385637D02*
X5906896Y-9425637D01*
X5906896Y-9385637D02*
X5866896Y-9425637D01*
X5911000Y-8843502D02*
X5951000Y-8883502D01*
X5951000Y-8843502D02*
X5911000Y-8883502D01*
X5942075Y-10586550D02*
X5982075Y-10626550D01*
X5982075Y-10586550D02*
X5942075Y-10626550D01*
X5956000Y-11062000D02*
X5996000Y-11102000D01*
X5996000Y-11062000D02*
X5956000Y-11102000D01*
X5970638Y-8684450D02*
X6010638Y-8724450D01*
X6010638Y-8684450D02*
X5970638Y-8724450D01*
X5974000Y-10786000D02*
X6014000Y-10826000D01*
X6014000Y-10786000D02*
X5974000Y-10826000D01*
X6000000Y-10427150D02*
X6040000Y-10467150D01*
X6040000Y-10427150D02*
X6000000Y-10467150D01*
X6001000Y-10161600D02*
X6041000Y-10201600D01*
X6041000Y-10161600D02*
X6001000Y-10201600D01*
X6069000Y-9560600D02*
X6109000Y-9600600D01*
X6109000Y-9560600D02*
X6069000Y-9600600D01*
X6189300Y-9972300D02*
X6229300Y-10012300D01*
X6229300Y-9972300D02*
X6189300Y-10012300D01*
X6235000Y-9781600D02*
X6275000Y-9821600D01*
X6275000Y-9781600D02*
X6235000Y-9821600D01*
X6576600Y-10117200D02*
X6616600Y-10157200D01*
X6616600Y-10117200D02*
X6576600Y-10157200D01*
X6693000Y-10626000D02*
X6733000Y-10666000D01*
X6733000Y-10626000D02*
X6693000Y-10666000D01*
X6909000Y-11227000D02*
X6949000Y-11267000D01*
X6949000Y-11227000D02*
X6909000Y-11267000D01*
X6952000Y-9863600D02*
X6992000Y-9903600D01*
X6992000Y-9863600D02*
X6952000Y-9903600D01*
X7605000Y-9607600D02*
X7645000Y-9647600D01*
X7645000Y-9607600D02*
X7605000Y-9647600D01*
X8086000Y-9635000D02*
X8126000Y-9675000D01*
X8126000Y-9635000D02*
X8086000Y-9675000D01*
X8404000Y-9556402D02*
X8444000Y-9596402D01*
X8444000Y-9556402D02*
X8404000Y-9596402D01*
X11175000Y-9240660D02*
X11215000Y-9280660D01*
X11215000Y-9240660D02*
X11175000Y-9280660D01*
X13394000Y-9195708D02*
X13434000Y-9235708D01*
X13434000Y-9195708D02*
X13394000Y-9235708D01*
X15275000Y-9150756D02*
X15315000Y-9190756D01*
X15315000Y-9150756D02*
X15275000Y-9190756D01*
X17150250Y-9105804D02*
X17190250Y-9145804D01*
X17190250Y-9105804D02*
X17150250Y-9145804D01*
X19043000Y-9060852D02*
X19083000Y-9100852D01*
X19083000Y-9060852D02*
X19043000Y-9100852D01*
X19423000Y-6326600D02*
X19463000Y-6366600D01*
X19463000Y-6326600D02*
X19423000Y-6366600D01*
X20661701Y-8988402D02*
X20701701Y-9028402D01*
X20701701Y-8988402D02*
X20661701Y-9028402D01*
X20943950Y-8136000D02*
X20983950Y-8176000D01*
X20983950Y-8136000D02*
X20943950Y-8176000D01*
X20947500Y-6557500D02*
X20987500Y-6597500D01*
X20987500Y-6557500D02*
X20947500Y-6597500D01*
X20948000Y-8324000D02*
X20988000Y-8364000D01*
X20988000Y-8324000D02*
X20948000Y-8364000D01*
X21025000Y-7442500D02*
X21065000Y-7482500D01*
X21065000Y-7442500D02*
X21025000Y-7482500D01*
X21110000Y-8756650D02*
X21150000Y-8796650D01*
X21150000Y-8756650D02*
X21110000Y-8796650D01*
X21210000Y-6440000D02*
X21250000Y-6480000D01*
X21250000Y-6440000D02*
X21210000Y-6480000D01*
X21210000Y-8826600D02*
X21250000Y-8866600D01*
X21250000Y-8826600D02*
X21210000Y-8866600D01*
X21245000Y-7675000D02*
X21285000Y-7715000D01*
X21285000Y-7675000D02*
X21245000Y-7715000D01*
X21267000Y-8231000D02*
X21307000Y-8271000D01*
X21307000Y-8231000D02*
X21267000Y-8271000D01*
X21290600Y-8903500D02*
X21330600Y-8943500D01*
X21330600Y-8903500D02*
X21290600Y-8943500D01*
X21365000Y-7073600D02*
X21405000Y-7113600D01*
X21405000Y-7073600D02*
X21365000Y-7113600D01*
X21373000Y-8334000D02*
X21413000Y-8374000D01*
X21413000Y-8334000D02*
X21373000Y-8374000D01*
X21412128Y-6595372D02*
X21452128Y-6635372D01*
X21452128Y-6595372D02*
X21412128Y-6635372D01*
X21462500Y-6933700D02*
X21502500Y-6973700D01*
X21502500Y-6933700D02*
X21462500Y-6973700D01*
X21475000Y-8215000D02*
X21515000Y-8255000D01*
X21515000Y-8215000D02*
X21475000Y-8255000D01*
X21561000Y-8078600D02*
X21601000Y-8118600D01*
X21601000Y-8078600D02*
X21561000Y-8118600D01*
X21570000Y-6409375D02*
X21610000Y-6449375D01*
X21610000Y-6409375D02*
X21570000Y-6449375D01*
X21692000Y-7459000D02*
X21732000Y-7499000D01*
X21732000Y-7459000D02*
X21692000Y-7499000D01*
X21692500Y-6740000D02*
X21732500Y-6780000D01*
X21732500Y-6740000D02*
X21692500Y-6780000D01*
X21745877Y-8036123D02*
X21785877Y-8076123D01*
X21785877Y-8036123D02*
X21745877Y-8076123D01*
X21820123Y-7961877D02*
X21860123Y-8001877D01*
X21860123Y-7961877D02*
X21820123Y-8001877D01*
X21966875Y-6806250D02*
X22006875Y-6846250D01*
X22006875Y-6806250D02*
X21966875Y-6846250D01*
D12*
X20949875Y-5689375D02*
G75*
G03*
X20949875Y-5689375I-30000J0D01*
G01*
D10*
X20889875Y-5659375D02*
X20889875Y-5719375D01*
X20949875Y-5659375D02*
X20949875Y-5719375D01*
X20889875Y-5719375D02*
G75*
G03*
X20949875Y-5719375I30000J0D01*
G01*
X20949875Y-5659375D02*
G75*
G03*
X20889875Y-5659375I-30000J0D01*
G01*
D12*
X20949875Y-6107375D02*
G75*
G03*
X20949875Y-6107375I-30000J0D01*
G01*
D10*
X20889875Y-6052375D02*
X20889875Y-6162375D01*
X20949875Y-6052375D02*
X20949875Y-6162375D01*
X20889875Y-6162375D02*
G75*
G03*
X20949875Y-6162375I30000J0D01*
G01*
X20949875Y-6052375D02*
G75*
G03*
X20889875Y-6052375I-30000J0D01*
G01*
D12*
X21813875Y-5689375D02*
G75*
G03*
X21813875Y-5689375I-30000J0D01*
G01*
D10*
X21753875Y-5659375D02*
X21753875Y-5719375D01*
X21813875Y-5659375D02*
X21813875Y-5719375D01*
X21753875Y-5719375D02*
G75*
G03*
X21813875Y-5719375I30000J0D01*
G01*
X21813875Y-5659375D02*
G75*
G03*
X21753875Y-5659375I-30000J0D01*
G01*
D12*
X21813875Y-6107375D02*
G75*
G03*
X21813875Y-6107375I-30000J0D01*
G01*
D10*
X21753875Y-6052375D02*
X21753875Y-6162375D01*
X21813875Y-6052375D02*
X21813875Y-6162375D01*
X21753875Y-6162375D02*
G75*
G03*
X21813875Y-6162375I30000J0D01*
G01*
X21813875Y-6052375D02*
G75*
G03*
X21753875Y-6052375I-30000J0D01*
G01*
D13*
X4540250Y-6181250D02*
X4540250Y-6328250D01*
X4466750Y-6254750D02*
X4613750Y-6254750D01*
X4540250Y-11896250D02*
X4540250Y-12043250D01*
X4466750Y-11969750D02*
X4613750Y-11969750D01*
X4778375Y-8086250D02*
X4778375Y-8233250D01*
X4704875Y-8159750D02*
X4851875Y-8159750D01*
X5016500Y-9991250D02*
X5016500Y-10138250D01*
X4943000Y-10064750D02*
X5090000Y-10064750D01*
X5175250Y-5927250D02*
X5175250Y-6074250D01*
X5101750Y-6000750D02*
X5248750Y-6000750D01*
X5175250Y-11642250D02*
X5175250Y-11789250D01*
X5101750Y-11715750D02*
X5248750Y-11715750D01*
X5254625Y-9991250D02*
X5254625Y-10138250D01*
X5181125Y-10064750D02*
X5328125Y-10064750D01*
X5413375Y-7832250D02*
X5413375Y-7979250D01*
X5339875Y-7905750D02*
X5486875Y-7905750D01*
X5492750Y-11896250D02*
X5492750Y-12043250D01*
X5419250Y-11969750D02*
X5566250Y-11969750D01*
X5651500Y-9737250D02*
X5651500Y-9884250D01*
X5578000Y-9810750D02*
X5725000Y-9810750D01*
X5889625Y-9737250D02*
X5889625Y-9884250D01*
X5816125Y-9810750D02*
X5963125Y-9810750D01*
X6127750Y-11642250D02*
X6127750Y-11789250D01*
X6054250Y-11715750D02*
X6201250Y-11715750D01*
X6445250Y-6181250D02*
X6445250Y-6328250D01*
X6371750Y-6254750D02*
X6518750Y-6254750D01*
X6683375Y-11896250D02*
X6683375Y-12043250D01*
X6609875Y-11969750D02*
X6756875Y-11969750D01*
X6921500Y-8086250D02*
X6921500Y-8233250D01*
X6848000Y-8159750D02*
X6995000Y-8159750D01*
X7080250Y-5927250D02*
X7080250Y-6074250D01*
X7006750Y-6000750D02*
X7153750Y-6000750D01*
X7318375Y-11642250D02*
X7318375Y-11789250D01*
X7244875Y-11715750D02*
X7391875Y-11715750D01*
X7556500Y-7832250D02*
X7556500Y-7979250D01*
X7483000Y-7905750D02*
X7630000Y-7905750D01*
X7635875Y-9991250D02*
X7635875Y-10138250D01*
X7562375Y-10064750D02*
X7709375Y-10064750D01*
X7874000Y-9991250D02*
X7874000Y-10138250D01*
X7800500Y-10064750D02*
X7947500Y-10064750D01*
X8270875Y-9737250D02*
X8270875Y-9884250D01*
X8197375Y-9810750D02*
X8344375Y-9810750D01*
X8350250Y-6181250D02*
X8350250Y-6328250D01*
X8276750Y-6254750D02*
X8423750Y-6254750D01*
X8509000Y-9737250D02*
X8509000Y-9884250D01*
X8435500Y-9810750D02*
X8582500Y-9810750D01*
X8826500Y-8086250D02*
X8826500Y-8233250D01*
X8753000Y-8159750D02*
X8900000Y-8159750D01*
X8985250Y-5927250D02*
X8985250Y-6074250D01*
X8911750Y-6000750D02*
X9058750Y-6000750D01*
X9064625Y-11896250D02*
X9064625Y-12043250D01*
X8991125Y-11969750D02*
X9138125Y-11969750D01*
X9461500Y-7832250D02*
X9461500Y-7979250D01*
X9388000Y-7905750D02*
X9535000Y-7905750D01*
X9699625Y-11642250D02*
X9699625Y-11789250D01*
X9626125Y-11715750D02*
X9773125Y-11715750D01*
X9779000Y-9991250D02*
X9779000Y-10138250D01*
X9705500Y-10064750D02*
X9852500Y-10064750D01*
X10255250Y-6181250D02*
X10255250Y-6328250D01*
X10181750Y-6254750D02*
X10328750Y-6254750D01*
X10414000Y-9737250D02*
X10414000Y-9884250D01*
X10340500Y-9810750D02*
X10487500Y-9810750D01*
X10731500Y-8086250D02*
X10731500Y-8233250D01*
X10658000Y-8159750D02*
X10805000Y-8159750D01*
X10731500Y-11896250D02*
X10731500Y-12043250D01*
X10658000Y-11969750D02*
X10805000Y-11969750D01*
X10890250Y-5927250D02*
X10890250Y-6074250D01*
X10816750Y-6000750D02*
X10963750Y-6000750D01*
X11366500Y-7832250D02*
X11366500Y-7979250D01*
X11293000Y-7905750D02*
X11440000Y-7905750D01*
X11366500Y-11642250D02*
X11366500Y-11789250D01*
X11293000Y-11715750D02*
X11440000Y-11715750D01*
X11684000Y-9991250D02*
X11684000Y-10138250D01*
X11610500Y-10064750D02*
X11757500Y-10064750D01*
X11922125Y-11896250D02*
X11922125Y-12043250D01*
X11848625Y-11969750D02*
X11995625Y-11969750D01*
X12160250Y-6181250D02*
X12160250Y-6328250D01*
X12086750Y-6254750D02*
X12233750Y-6254750D01*
X12319000Y-9737250D02*
X12319000Y-9884250D01*
X12245500Y-9810750D02*
X12392500Y-9810750D01*
X12557125Y-11642250D02*
X12557125Y-11789250D01*
X12483625Y-11715750D02*
X12630625Y-11715750D01*
X12636500Y-8086250D02*
X12636500Y-8233250D01*
X12563000Y-8159750D02*
X12710000Y-8159750D01*
X12795250Y-5927250D02*
X12795250Y-6074250D01*
X12721750Y-6000750D02*
X12868750Y-6000750D01*
X13271500Y-7832250D02*
X13271500Y-7979250D01*
X13198000Y-7905750D02*
X13345000Y-7905750D01*
X13589000Y-9991250D02*
X13589000Y-10138250D01*
X13515500Y-10064750D02*
X13662500Y-10064750D01*
X13589000Y-11896250D02*
X13589000Y-12043250D01*
X13515500Y-11969750D02*
X13662500Y-11969750D01*
X13589000Y-11896250D02*
X13589000Y-12043250D01*
X13515500Y-11969750D02*
X13662500Y-11969750D01*
X14065250Y-6181250D02*
X14065250Y-6328250D01*
X13991750Y-6254750D02*
X14138750Y-6254750D01*
X14224000Y-9737250D02*
X14224000Y-9884250D01*
X14150500Y-9810750D02*
X14297500Y-9810750D01*
X14224000Y-11642250D02*
X14224000Y-11789250D01*
X14150500Y-11715750D02*
X14297500Y-11715750D01*
X14224000Y-11642250D02*
X14224000Y-11789250D01*
X14150500Y-11715750D02*
X14297500Y-11715750D01*
X14541500Y-8086250D02*
X14541500Y-8233250D01*
X14468000Y-8159750D02*
X14615000Y-8159750D01*
X14700250Y-5927250D02*
X14700250Y-6074250D01*
X14626750Y-6000750D02*
X14773750Y-6000750D01*
X15176500Y-7832250D02*
X15176500Y-7979250D01*
X15103000Y-7905750D02*
X15250000Y-7905750D01*
X15255875Y-11896250D02*
X15255875Y-12043250D01*
X15182375Y-11969750D02*
X15329375Y-11969750D01*
X15494000Y-9991250D02*
X15494000Y-10138250D01*
X15420500Y-10064750D02*
X15567500Y-10064750D01*
X15890875Y-11642250D02*
X15890875Y-11789250D01*
X15817375Y-11715750D02*
X15964375Y-11715750D01*
X15970250Y-6181250D02*
X15970250Y-6328250D01*
X15896750Y-6254750D02*
X16043750Y-6254750D01*
X16129000Y-9737250D02*
X16129000Y-9884250D01*
X16055500Y-9810750D02*
X16202500Y-9810750D01*
X16446500Y-8086250D02*
X16446500Y-8233250D01*
X16373000Y-8159750D02*
X16520000Y-8159750D01*
X16446500Y-11896250D02*
X16446500Y-12043250D01*
X16373000Y-11969750D02*
X16520000Y-11969750D01*
X16605250Y-5927250D02*
X16605250Y-6074250D01*
X16531750Y-6000750D02*
X16678750Y-6000750D01*
X17081500Y-7832250D02*
X17081500Y-7979250D01*
X17008000Y-7905750D02*
X17155000Y-7905750D01*
X17081500Y-11642250D02*
X17081500Y-11789250D01*
X17008000Y-11715750D02*
X17155000Y-11715750D01*
X17399000Y-9991250D02*
X17399000Y-10138250D01*
X17325500Y-10064750D02*
X17472500Y-10064750D01*
X17875250Y-6181250D02*
X17875250Y-6328250D01*
X17801750Y-6254750D02*
X17948750Y-6254750D01*
X18034000Y-9737250D02*
X18034000Y-9884250D01*
X17960500Y-9810750D02*
X18107500Y-9810750D01*
X18113375Y-11896250D02*
X18113375Y-12043250D01*
X18039875Y-11969750D02*
X18186875Y-11969750D01*
X18351500Y-8086250D02*
X18351500Y-8233250D01*
X18278000Y-8159750D02*
X18425000Y-8159750D01*
X18510250Y-5927250D02*
X18510250Y-6074250D01*
X18436750Y-6000750D02*
X18583750Y-6000750D01*
X18748375Y-11642250D02*
X18748375Y-11789250D01*
X18674875Y-11715750D02*
X18821875Y-11715750D01*
X18986500Y-7832250D02*
X18986500Y-7979250D01*
X18913000Y-7905750D02*
X19060000Y-7905750D01*
X19304000Y-9991250D02*
X19304000Y-10138250D01*
X19230500Y-10064750D02*
X19377500Y-10064750D01*
X19542125Y-9991250D02*
X19542125Y-10138250D01*
X19468625Y-10064750D02*
X19615625Y-10064750D01*
X19780250Y-6181250D02*
X19780250Y-6328250D01*
X19706750Y-6254750D02*
X19853750Y-6254750D01*
X19939000Y-9737250D02*
X19939000Y-9884250D01*
X19865500Y-9810750D02*
X20012500Y-9810750D01*
X20177125Y-9737250D02*
X20177125Y-9884250D01*
X20103625Y-9810750D02*
X20250625Y-9810750D01*
X20256500Y-8086250D02*
X20256500Y-8233250D01*
X20183000Y-8159750D02*
X20330000Y-8159750D01*
X20415250Y-5927250D02*
X20415250Y-6074250D01*
X20341750Y-6000750D02*
X20488750Y-6000750D01*
X20494625Y-11896250D02*
X20494625Y-12043250D01*
X20421125Y-11969750D02*
X20568125Y-11969750D01*
X20891500Y-7832250D02*
X20891500Y-7979250D01*
X20818000Y-7905750D02*
X20965000Y-7905750D01*
X21129625Y-11642250D02*
X21129625Y-11789250D01*
X21056125Y-11715750D02*
X21203125Y-11715750D01*
X21685250Y-11896250D02*
X21685250Y-12043250D01*
X21611750Y-11969750D02*
X21758750Y-11969750D01*
X21923375Y-9991250D02*
X21923375Y-10138250D01*
X21849875Y-10064750D02*
X21996875Y-10064750D01*
X22161500Y-6181250D02*
X22161500Y-6328250D01*
X22088000Y-6254750D02*
X22235000Y-6254750D01*
X22161500Y-9991250D02*
X22161500Y-10138250D01*
X22088000Y-10064750D02*
X22235000Y-10064750D01*
X22320250Y-11642250D02*
X22320250Y-11789250D01*
X22246750Y-11715750D02*
X22393750Y-11715750D01*
X22399625Y-7133750D02*
X22399625Y-7280750D01*
X22326125Y-7207250D02*
X22473125Y-7207250D01*
X22399625Y-8086250D02*
X22399625Y-8233250D01*
X22326125Y-8159750D02*
X22473125Y-8159750D01*
X22558375Y-9737250D02*
X22558375Y-9884250D01*
X22484875Y-9810750D02*
X22631875Y-9810750D01*
X22637750Y-11896250D02*
X22637750Y-12043250D01*
X22564250Y-11969750D02*
X22711250Y-11969750D01*
X22796500Y-5927250D02*
X22796500Y-6074250D01*
X22723000Y-6000750D02*
X22870000Y-6000750D01*
X22796500Y-9737250D02*
X22796500Y-9884250D01*
X22723000Y-9810750D02*
X22870000Y-9810750D01*
X23034625Y-6879750D02*
X23034625Y-7026750D01*
X22961125Y-6953250D02*
X23108125Y-6953250D01*
X23034625Y-7832250D02*
X23034625Y-7979250D01*
X22961125Y-7905750D02*
X23108125Y-7905750D01*
X23272750Y-11642250D02*
X23272750Y-11789250D01*
X23199250Y-11715750D02*
X23346250Y-11715750D01*
D14*
X22189889Y-6375214D02*
X22189889Y-6159686D01*
X21974361Y-6159686D01*
X21974361Y-6375214D01*
X22189889Y-6375214D01*
D10*
X4366369Y-13447076D02*
X4366369Y-13247076D01*
X4413988Y-13247076D01*
X4442560Y-13256600D01*
X4461607Y-13275647D01*
X4471131Y-13294695D01*
X4480655Y-13332790D01*
X4480655Y-13361362D01*
X4471131Y-13399457D01*
X4461607Y-13418505D01*
X4442560Y-13437552D01*
X4413988Y-13447076D01*
X4366369Y-13447076D01*
X4566369Y-13447076D02*
X4566369Y-13313743D01*
X4566369Y-13351838D02*
X4575893Y-13332790D01*
X4585417Y-13323266D01*
X4604465Y-13313743D01*
X4623512Y-13313743D01*
X4690179Y-13447076D02*
X4690179Y-13313743D01*
X4690179Y-13247076D02*
X4680655Y-13256600D01*
X4690179Y-13266124D01*
X4699703Y-13256600D01*
X4690179Y-13247076D01*
X4690179Y-13266124D01*
X4813988Y-13447076D02*
X4794941Y-13437552D01*
X4785417Y-13418505D01*
X4785417Y-13247076D01*
X4918750Y-13447076D02*
X4899703Y-13437552D01*
X4890179Y-13418505D01*
X4890179Y-13247076D01*
X5147322Y-13447076D02*
X5147322Y-13247076D01*
X5213988Y-13389933D01*
X5280655Y-13247076D01*
X5280655Y-13447076D01*
X5461607Y-13447076D02*
X5461607Y-13342314D01*
X5452084Y-13323266D01*
X5433036Y-13313743D01*
X5394941Y-13313743D01*
X5375893Y-13323266D01*
X5461607Y-13437552D02*
X5442560Y-13447076D01*
X5394941Y-13447076D01*
X5375893Y-13437552D01*
X5366369Y-13418505D01*
X5366369Y-13399457D01*
X5375893Y-13380409D01*
X5394941Y-13370886D01*
X5442560Y-13370886D01*
X5461607Y-13361362D01*
X5556846Y-13313743D02*
X5556846Y-13513743D01*
X5556846Y-13323266D02*
X5575893Y-13313743D01*
X5613988Y-13313743D01*
X5633036Y-13323266D01*
X5642560Y-13332790D01*
X5652084Y-13351838D01*
X5652084Y-13408981D01*
X5642560Y-13428028D01*
X5633036Y-13437552D01*
X5613988Y-13447076D01*
X5575893Y-13447076D01*
X5556846Y-13437552D01*
X5737798Y-13428028D02*
X5747322Y-13437552D01*
X5737798Y-13447076D01*
X5728274Y-13437552D01*
X5737798Y-13428028D01*
X5737798Y-13447076D01*
X5737798Y-13323266D02*
X5747322Y-13332790D01*
X5737798Y-13342314D01*
X5728274Y-13332790D01*
X5737798Y-13323266D01*
X5737798Y-13342314D01*
D11*
X4068750Y-13756600D02*
X4108750Y-13796600D01*
X4108750Y-13756600D02*
X4068750Y-13796600D01*
D10*
X4404465Y-13667076D02*
X4423512Y-13667076D01*
X4442560Y-13676600D01*
X4452084Y-13686124D01*
X4461607Y-13705171D01*
X4471131Y-13743266D01*
X4471131Y-13790886D01*
X4461607Y-13828981D01*
X4452084Y-13848028D01*
X4442560Y-13857552D01*
X4423512Y-13867076D01*
X4404465Y-13867076D01*
X4385417Y-13857552D01*
X4375893Y-13848028D01*
X4366369Y-13828981D01*
X4356846Y-13790886D01*
X4356846Y-13743266D01*
X4366369Y-13705171D01*
X4375893Y-13686124D01*
X4385417Y-13676600D01*
X4404465Y-13667076D01*
X4556846Y-13848028D02*
X4566369Y-13857552D01*
X4556846Y-13867076D01*
X4547322Y-13857552D01*
X4556846Y-13848028D01*
X4556846Y-13867076D01*
X4737798Y-13733743D02*
X4737798Y-13867076D01*
X4690179Y-13657552D02*
X4642560Y-13800409D01*
X4766369Y-13800409D01*
X4880655Y-13667076D02*
X4899703Y-13667076D01*
X4918750Y-13676600D01*
X4928274Y-13686124D01*
X4937798Y-13705171D01*
X4947322Y-13743266D01*
X4947322Y-13790886D01*
X4937798Y-13828981D01*
X4928274Y-13848028D01*
X4918750Y-13857552D01*
X4899703Y-13867076D01*
X4880655Y-13867076D01*
X4861607Y-13857552D01*
X4852084Y-13848028D01*
X4842560Y-13828981D01*
X4833036Y-13790886D01*
X4833036Y-13743266D01*
X4842560Y-13705171D01*
X4852084Y-13686124D01*
X4861607Y-13676600D01*
X4880655Y-13667076D01*
X5071131Y-13667076D02*
X5090179Y-13667076D01*
X5109226Y-13676600D01*
X5118750Y-13686124D01*
X5128274Y-13705171D01*
X5137798Y-13743266D01*
X5137798Y-13790886D01*
X5128274Y-13828981D01*
X5118750Y-13848028D01*
X5109226Y-13857552D01*
X5090179Y-13867076D01*
X5071131Y-13867076D01*
X5052084Y-13857552D01*
X5042560Y-13848028D01*
X5033036Y-13828981D01*
X5023512Y-13790886D01*
X5023512Y-13743266D01*
X5033036Y-13705171D01*
X5042560Y-13686124D01*
X5052084Y-13676600D01*
X5071131Y-13667076D01*
X5223512Y-13867076D02*
X5223512Y-13733743D01*
X5223512Y-13752790D02*
X5233036Y-13743266D01*
X5252084Y-13733743D01*
X5280655Y-13733743D01*
X5299703Y-13743266D01*
X5309226Y-13762314D01*
X5309226Y-13867076D01*
X5309226Y-13762314D02*
X5318750Y-13743266D01*
X5337798Y-13733743D01*
X5366369Y-13733743D01*
X5385417Y-13743266D01*
X5394941Y-13762314D01*
X5394941Y-13867076D01*
X5490179Y-13867076D02*
X5490179Y-13733743D01*
X5490179Y-13752790D02*
X5499703Y-13743266D01*
X5518750Y-13733743D01*
X5547322Y-13733743D01*
X5566369Y-13743266D01*
X5575893Y-13762314D01*
X5575893Y-13867076D01*
X5575893Y-13762314D02*
X5585417Y-13743266D01*
X5604464Y-13733743D01*
X5633036Y-13733743D01*
X5652084Y-13743266D01*
X5661607Y-13762314D01*
X5661607Y-13867076D01*
X6052084Y-13657552D02*
X5880655Y-13914695D01*
X6309226Y-13667076D02*
X6328274Y-13667076D01*
X6347322Y-13676600D01*
X6356845Y-13686124D01*
X6366369Y-13705171D01*
X6375893Y-13743266D01*
X6375893Y-13790886D01*
X6366369Y-13828981D01*
X6356845Y-13848028D01*
X6347322Y-13857552D01*
X6328274Y-13867076D01*
X6309226Y-13867076D01*
X6290179Y-13857552D01*
X6280655Y-13848028D01*
X6271131Y-13828981D01*
X6261607Y-13790886D01*
X6261607Y-13743266D01*
X6271131Y-13705171D01*
X6280655Y-13686124D01*
X6290179Y-13676600D01*
X6309226Y-13667076D01*
X6461607Y-13848028D02*
X6471131Y-13857552D01*
X6461607Y-13867076D01*
X6452084Y-13857552D01*
X6461607Y-13848028D01*
X6461607Y-13867076D01*
X6594941Y-13667076D02*
X6613988Y-13667076D01*
X6633036Y-13676600D01*
X6642560Y-13686124D01*
X6652084Y-13705171D01*
X6661607Y-13743266D01*
X6661607Y-13790886D01*
X6652084Y-13828981D01*
X6642560Y-13848028D01*
X6633036Y-13857552D01*
X6613988Y-13867076D01*
X6594941Y-13867076D01*
X6575893Y-13857552D01*
X6566369Y-13848028D01*
X6556845Y-13828981D01*
X6547322Y-13790886D01*
X6547322Y-13743266D01*
X6556845Y-13705171D01*
X6566369Y-13686124D01*
X6575893Y-13676600D01*
X6594941Y-13667076D01*
X6852084Y-13867076D02*
X6737798Y-13867076D01*
X6794941Y-13867076D02*
X6794941Y-13667076D01*
X6775893Y-13695647D01*
X6756845Y-13714695D01*
X6737798Y-13724219D01*
X7033036Y-13667076D02*
X6937798Y-13667076D01*
X6928274Y-13762314D01*
X6937798Y-13752790D01*
X6956845Y-13743266D01*
X7004464Y-13743266D01*
X7023512Y-13752790D01*
X7033036Y-13762314D01*
X7042560Y-13781362D01*
X7042560Y-13828981D01*
X7033036Y-13848028D01*
X7023512Y-13857552D01*
X7004464Y-13867076D01*
X6956845Y-13867076D01*
X6937798Y-13857552D01*
X6928274Y-13848028D01*
X7109226Y-13667076D02*
X7242560Y-13667076D01*
X7156845Y-13867076D01*
X7309226Y-13667076D02*
X7309226Y-13705171D01*
X7385417Y-13667076D02*
X7385417Y-13705171D01*
X7680655Y-13943266D02*
X7671131Y-13933743D01*
X7652084Y-13905171D01*
X7642560Y-13886124D01*
X7633036Y-13857552D01*
X7623512Y-13809933D01*
X7623512Y-13771838D01*
X7633036Y-13724219D01*
X7642560Y-13695647D01*
X7652084Y-13676600D01*
X7671131Y-13648028D01*
X7680655Y-13638505D01*
X7842560Y-13667076D02*
X7804464Y-13667076D01*
X7785417Y-13676600D01*
X7775893Y-13686124D01*
X7756845Y-13714695D01*
X7747322Y-13752790D01*
X7747322Y-13828981D01*
X7756845Y-13848028D01*
X7766369Y-13857552D01*
X7785417Y-13867076D01*
X7823512Y-13867076D01*
X7842560Y-13857552D01*
X7852084Y-13848028D01*
X7861607Y-13828981D01*
X7861607Y-13781362D01*
X7852084Y-13762314D01*
X7842560Y-13752790D01*
X7823512Y-13743266D01*
X7785417Y-13743266D01*
X7766369Y-13752790D01*
X7756845Y-13762314D01*
X7747322Y-13781362D01*
X8033036Y-13667076D02*
X7994941Y-13667076D01*
X7975893Y-13676600D01*
X7966369Y-13686124D01*
X7947322Y-13714695D01*
X7937798Y-13752790D01*
X7937798Y-13828981D01*
X7947322Y-13848028D01*
X7956845Y-13857552D01*
X7975893Y-13867076D01*
X8013988Y-13867076D01*
X8033036Y-13857552D01*
X8042560Y-13848028D01*
X8052084Y-13828981D01*
X8052084Y-13781362D01*
X8042560Y-13762314D01*
X8033036Y-13752790D01*
X8013988Y-13743266D01*
X7975893Y-13743266D01*
X7956845Y-13752790D01*
X7947322Y-13762314D01*
X7937798Y-13781362D01*
X8290179Y-13867076D02*
X8290179Y-13667076D01*
X8375893Y-13867076D02*
X8375893Y-13762314D01*
X8366369Y-13743266D01*
X8347322Y-13733743D01*
X8318750Y-13733743D01*
X8299703Y-13743266D01*
X8290179Y-13752790D01*
X8499703Y-13867076D02*
X8480655Y-13857552D01*
X8471131Y-13848028D01*
X8461607Y-13828981D01*
X8461607Y-13771838D01*
X8471131Y-13752790D01*
X8480655Y-13743266D01*
X8499703Y-13733743D01*
X8528274Y-13733743D01*
X8547322Y-13743266D01*
X8556846Y-13752790D01*
X8566369Y-13771838D01*
X8566369Y-13828981D01*
X8556846Y-13848028D01*
X8547322Y-13857552D01*
X8528274Y-13867076D01*
X8499703Y-13867076D01*
X8680655Y-13867076D02*
X8661607Y-13857552D01*
X8652084Y-13838505D01*
X8652084Y-13667076D01*
X8833036Y-13857552D02*
X8813988Y-13867076D01*
X8775893Y-13867076D01*
X8756846Y-13857552D01*
X8747322Y-13838505D01*
X8747322Y-13762314D01*
X8756846Y-13743266D01*
X8775893Y-13733743D01*
X8813988Y-13733743D01*
X8833036Y-13743266D01*
X8842560Y-13762314D01*
X8842560Y-13781362D01*
X8747322Y-13800409D01*
X8918750Y-13857552D02*
X8937798Y-13867076D01*
X8975893Y-13867076D01*
X8994941Y-13857552D01*
X9004465Y-13838505D01*
X9004465Y-13828981D01*
X8994941Y-13809933D01*
X8975893Y-13800409D01*
X8947322Y-13800409D01*
X8928274Y-13790886D01*
X8918750Y-13771838D01*
X8918750Y-13762314D01*
X8928274Y-13743266D01*
X8947322Y-13733743D01*
X8975893Y-13733743D01*
X8994941Y-13743266D01*
X9071131Y-13943266D02*
X9080655Y-13933743D01*
X9099703Y-13905171D01*
X9109226Y-13886124D01*
X9118750Y-13857552D01*
X9128274Y-13809933D01*
X9128274Y-13771838D01*
X9118750Y-13724219D01*
X9109226Y-13695647D01*
X9099703Y-13676600D01*
X9080655Y-13648028D01*
X9071131Y-13638505D01*
D12*
X4108750Y-14040600D02*
G75*
G03*
X4108750Y-14040600I-30000J0D01*
G01*
D10*
X4404465Y-13931076D02*
X4423512Y-13931076D01*
X4442560Y-13940600D01*
X4452084Y-13950124D01*
X4461607Y-13969171D01*
X4471131Y-14007266D01*
X4471131Y-14054886D01*
X4461607Y-14092981D01*
X4452084Y-14112028D01*
X4442560Y-14121552D01*
X4423512Y-14131076D01*
X4404465Y-14131076D01*
X4385417Y-14121552D01*
X4375893Y-14112028D01*
X4366369Y-14092981D01*
X4356846Y-14054886D01*
X4356846Y-14007266D01*
X4366369Y-13969171D01*
X4375893Y-13950124D01*
X4385417Y-13940600D01*
X4404465Y-13931076D01*
X4556846Y-14112028D02*
X4566369Y-14121552D01*
X4556846Y-14131076D01*
X4547322Y-14121552D01*
X4556846Y-14112028D01*
X4556846Y-14131076D01*
X4737798Y-13931076D02*
X4699703Y-13931076D01*
X4680655Y-13940600D01*
X4671131Y-13950124D01*
X4652084Y-13978695D01*
X4642560Y-14016790D01*
X4642560Y-14092981D01*
X4652084Y-14112028D01*
X4661607Y-14121552D01*
X4680655Y-14131076D01*
X4718750Y-14131076D01*
X4737798Y-14121552D01*
X4747322Y-14112028D01*
X4756846Y-14092981D01*
X4756846Y-14045362D01*
X4747322Y-14026314D01*
X4737798Y-14016790D01*
X4718750Y-14007266D01*
X4680655Y-14007266D01*
X4661607Y-14016790D01*
X4652084Y-14026314D01*
X4642560Y-14045362D01*
X4880655Y-13931076D02*
X4899703Y-13931076D01*
X4918750Y-13940600D01*
X4928274Y-13950124D01*
X4937798Y-13969171D01*
X4947322Y-14007266D01*
X4947322Y-14054886D01*
X4937798Y-14092981D01*
X4928274Y-14112028D01*
X4918750Y-14121552D01*
X4899703Y-14131076D01*
X4880655Y-14131076D01*
X4861607Y-14121552D01*
X4852084Y-14112028D01*
X4842560Y-14092981D01*
X4833036Y-14054886D01*
X4833036Y-14007266D01*
X4842560Y-13969171D01*
X4852084Y-13950124D01*
X4861607Y-13940600D01*
X4880655Y-13931076D01*
X5071131Y-13931076D02*
X5090179Y-13931076D01*
X5109226Y-13940600D01*
X5118750Y-13950124D01*
X5128274Y-13969171D01*
X5137798Y-14007266D01*
X5137798Y-14054886D01*
X5128274Y-14092981D01*
X5118750Y-14112028D01*
X5109226Y-14121552D01*
X5090179Y-14131076D01*
X5071131Y-14131076D01*
X5052084Y-14121552D01*
X5042560Y-14112028D01*
X5033036Y-14092981D01*
X5023512Y-14054886D01*
X5023512Y-14007266D01*
X5033036Y-13969171D01*
X5042560Y-13950124D01*
X5052084Y-13940600D01*
X5071131Y-13931076D01*
X5223512Y-14131076D02*
X5223512Y-13997743D01*
X5223512Y-14016790D02*
X5233036Y-14007266D01*
X5252084Y-13997743D01*
X5280655Y-13997743D01*
X5299703Y-14007266D01*
X5309226Y-14026314D01*
X5309226Y-14131076D01*
X5309226Y-14026314D02*
X5318750Y-14007266D01*
X5337798Y-13997743D01*
X5366369Y-13997743D01*
X5385417Y-14007266D01*
X5394941Y-14026314D01*
X5394941Y-14131076D01*
X5490179Y-14131076D02*
X5490179Y-13997743D01*
X5490179Y-14016790D02*
X5499703Y-14007266D01*
X5518750Y-13997743D01*
X5547322Y-13997743D01*
X5566369Y-14007266D01*
X5575893Y-14026314D01*
X5575893Y-14131076D01*
X5575893Y-14026314D02*
X5585417Y-14007266D01*
X5604464Y-13997743D01*
X5633036Y-13997743D01*
X5652084Y-14007266D01*
X5661607Y-14026314D01*
X5661607Y-14131076D01*
X6052084Y-13921552D02*
X5880655Y-14178695D01*
X6309226Y-13931076D02*
X6328274Y-13931076D01*
X6347322Y-13940600D01*
X6356845Y-13950124D01*
X6366369Y-13969171D01*
X6375893Y-14007266D01*
X6375893Y-14054886D01*
X6366369Y-14092981D01*
X6356845Y-14112028D01*
X6347322Y-14121552D01*
X6328274Y-14131076D01*
X6309226Y-14131076D01*
X6290179Y-14121552D01*
X6280655Y-14112028D01*
X6271131Y-14092981D01*
X6261607Y-14054886D01*
X6261607Y-14007266D01*
X6271131Y-13969171D01*
X6280655Y-13950124D01*
X6290179Y-13940600D01*
X6309226Y-13931076D01*
X6461607Y-14112028D02*
X6471131Y-14121552D01*
X6461607Y-14131076D01*
X6452084Y-14121552D01*
X6461607Y-14112028D01*
X6461607Y-14131076D01*
X6594941Y-13931076D02*
X6613988Y-13931076D01*
X6633036Y-13940600D01*
X6642560Y-13950124D01*
X6652084Y-13969171D01*
X6661607Y-14007266D01*
X6661607Y-14054886D01*
X6652084Y-14092981D01*
X6642560Y-14112028D01*
X6633036Y-14121552D01*
X6613988Y-14131076D01*
X6594941Y-14131076D01*
X6575893Y-14121552D01*
X6566369Y-14112028D01*
X6556845Y-14092981D01*
X6547322Y-14054886D01*
X6547322Y-14007266D01*
X6556845Y-13969171D01*
X6566369Y-13950124D01*
X6575893Y-13940600D01*
X6594941Y-13931076D01*
X6737798Y-13950124D02*
X6747322Y-13940600D01*
X6766369Y-13931076D01*
X6813988Y-13931076D01*
X6833036Y-13940600D01*
X6842560Y-13950124D01*
X6852084Y-13969171D01*
X6852084Y-13988219D01*
X6842560Y-14016790D01*
X6728274Y-14131076D01*
X6852084Y-14131076D01*
X6918750Y-13931076D02*
X7042560Y-13931076D01*
X6975893Y-14007266D01*
X7004464Y-14007266D01*
X7023512Y-14016790D01*
X7033036Y-14026314D01*
X7042560Y-14045362D01*
X7042560Y-14092981D01*
X7033036Y-14112028D01*
X7023512Y-14121552D01*
X7004464Y-14131076D01*
X6947322Y-14131076D01*
X6928274Y-14121552D01*
X6918750Y-14112028D01*
X7213988Y-13931076D02*
X7175893Y-13931076D01*
X7156845Y-13940600D01*
X7147322Y-13950124D01*
X7128274Y-13978695D01*
X7118750Y-14016790D01*
X7118750Y-14092981D01*
X7128274Y-14112028D01*
X7137798Y-14121552D01*
X7156845Y-14131076D01*
X7194941Y-14131076D01*
X7213988Y-14121552D01*
X7223512Y-14112028D01*
X7233036Y-14092981D01*
X7233036Y-14045362D01*
X7223512Y-14026314D01*
X7213988Y-14016790D01*
X7194941Y-14007266D01*
X7156845Y-14007266D01*
X7137798Y-14016790D01*
X7128274Y-14026314D01*
X7118750Y-14045362D01*
X7309226Y-13931076D02*
X7309226Y-13969171D01*
X7385417Y-13931076D02*
X7385417Y-13969171D01*
X7680655Y-14207266D02*
X7671131Y-14197743D01*
X7652084Y-14169171D01*
X7642560Y-14150124D01*
X7633036Y-14121552D01*
X7623512Y-14073933D01*
X7623512Y-14035838D01*
X7633036Y-13988219D01*
X7642560Y-13959647D01*
X7652084Y-13940600D01*
X7671131Y-13912028D01*
X7680655Y-13902505D01*
X7794941Y-13931076D02*
X7813988Y-13931076D01*
X7833036Y-13940600D01*
X7842560Y-13950124D01*
X7852084Y-13969171D01*
X7861607Y-14007266D01*
X7861607Y-14054886D01*
X7852084Y-14092981D01*
X7842560Y-14112028D01*
X7833036Y-14121552D01*
X7813988Y-14131076D01*
X7794941Y-14131076D01*
X7775893Y-14121552D01*
X7766369Y-14112028D01*
X7756845Y-14092981D01*
X7747322Y-14054886D01*
X7747322Y-14007266D01*
X7756845Y-13969171D01*
X7766369Y-13950124D01*
X7775893Y-13940600D01*
X7794941Y-13931076D01*
X8099703Y-14131076D02*
X8099703Y-13931076D01*
X8185417Y-14131076D02*
X8185417Y-14026314D01*
X8175893Y-14007266D01*
X8156845Y-13997743D01*
X8128274Y-13997743D01*
X8109226Y-14007266D01*
X8099703Y-14016790D01*
X8309226Y-14131076D02*
X8290179Y-14121552D01*
X8280655Y-14112028D01*
X8271131Y-14092981D01*
X8271131Y-14035838D01*
X8280655Y-14016790D01*
X8290179Y-14007266D01*
X8309226Y-13997743D01*
X8337798Y-13997743D01*
X8356845Y-14007266D01*
X8366369Y-14016790D01*
X8375893Y-14035838D01*
X8375893Y-14092981D01*
X8366369Y-14112028D01*
X8356845Y-14121552D01*
X8337798Y-14131076D01*
X8309226Y-14131076D01*
X8490179Y-14131076D02*
X8471131Y-14121552D01*
X8461607Y-14102505D01*
X8461607Y-13931076D01*
X8642560Y-14121552D02*
X8623512Y-14131076D01*
X8585417Y-14131076D01*
X8566369Y-14121552D01*
X8556846Y-14102505D01*
X8556846Y-14026314D01*
X8566369Y-14007266D01*
X8585417Y-13997743D01*
X8623512Y-13997743D01*
X8642560Y-14007266D01*
X8652084Y-14026314D01*
X8652084Y-14045362D01*
X8556846Y-14064409D01*
X8728274Y-14121552D02*
X8747322Y-14131076D01*
X8785417Y-14131076D01*
X8804465Y-14121552D01*
X8813988Y-14102505D01*
X8813988Y-14092981D01*
X8804465Y-14073933D01*
X8785417Y-14064409D01*
X8756846Y-14064409D01*
X8737798Y-14054886D01*
X8728274Y-14035838D01*
X8728274Y-14026314D01*
X8737798Y-14007266D01*
X8756846Y-13997743D01*
X8785417Y-13997743D01*
X8804465Y-14007266D01*
X9052084Y-14054886D02*
X9204465Y-14054886D01*
X9128274Y-14131076D02*
X9128274Y-13978695D01*
X9537798Y-13997743D02*
X9537798Y-14131076D01*
X9490179Y-13921552D02*
X9442560Y-14064409D01*
X9566369Y-14064409D01*
X9785417Y-14121552D02*
X9804465Y-14131076D01*
X9842560Y-14131076D01*
X9861607Y-14121552D01*
X9871131Y-14102505D01*
X9871131Y-14092981D01*
X9861607Y-14073933D01*
X9842560Y-14064409D01*
X9813988Y-14064409D01*
X9794941Y-14054886D01*
X9785417Y-14035838D01*
X9785417Y-14026314D01*
X9794941Y-14007266D01*
X9813988Y-13997743D01*
X9842560Y-13997743D01*
X9861607Y-14007266D01*
X9985417Y-14131076D02*
X9966369Y-14121552D01*
X9956846Y-14102505D01*
X9956846Y-13931076D01*
X10090179Y-14131076D02*
X10071131Y-14121552D01*
X10061607Y-14112028D01*
X10052084Y-14092981D01*
X10052084Y-14035838D01*
X10061607Y-14016790D01*
X10071131Y-14007266D01*
X10090179Y-13997743D01*
X10118750Y-13997743D01*
X10137798Y-14007266D01*
X10147322Y-14016790D01*
X10156846Y-14035838D01*
X10156846Y-14092981D01*
X10147322Y-14112028D01*
X10137798Y-14121552D01*
X10118750Y-14131076D01*
X10090179Y-14131076D01*
X10213988Y-13997743D02*
X10290179Y-13997743D01*
X10242560Y-13931076D02*
X10242560Y-14102505D01*
X10252084Y-14121552D01*
X10271131Y-14131076D01*
X10290179Y-14131076D01*
X10347322Y-14121552D02*
X10366369Y-14131076D01*
X10404465Y-14131076D01*
X10423512Y-14121552D01*
X10433036Y-14102505D01*
X10433036Y-14092981D01*
X10423512Y-14073933D01*
X10404465Y-14064409D01*
X10375893Y-14064409D01*
X10356846Y-14054886D01*
X10347322Y-14035838D01*
X10347322Y-14026314D01*
X10356846Y-14007266D01*
X10375893Y-13997743D01*
X10404465Y-13997743D01*
X10423512Y-14007266D01*
X10499703Y-14207266D02*
X10509226Y-14197743D01*
X10528274Y-14169171D01*
X10537798Y-14150124D01*
X10547322Y-14121552D01*
X10556846Y-14073933D01*
X10556846Y-14035838D01*
X10547322Y-13988219D01*
X10537798Y-13959647D01*
X10528274Y-13940600D01*
X10509226Y-13912028D01*
X10499703Y-13902505D01*
D13*
X4035250Y-14231100D02*
X4035250Y-14378100D01*
X3961750Y-14304600D02*
X4108750Y-14304600D01*
D10*
X4471131Y-14395076D02*
X4356846Y-14395076D01*
X4413988Y-14395076D02*
X4413988Y-14195076D01*
X4394941Y-14223647D01*
X4375893Y-14242695D01*
X4356846Y-14252219D01*
X4556846Y-14376028D02*
X4566369Y-14385552D01*
X4556846Y-14395076D01*
X4547322Y-14385552D01*
X4556846Y-14376028D01*
X4556846Y-14395076D01*
X4737798Y-14261743D02*
X4737798Y-14395076D01*
X4690179Y-14185552D02*
X4642560Y-14328409D01*
X4766369Y-14328409D01*
X4823512Y-14195076D02*
X4956846Y-14195076D01*
X4871131Y-14395076D01*
X5071131Y-14195076D02*
X5090179Y-14195076D01*
X5109226Y-14204600D01*
X5118750Y-14214124D01*
X5128274Y-14233171D01*
X5137798Y-14271266D01*
X5137798Y-14318886D01*
X5128274Y-14356981D01*
X5118750Y-14376028D01*
X5109226Y-14385552D01*
X5090179Y-14395076D01*
X5071131Y-14395076D01*
X5052084Y-14385552D01*
X5042560Y-14376028D01*
X5033036Y-14356981D01*
X5023512Y-14318886D01*
X5023512Y-14271266D01*
X5033036Y-14233171D01*
X5042560Y-14214124D01*
X5052084Y-14204600D01*
X5071131Y-14195076D01*
X5223512Y-14395076D02*
X5223512Y-14261743D01*
X5223512Y-14280790D02*
X5233036Y-14271266D01*
X5252084Y-14261743D01*
X5280655Y-14261743D01*
X5299703Y-14271266D01*
X5309226Y-14290314D01*
X5309226Y-14395076D01*
X5309226Y-14290314D02*
X5318750Y-14271266D01*
X5337798Y-14261743D01*
X5366369Y-14261743D01*
X5385417Y-14271266D01*
X5394941Y-14290314D01*
X5394941Y-14395076D01*
X5490179Y-14395076D02*
X5490179Y-14261743D01*
X5490179Y-14280790D02*
X5499703Y-14271266D01*
X5518750Y-14261743D01*
X5547322Y-14261743D01*
X5566369Y-14271266D01*
X5575893Y-14290314D01*
X5575893Y-14395076D01*
X5575893Y-14290314D02*
X5585417Y-14271266D01*
X5604464Y-14261743D01*
X5633036Y-14261743D01*
X5652084Y-14271266D01*
X5661607Y-14290314D01*
X5661607Y-14395076D01*
X6052084Y-14185552D02*
X5880655Y-14442695D01*
X6309226Y-14195076D02*
X6328274Y-14195076D01*
X6347322Y-14204600D01*
X6356845Y-14214124D01*
X6366369Y-14233171D01*
X6375893Y-14271266D01*
X6375893Y-14318886D01*
X6366369Y-14356981D01*
X6356845Y-14376028D01*
X6347322Y-14385552D01*
X6328274Y-14395076D01*
X6309226Y-14395076D01*
X6290179Y-14385552D01*
X6280655Y-14376028D01*
X6271131Y-14356981D01*
X6261607Y-14318886D01*
X6261607Y-14271266D01*
X6271131Y-14233171D01*
X6280655Y-14214124D01*
X6290179Y-14204600D01*
X6309226Y-14195076D01*
X6461607Y-14376028D02*
X6471131Y-14385552D01*
X6461607Y-14395076D01*
X6452084Y-14385552D01*
X6461607Y-14376028D01*
X6461607Y-14395076D01*
X6594941Y-14195076D02*
X6613988Y-14195076D01*
X6633036Y-14204600D01*
X6642560Y-14214124D01*
X6652084Y-14233171D01*
X6661607Y-14271266D01*
X6661607Y-14318886D01*
X6652084Y-14356981D01*
X6642560Y-14376028D01*
X6633036Y-14385552D01*
X6613988Y-14395076D01*
X6594941Y-14395076D01*
X6575893Y-14385552D01*
X6566369Y-14376028D01*
X6556845Y-14356981D01*
X6547322Y-14318886D01*
X6547322Y-14271266D01*
X6556845Y-14233171D01*
X6566369Y-14214124D01*
X6575893Y-14204600D01*
X6594941Y-14195076D01*
X6842560Y-14195076D02*
X6747322Y-14195076D01*
X6737798Y-14290314D01*
X6747322Y-14280790D01*
X6766369Y-14271266D01*
X6813988Y-14271266D01*
X6833036Y-14280790D01*
X6842560Y-14290314D01*
X6852084Y-14309362D01*
X6852084Y-14356981D01*
X6842560Y-14376028D01*
X6833036Y-14385552D01*
X6813988Y-14395076D01*
X6766369Y-14395076D01*
X6747322Y-14385552D01*
X6737798Y-14376028D01*
X6918750Y-14195076D02*
X7052084Y-14195076D01*
X6966369Y-14395076D01*
X7137798Y-14395076D02*
X7175893Y-14395076D01*
X7194941Y-14385552D01*
X7204464Y-14376028D01*
X7223512Y-14347457D01*
X7233036Y-14309362D01*
X7233036Y-14233171D01*
X7223512Y-14214124D01*
X7213988Y-14204600D01*
X7194941Y-14195076D01*
X7156845Y-14195076D01*
X7137798Y-14204600D01*
X7128274Y-14214124D01*
X7118750Y-14233171D01*
X7118750Y-14280790D01*
X7128274Y-14299838D01*
X7137798Y-14309362D01*
X7156845Y-14318886D01*
X7194941Y-14318886D01*
X7213988Y-14309362D01*
X7223512Y-14299838D01*
X7233036Y-14280790D01*
X7309226Y-14195076D02*
X7309226Y-14233171D01*
X7385417Y-14195076D02*
X7385417Y-14233171D01*
X7680655Y-14471266D02*
X7671131Y-14461743D01*
X7652084Y-14433171D01*
X7642560Y-14414124D01*
X7633036Y-14385552D01*
X7623512Y-14337933D01*
X7623512Y-14299838D01*
X7633036Y-14252219D01*
X7642560Y-14223647D01*
X7652084Y-14204600D01*
X7671131Y-14176028D01*
X7680655Y-14166505D01*
X7766369Y-14395076D02*
X7804464Y-14395076D01*
X7823512Y-14385552D01*
X7833036Y-14376028D01*
X7852084Y-14347457D01*
X7861607Y-14309362D01*
X7861607Y-14233171D01*
X7852084Y-14214124D01*
X7842560Y-14204600D01*
X7823512Y-14195076D01*
X7785417Y-14195076D01*
X7766369Y-14204600D01*
X7756845Y-14214124D01*
X7747322Y-14233171D01*
X7747322Y-14280790D01*
X7756845Y-14299838D01*
X7766369Y-14309362D01*
X7785417Y-14318886D01*
X7823512Y-14318886D01*
X7842560Y-14309362D01*
X7852084Y-14299838D01*
X7861607Y-14280790D01*
X8033036Y-14195076D02*
X7994941Y-14195076D01*
X7975893Y-14204600D01*
X7966369Y-14214124D01*
X7947322Y-14242695D01*
X7937798Y-14280790D01*
X7937798Y-14356981D01*
X7947322Y-14376028D01*
X7956845Y-14385552D01*
X7975893Y-14395076D01*
X8013988Y-14395076D01*
X8033036Y-14385552D01*
X8042560Y-14376028D01*
X8052084Y-14356981D01*
X8052084Y-14309362D01*
X8042560Y-14290314D01*
X8033036Y-14280790D01*
X8013988Y-14271266D01*
X7975893Y-14271266D01*
X7956845Y-14280790D01*
X7947322Y-14290314D01*
X7937798Y-14309362D01*
X8290179Y-14395076D02*
X8290179Y-14195076D01*
X8375893Y-14395076D02*
X8375893Y-14290314D01*
X8366369Y-14271266D01*
X8347322Y-14261743D01*
X8318750Y-14261743D01*
X8299703Y-14271266D01*
X8290179Y-14280790D01*
X8499703Y-14395076D02*
X8480655Y-14385552D01*
X8471131Y-14376028D01*
X8461607Y-14356981D01*
X8461607Y-14299838D01*
X8471131Y-14280790D01*
X8480655Y-14271266D01*
X8499703Y-14261743D01*
X8528274Y-14261743D01*
X8547322Y-14271266D01*
X8556846Y-14280790D01*
X8566369Y-14299838D01*
X8566369Y-14356981D01*
X8556846Y-14376028D01*
X8547322Y-14385552D01*
X8528274Y-14395076D01*
X8499703Y-14395076D01*
X8680655Y-14395076D02*
X8661607Y-14385552D01*
X8652084Y-14366505D01*
X8652084Y-14195076D01*
X8833036Y-14385552D02*
X8813988Y-14395076D01*
X8775893Y-14395076D01*
X8756846Y-14385552D01*
X8747322Y-14366505D01*
X8747322Y-14290314D01*
X8756846Y-14271266D01*
X8775893Y-14261743D01*
X8813988Y-14261743D01*
X8833036Y-14271266D01*
X8842560Y-14290314D01*
X8842560Y-14309362D01*
X8747322Y-14328409D01*
X8918750Y-14385552D02*
X8937798Y-14395076D01*
X8975893Y-14395076D01*
X8994941Y-14385552D01*
X9004465Y-14366505D01*
X9004465Y-14356981D01*
X8994941Y-14337933D01*
X8975893Y-14328409D01*
X8947322Y-14328409D01*
X8928274Y-14318886D01*
X8918750Y-14299838D01*
X8918750Y-14290314D01*
X8928274Y-14271266D01*
X8947322Y-14261743D01*
X8975893Y-14261743D01*
X8994941Y-14271266D01*
X9071131Y-14471266D02*
X9080655Y-14461743D01*
X9099703Y-14433171D01*
X9109226Y-14414124D01*
X9118750Y-14385552D01*
X9128274Y-14337933D01*
X9128274Y-14299838D01*
X9118750Y-14252219D01*
X9109226Y-14223647D01*
X9099703Y-14204600D01*
X9080655Y-14176028D01*
X9071131Y-14166505D01*
X4079462Y-14642311D02*
X4079462Y-14500888D01*
X3938039Y-14500888D01*
X3938039Y-14642311D01*
X4079462Y-14642311D01*
X4347322Y-14462076D02*
X4471131Y-14462076D01*
X4404465Y-14538266D01*
X4433036Y-14538266D01*
X4452084Y-14547790D01*
X4461607Y-14557314D01*
X4471131Y-14576362D01*
X4471131Y-14623981D01*
X4461607Y-14643028D01*
X4452084Y-14652552D01*
X4433036Y-14662076D01*
X4375893Y-14662076D01*
X4356846Y-14652552D01*
X4347322Y-14643028D01*
X4556846Y-14643028D02*
X4566369Y-14652552D01*
X4556846Y-14662076D01*
X4547322Y-14652552D01*
X4556846Y-14643028D01*
X4556846Y-14662076D01*
X4690179Y-14462076D02*
X4709226Y-14462076D01*
X4728274Y-14471600D01*
X4737798Y-14481124D01*
X4747322Y-14500171D01*
X4756846Y-14538266D01*
X4756846Y-14585886D01*
X4747322Y-14623981D01*
X4737798Y-14643028D01*
X4728274Y-14652552D01*
X4709226Y-14662076D01*
X4690179Y-14662076D01*
X4671131Y-14652552D01*
X4661607Y-14643028D01*
X4652084Y-14623981D01*
X4642560Y-14585886D01*
X4642560Y-14538266D01*
X4652084Y-14500171D01*
X4661607Y-14481124D01*
X4671131Y-14471600D01*
X4690179Y-14462076D01*
X4928274Y-14528743D02*
X4928274Y-14662076D01*
X4880655Y-14452552D02*
X4833036Y-14595409D01*
X4956846Y-14595409D01*
X5061607Y-14547790D02*
X5042560Y-14538266D01*
X5033036Y-14528743D01*
X5023512Y-14509695D01*
X5023512Y-14500171D01*
X5033036Y-14481124D01*
X5042560Y-14471600D01*
X5061607Y-14462076D01*
X5099703Y-14462076D01*
X5118750Y-14471600D01*
X5128274Y-14481124D01*
X5137798Y-14500171D01*
X5137798Y-14509695D01*
X5128274Y-14528743D01*
X5118750Y-14538266D01*
X5099703Y-14547790D01*
X5061607Y-14547790D01*
X5042560Y-14557314D01*
X5033036Y-14566838D01*
X5023512Y-14585886D01*
X5023512Y-14623981D01*
X5033036Y-14643028D01*
X5042560Y-14652552D01*
X5061607Y-14662076D01*
X5099703Y-14662076D01*
X5118750Y-14652552D01*
X5128274Y-14643028D01*
X5137798Y-14623981D01*
X5137798Y-14585886D01*
X5128274Y-14566838D01*
X5118750Y-14557314D01*
X5099703Y-14547790D01*
X5223512Y-14662076D02*
X5223512Y-14528743D01*
X5223512Y-14547790D02*
X5233036Y-14538266D01*
X5252084Y-14528743D01*
X5280655Y-14528743D01*
X5299703Y-14538266D01*
X5309226Y-14557314D01*
X5309226Y-14662076D01*
X5309226Y-14557314D02*
X5318750Y-14538266D01*
X5337798Y-14528743D01*
X5366369Y-14528743D01*
X5385417Y-14538266D01*
X5394941Y-14557314D01*
X5394941Y-14662076D01*
X5490179Y-14662076D02*
X5490179Y-14528743D01*
X5490179Y-14547790D02*
X5499703Y-14538266D01*
X5518750Y-14528743D01*
X5547322Y-14528743D01*
X5566369Y-14538266D01*
X5575893Y-14557314D01*
X5575893Y-14662076D01*
X5575893Y-14557314D02*
X5585417Y-14538266D01*
X5604464Y-14528743D01*
X5633036Y-14528743D01*
X5652084Y-14538266D01*
X5661607Y-14557314D01*
X5661607Y-14662076D01*
X6052084Y-14452552D02*
X5880655Y-14709695D01*
X6309226Y-14462076D02*
X6328274Y-14462076D01*
X6347322Y-14471600D01*
X6356845Y-14481124D01*
X6366369Y-14500171D01*
X6375893Y-14538266D01*
X6375893Y-14585886D01*
X6366369Y-14623981D01*
X6356845Y-14643028D01*
X6347322Y-14652552D01*
X6328274Y-14662076D01*
X6309226Y-14662076D01*
X6290179Y-14652552D01*
X6280655Y-14643028D01*
X6271131Y-14623981D01*
X6261607Y-14585886D01*
X6261607Y-14538266D01*
X6271131Y-14500171D01*
X6280655Y-14481124D01*
X6290179Y-14471600D01*
X6309226Y-14462076D01*
X6461607Y-14643028D02*
X6471131Y-14652552D01*
X6461607Y-14662076D01*
X6452084Y-14652552D01*
X6461607Y-14643028D01*
X6461607Y-14662076D01*
X6661607Y-14662076D02*
X6547322Y-14662076D01*
X6604464Y-14662076D02*
X6604464Y-14462076D01*
X6585417Y-14490647D01*
X6566369Y-14509695D01*
X6547322Y-14519219D01*
X6737798Y-14481124D02*
X6747322Y-14471600D01*
X6766369Y-14462076D01*
X6813988Y-14462076D01*
X6833036Y-14471600D01*
X6842560Y-14481124D01*
X6852084Y-14500171D01*
X6852084Y-14519219D01*
X6842560Y-14547790D01*
X6728274Y-14662076D01*
X6852084Y-14662076D01*
X6975893Y-14462076D02*
X6994941Y-14462076D01*
X7013988Y-14471600D01*
X7023512Y-14481124D01*
X7033036Y-14500171D01*
X7042560Y-14538266D01*
X7042560Y-14585886D01*
X7033036Y-14623981D01*
X7023512Y-14643028D01*
X7013988Y-14652552D01*
X6994941Y-14662076D01*
X6975893Y-14662076D01*
X6956845Y-14652552D01*
X6947322Y-14643028D01*
X6937798Y-14623981D01*
X6928274Y-14585886D01*
X6928274Y-14538266D01*
X6937798Y-14500171D01*
X6947322Y-14481124D01*
X6956845Y-14471600D01*
X6975893Y-14462076D01*
X7166369Y-14462076D02*
X7185417Y-14462076D01*
X7204464Y-14471600D01*
X7213988Y-14481124D01*
X7223512Y-14500171D01*
X7233036Y-14538266D01*
X7233036Y-14585886D01*
X7223512Y-14623981D01*
X7213988Y-14643028D01*
X7204464Y-14652552D01*
X7185417Y-14662076D01*
X7166369Y-14662076D01*
X7147322Y-14652552D01*
X7137798Y-14643028D01*
X7128274Y-14623981D01*
X7118750Y-14585886D01*
X7118750Y-14538266D01*
X7128274Y-14500171D01*
X7137798Y-14481124D01*
X7147322Y-14471600D01*
X7166369Y-14462076D01*
X7309226Y-14462076D02*
X7309226Y-14500171D01*
X7385417Y-14462076D02*
X7385417Y-14500171D01*
X7680655Y-14738266D02*
X7671131Y-14728743D01*
X7652084Y-14700171D01*
X7642560Y-14681124D01*
X7633036Y-14652552D01*
X7623512Y-14604933D01*
X7623512Y-14566838D01*
X7633036Y-14519219D01*
X7642560Y-14490647D01*
X7652084Y-14471600D01*
X7671131Y-14443028D01*
X7680655Y-14433505D01*
X7861607Y-14662076D02*
X7747322Y-14662076D01*
X7804464Y-14662076D02*
X7804464Y-14462076D01*
X7785417Y-14490647D01*
X7766369Y-14509695D01*
X7747322Y-14519219D01*
X8099703Y-14662076D02*
X8099703Y-14462076D01*
X8185417Y-14662076D02*
X8185417Y-14557314D01*
X8175893Y-14538266D01*
X8156845Y-14528743D01*
X8128274Y-14528743D01*
X8109226Y-14538266D01*
X8099703Y-14547790D01*
X8309226Y-14662076D02*
X8290179Y-14652552D01*
X8280655Y-14643028D01*
X8271131Y-14623981D01*
X8271131Y-14566838D01*
X8280655Y-14547790D01*
X8290179Y-14538266D01*
X8309226Y-14528743D01*
X8337798Y-14528743D01*
X8356845Y-14538266D01*
X8366369Y-14547790D01*
X8375893Y-14566838D01*
X8375893Y-14623981D01*
X8366369Y-14643028D01*
X8356845Y-14652552D01*
X8337798Y-14662076D01*
X8309226Y-14662076D01*
X8490179Y-14662076D02*
X8471131Y-14652552D01*
X8461607Y-14633505D01*
X8461607Y-14462076D01*
X8642560Y-14652552D02*
X8623512Y-14662076D01*
X8585417Y-14662076D01*
X8566369Y-14652552D01*
X8556846Y-14633505D01*
X8556846Y-14557314D01*
X8566369Y-14538266D01*
X8585417Y-14528743D01*
X8623512Y-14528743D01*
X8642560Y-14538266D01*
X8652084Y-14557314D01*
X8652084Y-14576362D01*
X8556846Y-14595409D01*
X8718750Y-14738266D02*
X8728274Y-14728743D01*
X8747322Y-14700171D01*
X8756846Y-14681124D01*
X8766369Y-14652552D01*
X8775893Y-14604933D01*
X8775893Y-14566838D01*
X8766369Y-14519219D01*
X8756846Y-14490647D01*
X8747322Y-14471600D01*
X8728274Y-14443028D01*
X8718750Y-14433505D01*
M02*
