M48
; DRILL file {KiCad (6.0.11-0)} date 2023 July 12, Wednesday 13:11:16
; FORMAT={-:-/ absolute / metric / decimal}
; #@! TF.CreationDate,2023-07-12T13:11:16+09:00
; #@! TF.GenerationSoftware,Kicad,Pcbnew,(6.0.11-0)
; #@! TF.FileFunction,NonPlated,1,2,NPTH
FMAT,2
METRIC
; #@! TA.AperFunction,NonPlated,NPTH,ComponentDrill
T1C0.650
; #@! TA.AperFunction,NonPlated,NPTH,ComponentDrill
T2C1.750
; #@! TA.AperFunction,NonPlated,NPTH,ComponentDrill
T3C3.048
; #@! TA.AperFunction,NonPlated,NPTH,ComponentDrill
T4C3.988
%
G90
G05
T1
X210.629Y-60.544
X216.409Y-60.544
T2
X44.133Y-65.087
X44.133Y-122.237
X46.514Y-84.138
X48.895Y-103.188
X51.276Y-103.188
X53.657Y-122.237
X54.292Y-65.087
X54.292Y-122.237
X56.674Y-84.138
X59.055Y-103.188
X61.436Y-103.188
X63.182Y-65.087
X63.817Y-122.237
X65.564Y-122.237
X67.945Y-84.138
X73.343Y-65.087
X75.089Y-103.188
X75.724Y-122.237
X77.47Y-103.188
X78.105Y-84.138
X82.233Y-65.087
X85.249Y-103.188
X86.995Y-84.138
X87.63Y-103.188
X89.376Y-122.237
X92.392Y-65.087
X96.52Y-103.188
X97.155Y-84.138
X99.536Y-122.237
X101.282Y-65.087
X106.045Y-84.138
X106.045Y-122.237
X106.68Y-103.188
X111.442Y-65.087
X115.57Y-103.188
X116.205Y-84.138
X116.205Y-122.237
X117.951Y-122.237
X120.332Y-65.087
X125.095Y-84.138
X125.73Y-103.188
X128.111Y-122.237
X130.493Y-65.087
X134.62Y-103.188
X134.62Y-122.237
X134.62Y-122.237
X135.255Y-84.138
X139.382Y-65.087
X144.145Y-84.138
X144.78Y-103.188
X144.78Y-122.237
X144.78Y-122.237
X149.542Y-65.087
X151.289Y-122.237
X153.67Y-103.188
X154.305Y-84.138
X158.433Y-65.087
X161.449Y-122.237
X163.195Y-84.138
X163.195Y-122.237
X163.83Y-103.188
X168.593Y-65.087
X172.72Y-103.188
X173.355Y-84.138
X173.355Y-122.237
X177.482Y-65.087
X179.864Y-122.237
X182.245Y-84.138
X182.88Y-103.188
X187.642Y-65.087
X190.024Y-122.237
X191.77Y-103.188
X192.405Y-84.138
X194.151Y-103.188
X196.532Y-65.087
X201.295Y-84.138
X201.93Y-103.188
X203.676Y-122.237
X204.311Y-103.188
X206.692Y-65.087
X211.455Y-84.138
X213.836Y-122.237
X215.582Y-122.237
X217.964Y-103.188
X220.345Y-65.087
X220.345Y-103.188
X222.726Y-74.612
X222.726Y-84.138
X225.107Y-122.237
X225.742Y-122.237
X228.124Y-103.188
X230.505Y-65.087
X230.505Y-103.188
X232.886Y-74.612
X232.886Y-84.138
X235.267Y-122.237
T3
X73.525Y-129.222
X82.55Y-129.222
X92.075Y-129.222
X92.075Y-129.222
X130.175Y-129.222
X149.225Y-129.222
X187.325Y-129.222
X187.325Y-129.222
X196.85Y-129.222
X205.875Y-129.222
X220.821Y-86.55
T4
X49.212Y-65.087
X49.212Y-122.237
X51.594Y-84.138
X53.975Y-103.188
X56.356Y-103.188
X58.737Y-122.237
X68.263Y-65.087
X70.644Y-122.237
X73.025Y-84.138
X73.525Y-113.983
X80.169Y-103.188
X82.55Y-103.188
X82.55Y-113.983
X87.312Y-65.087
X92.075Y-84.138
X92.075Y-113.983
X92.075Y-113.983
X94.456Y-122.237
X101.6Y-103.188
X106.362Y-65.087
X111.125Y-84.138
X111.125Y-122.237
X120.65Y-103.188
X123.031Y-122.237
X125.412Y-65.087
X130.175Y-84.138
X130.175Y-113.983
X139.7Y-103.188
X139.7Y-122.237
X139.7Y-122.237
X144.463Y-65.087
X149.225Y-84.138
X149.225Y-113.983
X156.369Y-122.237
X158.75Y-103.188
X163.512Y-65.087
X168.275Y-84.138
X168.275Y-122.237
X177.8Y-103.188
X182.562Y-65.087
X184.944Y-122.237
X187.325Y-84.138
X187.325Y-113.983
X187.325Y-113.983
X196.85Y-103.188
X196.85Y-113.983
X199.231Y-103.188
X201.612Y-65.087
X205.875Y-113.983
X206.375Y-84.138
X208.756Y-122.237
X220.662Y-122.237
X223.044Y-103.188
X225.425Y-65.087
X225.425Y-103.188
X227.806Y-74.612
X227.806Y-84.138
X230.188Y-122.237
X236.061Y-62.674
X236.061Y-86.55
T0
M30
