G04 #@! TF.GenerationSoftware,KiCad,Pcbnew,(6.0.11-0)*
G04 #@! TF.CreationDate,2023-07-30T15:39:26+09:00*
G04 #@! TF.ProjectId,Tiny Dimply Qazy,54696e79-2044-4696-9d70-6c792051617a,rev?*
G04 #@! TF.SameCoordinates,Original*
G04 #@! TF.FileFunction,Profile,NP*
%FSLAX46Y46*%
G04 Gerber Fmt 4.6, Leading zero omitted, Abs format (unit mm)*
G04 Created by KiCad (PCBNEW (6.0.11-0)) date 2023-07-30 15:39:26*
%MOMM*%
%LPD*%
G01*
G04 APERTURE LIST*
G04 #@! TA.AperFunction,Profile*
%ADD10C,0.200000*%
G04 #@! TD*
G04 APERTURE END LIST*
D10*
X81168748Y-103191002D02*
G75*
G03*
X81168748Y-103191002I-1000000J0D01*
G01*
X62609373Y-93165973D02*
G75*
G03*
X62309373Y-93466002I27J-300027D01*
G01*
X44187503Y-131265999D02*
X47912822Y-131265999D01*
X124031248Y-122241002D02*
G75*
G03*
X124031248Y-122241002I-1000000J0D01*
G01*
X83549998Y-103191002D02*
G75*
G03*
X83549998Y-103191002I-1000000J0D01*
G01*
X57439099Y-129766001D02*
G75*
G03*
X50510897Y-129766001I-3464101J-2000001D01*
G01*
X131174998Y-84141002D02*
G75*
G03*
X131174998Y-84141002I-1000000J0D01*
G01*
X197849998Y-103191002D02*
G75*
G03*
X197849998Y-103191002I-1000000J0D01*
G01*
X228889120Y-129765992D02*
G75*
G03*
X231487179Y-131265999I2598080J1499992D01*
G01*
X238212498Y-59066002D02*
G75*
G03*
X235212498Y-56066002I-2999998J2D01*
G01*
X88312498Y-65091002D02*
G75*
G03*
X88312498Y-65091002I-1000000J0D01*
G01*
X50212498Y-65091002D02*
G75*
G03*
X50212498Y-65091002I-1000000J0D01*
G01*
X231487179Y-131265999D02*
X235212498Y-131265999D01*
X169274998Y-84141002D02*
G75*
G03*
X169274998Y-84141002I-1000000J0D01*
G01*
X112124998Y-84141002D02*
G75*
G03*
X112124998Y-84141002I-1000000J0D01*
G01*
X235212498Y-131265998D02*
G75*
G03*
X238212498Y-128265999I2J2999998D01*
G01*
X42258927Y-77679942D02*
G75*
G03*
X42258929Y-71552060I-2571427J3063942D01*
G01*
X217090623Y-93866002D02*
X217090623Y-93466002D01*
X226425003Y-103191002D02*
G75*
G03*
X226425003Y-103191002I-1000000J0D01*
G01*
X41187499Y-69254104D02*
G75*
G03*
X42258929Y-71552060I3000001J4D01*
G01*
X226424998Y-65091002D02*
G75*
G03*
X226424998Y-65091002I-1000000J0D01*
G01*
X169275003Y-122241002D02*
G75*
G03*
X169275003Y-122241002I-1000000J0D01*
G01*
X42258930Y-77679945D02*
G75*
G03*
X41187503Y-79977900I1928570J-2297955D01*
G01*
X41187503Y-59066002D02*
X41187503Y-69254104D01*
X221662503Y-122241002D02*
G75*
G03*
X221662503Y-122241002I-1000000J0D01*
G01*
X126412498Y-65091002D02*
G75*
G03*
X126412498Y-65091002I-1000000J0D01*
G01*
X188324998Y-84141002D02*
G75*
G03*
X188324998Y-84141002I-1000000J0D01*
G01*
X224043753Y-103191002D02*
G75*
G03*
X224043753Y-103191002I-1000000J0D01*
G01*
X47912822Y-131266019D02*
G75*
G03*
X50510897Y-129766001I-22J3000019D01*
G01*
X112124998Y-122241002D02*
G75*
G03*
X112124998Y-122241002I-1000000J0D01*
G01*
X157368753Y-122241002D02*
G75*
G03*
X157368753Y-122241002I-1000000J0D01*
G01*
X238212498Y-128265999D02*
X238212498Y-79977900D01*
X228889104Y-129766001D02*
G75*
G03*
X221960902Y-129766001I-3464101J-2000001D01*
G01*
X57439119Y-129765990D02*
G75*
G03*
X60037174Y-131265999I2598081J1499990D01*
G01*
X62609373Y-94166002D02*
X216790623Y-94166002D01*
X207374998Y-84141002D02*
G75*
G03*
X207374998Y-84141002I-1000000J0D01*
G01*
X200231253Y-103191002D02*
G75*
G03*
X200231253Y-103191002I-1000000J0D01*
G01*
X121649998Y-103191002D02*
G75*
G03*
X121649998Y-103191002I-1000000J0D01*
G01*
X54974998Y-103191002D02*
G75*
G03*
X54974998Y-103191002I-1000000J0D01*
G01*
X44187503Y-56066003D02*
G75*
G03*
X41187503Y-59066002I-3J-2999997D01*
G01*
X217090598Y-93466002D02*
G75*
G03*
X216790623Y-93166002I-299998J2D01*
G01*
X164512498Y-65091002D02*
G75*
G03*
X164512498Y-65091002I-1000000J0D01*
G01*
X71643748Y-122241002D02*
G75*
G03*
X71643748Y-122241002I-1000000J0D01*
G01*
X185943753Y-122241002D02*
G75*
G03*
X185943753Y-122241002I-1000000J0D01*
G01*
X145462498Y-65091002D02*
G75*
G03*
X145462498Y-65091002I-1000000J0D01*
G01*
X237141070Y-71552057D02*
G75*
G03*
X238212498Y-69254104I-1928570J2297957D01*
G01*
X60037174Y-131265999D02*
X219362827Y-131265999D01*
X50212498Y-122241002D02*
G75*
G03*
X50212498Y-122241002I-1000000J0D01*
G01*
X93074998Y-84141002D02*
G75*
G03*
X93074998Y-84141002I-1000000J0D01*
G01*
X231187503Y-122241002D02*
G75*
G03*
X231187503Y-122241002I-1000000J0D01*
G01*
X140699998Y-103191002D02*
G75*
G03*
X140699998Y-103191002I-1000000J0D01*
G01*
X178799998Y-103191002D02*
G75*
G03*
X178799998Y-103191002I-1000000J0D01*
G01*
X209756253Y-122241002D02*
G75*
G03*
X209756253Y-122241002I-1000000J0D01*
G01*
X62309373Y-93466002D02*
X62309373Y-93866002D01*
X183562498Y-65091002D02*
G75*
G03*
X183562498Y-65091002I-1000000J0D01*
G01*
X238212499Y-79977900D02*
G75*
G03*
X237141072Y-77679944I-2999999J0D01*
G01*
X107362498Y-65091002D02*
G75*
G03*
X107362498Y-65091002I-1000000J0D01*
G01*
X59737498Y-122241002D02*
G75*
G03*
X59737498Y-122241002I-1000000J0D01*
G01*
X41187501Y-128265999D02*
G75*
G03*
X44187503Y-131265999I2999999J-1D01*
G01*
X102599998Y-103191002D02*
G75*
G03*
X102599998Y-103191002I-1000000J0D01*
G01*
X235212498Y-56066002D02*
X44187503Y-56066002D01*
X238212498Y-69254104D02*
X238212498Y-59066002D01*
X150224998Y-84141002D02*
G75*
G03*
X150224998Y-84141002I-1000000J0D01*
G01*
X159749998Y-103191002D02*
G75*
G03*
X159749998Y-103191002I-1000000J0D01*
G01*
X95456248Y-122241002D02*
G75*
G03*
X95456248Y-122241002I-1000000J0D01*
G01*
X62309398Y-93866002D02*
G75*
G03*
X62609373Y-94166002I300002J2D01*
G01*
X57356248Y-103191002D02*
G75*
G03*
X57356248Y-103191002I-1000000J0D01*
G01*
X202612498Y-65091002D02*
G75*
G03*
X202612498Y-65091002I-1000000J0D01*
G01*
X52593748Y-84141002D02*
G75*
G03*
X52593748Y-84141002I-1000000J0D01*
G01*
X216790623Y-94166023D02*
G75*
G03*
X217090623Y-93866002I-23J300023D01*
G01*
X140699998Y-122241002D02*
G75*
G03*
X140699998Y-122241002I-1000000J0D01*
G01*
X41187503Y-79977900D02*
X41187503Y-128265999D01*
X74024998Y-84141002D02*
G75*
G03*
X74024998Y-84141002I-1000000J0D01*
G01*
X216790623Y-93166002D02*
X62609373Y-93166002D01*
X228806248Y-84141002D02*
G75*
G03*
X228806248Y-84141002I-1000000J0D01*
G01*
X69262498Y-65091002D02*
G75*
G03*
X69262498Y-65091002I-1000000J0D01*
G01*
X219362827Y-131266023D02*
G75*
G03*
X221960902Y-129766001I-27J3000023D01*
G01*
X237141070Y-71552058D02*
G75*
G03*
X237141072Y-77679944I2571430J-3063942D01*
G01*
M02*
