M48
; DRILL file {KiCad (6.0.11-0)} date 2023 July 12, Wednesday 13:11:16
; FORMAT={-:-/ absolute / metric / decimal}
; #@! TF.CreationDate,2023-07-12T13:11:16+09:00
; #@! TF.GenerationSoftware,Kicad,Pcbnew,(6.0.11-0)
; #@! TF.FileFunction,Plated,1,2,PTH
FMAT,2
METRIC
; #@! TA.AperFunction,Plated,PTH,ViaDrill
T1C0.400
; #@! TA.AperFunction,Plated,PTH,ComponentDrill
T2C0.600
; #@! TA.AperFunction,Plated,PTH,ComponentDrill
T3C1.470
; #@! TA.AperFunction,Plated,PTH,ComponentDrill
T4C3.048
%
G90
G05
T1
X41.88Y-95.866
X42.92Y-95.24
X43.202Y-85.87
X44.61Y-88.336
X44.86Y-99.792
X47.27Y-101.016
X48.795Y-92.235
X50.9Y-107.74
X52.53Y-96.62
X53.409Y-87.81
X53.59Y-111.756
X54.91Y-99.923
X55.01Y-96.156
X55.816Y-94.592
X55.98Y-88.81
X56.068Y-87.15
X57.23Y-110.05
X58.08Y-94.67
X58.75Y-87.044
X58.869Y-94.056
X59.31Y-88.635
X59.621Y-106.066
X59.76Y-110.82
X59.906Y-87.044
X59.94Y-108.06
X60.2Y-104.471
X60.21Y-101.816
X60.89Y-95.806
X62.093Y-99.923
X62.55Y-98.016
X65.966Y-101.372
X67.13Y-106.46
X69.29Y-112.47
X69.72Y-98.836
X76.25Y-96.276
X81.06Y-96.55
X84.24Y-95.764
X111.95Y-92.607
X134.14Y-92.157
X152.95Y-91.708
X171.702Y-91.258
X190.63Y-90.809
X194.43Y-63.466
X206.817Y-90.084
X209.639Y-81.56
X209.675Y-65.775
X209.68Y-83.44
X210.45Y-74.625
X211.3Y-87.766
X212.3Y-64.6
X212.3Y-88.466
X212.65Y-76.95
X212.87Y-82.51
X213.106Y-89.235
X213.85Y-70.936
X213.93Y-83.54
X214.321Y-66.154
X214.825Y-69.537
X214.95Y-82.35
X215.81Y-80.986
X215.9Y-64.294
X217.12Y-74.79
X217.125Y-67.6
X217.659Y-80.561
X218.401Y-79.819
X219.869Y-68.263
T3
X45.402Y-62.547
X45.402Y-119.697
X47.784Y-81.597
X50.165Y-100.647
X51.752Y-60.008
X51.752Y-117.157
X52.546Y-100.647
X54.134Y-79.057
X54.927Y-119.697
X56.515Y-98.108
X58.896Y-98.108
X61.277Y-117.157
X64.453Y-62.547
X66.834Y-119.697
X69.215Y-81.597
X70.802Y-60.008
X73.184Y-117.157
X75.565Y-79.057
X76.359Y-100.647
X78.74Y-100.647
X82.709Y-98.108
X83.502Y-62.547
X85.09Y-98.108
X88.265Y-81.597
X89.852Y-60.008
X90.646Y-119.697
X94.615Y-79.057
X96.996Y-117.157
X97.79Y-100.647
X102.552Y-62.547
X104.14Y-98.108
X107.315Y-81.597
X107.315Y-119.697
X108.902Y-60.008
X113.665Y-79.057
X113.665Y-117.157
X116.84Y-100.647
X119.221Y-119.697
X121.602Y-62.547
X123.19Y-98.108
X125.571Y-117.157
X126.365Y-81.597
X127.953Y-60.008
X132.715Y-79.057
X135.89Y-100.647
X135.89Y-119.697
X135.89Y-119.697
X140.653Y-62.547
X142.24Y-98.108
X142.24Y-117.157
X142.24Y-117.157
X145.415Y-81.597
X147.002Y-60.008
X151.765Y-79.057
X152.559Y-119.697
X154.94Y-100.647
X158.909Y-117.157
X159.702Y-62.547
X161.29Y-98.108
X164.465Y-81.597
X164.465Y-119.697
X166.052Y-60.008
X170.815Y-79.057
X170.815Y-117.157
X173.99Y-100.647
X178.752Y-62.547
X180.34Y-98.108
X181.134Y-119.697
X183.515Y-81.597
X185.102Y-60.008
X187.484Y-117.157
X189.865Y-79.057
X193.04Y-100.647
X195.421Y-100.647
X197.802Y-62.547
X199.39Y-98.108
X201.771Y-98.108
X202.565Y-81.597
X204.153Y-60.008
X204.946Y-119.697
X208.915Y-79.057
X211.296Y-117.157
X216.852Y-119.697
X219.234Y-100.647
X221.615Y-62.547
X221.615Y-100.647
X223.202Y-117.157
X223.996Y-72.072
X223.996Y-81.597
X225.584Y-98.108
X226.377Y-119.697
X227.965Y-60.008
X227.965Y-98.108
X230.346Y-69.532
X230.346Y-79.057
X232.727Y-117.157
T4
X220.821Y-62.674
T2
X209.199Y-56.594G85X209.199Y-57.194
G05
X209.199Y-60.524G85X209.199Y-61.624
G05
X217.839Y-56.594G85X217.839Y-57.194
G05
X217.839Y-60.524G85X217.839Y-61.624
G05
T0
M30
