G04 #@! TF.GenerationSoftware,KiCad,Pcbnew,(6.0.11-0)*
G04 #@! TF.CreationDate,2023-07-30T15:39:26+09:00*
G04 #@! TF.ProjectId,Tiny Dimply Qazy,54696e79-2044-4696-9d70-6c792051617a,rev?*
G04 #@! TF.SameCoordinates,Original*
G04 #@! TF.FileFunction,Soldermask,Bot*
G04 #@! TF.FilePolarity,Negative*
%FSLAX46Y46*%
G04 Gerber Fmt 4.6, Leading zero omitted, Abs format (unit mm)*
G04 Created by KiCad (PCBNEW (6.0.11-0)) date 2023-07-30 15:39:26*
%MOMM*%
%LPD*%
G01*
G04 APERTURE LIST*
G04 Aperture macros list*
%AMRoundRect*
0 Rectangle with rounded corners*
0 $1 Rounding radius*
0 $2 $3 $4 $5 $6 $7 $8 $9 X,Y pos of 4 corners*
0 Add a 4 corners polygon primitive as box body*
4,1,4,$2,$3,$4,$5,$6,$7,$8,$9,$2,$3,0*
0 Add four circle primitives for the rounded corners*
1,1,$1+$1,$2,$3*
1,1,$1+$1,$4,$5*
1,1,$1+$1,$6,$7*
1,1,$1+$1,$8,$9*
0 Add four rect primitives between the rounded corners*
20,1,$1+$1,$2,$3,$4,$5,0*
20,1,$1+$1,$4,$5,$6,$7,0*
20,1,$1+$1,$6,$7,$8,$9,0*
20,1,$1+$1,$8,$9,$2,$3,0*%
G04 Aperture macros list end*
%ADD10C,0.000000*%
%ADD11C,0.200000*%
%ADD12C,1.750000*%
%ADD13C,3.987800*%
%ADD14C,2.250000*%
%ADD15C,3.048000*%
%ADD16C,3.750000*%
%ADD17RoundRect,0.225000X0.225000X0.250000X-0.225000X0.250000X-0.225000X-0.250000X0.225000X-0.250000X0*%
%ADD18RoundRect,0.150000X-0.150000X0.587500X-0.150000X-0.587500X0.150000X-0.587500X0.150000X0.587500X0*%
%ADD19RoundRect,0.150000X0.625000X-0.150000X0.625000X0.150000X-0.625000X0.150000X-0.625000X-0.150000X0*%
%ADD20RoundRect,0.250000X0.650000X-0.350000X0.650000X0.350000X-0.650000X0.350000X-0.650000X-0.350000X0*%
%ADD21RoundRect,0.135000X0.135000X0.185000X-0.135000X0.185000X-0.135000X-0.185000X0.135000X-0.185000X0*%
%ADD22RoundRect,0.150000X0.150000X-0.512500X0.150000X0.512500X-0.150000X0.512500X-0.150000X-0.512500X0*%
%ADD23RoundRect,0.225000X0.250000X-0.225000X0.250000X0.225000X-0.250000X0.225000X-0.250000X-0.225000X0*%
%ADD24RoundRect,0.200000X0.275000X-0.200000X0.275000X0.200000X-0.275000X0.200000X-0.275000X-0.200000X0*%
%ADD25RoundRect,0.140000X0.140000X0.170000X-0.140000X0.170000X-0.140000X-0.170000X0.140000X-0.170000X0*%
%ADD26RoundRect,0.225000X-0.250000X0.225000X-0.250000X-0.225000X0.250000X-0.225000X0.250000X0.225000X0*%
%ADD27RoundRect,0.135000X-0.185000X0.135000X-0.185000X-0.135000X0.185000X-0.135000X0.185000X0.135000X0*%
%ADD28RoundRect,0.150000X0.275000X-0.150000X0.275000X0.150000X-0.275000X0.150000X-0.275000X-0.150000X0*%
%ADD29RoundRect,0.175000X0.225000X-0.175000X0.225000X0.175000X-0.225000X0.175000X-0.225000X-0.175000X0*%
%ADD30RoundRect,0.150000X0.150000X-0.587500X0.150000X0.587500X-0.150000X0.587500X-0.150000X-0.587500X0*%
%ADD31R,1.000000X1.700000*%
%ADD32RoundRect,0.150000X0.587500X0.150000X-0.587500X0.150000X-0.587500X-0.150000X0.587500X-0.150000X0*%
%ADD33RoundRect,0.218750X0.256250X-0.218750X0.256250X0.218750X-0.256250X0.218750X-0.256250X-0.218750X0*%
%ADD34RoundRect,0.135000X0.185000X-0.135000X0.185000X0.135000X-0.185000X0.135000X-0.185000X-0.135000X0*%
%ADD35RoundRect,0.140000X0.170000X-0.140000X0.170000X0.140000X-0.170000X0.140000X-0.170000X-0.140000X0*%
%ADD36RoundRect,0.075000X-0.662500X-0.075000X0.662500X-0.075000X0.662500X0.075000X-0.662500X0.075000X0*%
%ADD37RoundRect,0.075000X-0.075000X-0.662500X0.075000X-0.662500X0.075000X0.662500X-0.075000X0.662500X0*%
%ADD38C,0.650000*%
%ADD39R,0.600000X1.450000*%
%ADD40R,0.300000X1.450000*%
%ADD41O,1.000000X2.100000*%
%ADD42O,1.000000X1.600000*%
%ADD43RoundRect,0.140000X-0.170000X0.140000X-0.170000X-0.140000X0.170000X-0.140000X0.170000X0.140000X0*%
%ADD44RoundRect,0.140000X-0.140000X-0.170000X0.140000X-0.170000X0.140000X0.170000X-0.140000X0.170000X0*%
%ADD45R,0.900000X1.200000*%
G04 APERTURE END LIST*
D10*
G36*
X95964616Y-74098127D02*
G01*
X95964021Y-74060667D01*
X95966362Y-73986735D01*
X95973318Y-73916815D01*
X95984793Y-73851011D01*
X95992195Y-73819685D01*
X96000691Y-73789427D01*
X96010268Y-73760251D01*
X96020914Y-73732169D01*
X96032617Y-73705195D01*
X96045365Y-73679341D01*
X96059146Y-73654621D01*
X96073948Y-73631048D01*
X96089759Y-73608634D01*
X96106566Y-73587393D01*
X96124357Y-73567339D01*
X96143121Y-73548483D01*
X96162845Y-73530839D01*
X96183517Y-73514421D01*
X96205125Y-73499241D01*
X96227657Y-73485312D01*
X96251101Y-73472648D01*
X96275444Y-73461261D01*
X96300675Y-73451165D01*
X96326782Y-73442373D01*
X96353751Y-73434897D01*
X96381572Y-73428752D01*
X96410232Y-73423949D01*
X96439719Y-73420502D01*
X96470021Y-73418425D01*
X96501125Y-73417729D01*
X96532230Y-73418425D01*
X96562532Y-73420502D01*
X96592019Y-73423949D01*
X96620679Y-73428752D01*
X96648500Y-73434897D01*
X96675469Y-73442373D01*
X96701576Y-73451165D01*
X96726807Y-73461261D01*
X96751150Y-73472648D01*
X96774594Y-73485312D01*
X96797126Y-73499241D01*
X96818734Y-73514421D01*
X96839406Y-73530839D01*
X96859130Y-73548483D01*
X96877894Y-73567338D01*
X96895685Y-73587393D01*
X96912492Y-73608634D01*
X96928303Y-73631047D01*
X96943104Y-73654621D01*
X96956885Y-73679341D01*
X96969634Y-73705195D01*
X96981337Y-73732169D01*
X96991983Y-73760251D01*
X97001560Y-73789427D01*
X97010055Y-73819685D01*
X97017457Y-73851011D01*
X97023754Y-73883392D01*
X97028933Y-73916815D01*
X97032982Y-73951267D01*
X97035889Y-73986735D01*
X97037642Y-74023206D01*
X97038229Y-74060667D01*
X97035889Y-74134598D01*
X97028933Y-74204518D01*
X97017457Y-74270322D01*
X97010055Y-74301648D01*
X97001560Y-74331906D01*
X96991983Y-74361082D01*
X96981337Y-74389164D01*
X96969634Y-74416138D01*
X96956885Y-74441992D01*
X96943104Y-74466712D01*
X96928303Y-74490286D01*
X96912492Y-74512699D01*
X96895685Y-74533940D01*
X96877894Y-74553995D01*
X96859130Y-74572851D01*
X96839406Y-74590494D01*
X96818734Y-74606912D01*
X96797126Y-74622092D01*
X96774594Y-74636021D01*
X96751150Y-74648685D01*
X96726807Y-74660072D01*
X96701576Y-74670168D01*
X96675469Y-74678960D01*
X96648500Y-74686436D01*
X96620679Y-74692582D01*
X96592019Y-74697384D01*
X96562532Y-74700831D01*
X96532230Y-74702909D01*
X96501125Y-74703604D01*
X96470254Y-74702909D01*
X96440155Y-74700831D01*
X96410843Y-74697384D01*
X96382332Y-74692581D01*
X96354634Y-74686436D01*
X96327764Y-74678960D01*
X96301735Y-74670168D01*
X96276560Y-74660072D01*
X96252254Y-74648685D01*
X96228829Y-74636021D01*
X96206300Y-74622092D01*
X96184680Y-74606912D01*
X96163982Y-74590494D01*
X96144220Y-74572850D01*
X96125407Y-74553995D01*
X96107558Y-74533940D01*
X96090685Y-74512699D01*
X96074803Y-74490286D01*
X96059924Y-74466712D01*
X96046063Y-74441992D01*
X96033233Y-74416138D01*
X96021447Y-74389164D01*
X96010719Y-74361082D01*
X96001063Y-74331906D01*
X95992492Y-74301648D01*
X95985020Y-74270322D01*
X95978660Y-74237941D01*
X95973426Y-74204518D01*
X95969332Y-74170066D01*
X95966623Y-74137396D01*
X96109542Y-74137396D01*
X96109982Y-74164285D01*
X96111295Y-74190380D01*
X96113469Y-74215676D01*
X96116493Y-74240170D01*
X96120356Y-74263858D01*
X96125047Y-74286735D01*
X96130555Y-74308799D01*
X96136869Y-74330045D01*
X96143977Y-74350470D01*
X96151868Y-74370069D01*
X96160532Y-74388838D01*
X96169957Y-74406775D01*
X96180132Y-74423874D01*
X96191046Y-74440132D01*
X96202687Y-74455545D01*
X96215045Y-74470109D01*
X96228108Y-74483821D01*
X96241866Y-74496676D01*
X96256306Y-74508671D01*
X96271419Y-74519801D01*
X96287192Y-74530064D01*
X96303615Y-74539454D01*
X96320677Y-74547968D01*
X96338365Y-74555603D01*
X96356671Y-74562354D01*
X96375581Y-74568217D01*
X96395085Y-74573189D01*
X96415172Y-74577266D01*
X96435831Y-74580443D01*
X96457050Y-74582717D01*
X96478819Y-74584085D01*
X96501125Y-74584542D01*
X96523432Y-74584085D01*
X96545201Y-74582717D01*
X96566420Y-74580443D01*
X96587079Y-74577266D01*
X96607166Y-74573189D01*
X96626670Y-74568217D01*
X96645580Y-74562354D01*
X96663885Y-74555603D01*
X96681574Y-74547968D01*
X96698636Y-74539454D01*
X96715059Y-74530064D01*
X96730832Y-74519801D01*
X96745945Y-74508671D01*
X96760385Y-74496676D01*
X96774143Y-74483821D01*
X96787206Y-74470109D01*
X96799564Y-74455545D01*
X96811205Y-74440132D01*
X96822119Y-74423874D01*
X96832294Y-74406775D01*
X96841718Y-74388838D01*
X96850382Y-74370069D01*
X96858274Y-74350470D01*
X96865382Y-74330045D01*
X96871696Y-74308799D01*
X96877204Y-74286735D01*
X96881895Y-74263858D01*
X96885758Y-74240170D01*
X96888782Y-74215676D01*
X96890956Y-74190380D01*
X96892268Y-74164285D01*
X96892708Y-74137396D01*
X96892708Y-73983937D01*
X96892268Y-73957048D01*
X96890956Y-73930954D01*
X96888782Y-73905657D01*
X96885758Y-73881163D01*
X96881895Y-73857476D01*
X96877204Y-73834598D01*
X96871696Y-73812534D01*
X96865382Y-73791288D01*
X96858274Y-73770863D01*
X96850382Y-73751264D01*
X96841718Y-73732495D01*
X96832294Y-73714559D01*
X96822119Y-73697459D01*
X96811205Y-73681201D01*
X96799564Y-73665788D01*
X96787206Y-73651224D01*
X96774143Y-73637512D01*
X96760385Y-73624657D01*
X96745945Y-73612662D01*
X96730832Y-73601532D01*
X96715059Y-73591270D01*
X96698636Y-73581879D01*
X96681574Y-73573365D01*
X96663885Y-73565730D01*
X96645580Y-73558980D01*
X96626670Y-73553116D01*
X96607166Y-73548144D01*
X96587079Y-73544068D01*
X96566420Y-73540890D01*
X96545201Y-73538616D01*
X96523432Y-73537248D01*
X96501125Y-73536792D01*
X96478819Y-73537248D01*
X96457050Y-73538616D01*
X96435831Y-73540890D01*
X96415172Y-73544068D01*
X96395085Y-73548144D01*
X96375581Y-73553116D01*
X96356671Y-73558980D01*
X96338365Y-73565730D01*
X96320677Y-73573365D01*
X96303615Y-73581879D01*
X96287192Y-73591270D01*
X96271419Y-73601532D01*
X96256306Y-73612662D01*
X96241866Y-73624657D01*
X96228108Y-73637512D01*
X96215045Y-73651224D01*
X96202687Y-73665788D01*
X96191046Y-73681201D01*
X96180132Y-73697459D01*
X96169957Y-73714559D01*
X96160532Y-73732495D01*
X96151868Y-73751264D01*
X96143977Y-73770863D01*
X96136869Y-73791288D01*
X96130555Y-73812534D01*
X96125047Y-73834598D01*
X96120356Y-73857476D01*
X96116493Y-73881163D01*
X96113469Y-73905657D01*
X96111295Y-73930954D01*
X96109982Y-73957048D01*
X96109542Y-73983937D01*
X96109542Y-74137396D01*
X95966623Y-74137396D01*
X95966391Y-74134598D01*
X95964616Y-74098127D01*
G37*
G36*
X169171856Y-69529744D02*
G01*
X169314524Y-69543131D01*
X169451805Y-69565726D01*
X169518437Y-69580550D01*
X169583734Y-69597763D01*
X169647702Y-69617394D01*
X169710345Y-69639473D01*
X169771667Y-69664029D01*
X169831673Y-69691090D01*
X169890367Y-69720687D01*
X169947754Y-69752846D01*
X170003837Y-69787599D01*
X170058621Y-69824974D01*
X170112111Y-69864999D01*
X170164311Y-69907705D01*
X170215225Y-69953120D01*
X170264857Y-70001273D01*
X170313212Y-70052193D01*
X170360295Y-70105910D01*
X170406109Y-70162452D01*
X170450660Y-70221849D01*
X170493950Y-70284129D01*
X170535986Y-70349322D01*
X170576770Y-70417456D01*
X170616308Y-70488561D01*
X170691662Y-70639800D01*
X170762081Y-70803270D01*
X170827848Y-70804228D01*
X170891217Y-70807054D01*
X170952208Y-70811679D01*
X171010841Y-70818034D01*
X171067138Y-70826051D01*
X171121118Y-70835658D01*
X171172801Y-70846788D01*
X171222209Y-70859370D01*
X171269360Y-70873337D01*
X171314277Y-70888617D01*
X171356978Y-70905143D01*
X171397485Y-70922845D01*
X171435818Y-70941653D01*
X171471996Y-70961498D01*
X171506041Y-70982311D01*
X171537973Y-71004023D01*
X171567812Y-71026564D01*
X171595579Y-71049866D01*
X171621293Y-71073858D01*
X171644975Y-71098472D01*
X171666646Y-71123638D01*
X171686325Y-71149287D01*
X171704034Y-71175350D01*
X171719793Y-71201758D01*
X171733621Y-71228440D01*
X171745539Y-71255329D01*
X171755568Y-71282354D01*
X171763728Y-71309446D01*
X171770039Y-71336537D01*
X171774522Y-71363556D01*
X171777197Y-71390435D01*
X171778084Y-71417104D01*
X171777464Y-71443226D01*
X171775606Y-71468512D01*
X171772512Y-71492962D01*
X171768183Y-71516576D01*
X171762621Y-71539354D01*
X171755829Y-71561298D01*
X171747809Y-71582408D01*
X171738561Y-71602684D01*
X171728089Y-71622127D01*
X171716395Y-71640737D01*
X171703479Y-71658514D01*
X171689344Y-71675460D01*
X171673993Y-71691575D01*
X171657426Y-71706858D01*
X171639646Y-71721311D01*
X171620655Y-71734935D01*
X171600455Y-71747728D01*
X171579048Y-71759693D01*
X171556435Y-71770830D01*
X171532619Y-71781138D01*
X171481384Y-71799274D01*
X171425359Y-71814103D01*
X171364558Y-71825630D01*
X171298999Y-71833859D01*
X171228696Y-71838793D01*
X171153664Y-71840437D01*
X171145710Y-71824562D01*
X169216900Y-71824562D01*
X169216900Y-71845729D01*
X169689224Y-71892031D01*
X170145919Y-71928411D01*
X170593189Y-71955862D01*
X171037236Y-71975375D01*
X171081926Y-72300068D01*
X171102488Y-72469763D01*
X171120910Y-72646093D01*
X171136480Y-72830361D01*
X171148484Y-73023869D01*
X171156210Y-73227918D01*
X171158943Y-73443812D01*
X171154776Y-73704071D01*
X171141606Y-73959843D01*
X171118429Y-74209428D01*
X171084240Y-74451131D01*
X171062703Y-74568495D01*
X171038037Y-74683252D01*
X171010116Y-74795190D01*
X170978815Y-74904095D01*
X170944008Y-75009757D01*
X170905571Y-75111962D01*
X170863376Y-75210500D01*
X170817300Y-75305156D01*
X170767216Y-75395720D01*
X170713000Y-75481979D01*
X170654524Y-75563720D01*
X170591665Y-75640732D01*
X170524297Y-75712803D01*
X170452293Y-75779720D01*
X170375529Y-75841271D01*
X170293880Y-75897244D01*
X170207219Y-75947426D01*
X170115421Y-75991606D01*
X170018361Y-76029572D01*
X169915913Y-76061110D01*
X169807952Y-76086009D01*
X169694352Y-76104057D01*
X169574988Y-76115041D01*
X169449734Y-76118750D01*
X169387272Y-76117396D01*
X169325887Y-76113380D01*
X169265574Y-76106766D01*
X169206323Y-76097619D01*
X169148129Y-76086006D01*
X169090984Y-76071991D01*
X169034880Y-76055640D01*
X168979810Y-76037018D01*
X168925768Y-76016191D01*
X168872745Y-75993224D01*
X168820735Y-75968183D01*
X168769730Y-75941133D01*
X168719723Y-75912139D01*
X168670707Y-75881266D01*
X168575618Y-75814148D01*
X168484405Y-75740302D01*
X168397009Y-75660251D01*
X168313372Y-75574517D01*
X168233437Y-75483626D01*
X168157145Y-75388099D01*
X168084438Y-75288459D01*
X168015258Y-75185231D01*
X167949547Y-75078937D01*
X167903939Y-75191771D01*
X167854432Y-75299854D01*
X167801034Y-75402836D01*
X167743752Y-75500369D01*
X167682595Y-75592104D01*
X167617569Y-75677691D01*
X167548683Y-75756784D01*
X167512795Y-75793785D01*
X167475944Y-75829031D01*
X167438133Y-75862479D01*
X167399361Y-75894085D01*
X167359630Y-75923806D01*
X167318941Y-75951597D01*
X167277294Y-75977416D01*
X167234692Y-76001218D01*
X167191133Y-76022961D01*
X167146621Y-76042599D01*
X167101155Y-76060091D01*
X167054737Y-76075392D01*
X167007367Y-76088459D01*
X166959046Y-76099247D01*
X166909776Y-76107714D01*
X166859558Y-76113816D01*
X166808392Y-76117509D01*
X166756279Y-76118750D01*
X166695874Y-76116975D01*
X166636204Y-76111713D01*
X166577279Y-76103060D01*
X166519106Y-76091108D01*
X166461692Y-76075953D01*
X166405045Y-76057690D01*
X166349174Y-76036412D01*
X166294086Y-76012214D01*
X166239788Y-75985190D01*
X166186289Y-75955436D01*
X166081716Y-75888113D01*
X165980431Y-75810999D01*
X165882493Y-75724851D01*
X165787967Y-75630425D01*
X165696913Y-75528476D01*
X165609393Y-75419759D01*
X165525470Y-75305032D01*
X165445206Y-75185049D01*
X165368663Y-75060566D01*
X165295902Y-74932340D01*
X165226986Y-74801125D01*
X165184282Y-74960681D01*
X165135629Y-75109943D01*
X165109111Y-75180714D01*
X165081154Y-75248911D01*
X165051773Y-75314535D01*
X165020985Y-75377586D01*
X164988806Y-75438063D01*
X164955251Y-75495966D01*
X164920337Y-75551296D01*
X164884079Y-75604052D01*
X164846494Y-75654235D01*
X164807597Y-75701845D01*
X164767405Y-75746881D01*
X164725933Y-75789343D01*
X164683198Y-75829233D01*
X164639216Y-75866548D01*
X164594001Y-75901290D01*
X164547572Y-75933459D01*
X164499943Y-75963054D01*
X164451130Y-75990075D01*
X164401150Y-76014524D01*
X164350018Y-76036398D01*
X164297750Y-76055699D01*
X164244363Y-76072427D01*
X164189872Y-76086581D01*
X164134294Y-76098162D01*
X164077644Y-76107169D01*
X164019939Y-76113603D01*
X163961194Y-76117463D01*
X163901425Y-76118750D01*
X163838329Y-76117389D01*
X163777506Y-76113382D01*
X163718919Y-76106842D01*
X163662529Y-76097883D01*
X163608301Y-76086617D01*
X163556195Y-76073160D01*
X163506176Y-76057622D01*
X163458206Y-76040119D01*
X163412247Y-76020763D01*
X163368263Y-75999668D01*
X163326215Y-75976947D01*
X163286067Y-75952713D01*
X163247781Y-75927081D01*
X163211320Y-75900162D01*
X163176647Y-75872071D01*
X163143724Y-75842922D01*
X163112515Y-75812826D01*
X163082981Y-75781898D01*
X163055085Y-75750251D01*
X163028791Y-75717999D01*
X162980857Y-75652131D01*
X162938879Y-75585201D01*
X162902560Y-75518116D01*
X162871601Y-75451783D01*
X162845704Y-75387108D01*
X162824570Y-75325000D01*
X162852930Y-75222464D01*
X162878314Y-75119369D01*
X162900473Y-75015903D01*
X162919159Y-74912250D01*
X162934125Y-74808598D01*
X162945121Y-74705131D01*
X162951901Y-74602036D01*
X162953632Y-74550687D01*
X162954216Y-74499500D01*
X162947808Y-74237635D01*
X162925774Y-73944950D01*
X162907578Y-73788348D01*
X162883895Y-73625600D01*
X162854197Y-73457224D01*
X162817956Y-73283739D01*
X162774646Y-73105666D01*
X162723739Y-72923524D01*
X162664709Y-72737831D01*
X162597028Y-72549107D01*
X162520170Y-72357872D01*
X162433606Y-72164645D01*
X162336811Y-71969945D01*
X162229256Y-71774292D01*
X162200154Y-71784875D01*
X162263849Y-71924560D01*
X162325738Y-72071276D01*
X162385503Y-72224301D01*
X162442827Y-72382916D01*
X162497391Y-72546398D01*
X162548877Y-72714027D01*
X162596968Y-72885083D01*
X162641347Y-73058843D01*
X162681694Y-73234589D01*
X162717693Y-73411597D01*
X162749026Y-73589148D01*
X162775374Y-73766521D01*
X162796421Y-73942995D01*
X162811847Y-74117849D01*
X162821336Y-74290361D01*
X162824570Y-74459812D01*
X162820090Y-74625818D01*
X162806587Y-74787854D01*
X162796422Y-74867094D01*
X162783968Y-74944992D01*
X162769211Y-75021433D01*
X162752140Y-75096301D01*
X162732744Y-75169478D01*
X162711011Y-75240850D01*
X162686929Y-75310299D01*
X162660487Y-75377710D01*
X162631673Y-75442966D01*
X162600475Y-75505950D01*
X162566882Y-75566547D01*
X162530882Y-75624640D01*
X162492464Y-75680114D01*
X162451616Y-75732851D01*
X162408326Y-75782735D01*
X162362582Y-75829651D01*
X162314374Y-75873482D01*
X162263689Y-75914111D01*
X162210516Y-75951423D01*
X162154843Y-75985301D01*
X162096658Y-76015628D01*
X162035951Y-76042289D01*
X161972708Y-76065168D01*
X161906920Y-76084147D01*
X161838573Y-76099111D01*
X161767657Y-76109944D01*
X161694159Y-76116529D01*
X161618069Y-76118750D01*
X161547359Y-76116746D01*
X161478097Y-76110813D01*
X161410274Y-76101067D01*
X161343880Y-76087625D01*
X161278907Y-76070604D01*
X161215345Y-76050120D01*
X161153185Y-76026291D01*
X161092418Y-75999233D01*
X161033035Y-75969062D01*
X160975026Y-75935896D01*
X160918382Y-75899851D01*
X160863094Y-75861045D01*
X160756550Y-75775612D01*
X160655320Y-75680534D01*
X160559329Y-75576742D01*
X160468505Y-75465172D01*
X160382773Y-75346757D01*
X160302060Y-75222432D01*
X160226293Y-75093131D01*
X160155398Y-74959787D01*
X160089300Y-74823335D01*
X160027928Y-74684708D01*
X159992136Y-74849932D01*
X159950205Y-75006125D01*
X159902073Y-75153063D01*
X159875662Y-75222991D01*
X159847678Y-75290521D01*
X159818113Y-75355625D01*
X159786958Y-75418274D01*
X159754207Y-75478442D01*
X159719851Y-75536098D01*
X159683883Y-75591216D01*
X159646295Y-75643767D01*
X159607079Y-75693724D01*
X159566227Y-75741057D01*
X159523732Y-75785740D01*
X159479587Y-75827743D01*
X159433782Y-75867039D01*
X159386311Y-75903600D01*
X159337165Y-75937398D01*
X159286338Y-75968404D01*
X159233820Y-75996590D01*
X159179605Y-76021929D01*
X159123685Y-76044392D01*
X159066051Y-76063951D01*
X159006697Y-76080578D01*
X158945614Y-76094245D01*
X158882795Y-76104924D01*
X158818232Y-76112586D01*
X158751917Y-76117204D01*
X158683842Y-76118750D01*
X158628894Y-76116645D01*
X158573724Y-76110375D01*
X158518392Y-76100007D01*
X158462955Y-76085610D01*
X158407472Y-76067249D01*
X158352001Y-76044993D01*
X158241325Y-75989063D01*
X158131394Y-75918358D01*
X158022672Y-75833418D01*
X157915624Y-75734782D01*
X157810716Y-75622987D01*
X157708412Y-75498573D01*
X157609178Y-75362078D01*
X157513479Y-75214041D01*
X157421779Y-75055001D01*
X157334544Y-74885497D01*
X157252239Y-74706066D01*
X157175329Y-74517249D01*
X157104279Y-74319584D01*
X157083111Y-74319584D01*
X157112268Y-74454325D01*
X157149672Y-74606243D01*
X157197618Y-74771928D01*
X157226262Y-74858867D01*
X157258401Y-74947969D01*
X157294323Y-75038807D01*
X157334314Y-75130955D01*
X157378661Y-75223987D01*
X157427652Y-75317476D01*
X157481573Y-75410996D01*
X157540710Y-75504121D01*
X157605351Y-75596424D01*
X157675782Y-75687479D01*
X157647117Y-75845888D01*
X157613150Y-76011180D01*
X157574532Y-76182798D01*
X157531915Y-76360182D01*
X157437284Y-76730020D01*
X157334469Y-77116229D01*
X157355637Y-77116229D01*
X157416424Y-76983963D01*
X157477304Y-76843419D01*
X157537626Y-76694999D01*
X157596739Y-76539107D01*
X157653992Y-76376146D01*
X157708733Y-76206518D01*
X157760311Y-76030627D01*
X157808075Y-75848875D01*
X157851128Y-75893396D01*
X157896887Y-75936534D01*
X157945265Y-75978082D01*
X157996178Y-76017836D01*
X158049540Y-76055591D01*
X158105267Y-76091139D01*
X158163272Y-76124278D01*
X158223471Y-76154800D01*
X158285778Y-76182500D01*
X158350109Y-76207174D01*
X158416377Y-76228615D01*
X158484498Y-76246618D01*
X158554387Y-76260978D01*
X158625957Y-76271490D01*
X158699125Y-76277948D01*
X158773804Y-76280146D01*
X158809853Y-76279980D01*
X158827010Y-76279588D01*
X158843918Y-76278823D01*
X158860827Y-76277562D01*
X158877983Y-76275681D01*
X158895636Y-76273055D01*
X158904725Y-76271425D01*
X158914032Y-76269562D01*
X158961041Y-76313525D01*
X159004849Y-76358089D01*
X159045478Y-76403234D01*
X159082953Y-76448941D01*
X159117296Y-76495191D01*
X159148530Y-76541964D01*
X159176680Y-76589240D01*
X159201767Y-76637002D01*
X159223816Y-76685228D01*
X159242850Y-76733900D01*
X159258892Y-76782999D01*
X159271964Y-76832504D01*
X159282092Y-76882397D01*
X159289297Y-76932658D01*
X159293603Y-76983268D01*
X159295033Y-77034207D01*
X159292697Y-77097269D01*
X159285742Y-77157982D01*
X159274246Y-77216369D01*
X159258286Y-77272451D01*
X159237941Y-77326253D01*
X159213288Y-77377797D01*
X159184406Y-77427106D01*
X159151373Y-77474202D01*
X159114266Y-77519108D01*
X159073164Y-77561847D01*
X159028144Y-77602442D01*
X158979285Y-77640915D01*
X158870361Y-77711588D01*
X158747016Y-77774049D01*
X158609873Y-77828479D01*
X158459556Y-77875061D01*
X158296689Y-77913977D01*
X158121897Y-77945408D01*
X157935804Y-77969538D01*
X157739032Y-77986548D01*
X157532207Y-77996620D01*
X157315953Y-77999937D01*
X157163326Y-77998355D01*
X157018360Y-77993632D01*
X156880869Y-77985808D01*
X156750669Y-77974921D01*
X156627575Y-77961008D01*
X156511403Y-77944109D01*
X156401967Y-77924262D01*
X156299084Y-77901504D01*
X156202569Y-77875874D01*
X156112237Y-77847411D01*
X156027903Y-77816152D01*
X155949384Y-77782137D01*
X155876494Y-77745402D01*
X155809049Y-77705987D01*
X155746865Y-77663929D01*
X155689756Y-77619268D01*
X155637539Y-77572041D01*
X155590028Y-77522286D01*
X155547039Y-77470042D01*
X155508387Y-77415348D01*
X155473888Y-77358240D01*
X155443358Y-77298758D01*
X155416611Y-77236941D01*
X155393464Y-77172825D01*
X155373731Y-77106450D01*
X155357227Y-77037853D01*
X155343770Y-76967073D01*
X155333173Y-76894149D01*
X155319823Y-76742019D01*
X155315701Y-76581770D01*
X155327411Y-76360192D01*
X155358282Y-76083113D01*
X155451962Y-75390484D01*
X155501995Y-74988948D01*
X155545641Y-74559941D01*
X155576513Y-74110469D01*
X155585162Y-73880250D01*
X155588223Y-73647542D01*
X155582151Y-73329561D01*
X155574148Y-73169902D01*
X155562467Y-73010185D01*
X155546833Y-72850701D01*
X155526971Y-72691740D01*
X155502605Y-72533592D01*
X155473460Y-72376550D01*
X155439261Y-72220902D01*
X155399733Y-72066941D01*
X155354601Y-71914956D01*
X155303589Y-71765238D01*
X155246423Y-71618078D01*
X155182827Y-71473767D01*
X155112526Y-71332596D01*
X155035244Y-71194854D01*
X155086424Y-71148589D01*
X155141573Y-71104157D01*
X155200443Y-71061717D01*
X155262785Y-71021428D01*
X155328352Y-70983449D01*
X155396895Y-70947939D01*
X155468167Y-70915057D01*
X155541920Y-70884961D01*
X155617904Y-70857811D01*
X155695874Y-70833765D01*
X155775579Y-70812983D01*
X155856773Y-70795623D01*
X155939207Y-70781844D01*
X156022634Y-70771805D01*
X156106805Y-70765665D01*
X156191471Y-70763583D01*
X156331130Y-70769001D01*
X156463489Y-70785001D01*
X156588735Y-70811205D01*
X156707058Y-70847237D01*
X156818645Y-70892718D01*
X156923683Y-70947270D01*
X157022362Y-71010515D01*
X157114868Y-71082076D01*
X157201390Y-71161574D01*
X157282116Y-71248631D01*
X157357234Y-71342871D01*
X157426932Y-71443914D01*
X157491397Y-71551383D01*
X157550819Y-71664900D01*
X157655280Y-71908568D01*
X157741820Y-72171893D01*
X157811942Y-72451852D01*
X157867151Y-72745423D01*
X157908949Y-73049583D01*
X157938842Y-73361308D01*
X157958331Y-73677576D01*
X157968923Y-73995363D01*
X157972119Y-74311646D01*
X158072659Y-74441292D01*
X158067202Y-74018578D01*
X158047854Y-73572301D01*
X158031576Y-73344201D01*
X158010151Y-73114861D01*
X157983021Y-72885831D01*
X157949628Y-72658661D01*
X157909414Y-72434902D01*
X157861820Y-72216104D01*
X157806288Y-72003818D01*
X157742261Y-71799592D01*
X157669180Y-71604979D01*
X157586488Y-71421528D01*
X157493625Y-71250789D01*
X157390034Y-71094312D01*
X157436679Y-71059205D01*
X157486251Y-71025407D01*
X157538636Y-70993051D01*
X157593722Y-70962269D01*
X157651398Y-70933192D01*
X157711550Y-70905952D01*
X157774066Y-70880681D01*
X157838834Y-70857510D01*
X157905742Y-70836572D01*
X157974676Y-70817998D01*
X158045525Y-70801921D01*
X158118177Y-70788470D01*
X158192518Y-70777780D01*
X158268437Y-70769981D01*
X158345820Y-70765204D01*
X158424557Y-70763583D01*
X158527132Y-70766538D01*
X158626031Y-70775319D01*
X158721300Y-70789797D01*
X158812983Y-70809844D01*
X158901125Y-70835333D01*
X158985773Y-70866135D01*
X159066970Y-70902123D01*
X159144761Y-70943169D01*
X159219192Y-70989145D01*
X159290308Y-71039923D01*
X159358154Y-71095375D01*
X159422775Y-71155373D01*
X159484216Y-71219790D01*
X159542522Y-71288497D01*
X159597738Y-71361366D01*
X159649909Y-71438271D01*
X159745297Y-71603671D01*
X159829045Y-71783676D01*
X159901516Y-71977261D01*
X159963068Y-72183403D01*
X160014063Y-72401080D01*
X160054861Y-72629268D01*
X160085823Y-72866943D01*
X160107308Y-73113083D01*
X160165681Y-73242181D01*
X160226039Y-73370969D01*
X160288878Y-73498641D01*
X160354693Y-73624391D01*
X160423980Y-73747412D01*
X160460081Y-73807647D01*
X160497237Y-73866898D01*
X160535508Y-73925064D01*
X160574957Y-73982043D01*
X160615647Y-74037736D01*
X160657639Y-74092042D01*
X160597501Y-73932321D01*
X160542029Y-73770371D01*
X160491115Y-73607251D01*
X160444650Y-73444019D01*
X160402526Y-73281733D01*
X160364634Y-73121450D01*
X160330866Y-72964229D01*
X160301113Y-72811128D01*
X160253220Y-72521517D01*
X160220085Y-72261084D01*
X160200840Y-72038291D01*
X160194619Y-71861604D01*
X160198173Y-71733321D01*
X160202637Y-71671960D01*
X160208912Y-71612472D01*
X160217013Y-71554871D01*
X160226954Y-71499173D01*
X160238749Y-71445391D01*
X160252413Y-71393540D01*
X160267961Y-71343634D01*
X160285407Y-71295689D01*
X160304766Y-71249719D01*
X160326052Y-71205737D01*
X160349280Y-71163760D01*
X160374464Y-71123800D01*
X160401619Y-71085874D01*
X160430759Y-71049995D01*
X160461899Y-71016178D01*
X160495053Y-70984437D01*
X160530237Y-70954787D01*
X160567463Y-70927243D01*
X160606748Y-70901818D01*
X160648106Y-70878529D01*
X160691550Y-70857388D01*
X160737096Y-70838411D01*
X160784759Y-70821612D01*
X160834552Y-70807006D01*
X160886490Y-70794607D01*
X160940588Y-70784430D01*
X160996860Y-70776489D01*
X161055321Y-70770799D01*
X161115985Y-70767374D01*
X161178868Y-70766229D01*
X161335484Y-70773405D01*
X161484967Y-70794521D01*
X161627486Y-70828959D01*
X161763211Y-70876104D01*
X161892310Y-70935336D01*
X162014953Y-71006040D01*
X162131308Y-71087598D01*
X162241545Y-71179393D01*
X162345832Y-71280807D01*
X162444339Y-71391223D01*
X162537236Y-71510025D01*
X162624690Y-71636595D01*
X162783949Y-71910569D01*
X162923468Y-72208208D01*
X163044601Y-72524575D01*
X163148700Y-72854732D01*
X163237118Y-73193741D01*
X163311207Y-73536664D01*
X163372320Y-73878565D01*
X163421810Y-74214504D01*
X163491329Y-74848750D01*
X163512497Y-74848750D01*
X163496851Y-74559808D01*
X163475632Y-74277632D01*
X163448723Y-74002604D01*
X163416008Y-73735102D01*
X163377371Y-73475507D01*
X163332695Y-73224198D01*
X163281865Y-72981555D01*
X163224764Y-72747958D01*
X163161275Y-72523787D01*
X163091283Y-72309422D01*
X163014671Y-72105242D01*
X162931323Y-71911627D01*
X162841123Y-71728957D01*
X162743954Y-71557613D01*
X162639700Y-71397972D01*
X162528244Y-71250417D01*
X162578999Y-71200535D01*
X162633024Y-71152242D01*
X162690306Y-71105763D01*
X162750827Y-71061323D01*
X162814573Y-71019146D01*
X162881527Y-70979457D01*
X162951676Y-70942481D01*
X163025002Y-70908443D01*
X163101491Y-70877568D01*
X163181127Y-70850080D01*
X163263895Y-70826204D01*
X163349779Y-70806165D01*
X163438763Y-70790188D01*
X163530832Y-70778498D01*
X163625971Y-70771319D01*
X163724163Y-70768876D01*
X163911612Y-70778772D01*
X164001175Y-70791184D01*
X164087950Y-70808609D01*
X164171929Y-70831075D01*
X164253102Y-70858608D01*
X164331460Y-70891237D01*
X164406995Y-70928990D01*
X164479696Y-70971893D01*
X164549555Y-71019974D01*
X164616563Y-71073262D01*
X164680710Y-71131783D01*
X164741986Y-71195566D01*
X164800384Y-71264638D01*
X164855893Y-71339026D01*
X164908505Y-71418758D01*
X165004998Y-71594366D01*
X165089791Y-71791681D01*
X165162809Y-72010925D01*
X165223980Y-72252320D01*
X165273228Y-72516084D01*
X165310481Y-72802441D01*
X165335665Y-73111610D01*
X165348706Y-73443813D01*
X165401085Y-73541455D01*
X165454705Y-73637082D01*
X165509068Y-73729423D01*
X165563680Y-73817206D01*
X165590923Y-73858991D01*
X165618043Y-73899159D01*
X165644977Y-73937553D01*
X165671662Y-73974013D01*
X165698038Y-74008379D01*
X165724042Y-74040494D01*
X165749611Y-74070198D01*
X165774685Y-74097333D01*
X165772460Y-73866873D01*
X165765812Y-73642839D01*
X165754785Y-73425269D01*
X165739421Y-73214204D01*
X165719762Y-73009680D01*
X165695852Y-72811737D01*
X165667733Y-72620414D01*
X165635447Y-72435750D01*
X165599038Y-72257783D01*
X165558547Y-72086552D01*
X165514018Y-71922095D01*
X165465494Y-71764452D01*
X165462472Y-71755771D01*
X167761708Y-71755771D01*
X167814047Y-71859752D01*
X167862926Y-71967128D01*
X167908355Y-72077635D01*
X167950347Y-72191011D01*
X167988912Y-72306991D01*
X168024063Y-72425311D01*
X168055811Y-72545710D01*
X168084167Y-72667922D01*
X168109144Y-72791685D01*
X168130753Y-72916734D01*
X168149006Y-73042806D01*
X168163914Y-73169638D01*
X168175489Y-73296966D01*
X168183742Y-73424527D01*
X168188686Y-73552057D01*
X168190331Y-73679292D01*
X168185040Y-73848625D01*
X168204323Y-73874785D01*
X168223471Y-73899650D01*
X168242472Y-73923167D01*
X168261314Y-73945280D01*
X168279985Y-73965937D01*
X168298474Y-73985081D01*
X168316769Y-74002660D01*
X168334859Y-74018619D01*
X168352731Y-74032904D01*
X168370375Y-74045460D01*
X168387779Y-74056233D01*
X168396387Y-74060934D01*
X168404931Y-74065169D01*
X168413409Y-74068932D01*
X168421819Y-74072214D01*
X168430161Y-74075010D01*
X168438433Y-74077313D01*
X168446633Y-74079116D01*
X168454759Y-74080413D01*
X168462811Y-74081195D01*
X168470787Y-74081458D01*
X168473439Y-74081458D01*
X168487368Y-74080788D01*
X168500876Y-74078794D01*
X168513964Y-74075502D01*
X168526628Y-74070936D01*
X168538869Y-74065123D01*
X168550683Y-74058087D01*
X168562070Y-74049853D01*
X168573028Y-74040447D01*
X168593653Y-74018219D01*
X168612545Y-73991603D01*
X168629693Y-73960801D01*
X168645086Y-73926015D01*
X168658711Y-73887446D01*
X168670557Y-73845297D01*
X168680613Y-73799767D01*
X168688866Y-73751059D01*
X168695306Y-73699375D01*
X168699920Y-73644916D01*
X168702697Y-73587883D01*
X168703625Y-73528479D01*
X168699444Y-73323334D01*
X168687047Y-73115150D01*
X168666651Y-72904610D01*
X168638471Y-72692396D01*
X168602727Y-72479189D01*
X168559634Y-72265673D01*
X168509409Y-72052528D01*
X168452271Y-71840438D01*
X168347827Y-71838970D01*
X168248747Y-71834650D01*
X168154939Y-71827601D01*
X168066308Y-71817948D01*
X167982763Y-71805814D01*
X167904210Y-71791324D01*
X167830556Y-71774602D01*
X167761708Y-71755771D01*
X165462472Y-71755771D01*
X165413016Y-71613662D01*
X165356627Y-71469762D01*
X165296370Y-71332793D01*
X165232289Y-71202792D01*
X165308563Y-71135406D01*
X165400975Y-71066335D01*
X165459896Y-71027377D01*
X165526967Y-70987156D01*
X165601945Y-70946935D01*
X165684586Y-70907978D01*
X165774644Y-70871547D01*
X165871876Y-70838907D01*
X165976039Y-70811321D01*
X166086887Y-70790052D01*
X166144742Y-70782181D01*
X166204177Y-70776364D01*
X166265161Y-70772758D01*
X166327664Y-70771521D01*
X166389118Y-70772753D01*
X166449464Y-70776415D01*
X166508710Y-70782456D01*
X166566862Y-70790827D01*
X166623929Y-70801477D01*
X166679919Y-70814355D01*
X166734840Y-70829412D01*
X166788698Y-70846596D01*
X166841502Y-70865858D01*
X166893260Y-70887147D01*
X166943979Y-70910412D01*
X166993667Y-70935604D01*
X167042333Y-70962671D01*
X167089982Y-70991564D01*
X167136624Y-71022232D01*
X167182267Y-71054625D01*
X167182267Y-71044042D01*
X167183091Y-71011806D01*
X167185512Y-70979632D01*
X167189452Y-70947582D01*
X167194834Y-70915719D01*
X167201581Y-70884103D01*
X167209614Y-70852797D01*
X167218856Y-70821864D01*
X167229230Y-70791364D01*
X167240659Y-70761361D01*
X167253063Y-70731916D01*
X167266368Y-70703091D01*
X167280493Y-70674948D01*
X167295363Y-70647549D01*
X167310900Y-70620956D01*
X167327025Y-70595232D01*
X167343663Y-70570437D01*
X168108307Y-70610125D01*
X168076722Y-70517376D01*
X168042161Y-70421278D01*
X168005616Y-70324189D01*
X167968079Y-70228463D01*
X167930542Y-70136459D01*
X167893997Y-70050531D01*
X167859436Y-69973037D01*
X167827851Y-69906333D01*
X167889069Y-69857580D01*
X167952597Y-69812478D01*
X168018327Y-69770958D01*
X168086149Y-69732948D01*
X168155956Y-69698381D01*
X168227639Y-69667185D01*
X168301089Y-69639291D01*
X168376198Y-69614630D01*
X168452857Y-69593131D01*
X168530959Y-69574726D01*
X168610393Y-69559343D01*
X168691052Y-69546913D01*
X168772827Y-69537367D01*
X168855611Y-69530635D01*
X168939293Y-69526647D01*
X169023766Y-69525333D01*
X169171856Y-69529744D01*
G37*
G36*
X99234271Y-74478708D02*
G01*
X99242209Y-74478708D01*
X99660250Y-73446833D01*
X99800480Y-73446833D01*
X99308355Y-74642750D01*
X99469751Y-75036979D01*
X99747563Y-75036979D01*
X99747563Y-75153395D01*
X99543833Y-75153395D01*
X99520438Y-75152866D01*
X99498797Y-75151272D01*
X99478808Y-75148599D01*
X99460366Y-75144838D01*
X99451692Y-75142545D01*
X99443365Y-75139976D01*
X99435372Y-75137128D01*
X99427701Y-75134001D01*
X99420338Y-75130593D01*
X99413270Y-75126903D01*
X99406484Y-75122929D01*
X99399966Y-75118669D01*
X99393705Y-75114122D01*
X99387686Y-75109288D01*
X99381897Y-75104163D01*
X99376324Y-75098748D01*
X99365777Y-75087037D01*
X99355938Y-75074145D01*
X99346704Y-75060058D01*
X99337970Y-75044766D01*
X99329631Y-75028258D01*
X99321583Y-75010520D01*
X98681292Y-73446833D01*
X98816229Y-73446833D01*
X99234271Y-74478708D01*
G37*
G36*
X166023822Y-68322246D02*
G01*
X166080674Y-68324543D01*
X166135732Y-68328368D01*
X166188994Y-68333716D01*
X166240453Y-68340583D01*
X166290105Y-68348966D01*
X166337945Y-68358860D01*
X166383969Y-68370261D01*
X166428170Y-68383167D01*
X166470546Y-68397573D01*
X166511090Y-68413474D01*
X166549798Y-68430868D01*
X166586665Y-68449750D01*
X166621687Y-68470116D01*
X166654857Y-68491963D01*
X166686172Y-68515286D01*
X166715627Y-68540083D01*
X166743217Y-68566348D01*
X166768936Y-68594078D01*
X166792781Y-68623269D01*
X166814746Y-68653918D01*
X166834826Y-68686020D01*
X166853017Y-68719572D01*
X166869314Y-68754569D01*
X166883711Y-68791008D01*
X166896205Y-68828885D01*
X166906790Y-68868196D01*
X166915461Y-68908937D01*
X166922214Y-68951104D01*
X166927043Y-68994694D01*
X166929944Y-69039702D01*
X166930912Y-69086125D01*
X166927622Y-69174561D01*
X166917740Y-69269116D01*
X166901246Y-69368160D01*
X166878120Y-69470060D01*
X166848343Y-69573185D01*
X166811897Y-69675903D01*
X166791166Y-69726599D01*
X166768761Y-69776582D01*
X166744678Y-69825647D01*
X166718916Y-69873591D01*
X166691471Y-69920209D01*
X166662342Y-69965298D01*
X166631527Y-70008653D01*
X166599022Y-70050071D01*
X166564825Y-70089348D01*
X166528934Y-70126279D01*
X166491346Y-70160661D01*
X166452059Y-70192290D01*
X166411071Y-70220961D01*
X166368379Y-70246472D01*
X166323981Y-70268617D01*
X166277874Y-70287194D01*
X166230055Y-70301997D01*
X166180524Y-70312823D01*
X166129276Y-70319468D01*
X166076310Y-70321729D01*
X166021516Y-70319436D01*
X165966845Y-70312689D01*
X165912401Y-70301685D01*
X165858291Y-70286620D01*
X165804621Y-70267691D01*
X165751497Y-70245094D01*
X165699025Y-70219027D01*
X165647311Y-70189685D01*
X165596462Y-70157266D01*
X165546583Y-70121967D01*
X165497780Y-70083984D01*
X165450160Y-70043513D01*
X165358893Y-69955897D01*
X165273629Y-69860692D01*
X165195217Y-69759472D01*
X165124506Y-69653811D01*
X165062345Y-69545281D01*
X165009583Y-69435457D01*
X164967069Y-69325912D01*
X164935650Y-69218220D01*
X164924367Y-69165560D01*
X164916176Y-69113954D01*
X164911184Y-69063597D01*
X164909497Y-69014687D01*
X164910956Y-68971263D01*
X164915277Y-68929291D01*
X164922379Y-68888766D01*
X164932177Y-68849684D01*
X164944590Y-68812041D01*
X164959534Y-68775830D01*
X164976927Y-68741047D01*
X164996685Y-68707688D01*
X165018726Y-68675747D01*
X165042967Y-68645220D01*
X165069325Y-68616102D01*
X165097718Y-68588388D01*
X165128062Y-68562073D01*
X165160274Y-68537152D01*
X165229973Y-68491474D01*
X165306153Y-68451315D01*
X165388149Y-68416636D01*
X165475301Y-68387399D01*
X165566945Y-68363564D01*
X165662417Y-68345094D01*
X165761057Y-68331949D01*
X165862200Y-68324090D01*
X165965184Y-68321479D01*
X166023822Y-68322246D01*
G37*
G36*
X151128083Y-69278321D02*
G01*
X151201705Y-69283373D01*
X151274120Y-69291727D01*
X151345313Y-69303326D01*
X151415269Y-69318118D01*
X151483975Y-69336046D01*
X151551415Y-69357056D01*
X151617575Y-69381094D01*
X151682440Y-69408105D01*
X151745997Y-69438033D01*
X151808230Y-69470825D01*
X151869125Y-69506425D01*
X151928667Y-69544779D01*
X151986843Y-69585832D01*
X152099033Y-69675815D01*
X152205581Y-69775938D01*
X152306369Y-69885761D01*
X152401282Y-70004847D01*
X152490203Y-70132759D01*
X152573015Y-70269057D01*
X152649604Y-70413305D01*
X152719851Y-70565064D01*
X152783642Y-70723896D01*
X152683954Y-70758981D01*
X152585416Y-70799447D01*
X152488189Y-70844842D01*
X152392431Y-70894717D01*
X152298300Y-70948624D01*
X152205956Y-71006111D01*
X152115558Y-71066730D01*
X152027264Y-71130031D01*
X151941234Y-71195565D01*
X151857626Y-71262881D01*
X151776599Y-71331530D01*
X151698312Y-71401064D01*
X151622924Y-71471031D01*
X151550595Y-71540983D01*
X151481482Y-71610470D01*
X151415745Y-71679042D01*
X151436913Y-71700208D01*
X151439823Y-71697563D01*
X152460850Y-71697563D01*
X152638038Y-72265838D01*
X152734043Y-72560300D01*
X152834575Y-72854453D01*
X152939324Y-73142901D01*
X153047979Y-73420248D01*
X153160231Y-73681100D01*
X153217608Y-73803655D01*
X153275769Y-73920063D01*
X153294285Y-73920063D01*
X153239609Y-73677326D01*
X153184789Y-73447347D01*
X153129930Y-73230361D01*
X153075138Y-73026598D01*
X153020515Y-72836292D01*
X152966168Y-72659675D01*
X152912201Y-72496979D01*
X152858718Y-72348438D01*
X152805824Y-72214283D01*
X152753624Y-72094748D01*
X152702222Y-71990064D01*
X152651723Y-71900465D01*
X152626845Y-71861395D01*
X152602232Y-71826183D01*
X152577896Y-71794858D01*
X152553853Y-71767450D01*
X152530113Y-71743987D01*
X152506691Y-71724499D01*
X152483599Y-71709014D01*
X152460850Y-71697563D01*
X151439823Y-71697563D01*
X151538029Y-71608272D01*
X151641851Y-71518364D01*
X151748230Y-71431021D01*
X151857021Y-71346783D01*
X151968075Y-71266188D01*
X152081245Y-71189774D01*
X152196384Y-71118082D01*
X152313344Y-71051648D01*
X152431979Y-70991013D01*
X152552141Y-70936715D01*
X152673683Y-70889292D01*
X152796457Y-70849283D01*
X152920316Y-70817228D01*
X153045114Y-70793664D01*
X153170701Y-70779131D01*
X153296932Y-70774166D01*
X153296932Y-70763582D01*
X153421417Y-70768737D01*
X153542341Y-70783957D01*
X153659679Y-70808873D01*
X153773405Y-70843117D01*
X153883494Y-70886319D01*
X153989920Y-70938112D01*
X154092657Y-70998126D01*
X154191679Y-71065992D01*
X154286962Y-71141343D01*
X154378479Y-71223809D01*
X154466204Y-71313022D01*
X154550112Y-71408612D01*
X154706375Y-71617453D01*
X154847061Y-71847381D01*
X154971965Y-72095448D01*
X155080882Y-72358704D01*
X155173605Y-72634200D01*
X155249931Y-72918985D01*
X155309653Y-73210111D01*
X155352566Y-73504629D01*
X155378464Y-73799588D01*
X155387142Y-74092040D01*
X155386112Y-74193304D01*
X155383024Y-74293599D01*
X155377881Y-74392778D01*
X155370689Y-74490693D01*
X155361449Y-74587197D01*
X155350168Y-74682144D01*
X155336847Y-74775385D01*
X155321492Y-74866773D01*
X155304106Y-74956162D01*
X155284693Y-75043403D01*
X155263257Y-75128350D01*
X155239802Y-75210856D01*
X155214331Y-75290772D01*
X155186849Y-75367952D01*
X155157359Y-75442248D01*
X155125865Y-75513514D01*
X155092372Y-75581602D01*
X155056882Y-75646364D01*
X155019401Y-75707653D01*
X154979931Y-75765323D01*
X154938476Y-75819225D01*
X154895042Y-75869213D01*
X154849630Y-75915139D01*
X154802246Y-75956857D01*
X154752893Y-75994217D01*
X154701575Y-76027074D01*
X154648296Y-76055281D01*
X154593060Y-76078689D01*
X154535870Y-76097152D01*
X154476731Y-76110522D01*
X154415646Y-76118652D01*
X154352619Y-76121394D01*
X154266632Y-76115622D01*
X154181802Y-76098534D01*
X154098125Y-76070472D01*
X154015597Y-76031777D01*
X153934212Y-75982792D01*
X153853965Y-75923860D01*
X153696867Y-75777519D01*
X153544266Y-75595490D01*
X153396121Y-75380509D01*
X153252395Y-75135314D01*
X153113048Y-74862639D01*
X152978042Y-74565222D01*
X152847338Y-74245798D01*
X152720897Y-73907105D01*
X152598681Y-73551877D01*
X152366768Y-72802765D01*
X152151287Y-72020353D01*
X152130120Y-72020353D01*
X152274898Y-72715050D01*
X152352527Y-73059359D01*
X152437039Y-73402801D01*
X152530976Y-73746242D01*
X152636882Y-74090552D01*
X152757299Y-74436598D01*
X152823743Y-74610543D01*
X152894768Y-74785248D01*
X152853153Y-74929316D01*
X152807538Y-75067516D01*
X152757707Y-75199374D01*
X152703442Y-75324420D01*
X152644525Y-75442179D01*
X152580741Y-75552179D01*
X152546956Y-75604121D01*
X152511872Y-75653946D01*
X152475463Y-75701595D01*
X152437701Y-75747009D01*
X152398559Y-75790128D01*
X152358011Y-75830894D01*
X152316028Y-75869247D01*
X152272585Y-75905129D01*
X152227653Y-75938479D01*
X152181205Y-75969240D01*
X152133215Y-75997351D01*
X152083656Y-76022755D01*
X152032499Y-76045391D01*
X151979719Y-76065201D01*
X151925288Y-76082125D01*
X151869178Y-76096104D01*
X151811363Y-76107080D01*
X151751816Y-76114993D01*
X151690509Y-76119785D01*
X151627415Y-76121395D01*
X151573628Y-76119888D01*
X151520422Y-76115417D01*
X151467801Y-76108057D01*
X151415773Y-76097882D01*
X151364344Y-76084967D01*
X151313520Y-76069386D01*
X151263308Y-76051215D01*
X151213713Y-76030527D01*
X151164742Y-76007397D01*
X151116401Y-75981901D01*
X151021636Y-75924104D01*
X150929468Y-75857735D01*
X150839947Y-75783389D01*
X150753123Y-75701664D01*
X150669047Y-75613157D01*
X150587770Y-75518464D01*
X150509341Y-75418182D01*
X150433811Y-75312908D01*
X150361231Y-75203239D01*
X150291651Y-75089772D01*
X150225121Y-74973103D01*
X150180753Y-75096748D01*
X150131990Y-75215393D01*
X150078839Y-75328628D01*
X150021309Y-75436041D01*
X149959407Y-75537223D01*
X149893141Y-75631761D01*
X149822519Y-75719245D01*
X149785577Y-75760214D01*
X149747548Y-75799265D01*
X149708434Y-75836347D01*
X149668236Y-75871409D01*
X149626955Y-75904399D01*
X149584591Y-75935267D01*
X149541146Y-75963960D01*
X149496621Y-75990427D01*
X149451016Y-76014618D01*
X149404333Y-76036480D01*
X149356573Y-76055963D01*
X149307736Y-76073014D01*
X149257823Y-76087583D01*
X149206836Y-76099618D01*
X149154775Y-76109069D01*
X149101642Y-76115882D01*
X149047437Y-76120008D01*
X148992161Y-76121395D01*
X148931755Y-76119620D01*
X148872086Y-76114358D01*
X148813161Y-76105705D01*
X148754988Y-76093753D01*
X148697574Y-76078598D01*
X148640928Y-76060335D01*
X148585057Y-76039057D01*
X148529968Y-76014859D01*
X148475671Y-75987835D01*
X148422172Y-75958081D01*
X148317599Y-75890758D01*
X148216314Y-75813644D01*
X148118377Y-75727496D01*
X148023851Y-75633070D01*
X147932797Y-75531121D01*
X147845278Y-75422405D01*
X147761355Y-75307677D01*
X147681092Y-75187694D01*
X147604548Y-75063211D01*
X147531788Y-74934985D01*
X147462872Y-74803770D01*
X147420168Y-74963326D01*
X147371514Y-75112588D01*
X147344997Y-75183359D01*
X147317039Y-75251556D01*
X147287659Y-75317180D01*
X147256871Y-75380231D01*
X147224691Y-75440708D01*
X147191137Y-75498611D01*
X147156222Y-75553941D01*
X147119965Y-75606697D01*
X147082379Y-75656880D01*
X147043483Y-75704490D01*
X147003291Y-75749526D01*
X146961819Y-75791988D01*
X146919084Y-75831878D01*
X146875101Y-75869193D01*
X146829887Y-75903935D01*
X146783457Y-75936104D01*
X146735828Y-75965699D01*
X146687015Y-75992720D01*
X146637035Y-76017169D01*
X146585903Y-76039043D01*
X146533636Y-76058344D01*
X146480249Y-76075072D01*
X146425758Y-76089226D01*
X146370180Y-76100807D01*
X146313530Y-76109814D01*
X146255824Y-76116248D01*
X146197079Y-76120108D01*
X146137310Y-76121395D01*
X146074276Y-76120087D01*
X146013628Y-76116235D01*
X145955320Y-76109945D01*
X145899305Y-76101324D01*
X145845536Y-76090478D01*
X145793966Y-76077514D01*
X145744548Y-76062538D01*
X145697235Y-76045658D01*
X145651980Y-76026979D01*
X145608736Y-76006608D01*
X145567456Y-75984653D01*
X145528093Y-75961218D01*
X145490600Y-75936412D01*
X145454930Y-75910340D01*
X145421036Y-75883110D01*
X145388871Y-75854827D01*
X145358388Y-75825598D01*
X145329541Y-75795531D01*
X145302281Y-75764731D01*
X145276563Y-75733305D01*
X145229561Y-75669001D01*
X145188160Y-75603473D01*
X145151983Y-75537572D01*
X145120655Y-75472152D01*
X145093800Y-75408066D01*
X145071041Y-75346165D01*
X145099821Y-75237841D01*
X145124662Y-75130943D01*
X145145596Y-75025161D01*
X145162654Y-74920186D01*
X145175868Y-74815707D01*
X145185267Y-74711413D01*
X145190884Y-74606996D01*
X145192749Y-74502144D01*
X145186341Y-74240279D01*
X145164307Y-73947594D01*
X145146111Y-73790993D01*
X145122428Y-73628244D01*
X145092730Y-73459868D01*
X145056489Y-73286384D01*
X145013179Y-73108311D01*
X144962272Y-72926168D01*
X144903242Y-72740475D01*
X144835561Y-72551752D01*
X144758703Y-72360517D01*
X144672139Y-72167289D01*
X144575344Y-71972589D01*
X144467789Y-71776936D01*
X144438687Y-71787519D01*
X144502382Y-71927205D01*
X144564271Y-72073920D01*
X144624036Y-72226946D01*
X144681360Y-72385560D01*
X144735924Y-72549042D01*
X144787410Y-72716672D01*
X144835501Y-72887727D01*
X144879880Y-73061488D01*
X144920227Y-73237233D01*
X144956226Y-73414241D01*
X144987559Y-73591792D01*
X145013907Y-73769165D01*
X145034954Y-73945639D01*
X145050380Y-74120493D01*
X145059869Y-74293005D01*
X145063103Y-74462456D01*
X145058598Y-74628462D01*
X145044923Y-74790498D01*
X145021838Y-74947636D01*
X145006692Y-75024077D01*
X144989102Y-75098945D01*
X144969040Y-75172123D01*
X144946476Y-75243494D01*
X144921378Y-75312943D01*
X144893718Y-75380354D01*
X144863465Y-75445610D01*
X144830589Y-75508594D01*
X144795060Y-75569191D01*
X144756848Y-75627285D01*
X144715923Y-75682758D01*
X144672255Y-75735495D01*
X144625814Y-75785380D01*
X144576569Y-75832296D01*
X144524492Y-75876126D01*
X144469551Y-75916756D01*
X144411718Y-75954067D01*
X144350960Y-75987945D01*
X144287250Y-76018273D01*
X144220556Y-76044934D01*
X144150849Y-76067812D01*
X144078099Y-76086792D01*
X144002275Y-76101756D01*
X143923347Y-76112589D01*
X143841286Y-76119174D01*
X143756062Y-76121394D01*
X143693027Y-76120087D01*
X143632379Y-76116234D01*
X143574070Y-76109944D01*
X143518055Y-76101323D01*
X143464286Y-76090477D01*
X143412716Y-76077513D01*
X143363298Y-76062538D01*
X143315985Y-76045657D01*
X143270730Y-76026979D01*
X143227485Y-76006608D01*
X143186205Y-75984652D01*
X143146842Y-75961218D01*
X143109349Y-75936412D01*
X143073679Y-75910340D01*
X143039785Y-75883109D01*
X143007621Y-75854826D01*
X142977138Y-75825598D01*
X142948290Y-75795530D01*
X142921031Y-75764730D01*
X142895312Y-75733304D01*
X142848310Y-75669000D01*
X142806909Y-75603472D01*
X142770732Y-75537572D01*
X142739404Y-75472152D01*
X142712548Y-75408065D01*
X142689789Y-75346165D01*
X142702929Y-75308698D01*
X142715529Y-75268805D01*
X142738944Y-75182206D01*
X142759693Y-75087297D01*
X142777434Y-74985009D01*
X142791827Y-74876271D01*
X142802529Y-74762015D01*
X142809201Y-74643169D01*
X142811501Y-74520665D01*
X142805093Y-74261043D01*
X142783058Y-73967686D01*
X142764862Y-73809908D01*
X142741179Y-73645556D01*
X142711480Y-73475251D01*
X142675239Y-73299613D01*
X142631929Y-73119262D01*
X142581022Y-72934819D01*
X142521992Y-72746903D01*
X142454311Y-72556134D01*
X142377453Y-72363133D01*
X142290889Y-72168519D01*
X142194094Y-71972914D01*
X142086541Y-71776936D01*
X142057434Y-71787519D01*
X142121130Y-71926972D01*
X142183019Y-72073052D01*
X142242784Y-72225132D01*
X142300108Y-72382584D01*
X142354672Y-72544779D01*
X142406159Y-72711091D01*
X142454251Y-72880890D01*
X142498629Y-73053550D01*
X142538977Y-73228443D01*
X142574977Y-73404940D01*
X142606310Y-73582413D01*
X142632658Y-73760236D01*
X142653705Y-73937779D01*
X142669132Y-74114416D01*
X142678621Y-74289517D01*
X142681855Y-74462456D01*
X142677258Y-74631950D01*
X142671503Y-74714924D01*
X142663437Y-74796576D01*
X142653053Y-74876801D01*
X142640345Y-74955496D01*
X142625308Y-75032556D01*
X142607936Y-75107875D01*
X142588223Y-75181349D01*
X142566163Y-75252874D01*
X142541751Y-75322344D01*
X142514980Y-75389656D01*
X142485845Y-75454704D01*
X142454340Y-75517385D01*
X142420459Y-75577592D01*
X142384197Y-75635222D01*
X142345547Y-75690171D01*
X142304503Y-75742332D01*
X142261061Y-75791602D01*
X142215214Y-75837877D01*
X142166956Y-75881050D01*
X142116282Y-75921019D01*
X142063185Y-75957678D01*
X142007660Y-75990922D01*
X141949701Y-76020647D01*
X141889302Y-76046748D01*
X141826458Y-76069120D01*
X141761162Y-76087660D01*
X141693410Y-76102262D01*
X141623194Y-76112821D01*
X141550509Y-76119234D01*
X141475350Y-76121394D01*
X141403670Y-76119360D01*
X141333484Y-76113337D01*
X141264782Y-76103443D01*
X141197553Y-76089799D01*
X141131787Y-76072524D01*
X141067474Y-76051736D01*
X141004604Y-76027555D01*
X140943166Y-76000099D01*
X140883150Y-75969489D01*
X140824547Y-75935844D01*
X140767346Y-75899281D01*
X140711537Y-75859922D01*
X140604054Y-75773288D01*
X140502015Y-75676894D01*
X140405341Y-75571695D01*
X140313950Y-75458644D01*
X140227759Y-75338694D01*
X140146689Y-75212799D01*
X140070656Y-75081911D01*
X139999581Y-74946986D01*
X139933381Y-74808975D01*
X139871975Y-74668832D01*
X139842763Y-74993830D01*
X139806946Y-75314704D01*
X139764866Y-75629564D01*
X139716864Y-75936517D01*
X139663281Y-76233672D01*
X139604458Y-76519138D01*
X139540736Y-76791023D01*
X139472456Y-77047436D01*
X139501560Y-77058020D01*
X139561531Y-76911579D01*
X139620168Y-76759123D01*
X139677131Y-76602326D01*
X139732078Y-76442863D01*
X139784669Y-76282408D01*
X139834562Y-76122634D01*
X139881417Y-75965218D01*
X139924893Y-75811832D01*
X139977885Y-75839791D01*
X140031335Y-75871172D01*
X140084708Y-75906111D01*
X140137468Y-75944743D01*
X140189081Y-75987205D01*
X140239012Y-76033632D01*
X140286726Y-76084159D01*
X140331688Y-76138923D01*
X140373364Y-76198058D01*
X140411218Y-76261701D01*
X140444716Y-76329987D01*
X140459664Y-76365913D01*
X140473323Y-76403051D01*
X140485625Y-76441418D01*
X140496504Y-76481030D01*
X140505892Y-76521905D01*
X140513724Y-76564060D01*
X140519931Y-76607510D01*
X140524448Y-76652274D01*
X140527207Y-76698369D01*
X140528141Y-76745811D01*
X140524876Y-76832521D01*
X140515225Y-76915584D01*
X140499410Y-76995059D01*
X140477648Y-77071005D01*
X140450160Y-77143481D01*
X140417166Y-77212544D01*
X140378883Y-77278254D01*
X140335533Y-77340669D01*
X140287334Y-77399847D01*
X140234506Y-77455848D01*
X140177269Y-77508730D01*
X140115841Y-77558552D01*
X140050443Y-77605372D01*
X139981293Y-77649249D01*
X139832618Y-77728407D01*
X139671572Y-77796497D01*
X139499910Y-77853986D01*
X139319388Y-77901344D01*
X139131762Y-77939040D01*
X138938787Y-77967543D01*
X138742220Y-77987322D01*
X138543815Y-77998845D01*
X138345330Y-78002582D01*
X138171294Y-77999693D01*
X138084497Y-77996041D01*
X137998312Y-77990882D01*
X137913089Y-77984188D01*
X137829176Y-77975932D01*
X137746921Y-77966087D01*
X137666674Y-77954626D01*
X137588784Y-77941522D01*
X137513598Y-77926747D01*
X137441467Y-77910274D01*
X137372739Y-77892077D01*
X137307762Y-77872128D01*
X137246886Y-77850400D01*
X137190459Y-77826866D01*
X137138830Y-77801499D01*
X137490727Y-76232520D01*
X137555415Y-76218128D01*
X137619484Y-76201317D01*
X137682901Y-76182196D01*
X137745636Y-76160871D01*
X137807658Y-76137451D01*
X137868936Y-76112045D01*
X137989136Y-76055704D01*
X138105987Y-75992712D01*
X138219241Y-75923934D01*
X138328650Y-75850234D01*
X138433967Y-75772476D01*
X138534942Y-75691524D01*
X138631329Y-75608243D01*
X138722879Y-75523497D01*
X138809344Y-75438150D01*
X138890477Y-75353067D01*
X138966027Y-75269111D01*
X139035749Y-75187148D01*
X139099394Y-75108041D01*
X139078226Y-75086874D01*
X138888455Y-75269581D01*
X138786936Y-75361160D01*
X138681228Y-75451668D01*
X138571504Y-75540193D01*
X138457939Y-75625818D01*
X138340708Y-75707630D01*
X138219985Y-75784713D01*
X138095944Y-75856153D01*
X137968760Y-75921035D01*
X137838607Y-75978445D01*
X137705660Y-76027468D01*
X137570092Y-76067189D01*
X137432079Y-76096694D01*
X137362210Y-76107329D01*
X137291795Y-76115067D01*
X137220856Y-76119794D01*
X137149414Y-76121395D01*
X137028710Y-76116558D01*
X136910250Y-76102265D01*
X136794137Y-76078842D01*
X136680476Y-76046614D01*
X136569372Y-76005909D01*
X136460927Y-75957051D01*
X136355247Y-75900367D01*
X136252435Y-75836183D01*
X136152596Y-75764825D01*
X136055834Y-75686619D01*
X135962253Y-75601891D01*
X135871957Y-75510967D01*
X135701637Y-75311837D01*
X135545708Y-75091835D01*
X135405003Y-74853572D01*
X135280355Y-74599654D01*
X135172597Y-74332690D01*
X135082563Y-74055289D01*
X135011086Y-73770059D01*
X134959000Y-73479608D01*
X134927137Y-73186546D01*
X134919745Y-72986083D01*
X137152062Y-72986083D01*
X137220023Y-73281143D01*
X137285108Y-73549088D01*
X137347480Y-73791267D01*
X137407302Y-74009028D01*
X137464737Y-74203722D01*
X137519947Y-74376696D01*
X137546768Y-74455459D01*
X137573095Y-74529299D01*
X137598946Y-74598383D01*
X137624343Y-74662880D01*
X137649307Y-74722959D01*
X137673856Y-74778788D01*
X137698012Y-74830535D01*
X137721795Y-74878371D01*
X137745225Y-74922462D01*
X137768323Y-74962978D01*
X137791109Y-75000087D01*
X137813603Y-75033958D01*
X137835826Y-75064759D01*
X137857798Y-75092660D01*
X137879539Y-75117828D01*
X137901070Y-75140432D01*
X137922411Y-75160641D01*
X137943583Y-75178624D01*
X137964605Y-75194548D01*
X137985499Y-75208583D01*
X137779661Y-74578544D01*
X137679982Y-74275617D01*
X137581017Y-73984224D01*
X137481679Y-73706969D01*
X137380884Y-73446458D01*
X137329601Y-73323295D01*
X137277547Y-73205295D01*
X137224586Y-73092782D01*
X137170582Y-72986083D01*
X137152062Y-72986083D01*
X134919745Y-72986083D01*
X134916331Y-72893479D01*
X134917538Y-72802635D01*
X134921150Y-72710848D01*
X134927155Y-72618369D01*
X134935539Y-72525450D01*
X134946289Y-72432340D01*
X134959392Y-72339292D01*
X134974835Y-72246555D01*
X134992605Y-72154382D01*
X135012689Y-72063022D01*
X135035074Y-71972728D01*
X135059746Y-71883749D01*
X135086693Y-71796337D01*
X135115901Y-71710742D01*
X135147358Y-71627216D01*
X135181050Y-71546010D01*
X135216964Y-71467375D01*
X135255088Y-71391561D01*
X135295407Y-71318819D01*
X135337910Y-71249401D01*
X135382582Y-71183557D01*
X135429412Y-71121539D01*
X135478385Y-71063597D01*
X135529488Y-71009982D01*
X135582710Y-70960946D01*
X135638035Y-70916738D01*
X135695453Y-70877611D01*
X135754948Y-70843815D01*
X135816509Y-70815601D01*
X135880122Y-70793219D01*
X135945774Y-70776922D01*
X136013452Y-70766960D01*
X136083144Y-70763583D01*
X136174516Y-70769356D01*
X136264109Y-70786446D01*
X136351957Y-70814515D01*
X136438094Y-70853221D01*
X136522555Y-70902225D01*
X136605374Y-70961187D01*
X136766224Y-71107624D01*
X136920920Y-71289811D01*
X137069736Y-71505026D01*
X137212947Y-71750550D01*
X137350830Y-72023661D01*
X137483658Y-72321639D01*
X137611708Y-72641763D01*
X137735254Y-72981312D01*
X137854572Y-73337566D01*
X138081622Y-74089303D01*
X138295061Y-74875208D01*
X138324166Y-74875208D01*
X138217923Y-74363529D01*
X138095837Y-73857554D01*
X137958186Y-73361998D01*
X137883611Y-73119599D01*
X137805250Y-72881573D01*
X137723137Y-72648507D01*
X137637307Y-72420991D01*
X137547795Y-72199614D01*
X137454636Y-71984966D01*
X137357864Y-71777635D01*
X137257516Y-71578210D01*
X137153625Y-71387281D01*
X137046227Y-71205437D01*
X137095106Y-71157309D01*
X137147415Y-71111247D01*
X137203049Y-71067393D01*
X137261904Y-71025893D01*
X137323875Y-70986888D01*
X137388858Y-70950523D01*
X137456747Y-70916940D01*
X137527438Y-70886284D01*
X137600827Y-70858697D01*
X137676809Y-70834323D01*
X137755279Y-70813306D01*
X137836133Y-70795788D01*
X137919265Y-70781913D01*
X138004572Y-70771825D01*
X138091948Y-70765668D01*
X138181290Y-70763583D01*
X138352770Y-70771618D01*
X138516789Y-70795865D01*
X138595917Y-70814135D01*
X138673080Y-70836538D01*
X138748244Y-70863100D01*
X138821375Y-70893849D01*
X138892441Y-70928811D01*
X138961407Y-70968012D01*
X139028241Y-71011479D01*
X139092909Y-71059239D01*
X139155377Y-71111319D01*
X139215613Y-71167745D01*
X139273582Y-71228544D01*
X139329251Y-71293742D01*
X139382587Y-71363366D01*
X139433557Y-71437443D01*
X139528262Y-71599062D01*
X139613100Y-71778811D01*
X139687803Y-71976904D01*
X139752103Y-72193555D01*
X139805733Y-72428975D01*
X139848426Y-72683379D01*
X139879914Y-72956979D01*
X139944618Y-73100381D01*
X140016546Y-73254883D01*
X140093994Y-73414718D01*
X140175255Y-73574119D01*
X140258624Y-73727319D01*
X140300567Y-73799791D01*
X140342397Y-73868551D01*
X140383901Y-73932876D01*
X140424867Y-73992047D01*
X140465081Y-74045342D01*
X140504330Y-74092041D01*
X140444192Y-73932320D01*
X140388720Y-73770371D01*
X140337806Y-73607251D01*
X140291341Y-73444019D01*
X140249217Y-73281732D01*
X140211325Y-73121449D01*
X140177557Y-72964228D01*
X140147805Y-72811127D01*
X140099911Y-72521517D01*
X140066776Y-72261083D01*
X140047532Y-72038291D01*
X140041310Y-71861604D01*
X140044864Y-71733321D01*
X140049328Y-71671960D01*
X140055603Y-71612472D01*
X140063704Y-71554871D01*
X140073645Y-71499172D01*
X140085440Y-71445390D01*
X140099104Y-71393539D01*
X140114652Y-71343634D01*
X140132099Y-71295689D01*
X140151457Y-71249718D01*
X140172743Y-71205737D01*
X140195971Y-71163759D01*
X140221155Y-71123800D01*
X140248310Y-71085874D01*
X140277450Y-71049994D01*
X140308590Y-71016177D01*
X140341744Y-70984436D01*
X140376928Y-70954787D01*
X140414155Y-70927242D01*
X140453439Y-70901818D01*
X140494797Y-70878528D01*
X140538241Y-70857387D01*
X140583788Y-70838410D01*
X140631450Y-70821612D01*
X140681243Y-70807005D01*
X140733181Y-70794606D01*
X140787279Y-70784429D01*
X140843551Y-70776488D01*
X140902012Y-70770798D01*
X140962676Y-70767374D01*
X141025559Y-70766229D01*
X141188512Y-70774088D01*
X141343633Y-70797166D01*
X141491120Y-70834712D01*
X141631171Y-70885979D01*
X141763984Y-70950215D01*
X141889757Y-71026672D01*
X142008688Y-71114601D01*
X142120976Y-71213251D01*
X142226818Y-71321873D01*
X142326413Y-71439718D01*
X142419960Y-71566036D01*
X142507655Y-71700079D01*
X142666285Y-71988337D01*
X142803890Y-72298497D01*
X142922054Y-72624563D01*
X143022362Y-72960539D01*
X143106400Y-73300430D01*
X143175753Y-73638239D01*
X143232006Y-73967972D01*
X143276744Y-74283631D01*
X143338017Y-74848749D01*
X143359185Y-74848749D01*
X143351511Y-74563041D01*
X143324086Y-74176377D01*
X143270307Y-73715795D01*
X143231470Y-73466234D01*
X143183568Y-73208333D01*
X143125775Y-72945470D01*
X143057266Y-72681026D01*
X142977214Y-72418381D01*
X142884796Y-72160914D01*
X142779184Y-71912004D01*
X142659554Y-71675031D01*
X142525079Y-71453375D01*
X142452018Y-71349347D01*
X142374935Y-71250416D01*
X142390521Y-71229725D01*
X142437609Y-71175175D01*
X142473121Y-71138731D01*
X142516695Y-71098053D01*
X142568392Y-71054555D01*
X142628275Y-71009646D01*
X142696405Y-70964736D01*
X142772845Y-70921237D01*
X142857657Y-70880560D01*
X142950902Y-70844116D01*
X143000706Y-70827921D01*
X143052642Y-70813314D01*
X143106718Y-70800470D01*
X143162941Y-70789566D01*
X143221319Y-70780778D01*
X143281859Y-70774283D01*
X143344570Y-70770256D01*
X143409458Y-70768875D01*
X143566074Y-70776051D01*
X143715557Y-70797166D01*
X143858076Y-70831605D01*
X143993800Y-70878749D01*
X144122899Y-70937982D01*
X144245542Y-71008686D01*
X144361897Y-71090244D01*
X144472133Y-71182038D01*
X144576421Y-71283452D01*
X144674928Y-71393869D01*
X144767824Y-71512670D01*
X144855278Y-71639240D01*
X145014536Y-71913214D01*
X145154055Y-72210854D01*
X145275188Y-72527221D01*
X145379287Y-72857377D01*
X145467705Y-73196387D01*
X145541794Y-73539310D01*
X145602907Y-73881210D01*
X145652396Y-74217150D01*
X145721917Y-74851395D01*
X145743084Y-74851395D01*
X145727438Y-74562657D01*
X145706219Y-74281037D01*
X145679310Y-74006837D01*
X145646595Y-73740352D01*
X145607958Y-73481883D01*
X145563282Y-73231727D01*
X145512452Y-72990183D01*
X145455351Y-72757549D01*
X145391863Y-72534124D01*
X145321871Y-72320206D01*
X145245259Y-72116094D01*
X145161912Y-71922086D01*
X145071712Y-71738480D01*
X144974543Y-71565576D01*
X144870290Y-71403670D01*
X144758835Y-71253062D01*
X144809589Y-71203180D01*
X144863614Y-71154888D01*
X144920895Y-71108408D01*
X144981415Y-71063968D01*
X145045161Y-71021791D01*
X145112115Y-70982102D01*
X145182263Y-70945126D01*
X145255590Y-70911089D01*
X145332079Y-70880213D01*
X145411715Y-70852725D01*
X145494482Y-70828849D01*
X145580366Y-70808810D01*
X145669350Y-70792833D01*
X145761419Y-70781143D01*
X145856558Y-70773964D01*
X145954750Y-70771521D01*
X146142199Y-70781417D01*
X146231762Y-70793830D01*
X146318537Y-70811255D01*
X146402516Y-70833720D01*
X146483689Y-70861254D01*
X146562047Y-70893883D01*
X146637582Y-70931635D01*
X146710283Y-70974538D01*
X146780142Y-71022620D01*
X146847150Y-71075907D01*
X146911297Y-71134429D01*
X146972573Y-71198211D01*
X147030971Y-71267283D01*
X147086480Y-71341671D01*
X147139092Y-71421404D01*
X147235585Y-71597011D01*
X147320378Y-71794326D01*
X147393396Y-72013571D01*
X147454567Y-72254965D01*
X147503815Y-72518730D01*
X147541068Y-72805086D01*
X147566252Y-73114255D01*
X147579293Y-73446458D01*
X147631672Y-73544101D01*
X147685292Y-73639728D01*
X147739655Y-73732068D01*
X147794267Y-73819851D01*
X147821510Y-73861636D01*
X147848630Y-73901805D01*
X147875564Y-73940198D01*
X147902249Y-73976658D01*
X147928625Y-74011025D01*
X147954629Y-74043140D01*
X147980198Y-74072844D01*
X148005272Y-74099979D01*
X148003047Y-73869519D01*
X147996399Y-73645484D01*
X147985372Y-73427915D01*
X147970008Y-73216849D01*
X147950349Y-73012326D01*
X147926439Y-72814383D01*
X147898320Y-72623060D01*
X147866034Y-72438396D01*
X147829625Y-72260428D01*
X147789134Y-72089197D01*
X147744605Y-71924741D01*
X147696081Y-71767098D01*
X147643603Y-71616308D01*
X147587214Y-71472408D01*
X147526957Y-71335438D01*
X147462876Y-71205437D01*
X147539150Y-71138051D01*
X147631562Y-71068981D01*
X147690483Y-71030023D01*
X147757554Y-70989802D01*
X147832532Y-70949581D01*
X147915172Y-70910623D01*
X148005231Y-70874193D01*
X148102463Y-70841553D01*
X148206626Y-70813966D01*
X148317474Y-70792698D01*
X148375329Y-70784827D01*
X148434764Y-70779010D01*
X148495748Y-70775404D01*
X148558251Y-70774166D01*
X148675091Y-70778535D01*
X148787993Y-70791444D01*
X148896972Y-70812597D01*
X149002042Y-70841697D01*
X149103220Y-70878448D01*
X149200519Y-70922553D01*
X149293955Y-70973715D01*
X149383543Y-71031639D01*
X149469298Y-71096028D01*
X149551235Y-71166584D01*
X149629369Y-71243013D01*
X149703715Y-71325016D01*
X149774288Y-71412299D01*
X149841102Y-71504564D01*
X149963518Y-71702854D01*
X150071082Y-71917515D01*
X150163914Y-72146176D01*
X150242135Y-72386463D01*
X150305864Y-72636006D01*
X150355222Y-72892432D01*
X150390329Y-73153370D01*
X150411305Y-73416447D01*
X150418270Y-73679291D01*
X150418270Y-73716333D01*
X150452118Y-73770257D01*
X150486153Y-73822786D01*
X150520311Y-73873765D01*
X150554531Y-73923039D01*
X150588752Y-73970452D01*
X150622910Y-74015850D01*
X150656944Y-74059077D01*
X150690792Y-74099979D01*
X150697360Y-74023735D01*
X150703153Y-73945942D01*
X150708139Y-73866784D01*
X150712289Y-73786448D01*
X150715570Y-73705119D01*
X150717952Y-73622985D01*
X150719404Y-73540230D01*
X150719895Y-73457041D01*
X150716184Y-73220489D01*
X150705213Y-72978859D01*
X150687228Y-72733214D01*
X150662471Y-72484615D01*
X150631188Y-72234125D01*
X150593623Y-71982806D01*
X150550018Y-71731719D01*
X150500620Y-71481927D01*
X150445672Y-71234491D01*
X150385418Y-70990474D01*
X150320102Y-70750937D01*
X150249968Y-70516942D01*
X150175262Y-70289552D01*
X150096226Y-70069827D01*
X150013105Y-69858831D01*
X149926144Y-69657625D01*
X150013332Y-69598094D01*
X150116039Y-69537074D01*
X150180339Y-69502658D01*
X150252573Y-69467125D01*
X150332218Y-69431592D01*
X150418749Y-69397176D01*
X150511645Y-69364992D01*
X150610381Y-69336156D01*
X150714435Y-69311786D01*
X150823283Y-69292996D01*
X150936402Y-69280904D01*
X151053269Y-69276625D01*
X151128083Y-69278321D01*
G37*
G36*
X176867830Y-73421653D02*
G01*
X176915871Y-73425512D01*
X176961958Y-73431991D01*
X177005891Y-73441128D01*
X177047467Y-73452963D01*
X177086485Y-73467535D01*
X177122744Y-73484881D01*
X177139775Y-73494607D01*
X177156041Y-73505042D01*
X177171517Y-73516189D01*
X177186176Y-73528054D01*
X177199995Y-73540643D01*
X177212947Y-73553959D01*
X177225008Y-73568007D01*
X177236152Y-73582793D01*
X177246355Y-73598321D01*
X177255590Y-73614596D01*
X177263834Y-73631623D01*
X177271060Y-73649406D01*
X177277243Y-73667951D01*
X177282358Y-73687263D01*
X177286381Y-73707346D01*
X177289286Y-73728205D01*
X177291047Y-73749845D01*
X177291639Y-73772271D01*
X177291019Y-73795011D01*
X177289186Y-73816621D01*
X177286183Y-73837134D01*
X177282054Y-73856581D01*
X177276841Y-73874995D01*
X177270589Y-73892409D01*
X177263339Y-73908855D01*
X177255136Y-73924365D01*
X177246021Y-73938972D01*
X177236040Y-73952709D01*
X177225233Y-73965607D01*
X177213645Y-73977700D01*
X177201319Y-73989020D01*
X177188297Y-73999599D01*
X177174624Y-74009469D01*
X177160341Y-74018664D01*
X177145493Y-74027215D01*
X177130122Y-74035156D01*
X177114271Y-74042518D01*
X177097984Y-74049334D01*
X177064272Y-74061458D01*
X177029332Y-74071787D01*
X176993508Y-74080582D01*
X176957146Y-74088102D01*
X176920589Y-74094606D01*
X176884184Y-74100354D01*
X176693678Y-74126812D01*
X176665854Y-74131021D01*
X176639010Y-74135799D01*
X176613260Y-74141282D01*
X176588714Y-74147607D01*
X176565487Y-74154908D01*
X176543689Y-74163322D01*
X176523434Y-74172983D01*
X176513920Y-74178324D01*
X176504834Y-74184029D01*
X176496190Y-74190112D01*
X176488002Y-74196593D01*
X176480283Y-74203487D01*
X176473049Y-74210812D01*
X176466312Y-74218585D01*
X176460088Y-74226822D01*
X176454389Y-74235541D01*
X176449231Y-74244759D01*
X176444627Y-74254492D01*
X176440592Y-74264757D01*
X176437138Y-74275571D01*
X176434281Y-74286952D01*
X176432035Y-74298917D01*
X176430413Y-74311481D01*
X176429429Y-74324663D01*
X176429098Y-74338479D01*
X176429537Y-74354331D01*
X176430844Y-74369643D01*
X176433003Y-74384417D01*
X176435997Y-74398656D01*
X176439811Y-74412362D01*
X176444429Y-74425538D01*
X176449835Y-74438185D01*
X176456012Y-74450307D01*
X176462945Y-74461905D01*
X176470618Y-74472983D01*
X176479015Y-74483542D01*
X176488119Y-74493586D01*
X176497916Y-74503116D01*
X176508388Y-74512134D01*
X176519520Y-74520645D01*
X176531296Y-74528648D01*
X176543700Y-74536148D01*
X176556715Y-74543147D01*
X176570327Y-74549646D01*
X176584518Y-74555649D01*
X176599273Y-74561158D01*
X176614577Y-74566175D01*
X176630412Y-74570703D01*
X176646763Y-74574744D01*
X176663614Y-74578300D01*
X176680949Y-74581374D01*
X176698752Y-74583969D01*
X176717006Y-74586087D01*
X176754808Y-74588900D01*
X176794226Y-74589833D01*
X176833465Y-74589027D01*
X176870887Y-74586609D01*
X176906596Y-74582578D01*
X176940696Y-74576935D01*
X176973293Y-74569679D01*
X177004490Y-74560812D01*
X177034393Y-74550332D01*
X177063107Y-74538239D01*
X177090735Y-74524535D01*
X177117382Y-74509218D01*
X177143154Y-74492289D01*
X177168154Y-74473747D01*
X177192487Y-74453593D01*
X177216258Y-74431827D01*
X177239572Y-74408449D01*
X177262533Y-74383458D01*
X177355139Y-74465479D01*
X177329771Y-74493472D01*
X177303255Y-74519884D01*
X177275562Y-74544683D01*
X177246660Y-74567840D01*
X177216517Y-74589321D01*
X177185104Y-74609098D01*
X177152388Y-74627138D01*
X177118339Y-74643411D01*
X177082925Y-74657886D01*
X177046117Y-74670531D01*
X177007882Y-74681316D01*
X176968190Y-74690209D01*
X176927009Y-74697181D01*
X176884309Y-74702198D01*
X176840058Y-74705232D01*
X176794226Y-74706250D01*
X176794226Y-74703604D01*
X176739776Y-74702089D01*
X176687658Y-74697558D01*
X176638037Y-74690035D01*
X176591075Y-74679544D01*
X176546933Y-74666106D01*
X176505776Y-74649747D01*
X176486368Y-74640479D01*
X176467766Y-74630488D01*
X176449993Y-74619779D01*
X176433067Y-74608354D01*
X176417009Y-74596216D01*
X176401839Y-74583367D01*
X176387579Y-74569811D01*
X176374247Y-74555551D01*
X176361865Y-74540589D01*
X176350454Y-74524929D01*
X176340032Y-74508573D01*
X176330621Y-74491524D01*
X176322241Y-74473785D01*
X176314912Y-74455360D01*
X176308655Y-74436250D01*
X176303490Y-74416459D01*
X176299437Y-74395990D01*
X176296518Y-74374845D01*
X176294751Y-74353028D01*
X176294157Y-74330542D01*
X176294770Y-74308267D01*
X176296581Y-74287063D01*
X176299548Y-74266901D01*
X176303629Y-74247751D01*
X176308782Y-74229583D01*
X176314964Y-74212369D01*
X176322133Y-74196077D01*
X176330247Y-74180680D01*
X176339265Y-74166147D01*
X176349143Y-74152449D01*
X176359841Y-74139555D01*
X176371314Y-74127438D01*
X176383522Y-74116066D01*
X176396423Y-74105411D01*
X176409974Y-74095443D01*
X176424133Y-74086133D01*
X176438857Y-74077450D01*
X176454106Y-74069366D01*
X176469835Y-74061850D01*
X176486005Y-74054874D01*
X176519493Y-74042420D01*
X176554234Y-74031769D01*
X176589889Y-74022684D01*
X176626122Y-74014928D01*
X176662596Y-74008265D01*
X176698973Y-74002458D01*
X176892119Y-73973354D01*
X176919477Y-73969146D01*
X176945912Y-73964367D01*
X176971310Y-73958884D01*
X176995552Y-73952559D01*
X177018523Y-73945258D01*
X177040106Y-73936845D01*
X177060186Y-73927183D01*
X177069626Y-73921842D01*
X177078646Y-73916138D01*
X177087232Y-73910054D01*
X177095369Y-73903573D01*
X177103044Y-73896679D01*
X177110240Y-73889354D01*
X177116945Y-73881581D01*
X177123142Y-73873344D01*
X177128819Y-73864625D01*
X177133959Y-73855408D01*
X177138550Y-73845675D01*
X177142575Y-73835410D01*
X177146021Y-73824595D01*
X177148873Y-73813214D01*
X177151117Y-73801250D01*
X177152737Y-73788685D01*
X177153720Y-73775503D01*
X177154051Y-73761687D01*
X177153688Y-73747766D01*
X177152604Y-73734279D01*
X177150807Y-73721227D01*
X177148305Y-73708611D01*
X177145105Y-73696430D01*
X177141215Y-73684686D01*
X177136643Y-73673379D01*
X177131396Y-73662510D01*
X177125483Y-73652079D01*
X177118912Y-73642086D01*
X177111689Y-73632532D01*
X177103822Y-73623417D01*
X177095320Y-73614742D01*
X177086191Y-73606508D01*
X177076441Y-73598714D01*
X177066078Y-73591362D01*
X177055111Y-73584452D01*
X177043548Y-73577984D01*
X177031395Y-73571958D01*
X177018660Y-73566376D01*
X177005353Y-73561238D01*
X176991479Y-73556544D01*
X176977047Y-73552295D01*
X176962065Y-73548491D01*
X176946540Y-73545133D01*
X176930480Y-73542221D01*
X176913894Y-73539756D01*
X176896787Y-73537737D01*
X176879170Y-73536167D01*
X176861048Y-73535044D01*
X176842430Y-73534371D01*
X176823324Y-73534146D01*
X176782443Y-73535146D01*
X176744072Y-73538053D01*
X176708121Y-73542727D01*
X176674495Y-73549029D01*
X176643101Y-73556819D01*
X176613847Y-73565958D01*
X176586639Y-73576306D01*
X176561385Y-73587724D01*
X176537992Y-73600072D01*
X176516366Y-73613211D01*
X176496414Y-73627001D01*
X176478044Y-73641302D01*
X176461162Y-73655976D01*
X176445675Y-73670882D01*
X176431491Y-73685881D01*
X176418516Y-73700833D01*
X176328558Y-73616167D01*
X176349402Y-73595655D01*
X176371293Y-73575849D01*
X176394285Y-73556833D01*
X176418432Y-73538693D01*
X176443788Y-73521515D01*
X176470408Y-73505383D01*
X176498346Y-73490382D01*
X176527656Y-73476599D01*
X176558392Y-73464118D01*
X176590609Y-73453024D01*
X176624360Y-73443403D01*
X176659700Y-73435340D01*
X176696684Y-73428921D01*
X176735365Y-73424230D01*
X176775798Y-73421353D01*
X176818037Y-73420375D01*
X176867830Y-73421653D01*
G37*
G36*
X98054229Y-73351583D02*
G01*
X98054543Y-73363989D01*
X98055501Y-73375427D01*
X98056228Y-73380789D01*
X98057125Y-73385918D01*
X98058194Y-73390817D01*
X98059438Y-73395488D01*
X98060861Y-73399933D01*
X98062465Y-73404158D01*
X98064254Y-73408163D01*
X98066229Y-73411952D01*
X98068394Y-73415528D01*
X98070752Y-73418893D01*
X98073305Y-73422051D01*
X98076058Y-73425005D01*
X98079011Y-73427757D01*
X98082170Y-73430311D01*
X98085535Y-73432669D01*
X98089111Y-73434834D01*
X98092900Y-73436809D01*
X98096905Y-73438597D01*
X98101129Y-73440201D01*
X98105575Y-73441624D01*
X98110246Y-73442869D01*
X98115144Y-73443938D01*
X98120273Y-73444835D01*
X98125636Y-73445562D01*
X98137073Y-73446519D01*
X98149480Y-73446833D01*
X98493437Y-73446833D01*
X98493437Y-73563250D01*
X98056875Y-73563250D01*
X98056875Y-74478708D01*
X98056159Y-74500558D01*
X98054002Y-74521419D01*
X98052377Y-74531461D01*
X98050387Y-74541234D01*
X98048028Y-74550730D01*
X98045299Y-74559944D01*
X98042198Y-74568866D01*
X98038724Y-74577491D01*
X98034873Y-74585810D01*
X98030644Y-74593817D01*
X98026035Y-74601505D01*
X98021045Y-74608865D01*
X98015671Y-74615891D01*
X98009911Y-74622575D01*
X98003764Y-74628911D01*
X97997228Y-74634891D01*
X97990299Y-74640507D01*
X97982978Y-74645752D01*
X97975261Y-74650620D01*
X97967147Y-74655103D01*
X97958633Y-74659193D01*
X97949719Y-74662883D01*
X97940401Y-74666167D01*
X97930679Y-74669036D01*
X97920549Y-74671484D01*
X97910011Y-74673503D01*
X97899061Y-74675086D01*
X97887699Y-74676225D01*
X97875923Y-74676914D01*
X97863729Y-74677146D01*
X97334563Y-74677146D01*
X97337208Y-74674500D01*
X97337208Y-74558083D01*
X97921938Y-74558083D01*
X97921938Y-73563250D01*
X97337208Y-73563250D01*
X97337208Y-73446833D01*
X97921938Y-73446833D01*
X97921938Y-73012917D01*
X98054229Y-73012917D01*
X98054229Y-73351583D01*
G37*
G36*
X104161354Y-74098826D02*
G01*
X104160814Y-74060667D01*
X104162939Y-73985427D01*
X104169257Y-73914536D01*
X104179684Y-73848063D01*
X104194134Y-73786079D01*
X104212522Y-73728652D01*
X104223166Y-73701670D01*
X104234762Y-73675853D01*
X104247300Y-73651211D01*
X104260770Y-73627751D01*
X104275159Y-73605484D01*
X104290459Y-73584417D01*
X104306658Y-73564559D01*
X104323745Y-73545919D01*
X104341710Y-73528506D01*
X104360543Y-73512328D01*
X104380231Y-73497394D01*
X104400766Y-73483713D01*
X104422136Y-73471294D01*
X104444331Y-73460145D01*
X104467339Y-73450275D01*
X104491151Y-73441693D01*
X104515755Y-73434407D01*
X104541141Y-73428426D01*
X104567299Y-73423759D01*
X104594217Y-73420415D01*
X104621885Y-73418402D01*
X104650293Y-73417729D01*
X104684337Y-73418772D01*
X104717017Y-73421858D01*
X104748333Y-73426920D01*
X104778285Y-73433894D01*
X104806872Y-73442712D01*
X104834095Y-73453308D01*
X104859954Y-73465618D01*
X104884449Y-73479576D01*
X104907579Y-73495114D01*
X104929345Y-73512168D01*
X104949747Y-73530671D01*
X104968785Y-73550558D01*
X104986458Y-73571763D01*
X105002767Y-73594220D01*
X105017712Y-73617862D01*
X105031292Y-73642625D01*
X105039230Y-73642625D01*
X105039230Y-73446833D01*
X105174166Y-73446833D01*
X105174166Y-75150750D01*
X105039230Y-75150750D01*
X105039230Y-74478708D01*
X105031292Y-74478708D01*
X105017712Y-74503035D01*
X105002767Y-74526354D01*
X104986458Y-74548588D01*
X104977792Y-74559273D01*
X104968784Y-74569659D01*
X104959436Y-74579734D01*
X104949747Y-74589490D01*
X104939716Y-74598916D01*
X104929345Y-74608003D01*
X104918632Y-74616741D01*
X104907579Y-74625121D01*
X104896184Y-74633132D01*
X104884448Y-74640766D01*
X104872372Y-74648011D01*
X104859954Y-74654860D01*
X104847195Y-74661302D01*
X104834095Y-74667327D01*
X104820654Y-74672926D01*
X104806872Y-74678089D01*
X104792749Y-74682806D01*
X104778284Y-74687068D01*
X104763479Y-74690864D01*
X104748333Y-74694186D01*
X104732845Y-74697023D01*
X104717017Y-74699367D01*
X104700847Y-74701206D01*
X104684337Y-74702532D01*
X104667485Y-74703334D01*
X104650293Y-74703604D01*
X104622118Y-74702931D01*
X104594653Y-74700918D01*
X104567910Y-74697574D01*
X104541901Y-74692907D01*
X104516638Y-74686926D01*
X104492133Y-74679640D01*
X104468399Y-74671058D01*
X104445447Y-74661188D01*
X104423289Y-74650039D01*
X104401939Y-74637620D01*
X104381406Y-74623939D01*
X104361705Y-74609005D01*
X104342847Y-74592827D01*
X104324844Y-74575414D01*
X104307708Y-74556774D01*
X104291451Y-74536917D01*
X104276086Y-74515850D01*
X104261624Y-74493582D01*
X104248078Y-74470123D01*
X104235460Y-74445480D01*
X104223781Y-74419664D01*
X104213055Y-74392681D01*
X104203293Y-74364542D01*
X104194506Y-74335254D01*
X104186709Y-74304828D01*
X104179911Y-74273270D01*
X104174126Y-74240590D01*
X104169366Y-74206797D01*
X104165642Y-74171900D01*
X104163865Y-74147979D01*
X104306333Y-74147979D01*
X104307968Y-74196920D01*
X104312844Y-74243462D01*
X104316482Y-74265800D01*
X104320913Y-74287500D01*
X104326131Y-74308547D01*
X104332129Y-74328929D01*
X104338903Y-74348633D01*
X104346446Y-74367646D01*
X104354753Y-74385954D01*
X104363817Y-74403545D01*
X104373634Y-74420405D01*
X104384196Y-74436522D01*
X104395498Y-74451881D01*
X104407535Y-74466471D01*
X104420301Y-74480278D01*
X104433790Y-74493289D01*
X104447995Y-74505491D01*
X104462912Y-74516871D01*
X104478534Y-74527416D01*
X104494856Y-74537112D01*
X104511871Y-74545947D01*
X104529574Y-74553908D01*
X104547960Y-74560981D01*
X104567022Y-74567153D01*
X104586754Y-74572412D01*
X104607151Y-74576744D01*
X104628207Y-74580136D01*
X104649916Y-74582575D01*
X104672272Y-74584048D01*
X104695270Y-74584542D01*
X104695270Y-74581896D01*
X104729218Y-74580665D01*
X104762465Y-74577012D01*
X104794804Y-74570995D01*
X104826032Y-74562672D01*
X104855942Y-74552101D01*
X104884328Y-74539340D01*
X104910986Y-74524448D01*
X104923603Y-74516220D01*
X104935710Y-74507482D01*
X104947283Y-74498239D01*
X104958295Y-74488500D01*
X104968721Y-74478272D01*
X104978535Y-74467562D01*
X104987711Y-74456377D01*
X104996224Y-74444724D01*
X105004048Y-74432611D01*
X105011158Y-74420045D01*
X105017527Y-74407034D01*
X105023131Y-74393584D01*
X105027943Y-74379702D01*
X105031937Y-74365397D01*
X105035089Y-74350676D01*
X105037372Y-74335545D01*
X105038760Y-74320011D01*
X105039229Y-74304083D01*
X105039229Y-73817250D01*
X105038768Y-73801089D01*
X105037401Y-73785353D01*
X105035152Y-73770046D01*
X105032046Y-73755176D01*
X105028106Y-73740748D01*
X105023358Y-73726767D01*
X105017824Y-73713240D01*
X105011530Y-73700172D01*
X105004500Y-73687569D01*
X104996757Y-73675437D01*
X104988327Y-73663782D01*
X104979232Y-73652609D01*
X104969499Y-73641924D01*
X104959150Y-73631734D01*
X104948209Y-73622044D01*
X104936703Y-73612859D01*
X104924653Y-73604186D01*
X104912085Y-73596031D01*
X104899023Y-73588399D01*
X104885491Y-73581295D01*
X104871514Y-73574727D01*
X104857114Y-73568699D01*
X104842318Y-73563218D01*
X104827148Y-73558289D01*
X104811630Y-73553918D01*
X104795787Y-73550111D01*
X104779644Y-73546874D01*
X104763225Y-73544212D01*
X104746553Y-73542132D01*
X104729654Y-73540639D01*
X104712552Y-73539739D01*
X104695270Y-73539438D01*
X104672272Y-73539931D01*
X104649916Y-73541404D01*
X104628207Y-73543843D01*
X104607151Y-73547235D01*
X104586754Y-73551567D01*
X104567022Y-73556826D01*
X104547960Y-73562998D01*
X104529575Y-73570071D01*
X104511871Y-73578032D01*
X104494856Y-73586867D01*
X104478534Y-73596563D01*
X104462912Y-73607108D01*
X104447995Y-73618488D01*
X104433790Y-73630690D01*
X104420301Y-73643701D01*
X104407536Y-73657508D01*
X104395499Y-73672098D01*
X104384196Y-73687458D01*
X104373634Y-73703574D01*
X104363818Y-73720434D01*
X104354753Y-73738025D01*
X104346447Y-73756333D01*
X104338903Y-73775346D01*
X104332130Y-73795050D01*
X104326131Y-73815432D01*
X104320913Y-73836479D01*
X104316482Y-73858179D01*
X104312844Y-73880517D01*
X104310004Y-73903482D01*
X104307968Y-73927059D01*
X104306743Y-73951236D01*
X104306333Y-73976000D01*
X104306333Y-74147979D01*
X104163865Y-74147979D01*
X104162968Y-74135906D01*
X104161354Y-74098826D01*
G37*
G36*
X101425562Y-74098826D02*
G01*
X101425021Y-74060667D01*
X101427146Y-73985427D01*
X101433465Y-73914536D01*
X101443892Y-73848063D01*
X101458342Y-73786079D01*
X101476730Y-73728652D01*
X101487374Y-73701670D01*
X101498970Y-73675853D01*
X101511509Y-73651211D01*
X101524978Y-73627751D01*
X101539368Y-73605484D01*
X101554667Y-73584417D01*
X101570866Y-73564559D01*
X101587953Y-73545919D01*
X101605919Y-73528506D01*
X101624751Y-73512328D01*
X101644440Y-73497394D01*
X101664974Y-73483713D01*
X101686344Y-73471294D01*
X101708539Y-73460145D01*
X101731547Y-73450275D01*
X101755359Y-73441693D01*
X101779963Y-73434407D01*
X101805350Y-73428426D01*
X101831507Y-73423759D01*
X101858425Y-73420415D01*
X101886093Y-73418402D01*
X101914500Y-73417729D01*
X101948545Y-73418772D01*
X101981225Y-73421858D01*
X102012541Y-73426920D01*
X102042493Y-73433894D01*
X102071081Y-73442712D01*
X102098304Y-73453308D01*
X102124163Y-73465618D01*
X102148657Y-73479576D01*
X102171788Y-73495114D01*
X102193554Y-73512168D01*
X102213956Y-73530671D01*
X102232993Y-73550558D01*
X102250667Y-73571763D01*
X102266976Y-73594220D01*
X102281920Y-73617862D01*
X102295501Y-73642625D01*
X102303437Y-73642625D01*
X102303437Y-73446833D01*
X102438375Y-73446833D01*
X102438375Y-75150750D01*
X102303437Y-75150750D01*
X102303437Y-74478708D01*
X102295501Y-74478708D01*
X102281920Y-74503035D01*
X102266976Y-74526354D01*
X102250667Y-74548588D01*
X102242000Y-74559273D01*
X102232993Y-74569659D01*
X102223645Y-74579734D01*
X102213955Y-74589490D01*
X102203925Y-74598916D01*
X102193554Y-74608003D01*
X102182841Y-74616741D01*
X102171787Y-74625121D01*
X102160393Y-74633132D01*
X102148657Y-74640766D01*
X102136580Y-74648011D01*
X102124162Y-74654860D01*
X102111403Y-74661302D01*
X102098303Y-74667327D01*
X102084862Y-74672926D01*
X102071080Y-74678089D01*
X102056957Y-74682806D01*
X102042493Y-74687068D01*
X102027687Y-74690864D01*
X102012541Y-74694186D01*
X101997054Y-74697023D01*
X101981225Y-74699367D01*
X101965055Y-74701206D01*
X101948545Y-74702532D01*
X101931693Y-74703334D01*
X101914500Y-74703604D01*
X101886326Y-74702931D01*
X101858861Y-74700918D01*
X101832118Y-74697574D01*
X101806109Y-74692907D01*
X101780846Y-74686926D01*
X101756342Y-74679640D01*
X101732607Y-74671058D01*
X101709655Y-74661188D01*
X101687498Y-74650039D01*
X101666147Y-74637620D01*
X101645615Y-74623939D01*
X101625914Y-74609005D01*
X101607056Y-74592827D01*
X101589052Y-74575414D01*
X101571916Y-74556774D01*
X101555660Y-74536917D01*
X101540294Y-74515850D01*
X101525833Y-74493582D01*
X101512287Y-74470123D01*
X101499668Y-74445480D01*
X101487990Y-74419664D01*
X101477263Y-74392681D01*
X101467501Y-74364542D01*
X101458714Y-74335254D01*
X101450917Y-74304828D01*
X101444119Y-74273270D01*
X101438334Y-74240590D01*
X101433574Y-74206797D01*
X101429850Y-74171900D01*
X101428073Y-74147979D01*
X101570541Y-74147979D01*
X101572177Y-74196920D01*
X101577053Y-74243462D01*
X101580691Y-74265800D01*
X101585122Y-74287500D01*
X101590340Y-74308547D01*
X101596338Y-74328929D01*
X101603112Y-74348633D01*
X101610655Y-74367646D01*
X101618962Y-74385954D01*
X101628026Y-74403545D01*
X101637843Y-74420405D01*
X101648405Y-74436522D01*
X101659708Y-74451881D01*
X101671745Y-74466471D01*
X101684510Y-74480278D01*
X101697999Y-74493289D01*
X101712204Y-74505491D01*
X101727121Y-74516871D01*
X101742743Y-74527416D01*
X101759065Y-74537112D01*
X101776080Y-74545947D01*
X101793784Y-74553908D01*
X101812169Y-74560981D01*
X101831231Y-74567153D01*
X101850963Y-74572412D01*
X101871360Y-74576744D01*
X101892416Y-74580136D01*
X101914125Y-74582575D01*
X101936481Y-74584048D01*
X101959478Y-74584542D01*
X101959478Y-74581896D01*
X101993427Y-74580665D01*
X102026673Y-74577012D01*
X102059013Y-74570995D01*
X102090240Y-74562672D01*
X102120150Y-74552101D01*
X102148536Y-74539340D01*
X102175194Y-74524448D01*
X102187811Y-74516220D01*
X102199918Y-74507482D01*
X102211491Y-74498239D01*
X102222503Y-74488500D01*
X102232928Y-74478272D01*
X102242742Y-74467562D01*
X102251919Y-74456377D01*
X102260432Y-74444724D01*
X102268256Y-74432611D01*
X102275366Y-74420045D01*
X102281735Y-74407034D01*
X102287339Y-74393584D01*
X102292150Y-74379702D01*
X102296145Y-74365397D01*
X102299296Y-74350676D01*
X102301579Y-74335545D01*
X102302968Y-74320011D01*
X102303436Y-74304083D01*
X102303436Y-73817250D01*
X102302975Y-73801089D01*
X102301608Y-73785353D01*
X102299360Y-73770046D01*
X102296253Y-73755176D01*
X102292314Y-73740748D01*
X102287565Y-73726767D01*
X102282032Y-73713240D01*
X102275738Y-73700172D01*
X102268708Y-73687569D01*
X102260965Y-73675437D01*
X102252534Y-73663782D01*
X102243440Y-73652609D01*
X102233707Y-73641924D01*
X102223358Y-73631734D01*
X102212417Y-73622044D01*
X102200911Y-73612859D01*
X102188861Y-73604186D01*
X102176293Y-73596031D01*
X102163231Y-73588399D01*
X102149699Y-73581295D01*
X102135722Y-73574727D01*
X102121323Y-73568699D01*
X102106526Y-73563218D01*
X102091357Y-73558289D01*
X102075838Y-73553918D01*
X102059996Y-73550111D01*
X102043852Y-73546874D01*
X102027433Y-73544212D01*
X102010762Y-73542132D01*
X101993863Y-73540639D01*
X101976760Y-73539739D01*
X101959478Y-73539438D01*
X101936481Y-73539931D01*
X101914125Y-73541404D01*
X101892416Y-73543843D01*
X101871360Y-73547235D01*
X101850963Y-73551567D01*
X101831230Y-73556826D01*
X101812169Y-73562998D01*
X101793783Y-73570071D01*
X101776080Y-73578032D01*
X101759064Y-73586867D01*
X101742743Y-73596563D01*
X101727121Y-73607108D01*
X101712204Y-73618488D01*
X101697998Y-73630690D01*
X101684510Y-73643701D01*
X101671744Y-73657508D01*
X101659707Y-73672098D01*
X101648405Y-73687458D01*
X101637842Y-73703574D01*
X101628026Y-73720434D01*
X101618962Y-73738025D01*
X101610655Y-73756333D01*
X101603112Y-73775346D01*
X101596338Y-73795050D01*
X101590340Y-73815432D01*
X101585122Y-73836479D01*
X101580691Y-73858179D01*
X101577053Y-73880517D01*
X101574213Y-73903482D01*
X101572177Y-73927059D01*
X101570951Y-73951236D01*
X101570541Y-73976000D01*
X101570541Y-74147979D01*
X101428073Y-74147979D01*
X101427176Y-74135906D01*
X101425562Y-74098826D01*
G37*
G36*
X132957968Y-69280238D02*
G01*
X133077211Y-69298717D01*
X133191836Y-69328970D01*
X133301893Y-69370552D01*
X133407428Y-69423017D01*
X133508491Y-69485920D01*
X133605128Y-69558814D01*
X133697388Y-69641254D01*
X133785319Y-69732794D01*
X133868969Y-69832989D01*
X134023617Y-70057559D01*
X134161715Y-70311399D01*
X134283647Y-70590943D01*
X134389798Y-70892625D01*
X134480550Y-71212879D01*
X134556288Y-71548140D01*
X134617395Y-71894843D01*
X134664254Y-72249420D01*
X134697250Y-72608308D01*
X134716767Y-72967940D01*
X134723187Y-73324750D01*
X134718291Y-73601290D01*
X134703369Y-73872179D01*
X134678067Y-74135736D01*
X134661414Y-74264238D01*
X134642034Y-74390277D01*
X134619882Y-74513641D01*
X134594916Y-74634121D01*
X134567090Y-74751506D01*
X134536360Y-74865586D01*
X134502683Y-74976151D01*
X134466015Y-75082990D01*
X134426311Y-75185894D01*
X134383527Y-75284651D01*
X134337619Y-75379052D01*
X134288543Y-75468887D01*
X134236256Y-75553944D01*
X134180712Y-75634015D01*
X134121868Y-75708888D01*
X134059680Y-75778353D01*
X133994103Y-75842201D01*
X133925094Y-75900221D01*
X133852609Y-75952202D01*
X133776602Y-75997934D01*
X133697032Y-76037208D01*
X133613852Y-76069812D01*
X133527019Y-76095537D01*
X133436490Y-76114173D01*
X133342219Y-76125508D01*
X133244164Y-76129333D01*
X133194795Y-76128064D01*
X133145913Y-76124294D01*
X133097520Y-76118082D01*
X133049623Y-76109484D01*
X133002225Y-76098559D01*
X132955332Y-76085365D01*
X132908949Y-76069958D01*
X132863081Y-76052397D01*
X132817732Y-76032740D01*
X132772907Y-76011043D01*
X132684849Y-75961762D01*
X132598946Y-75905017D01*
X132515236Y-75841268D01*
X132433760Y-75770977D01*
X132354554Y-75694605D01*
X132277658Y-75612614D01*
X132203111Y-75525463D01*
X132130951Y-75433616D01*
X132061218Y-75337532D01*
X131993949Y-75237673D01*
X131929184Y-75134500D01*
X131885166Y-75249881D01*
X131836492Y-75358802D01*
X131783222Y-75461125D01*
X131725414Y-75556717D01*
X131663125Y-75645441D01*
X131596414Y-75727161D01*
X131561418Y-75765353D01*
X131525339Y-75801743D01*
X131488183Y-75836314D01*
X131449957Y-75869049D01*
X131410670Y-75899932D01*
X131370329Y-75928946D01*
X131328939Y-75956072D01*
X131286510Y-75981296D01*
X131243048Y-76004599D01*
X131198560Y-76025964D01*
X131153054Y-76045375D01*
X131106537Y-76062815D01*
X131059015Y-76078267D01*
X131010498Y-76091713D01*
X130960991Y-76103138D01*
X130910502Y-76112523D01*
X130859039Y-76119852D01*
X130806607Y-76125108D01*
X130753216Y-76128274D01*
X130698872Y-76129333D01*
X130643924Y-76127228D01*
X130588755Y-76120958D01*
X130533423Y-76110591D01*
X130477986Y-76096193D01*
X130422503Y-76077832D01*
X130367032Y-76055576D01*
X130256357Y-75999646D01*
X130146426Y-75928942D01*
X130037703Y-75844002D01*
X129930656Y-75745365D01*
X129825747Y-75633570D01*
X129723443Y-75509156D01*
X129624209Y-75372661D01*
X129528509Y-75224625D01*
X129436809Y-75065585D01*
X129349574Y-74896080D01*
X129267269Y-74716650D01*
X129190359Y-74527833D01*
X129119309Y-74330167D01*
X129098141Y-74330167D01*
X129127296Y-74464908D01*
X129164700Y-74616826D01*
X129212645Y-74782511D01*
X129241288Y-74869450D01*
X129273427Y-74958552D01*
X129309348Y-75049390D01*
X129349339Y-75141539D01*
X129393687Y-75234570D01*
X129442677Y-75328059D01*
X129496598Y-75421579D01*
X129555735Y-75514704D01*
X129620376Y-75607007D01*
X129690808Y-75698063D01*
X129662142Y-75856471D01*
X129628175Y-76021764D01*
X129589557Y-76193381D01*
X129546940Y-76370766D01*
X129452310Y-76740603D01*
X129349495Y-77126812D01*
X129370663Y-77126812D01*
X129431450Y-76994547D01*
X129492330Y-76854002D01*
X129552652Y-76705583D01*
X129611764Y-76549690D01*
X129669016Y-76386729D01*
X129723757Y-76217101D01*
X129775335Y-76041210D01*
X129823099Y-75859459D01*
X129866153Y-75903980D01*
X129911911Y-75947117D01*
X129960290Y-75988666D01*
X130011203Y-76028420D01*
X130064565Y-76066174D01*
X130120292Y-76101723D01*
X130178298Y-76134861D01*
X130238497Y-76165383D01*
X130300804Y-76193083D01*
X130365135Y-76217757D01*
X130431404Y-76239198D01*
X130499525Y-76257202D01*
X130569413Y-76271562D01*
X130640984Y-76282073D01*
X130714151Y-76288531D01*
X130788830Y-76290729D01*
X130824879Y-76290564D01*
X130842035Y-76290171D01*
X130858944Y-76289406D01*
X130875852Y-76288145D01*
X130893008Y-76286264D01*
X130910661Y-76283639D01*
X130919751Y-76282009D01*
X130929058Y-76280146D01*
X130976067Y-76324109D01*
X131019875Y-76368673D01*
X131060504Y-76413818D01*
X131097979Y-76459525D01*
X131132322Y-76505775D01*
X131163556Y-76552547D01*
X131191706Y-76599824D01*
X131216793Y-76647586D01*
X131238842Y-76695812D01*
X131257876Y-76744484D01*
X131273918Y-76793582D01*
X131286991Y-76843088D01*
X131297118Y-76892981D01*
X131304323Y-76943242D01*
X131308629Y-76993852D01*
X131310059Y-77044791D01*
X131307723Y-77107853D01*
X131300768Y-77168566D01*
X131289272Y-77226953D01*
X131273312Y-77283035D01*
X131252966Y-77336837D01*
X131228314Y-77388381D01*
X131199432Y-77437690D01*
X131166398Y-77484785D01*
X131129291Y-77529692D01*
X131088189Y-77572431D01*
X131043169Y-77613026D01*
X130994310Y-77651499D01*
X130885386Y-77722172D01*
X130762040Y-77784633D01*
X130624896Y-77839063D01*
X130474579Y-77885645D01*
X130311713Y-77924561D01*
X130136920Y-77955992D01*
X129950826Y-77980122D01*
X129754055Y-77997132D01*
X129547230Y-78007204D01*
X129330975Y-78010521D01*
X129178349Y-78008938D01*
X129033383Y-78004216D01*
X128895892Y-77996392D01*
X128765691Y-77985505D01*
X128642597Y-77971592D01*
X128526425Y-77954693D01*
X128416990Y-77934846D01*
X128314107Y-77912088D01*
X128217591Y-77886458D01*
X128127259Y-77857995D01*
X128042926Y-77826736D01*
X127964407Y-77792720D01*
X127891517Y-77755986D01*
X127824073Y-77716571D01*
X127761888Y-77674513D01*
X127704779Y-77629852D01*
X127652562Y-77582625D01*
X127605051Y-77532870D01*
X127562062Y-77480626D01*
X127523411Y-77425931D01*
X127488912Y-77368824D01*
X127458382Y-77309342D01*
X127431635Y-77247524D01*
X127408488Y-77183409D01*
X127388755Y-77117033D01*
X127372251Y-77048437D01*
X127358794Y-76977657D01*
X127348197Y-76904733D01*
X127334847Y-76752603D01*
X127330725Y-76592354D01*
X127342435Y-76370776D01*
X127373306Y-76093697D01*
X127466985Y-75401068D01*
X127517018Y-74999531D01*
X127560664Y-74570524D01*
X127591535Y-74121053D01*
X127600185Y-73890833D01*
X127603245Y-73658125D01*
X127597173Y-73340144D01*
X127589170Y-73180485D01*
X127577490Y-73020768D01*
X127561856Y-72861284D01*
X127541993Y-72702323D01*
X127517627Y-72544175D01*
X127488483Y-72387133D01*
X127454284Y-72231485D01*
X127414756Y-72077524D01*
X127369624Y-71925539D01*
X127318613Y-71775821D01*
X127261446Y-71628661D01*
X127197851Y-71484350D01*
X127127550Y-71343179D01*
X127050268Y-71205437D01*
X127101449Y-71159172D01*
X127156598Y-71114740D01*
X127215468Y-71072300D01*
X127277811Y-71032011D01*
X127343378Y-70994032D01*
X127411921Y-70958522D01*
X127483193Y-70925640D01*
X127556946Y-70895544D01*
X127632931Y-70868394D01*
X127710901Y-70844348D01*
X127790606Y-70823566D01*
X127871800Y-70806206D01*
X127954234Y-70792427D01*
X128037661Y-70782388D01*
X128121831Y-70776248D01*
X128206497Y-70774166D01*
X128346156Y-70779584D01*
X128478515Y-70795584D01*
X128603761Y-70821789D01*
X128722084Y-70857820D01*
X128833671Y-70903301D01*
X128938709Y-70957853D01*
X129037388Y-71021098D01*
X129129894Y-71092659D01*
X129216416Y-71172157D01*
X129297142Y-71259214D01*
X129372260Y-71353454D01*
X129441958Y-71454497D01*
X129506423Y-71561966D01*
X129565845Y-71675483D01*
X129670306Y-71919151D01*
X129756846Y-72182476D01*
X129826968Y-72462435D01*
X129882177Y-72756007D01*
X129923975Y-73060166D01*
X129953868Y-73371891D01*
X129973358Y-73688159D01*
X129983949Y-74005946D01*
X129987145Y-74322229D01*
X130087685Y-74451874D01*
X130082228Y-74029161D01*
X130062880Y-73582884D01*
X130046602Y-73354784D01*
X130025177Y-73125444D01*
X129998047Y-72896414D01*
X129964654Y-72669244D01*
X129924439Y-72445485D01*
X129876845Y-72226688D01*
X129821313Y-72014401D01*
X129757286Y-71810176D01*
X129684206Y-71615562D01*
X129601513Y-71432111D01*
X129508651Y-71261372D01*
X129405060Y-71104896D01*
X129451705Y-71069788D01*
X129501276Y-71035990D01*
X129553661Y-71003634D01*
X129608748Y-70972852D01*
X129666423Y-70943775D01*
X129726576Y-70916535D01*
X129789092Y-70891264D01*
X129853860Y-70868094D01*
X129920767Y-70847156D01*
X129989702Y-70828582D01*
X130060551Y-70812504D01*
X130133202Y-70799054D01*
X130207543Y-70788363D01*
X130283462Y-70780564D01*
X130360845Y-70775788D01*
X130439581Y-70774166D01*
X130554096Y-70777873D01*
X130664023Y-70788872D01*
X130769424Y-70806984D01*
X130870361Y-70832029D01*
X130966897Y-70863827D01*
X131059095Y-70902199D01*
X131147018Y-70946966D01*
X131230726Y-70997946D01*
X131310284Y-71054961D01*
X131385754Y-71117831D01*
X131457197Y-71186376D01*
X131524677Y-71260416D01*
X131588256Y-71339771D01*
X131647997Y-71424263D01*
X131756213Y-71607935D01*
X131849826Y-71809993D01*
X131929334Y-72028999D01*
X131995239Y-72263517D01*
X132048040Y-72512107D01*
X132088237Y-72773332D01*
X132116330Y-73045754D01*
X132132820Y-73327935D01*
X132138205Y-73618437D01*
X132137750Y-73681069D01*
X132136552Y-73742461D01*
X132132916Y-73864500D01*
X132154744Y-73896973D01*
X132176572Y-73928827D01*
X132198400Y-73959936D01*
X132220229Y-73990177D01*
X132242057Y-74019426D01*
X132263885Y-74047558D01*
X132285713Y-74074450D01*
X132307541Y-74099979D01*
X132314109Y-74023735D01*
X132319902Y-73945942D01*
X132324889Y-73866784D01*
X132329038Y-73786448D01*
X132332320Y-73705119D01*
X132334702Y-73622985D01*
X132336154Y-73540230D01*
X132336645Y-73457041D01*
X132332934Y-73220489D01*
X132321964Y-72978859D01*
X132303979Y-72733213D01*
X132279222Y-72484615D01*
X132247939Y-72234125D01*
X132210374Y-71982806D01*
X132166770Y-71731719D01*
X132117372Y-71481927D01*
X132062423Y-71234491D01*
X132002169Y-70990474D01*
X131936853Y-70750937D01*
X131866720Y-70516942D01*
X131792013Y-70289551D01*
X131712977Y-70069827D01*
X131629856Y-69858831D01*
X131542895Y-69657625D01*
X131690390Y-69583521D01*
X131839807Y-69513261D01*
X131915528Y-69480155D01*
X131992077Y-69448707D01*
X132069573Y-69419151D01*
X132148130Y-69391719D01*
X132227865Y-69366643D01*
X132308895Y-69344156D01*
X132391336Y-69324490D01*
X132475304Y-69307879D01*
X132560914Y-69294554D01*
X132648285Y-69284748D01*
X132737531Y-69278694D01*
X132828770Y-69276625D01*
X132834061Y-69273979D01*
X132957968Y-69280238D01*
G37*
G36*
X177985971Y-74568129D02*
G01*
X177970081Y-74547361D01*
X177955807Y-74525481D01*
X177943106Y-74502569D01*
X177931936Y-74478708D01*
X177921354Y-74478708D01*
X177921354Y-74521042D01*
X177919455Y-74537560D01*
X177916702Y-74553350D01*
X177913051Y-74568364D01*
X177908454Y-74582557D01*
X177905787Y-74589331D01*
X177902865Y-74595882D01*
X177899684Y-74602204D01*
X177896238Y-74608292D01*
X177892520Y-74614140D01*
X177888525Y-74619741D01*
X177884247Y-74625090D01*
X177879681Y-74630182D01*
X177874820Y-74635010D01*
X177869658Y-74639569D01*
X177864191Y-74643853D01*
X177858411Y-74647855D01*
X177852314Y-74651571D01*
X177845893Y-74654995D01*
X177839142Y-74658119D01*
X177832056Y-74660940D01*
X177824629Y-74663450D01*
X177816855Y-74665645D01*
X177808729Y-74667518D01*
X177800244Y-74669064D01*
X177791395Y-74670276D01*
X177782175Y-74671149D01*
X177772579Y-74671677D01*
X177762602Y-74671854D01*
X177611784Y-74671854D01*
X177611784Y-74555437D01*
X177794348Y-74555437D01*
X177794348Y-74319958D01*
X177931929Y-74319958D01*
X177932398Y-74335165D01*
X177933792Y-74350022D01*
X177936091Y-74364521D01*
X177939272Y-74378652D01*
X177943316Y-74392408D01*
X177948201Y-74405778D01*
X177953907Y-74418756D01*
X177960412Y-74431331D01*
X177967697Y-74443496D01*
X177975740Y-74455240D01*
X177984520Y-74466557D01*
X177994017Y-74477437D01*
X178004209Y-74487871D01*
X178015077Y-74497850D01*
X178026598Y-74507367D01*
X178038753Y-74516411D01*
X178051520Y-74524975D01*
X178064878Y-74533050D01*
X178078807Y-74540626D01*
X178093286Y-74547696D01*
X178108294Y-74554250D01*
X178123811Y-74560281D01*
X178139815Y-74565778D01*
X178156285Y-74570733D01*
X178173201Y-74575139D01*
X178190542Y-74578985D01*
X178208287Y-74582263D01*
X178226415Y-74584965D01*
X178244906Y-74587082D01*
X178263738Y-74588604D01*
X178282891Y-74589524D01*
X178300672Y-74589807D01*
X178332216Y-74588937D01*
X178363221Y-74586262D01*
X178392636Y-74581828D01*
X178420381Y-74575653D01*
X178446373Y-74567758D01*
X178470533Y-74558161D01*
X178481899Y-74552730D01*
X178492777Y-74546882D01*
X178503156Y-74540617D01*
X178513025Y-74533940D01*
X178522376Y-74526852D01*
X178531196Y-74519355D01*
X178539477Y-74511452D01*
X178547208Y-74503146D01*
X178554380Y-74494439D01*
X178560980Y-74485332D01*
X178567001Y-74475830D01*
X178572431Y-74465934D01*
X178577260Y-74455646D01*
X178581478Y-74444969D01*
X178585075Y-74433906D01*
X178588041Y-74422458D01*
X178590366Y-74410629D01*
X178592039Y-74398420D01*
X178593050Y-74385835D01*
X178593390Y-74372875D01*
X178593390Y-74312021D01*
X178593071Y-74299759D01*
X178592109Y-74287783D01*
X178590499Y-74276100D01*
X178588232Y-74264716D01*
X178585303Y-74253638D01*
X178581704Y-74242874D01*
X178577429Y-74232429D01*
X178572471Y-74222310D01*
X178566822Y-74212525D01*
X178560478Y-74203080D01*
X178553429Y-74193982D01*
X178545671Y-74185238D01*
X178537195Y-74176854D01*
X178527996Y-74168837D01*
X178518066Y-74161194D01*
X178507399Y-74153932D01*
X178495987Y-74147058D01*
X178483825Y-74140578D01*
X178470905Y-74134499D01*
X178457221Y-74128828D01*
X178442765Y-74123571D01*
X178427531Y-74118737D01*
X178411513Y-74114330D01*
X178394702Y-74110358D01*
X178377094Y-74106829D01*
X178358680Y-74103748D01*
X178339454Y-74101122D01*
X178319410Y-74098959D01*
X178298540Y-74097264D01*
X178276838Y-74096045D01*
X178254297Y-74095309D01*
X178230910Y-74095062D01*
X177931929Y-74095062D01*
X177931929Y-74319958D01*
X177794348Y-74319958D01*
X177794348Y-73827833D01*
X177794850Y-73804077D01*
X177796346Y-73780934D01*
X177798826Y-73758414D01*
X177802275Y-73736526D01*
X177806682Y-73715280D01*
X177812033Y-73694685D01*
X177818317Y-73674749D01*
X177825520Y-73655482D01*
X177833629Y-73636894D01*
X177842634Y-73618993D01*
X177852520Y-73601788D01*
X177863275Y-73585290D01*
X177874887Y-73569507D01*
X177887342Y-73554448D01*
X177900629Y-73540122D01*
X177914735Y-73526539D01*
X177929647Y-73513708D01*
X177945352Y-73501638D01*
X177961839Y-73490339D01*
X177979094Y-73479818D01*
X177997104Y-73470087D01*
X178015858Y-73461153D01*
X178035342Y-73453027D01*
X178055545Y-73445717D01*
X178076452Y-73439233D01*
X178098053Y-73433583D01*
X178120334Y-73428777D01*
X178143282Y-73424824D01*
X178166885Y-73421734D01*
X178191131Y-73419515D01*
X178216006Y-73418177D01*
X178241499Y-73417729D01*
X178285124Y-73419011D01*
X178326702Y-73422778D01*
X178366234Y-73428909D01*
X178403719Y-73437284D01*
X178439158Y-73447782D01*
X178472551Y-73460285D01*
X178503897Y-73474671D01*
X178533198Y-73490820D01*
X178560451Y-73508613D01*
X178585659Y-73527929D01*
X178608820Y-73548648D01*
X178629935Y-73570650D01*
X178649003Y-73593815D01*
X178666025Y-73618022D01*
X178681000Y-73643151D01*
X178693930Y-73669083D01*
X178601324Y-73735229D01*
X178594976Y-73723005D01*
X178588332Y-73711140D01*
X178581393Y-73699635D01*
X178574158Y-73688493D01*
X178566626Y-73677715D01*
X178558797Y-73667303D01*
X178550671Y-73657259D01*
X178542247Y-73647586D01*
X178533525Y-73638284D01*
X178524503Y-73629357D01*
X178515183Y-73620806D01*
X178505562Y-73612632D01*
X178495641Y-73604838D01*
X178485419Y-73597426D01*
X178474896Y-73590398D01*
X178464071Y-73583755D01*
X178452944Y-73577500D01*
X178441514Y-73571635D01*
X178429781Y-73566160D01*
X178417744Y-73561080D01*
X178405403Y-73556394D01*
X178392757Y-73552106D01*
X178379806Y-73548217D01*
X178366549Y-73544729D01*
X178352987Y-73541644D01*
X178339117Y-73538965D01*
X178324940Y-73536692D01*
X178310456Y-73534828D01*
X178295664Y-73533375D01*
X178280563Y-73532335D01*
X178265153Y-73531709D01*
X178249434Y-73531500D01*
X178212700Y-73532709D01*
X178195071Y-73534219D01*
X178177943Y-73536332D01*
X178161323Y-73539048D01*
X178145217Y-73542366D01*
X178129633Y-73546285D01*
X178114577Y-73550806D01*
X178100056Y-73555928D01*
X178086076Y-73561650D01*
X178072645Y-73567972D01*
X178059769Y-73574893D01*
X178047455Y-73582412D01*
X178035710Y-73590531D01*
X178024541Y-73599247D01*
X178013953Y-73608560D01*
X178003955Y-73618470D01*
X177994553Y-73628977D01*
X177985754Y-73640079D01*
X177977564Y-73651777D01*
X177969990Y-73664070D01*
X177963039Y-73676957D01*
X177956718Y-73690438D01*
X177951034Y-73704513D01*
X177945993Y-73719180D01*
X177941602Y-73734440D01*
X177937868Y-73750293D01*
X177934798Y-73766736D01*
X177932398Y-73783771D01*
X177930675Y-73801396D01*
X177929637Y-73819612D01*
X177929289Y-73838417D01*
X177929289Y-73989229D01*
X178228270Y-73989229D01*
X178294553Y-73990797D01*
X178355576Y-73995451D01*
X178411475Y-74003112D01*
X178462387Y-74013703D01*
X178508445Y-74027147D01*
X178529698Y-74034914D01*
X178549787Y-74043365D01*
X178568732Y-74052491D01*
X178586548Y-74062282D01*
X178603253Y-74072727D01*
X178618863Y-74083818D01*
X178633396Y-74095544D01*
X178646869Y-74107896D01*
X178659297Y-74120865D01*
X178670700Y-74134440D01*
X178681092Y-74148612D01*
X178690492Y-74163371D01*
X178698917Y-74178708D01*
X178706382Y-74194612D01*
X178712906Y-74211074D01*
X178718505Y-74228085D01*
X178726996Y-74263714D01*
X178731991Y-74301419D01*
X178733626Y-74341125D01*
X178733170Y-74361944D01*
X178731809Y-74382228D01*
X178729553Y-74401968D01*
X178726411Y-74421156D01*
X178722394Y-74439785D01*
X178717510Y-74457845D01*
X178711770Y-74475328D01*
X178705183Y-74492227D01*
X178697758Y-74508533D01*
X178689507Y-74524237D01*
X178680437Y-74539332D01*
X178670559Y-74553810D01*
X178659883Y-74567661D01*
X178648418Y-74580878D01*
X178636175Y-74593453D01*
X178623162Y-74605378D01*
X178609389Y-74616643D01*
X178594866Y-74627241D01*
X178579603Y-74637164D01*
X178563609Y-74646403D01*
X178546895Y-74654951D01*
X178529469Y-74662798D01*
X178511342Y-74669938D01*
X178492523Y-74676360D01*
X178473022Y-74682058D01*
X178452848Y-74687023D01*
X178432012Y-74691247D01*
X178410522Y-74694721D01*
X178388390Y-74697437D01*
X178365623Y-74699388D01*
X178342233Y-74700564D01*
X178318228Y-74700958D01*
X178279619Y-74699887D01*
X178243138Y-74696726D01*
X178208742Y-74691558D01*
X178176389Y-74684463D01*
X178146035Y-74675524D01*
X178117638Y-74664821D01*
X178091156Y-74652436D01*
X178066546Y-74638450D01*
X178043765Y-74622946D01*
X178022770Y-74606003D01*
X178005760Y-74589833D01*
X178299704Y-74589833D01*
X178302344Y-74589833D01*
X178300672Y-74589807D01*
X178299704Y-74589833D01*
X178005760Y-74589833D01*
X178003520Y-74587704D01*
X177985971Y-74568129D01*
G37*
G36*
X174288618Y-75039625D02*
G01*
X174174849Y-75039625D01*
X173934080Y-74407271D01*
X174161619Y-74407271D01*
X174288618Y-75039625D01*
G37*
G36*
X93437250Y-72912375D02*
G01*
X93437250Y-73639979D01*
X93445188Y-73639979D01*
X93458769Y-73615653D01*
X93473713Y-73592334D01*
X93490022Y-73570100D01*
X93498689Y-73559414D01*
X93507696Y-73549029D01*
X93517044Y-73538953D01*
X93526733Y-73529198D01*
X93536764Y-73519772D01*
X93547135Y-73510685D01*
X93557848Y-73501947D01*
X93568901Y-73493567D01*
X93580296Y-73485555D01*
X93592032Y-73477922D01*
X93604109Y-73470676D01*
X93616526Y-73463827D01*
X93629285Y-73457385D01*
X93642385Y-73451360D01*
X93655826Y-73445761D01*
X93669608Y-73440599D01*
X93683732Y-73435881D01*
X93698196Y-73431620D01*
X93713001Y-73427823D01*
X93728147Y-73424501D01*
X93743635Y-73421664D01*
X93759463Y-73419321D01*
X93775633Y-73417481D01*
X93792144Y-73416156D01*
X93808995Y-73415353D01*
X93826188Y-73415083D01*
X93854355Y-73415756D01*
X93881798Y-73417769D01*
X93908505Y-73421113D01*
X93934466Y-73425780D01*
X93959669Y-73431761D01*
X93984103Y-73439047D01*
X94007757Y-73447629D01*
X94030620Y-73457499D01*
X94052681Y-73468648D01*
X94073928Y-73481068D01*
X94094351Y-73494748D01*
X94113938Y-73509682D01*
X94132678Y-73525860D01*
X94150560Y-73543273D01*
X94167573Y-73561913D01*
X94183706Y-73581771D01*
X94198948Y-73602838D01*
X94213286Y-73625105D01*
X94226712Y-73648565D01*
X94239212Y-73673207D01*
X94250776Y-73699024D01*
X94261393Y-73726006D01*
X94271052Y-73754145D01*
X94279742Y-73783433D01*
X94287451Y-73813860D01*
X94294168Y-73845417D01*
X94299882Y-73878097D01*
X94304583Y-73911890D01*
X94308258Y-73946788D01*
X94310897Y-73982781D01*
X94312488Y-74019862D01*
X94313021Y-74058021D01*
X94310897Y-74133260D01*
X94304583Y-74204151D01*
X94294168Y-74270624D01*
X94279742Y-74332609D01*
X94261393Y-74390035D01*
X94250776Y-74417018D01*
X94239212Y-74442834D01*
X94226712Y-74467477D01*
X94213286Y-74490936D01*
X94198948Y-74513204D01*
X94183706Y-74534271D01*
X94167573Y-74554129D01*
X94150560Y-74572768D01*
X94132678Y-74590182D01*
X94113938Y-74606359D01*
X94094351Y-74621293D01*
X94073928Y-74634974D01*
X94052681Y-74647393D01*
X94030620Y-74658542D01*
X94007757Y-74668412D01*
X93984103Y-74676995D01*
X93959669Y-74684281D01*
X93934466Y-74690261D01*
X93908505Y-74694928D01*
X93881798Y-74698272D01*
X93854355Y-74700285D01*
X93826188Y-74700958D01*
X93792144Y-74699915D01*
X93759463Y-74696829D01*
X93728148Y-74691767D01*
X93698196Y-74684794D01*
X93669608Y-74675976D01*
X93642385Y-74665379D01*
X93616526Y-74653069D01*
X93592032Y-74639112D01*
X93568901Y-74623574D01*
X93547135Y-74606520D01*
X93526733Y-74588016D01*
X93507696Y-74568129D01*
X93490023Y-74546924D01*
X93473713Y-74524468D01*
X93458769Y-74500825D01*
X93445188Y-74476063D01*
X93437251Y-74476063D01*
X93437251Y-74671854D01*
X93437250Y-74674500D01*
X93302313Y-74674500D01*
X93302313Y-74301437D01*
X93437250Y-74301437D01*
X93437712Y-74317598D01*
X93439079Y-74333335D01*
X93441327Y-74348641D01*
X93444434Y-74363511D01*
X93448373Y-74377939D01*
X93453122Y-74391920D01*
X93458655Y-74405447D01*
X93464949Y-74418515D01*
X93471980Y-74431118D01*
X93479722Y-74443250D01*
X93488153Y-74454906D01*
X93497247Y-74466078D01*
X93506981Y-74476763D01*
X93517330Y-74486953D01*
X93528270Y-74496643D01*
X93539777Y-74505828D01*
X93551826Y-74514501D01*
X93564394Y-74522656D01*
X93577456Y-74530289D01*
X93590988Y-74537392D01*
X93604966Y-74543960D01*
X93619365Y-74549988D01*
X93634161Y-74555469D01*
X93649331Y-74560398D01*
X93664849Y-74564769D01*
X93680692Y-74568576D01*
X93696835Y-74571813D01*
X93713254Y-74574475D01*
X93729926Y-74576555D01*
X93746825Y-74578048D01*
X93763927Y-74578948D01*
X93781209Y-74579250D01*
X93781209Y-74581896D01*
X93804206Y-74581402D01*
X93826563Y-74579929D01*
X93848272Y-74577490D01*
X93869327Y-74574098D01*
X93889724Y-74569766D01*
X93909457Y-74564507D01*
X93928519Y-74558335D01*
X93946904Y-74551262D01*
X93964607Y-74543301D01*
X93981623Y-74534466D01*
X93997945Y-74524770D01*
X94013567Y-74514225D01*
X94028483Y-74502846D01*
X94042689Y-74490644D01*
X94056177Y-74477632D01*
X94068943Y-74463825D01*
X94080980Y-74449235D01*
X94092283Y-74433876D01*
X94102845Y-74417759D01*
X94112661Y-74400899D01*
X94121726Y-74383308D01*
X94130032Y-74365000D01*
X94137576Y-74345987D01*
X94144349Y-74326283D01*
X94150348Y-74305901D01*
X94155566Y-74284854D01*
X94159997Y-74263154D01*
X94163635Y-74240816D01*
X94166475Y-74217851D01*
X94168511Y-74194274D01*
X94169736Y-74170097D01*
X94170146Y-74145333D01*
X94170146Y-73973354D01*
X94168511Y-73924413D01*
X94163635Y-73877871D01*
X94159997Y-73855533D01*
X94155566Y-73833833D01*
X94150348Y-73812786D01*
X94144349Y-73792404D01*
X94137576Y-73772700D01*
X94130032Y-73753687D01*
X94121726Y-73735379D01*
X94112661Y-73717788D01*
X94102845Y-73700928D01*
X94092283Y-73684812D01*
X94080980Y-73669452D01*
X94068943Y-73654862D01*
X94056177Y-73641055D01*
X94042689Y-73628044D01*
X94028483Y-73615842D01*
X94013567Y-73604462D01*
X93997945Y-73593917D01*
X93981623Y-73584221D01*
X93964607Y-73575386D01*
X93946904Y-73567425D01*
X93928519Y-73560352D01*
X93909457Y-73554180D01*
X93889724Y-73548921D01*
X93869327Y-73544590D01*
X93848272Y-73541197D01*
X93826563Y-73538758D01*
X93804206Y-73537285D01*
X93781209Y-73536792D01*
X93747261Y-73538022D01*
X93714014Y-73541675D01*
X93681674Y-73547692D01*
X93650447Y-73556015D01*
X93620537Y-73566586D01*
X93592151Y-73579347D01*
X93565493Y-73594240D01*
X93552876Y-73602467D01*
X93540769Y-73611206D01*
X93529196Y-73620448D01*
X93518184Y-73630187D01*
X93507758Y-73640415D01*
X93497944Y-73651126D01*
X93488768Y-73662311D01*
X93480255Y-73673963D01*
X93472431Y-73686076D01*
X93465321Y-73698642D01*
X93458952Y-73711654D01*
X93453348Y-73725104D01*
X93448537Y-73738985D01*
X93444542Y-73753290D01*
X93441390Y-73768012D01*
X93439108Y-73783143D01*
X93437719Y-73798676D01*
X93437250Y-73814604D01*
X93437250Y-74301437D01*
X93302313Y-74301437D01*
X93302313Y-72912375D01*
X93437250Y-72912375D01*
G37*
G36*
X102823250Y-73901343D02*
G01*
X102828354Y-73870672D01*
X102834558Y-73840801D01*
X102841849Y-73811755D01*
X102850214Y-73783557D01*
X102859642Y-73756231D01*
X102870119Y-73729801D01*
X102881633Y-73704291D01*
X102894171Y-73679724D01*
X102907720Y-73656123D01*
X102922268Y-73633514D01*
X102937803Y-73611919D01*
X102954312Y-73591362D01*
X102971781Y-73571867D01*
X102990200Y-73553458D01*
X103009554Y-73536158D01*
X103029832Y-73519992D01*
X103051020Y-73504982D01*
X103073107Y-73491153D01*
X103096079Y-73478528D01*
X103119925Y-73467132D01*
X103144630Y-73456987D01*
X103170184Y-73448118D01*
X103196573Y-73440549D01*
X103223784Y-73434302D01*
X103251805Y-73429402D01*
X103280624Y-73425873D01*
X103310228Y-73423738D01*
X103340604Y-73423021D01*
X103371010Y-73423716D01*
X103400703Y-73425795D01*
X103429664Y-73429243D01*
X103457879Y-73434049D01*
X103485330Y-73440199D01*
X103512001Y-73447682D01*
X103537875Y-73456485D01*
X103562937Y-73466595D01*
X103587169Y-73477999D01*
X103610555Y-73490685D01*
X103633079Y-73504640D01*
X103654724Y-73519852D01*
X103675474Y-73536308D01*
X103695312Y-73553996D01*
X103714222Y-73572903D01*
X103732187Y-73593016D01*
X103749191Y-73614322D01*
X103765217Y-73636810D01*
X103780250Y-73660467D01*
X103794271Y-73685279D01*
X103807266Y-73711234D01*
X103819217Y-73738321D01*
X103830108Y-73766525D01*
X103839922Y-73795835D01*
X103848643Y-73826238D01*
X103856256Y-73857722D01*
X103862742Y-73890273D01*
X103868086Y-73923879D01*
X103872270Y-73958528D01*
X103875280Y-73994207D01*
X103877098Y-74030903D01*
X103877708Y-74068604D01*
X103875277Y-74142942D01*
X103872260Y-74178550D01*
X103868060Y-74213102D01*
X103862691Y-74246589D01*
X103856168Y-74278999D01*
X103848505Y-74310321D01*
X103839715Y-74340546D01*
X103829813Y-74369663D01*
X103818812Y-74397660D01*
X103806728Y-74424528D01*
X103793573Y-74450256D01*
X103779362Y-74474832D01*
X103764109Y-74498246D01*
X103747828Y-74520488D01*
X103730533Y-74541547D01*
X103712238Y-74561412D01*
X103692957Y-74580073D01*
X103672704Y-74597519D01*
X103651494Y-74613739D01*
X103629340Y-74628723D01*
X103606256Y-74642459D01*
X103582256Y-74654939D01*
X103557355Y-74666149D01*
X103531566Y-74676081D01*
X103504904Y-74684723D01*
X103477382Y-74692065D01*
X103449015Y-74698096D01*
X103419817Y-74702805D01*
X103389801Y-74706182D01*
X103358983Y-74708216D01*
X103327375Y-74708896D01*
X103327375Y-74703604D01*
X103283073Y-74702194D01*
X103240481Y-74698028D01*
X103199633Y-74691204D01*
X103160563Y-74681817D01*
X103123308Y-74669966D01*
X103087901Y-74655746D01*
X103054378Y-74639256D01*
X103022773Y-74620591D01*
X102993122Y-74599849D01*
X102965459Y-74577126D01*
X102939819Y-74552520D01*
X102916237Y-74526126D01*
X102894748Y-74498044D01*
X102875386Y-74468368D01*
X102858188Y-74437196D01*
X102843187Y-74404625D01*
X102946374Y-74341125D01*
X102953009Y-74355798D01*
X102960013Y-74370050D01*
X102967383Y-74383877D01*
X102975116Y-74397276D01*
X102983210Y-74410246D01*
X102991662Y-74422783D01*
X103000468Y-74434883D01*
X103009626Y-74446545D01*
X103019133Y-74457765D01*
X103028985Y-74468540D01*
X103039181Y-74478867D01*
X103049716Y-74488744D01*
X103060589Y-74498167D01*
X103071796Y-74507134D01*
X103083335Y-74515642D01*
X103095202Y-74523687D01*
X103107395Y-74531268D01*
X103119910Y-74538380D01*
X103132745Y-74545022D01*
X103145897Y-74551190D01*
X103159362Y-74556881D01*
X103173139Y-74562092D01*
X103187224Y-74566821D01*
X103201614Y-74571064D01*
X103216306Y-74574819D01*
X103231298Y-74578083D01*
X103246587Y-74580853D01*
X103262168Y-74583126D01*
X103278041Y-74584898D01*
X103294201Y-74586168D01*
X103310647Y-74586932D01*
X103327374Y-74587187D01*
X103350890Y-74586671D01*
X103373807Y-74585133D01*
X103396116Y-74582590D01*
X103417807Y-74579059D01*
X103438870Y-74574557D01*
X103459296Y-74569101D01*
X103479074Y-74562709D01*
X103498195Y-74555396D01*
X103516650Y-74547180D01*
X103534428Y-74538079D01*
X103551520Y-74528108D01*
X103567917Y-74517285D01*
X103583608Y-74505626D01*
X103598584Y-74493150D01*
X103612836Y-74479872D01*
X103626353Y-74465810D01*
X103639125Y-74450980D01*
X103651144Y-74435400D01*
X103662400Y-74419087D01*
X103672882Y-74402057D01*
X103682581Y-74384327D01*
X103691488Y-74365915D01*
X103699593Y-74346837D01*
X103706885Y-74327110D01*
X103713356Y-74306752D01*
X103718996Y-74285779D01*
X103723794Y-74264208D01*
X103727742Y-74242056D01*
X103730829Y-74219340D01*
X103733047Y-74196078D01*
X103734384Y-74172285D01*
X103734832Y-74147979D01*
X103734832Y-74089771D01*
X102814082Y-74089771D01*
X102814082Y-74031563D01*
X102815734Y-73983937D01*
X102956959Y-73983937D01*
X103732188Y-73983937D01*
X103732188Y-73970708D01*
X103731733Y-73946402D01*
X103730377Y-73922610D01*
X103728133Y-73899347D01*
X103725016Y-73876631D01*
X103721038Y-73854480D01*
X103716213Y-73832909D01*
X103710554Y-73811935D01*
X103704076Y-73791577D01*
X103696792Y-73771851D01*
X103688715Y-73752773D01*
X103679860Y-73734360D01*
X103670238Y-73716631D01*
X103659865Y-73699601D01*
X103648754Y-73683287D01*
X103636918Y-73667707D01*
X103624370Y-73652878D01*
X103611125Y-73638815D01*
X103597196Y-73625538D01*
X103582597Y-73613061D01*
X103567340Y-73601403D01*
X103551440Y-73590580D01*
X103534910Y-73580609D01*
X103517764Y-73571507D01*
X103500016Y-73563291D01*
X103481678Y-73555979D01*
X103462765Y-73549586D01*
X103443290Y-73544130D01*
X103423266Y-73539629D01*
X103402707Y-73536098D01*
X103381628Y-73533555D01*
X103360040Y-73532017D01*
X103337959Y-73531500D01*
X103316148Y-73531994D01*
X103294874Y-73533466D01*
X103274148Y-73535904D01*
X103253979Y-73539293D01*
X103234378Y-73543620D01*
X103215356Y-73548871D01*
X103196921Y-73555033D01*
X103179084Y-73562092D01*
X103161857Y-73570035D01*
X103145247Y-73578849D01*
X103129267Y-73588518D01*
X103113926Y-73599031D01*
X103099234Y-73610373D01*
X103085201Y-73622531D01*
X103071837Y-73635491D01*
X103059154Y-73649240D01*
X103047160Y-73663764D01*
X103035867Y-73679049D01*
X103025283Y-73695083D01*
X103015420Y-73711851D01*
X103006288Y-73729340D01*
X102997896Y-73747536D01*
X102990255Y-73766426D01*
X102983376Y-73785996D01*
X102977267Y-73806233D01*
X102971941Y-73827123D01*
X102967405Y-73848652D01*
X102963672Y-73870807D01*
X102960750Y-73893575D01*
X102958651Y-73916941D01*
X102957384Y-73940893D01*
X102956959Y-73965417D01*
X102956959Y-73983937D01*
X102815734Y-73983937D01*
X102816391Y-73964994D01*
X102823250Y-73901343D01*
G37*
G36*
X148257057Y-68322246D02*
G01*
X148313908Y-68324543D01*
X148368967Y-68328368D01*
X148422228Y-68333716D01*
X148473687Y-68340583D01*
X148523339Y-68348966D01*
X148571179Y-68358860D01*
X148617202Y-68370261D01*
X148661404Y-68383167D01*
X148703779Y-68397573D01*
X148744324Y-68413474D01*
X148783031Y-68430868D01*
X148819898Y-68449750D01*
X148854919Y-68470116D01*
X148888090Y-68491963D01*
X148919405Y-68515286D01*
X148948859Y-68540083D01*
X148976449Y-68566348D01*
X149002168Y-68594078D01*
X149026013Y-68623269D01*
X149047977Y-68653918D01*
X149068058Y-68686020D01*
X149086248Y-68719572D01*
X149102545Y-68754569D01*
X149116942Y-68791008D01*
X149129436Y-68828885D01*
X149140021Y-68868196D01*
X149148692Y-68908937D01*
X149155444Y-68951104D01*
X149160274Y-68994694D01*
X149163175Y-69039702D01*
X149164143Y-69086125D01*
X149160853Y-69174561D01*
X149150971Y-69269116D01*
X149134476Y-69368160D01*
X149111351Y-69470060D01*
X149081574Y-69573185D01*
X149045127Y-69675903D01*
X149024397Y-69726599D01*
X149001991Y-69776582D01*
X148977909Y-69825647D01*
X148952146Y-69873591D01*
X148924702Y-69920209D01*
X148895573Y-69965298D01*
X148864757Y-70008653D01*
X148832252Y-70050071D01*
X148798055Y-70089348D01*
X148762164Y-70126279D01*
X148724576Y-70160661D01*
X148685290Y-70192290D01*
X148644302Y-70220961D01*
X148601610Y-70246472D01*
X148557211Y-70268617D01*
X148511104Y-70287194D01*
X148463286Y-70301997D01*
X148413754Y-70312823D01*
X148362506Y-70319468D01*
X148309540Y-70321729D01*
X148254747Y-70319436D01*
X148200076Y-70312689D01*
X148145632Y-70301685D01*
X148091523Y-70286620D01*
X148037853Y-70267691D01*
X147984729Y-70245094D01*
X147932257Y-70219027D01*
X147880543Y-70189685D01*
X147829694Y-70157266D01*
X147779815Y-70121967D01*
X147731013Y-70083984D01*
X147683393Y-70043513D01*
X147592125Y-69955897D01*
X147506861Y-69860692D01*
X147428449Y-69759472D01*
X147357738Y-69653811D01*
X147295577Y-69545281D01*
X147242814Y-69435457D01*
X147200299Y-69325912D01*
X147168881Y-69218220D01*
X147157598Y-69165560D01*
X147149407Y-69113954D01*
X147144415Y-69063597D01*
X147142727Y-69014687D01*
X147144186Y-68971263D01*
X147148508Y-68929291D01*
X147155610Y-68888766D01*
X147165408Y-68849684D01*
X147177821Y-68812041D01*
X147192765Y-68775830D01*
X147210158Y-68741047D01*
X147229916Y-68707688D01*
X147251957Y-68675747D01*
X147276199Y-68645220D01*
X147302557Y-68616102D01*
X147330949Y-68588388D01*
X147361293Y-68562073D01*
X147393506Y-68537152D01*
X147463206Y-68491474D01*
X147539385Y-68451315D01*
X147621383Y-68416636D01*
X147708535Y-68387399D01*
X147800179Y-68363564D01*
X147895651Y-68345094D01*
X147994291Y-68331949D01*
X148095434Y-68324090D01*
X148198418Y-68321479D01*
X148257057Y-68322246D01*
G37*
G36*
X100055019Y-74098826D02*
G01*
X100054479Y-74060667D01*
X100056604Y-73985427D01*
X100062923Y-73914536D01*
X100073350Y-73848063D01*
X100087800Y-73786079D01*
X100106188Y-73728652D01*
X100116832Y-73701670D01*
X100128428Y-73675853D01*
X100140966Y-73651211D01*
X100154435Y-73627751D01*
X100168825Y-73605484D01*
X100184125Y-73584417D01*
X100200324Y-73564559D01*
X100217411Y-73545919D01*
X100235376Y-73528506D01*
X100254208Y-73512328D01*
X100273897Y-73497394D01*
X100294432Y-73483713D01*
X100315802Y-73471294D01*
X100337997Y-73460145D01*
X100361005Y-73450275D01*
X100384817Y-73441693D01*
X100409421Y-73434407D01*
X100434807Y-73428426D01*
X100460965Y-73423759D01*
X100487883Y-73420415D01*
X100515551Y-73418402D01*
X100543958Y-73417729D01*
X100578003Y-73418772D01*
X100610683Y-73421858D01*
X100641999Y-73426920D01*
X100671951Y-73433894D01*
X100700538Y-73442712D01*
X100727761Y-73453308D01*
X100753620Y-73465618D01*
X100778115Y-73479576D01*
X100801245Y-73495114D01*
X100823011Y-73512168D01*
X100843413Y-73530671D01*
X100862450Y-73550558D01*
X100880124Y-73571763D01*
X100896433Y-73594220D01*
X100911378Y-73617862D01*
X100924958Y-73642625D01*
X100932896Y-73642625D01*
X100932896Y-73446833D01*
X101067834Y-73446833D01*
X101067834Y-75150750D01*
X100932896Y-75150750D01*
X100932896Y-74478708D01*
X100924958Y-74478708D01*
X100911378Y-74503035D01*
X100896433Y-74526354D01*
X100880124Y-74548588D01*
X100871458Y-74559273D01*
X100862450Y-74569659D01*
X100853102Y-74579734D01*
X100843413Y-74589490D01*
X100833382Y-74598916D01*
X100823011Y-74608003D01*
X100812298Y-74616741D01*
X100801245Y-74625121D01*
X100789850Y-74633132D01*
X100778115Y-74640766D01*
X100766038Y-74648011D01*
X100753620Y-74654860D01*
X100740861Y-74661302D01*
X100727761Y-74667327D01*
X100714320Y-74672926D01*
X100700538Y-74678089D01*
X100686415Y-74682806D01*
X100671951Y-74687068D01*
X100657145Y-74690864D01*
X100641999Y-74694186D01*
X100626511Y-74697023D01*
X100610683Y-74699367D01*
X100594513Y-74701206D01*
X100578003Y-74702532D01*
X100561151Y-74703334D01*
X100543958Y-74703604D01*
X100515784Y-74702931D01*
X100488319Y-74700918D01*
X100461576Y-74697574D01*
X100435567Y-74692907D01*
X100410304Y-74686926D01*
X100385799Y-74679640D01*
X100362065Y-74671058D01*
X100339113Y-74661188D01*
X100316955Y-74650039D01*
X100295605Y-74637620D01*
X100275072Y-74623939D01*
X100255371Y-74609005D01*
X100236513Y-74592827D01*
X100218510Y-74575414D01*
X100201374Y-74556774D01*
X100185117Y-74536917D01*
X100169752Y-74515850D01*
X100155290Y-74493582D01*
X100141744Y-74470123D01*
X100129126Y-74445480D01*
X100117447Y-74419664D01*
X100106721Y-74392681D01*
X100096958Y-74364542D01*
X100088172Y-74335254D01*
X100080374Y-74304828D01*
X100073577Y-74273270D01*
X100067792Y-74240590D01*
X100063031Y-74206797D01*
X100059308Y-74171900D01*
X100057530Y-74147979D01*
X100200000Y-74147979D01*
X100201636Y-74196920D01*
X100206512Y-74243462D01*
X100210150Y-74265800D01*
X100214581Y-74287500D01*
X100219799Y-74308547D01*
X100225797Y-74328929D01*
X100232571Y-74348633D01*
X100240114Y-74367646D01*
X100248421Y-74385954D01*
X100257485Y-74403545D01*
X100267302Y-74420405D01*
X100277864Y-74436522D01*
X100289167Y-74451881D01*
X100301204Y-74466471D01*
X100313969Y-74480278D01*
X100327458Y-74493289D01*
X100341663Y-74505491D01*
X100356580Y-74516871D01*
X100372202Y-74527416D01*
X100388524Y-74537112D01*
X100405539Y-74545947D01*
X100423243Y-74553908D01*
X100441628Y-74560981D01*
X100460690Y-74567153D01*
X100480422Y-74572412D01*
X100500819Y-74576744D01*
X100521875Y-74580136D01*
X100543584Y-74582575D01*
X100565940Y-74584048D01*
X100588938Y-74584542D01*
X100588938Y-74581896D01*
X100622886Y-74580665D01*
X100656133Y-74577012D01*
X100688472Y-74570995D01*
X100719700Y-74562672D01*
X100749609Y-74552101D01*
X100777996Y-74539340D01*
X100804654Y-74524448D01*
X100817270Y-74516220D01*
X100829378Y-74507482D01*
X100840950Y-74498239D01*
X100851962Y-74488500D01*
X100862388Y-74478272D01*
X100872202Y-74467562D01*
X100881378Y-74456377D01*
X100889891Y-74444724D01*
X100897716Y-74432611D01*
X100904825Y-74420045D01*
X100911195Y-74407034D01*
X100916798Y-74393584D01*
X100921610Y-74379702D01*
X100925604Y-74365397D01*
X100928756Y-74350676D01*
X100931039Y-74335545D01*
X100932427Y-74320011D01*
X100932896Y-74304083D01*
X100932896Y-73817250D01*
X100932435Y-73801089D01*
X100931068Y-73785353D01*
X100928819Y-73770046D01*
X100925713Y-73755176D01*
X100921773Y-73740748D01*
X100917025Y-73726767D01*
X100911491Y-73713240D01*
X100905197Y-73700172D01*
X100898167Y-73687569D01*
X100890424Y-73675437D01*
X100881994Y-73663782D01*
X100872899Y-73652609D01*
X100863166Y-73641924D01*
X100852817Y-73631734D01*
X100841877Y-73622044D01*
X100830370Y-73612859D01*
X100818320Y-73604186D01*
X100805752Y-73596031D01*
X100792690Y-73588399D01*
X100779159Y-73581295D01*
X100765181Y-73574727D01*
X100750782Y-73568699D01*
X100735985Y-73563218D01*
X100720816Y-73558289D01*
X100705298Y-73553918D01*
X100689455Y-73550111D01*
X100673312Y-73546874D01*
X100656892Y-73544212D01*
X100640221Y-73542132D01*
X100623322Y-73540639D01*
X100606220Y-73539739D01*
X100588938Y-73539438D01*
X100565940Y-73539931D01*
X100543584Y-73541404D01*
X100521875Y-73543843D01*
X100500819Y-73547235D01*
X100480422Y-73551567D01*
X100460690Y-73556826D01*
X100441628Y-73562998D01*
X100423242Y-73570071D01*
X100405539Y-73578032D01*
X100388524Y-73586867D01*
X100372202Y-73596563D01*
X100356580Y-73607108D01*
X100341663Y-73618488D01*
X100327458Y-73630690D01*
X100313969Y-73643701D01*
X100301203Y-73657508D01*
X100289166Y-73672098D01*
X100277864Y-73687458D01*
X100267301Y-73703574D01*
X100257485Y-73720434D01*
X100248421Y-73738025D01*
X100240114Y-73756333D01*
X100232571Y-73775346D01*
X100225797Y-73795050D01*
X100219799Y-73815432D01*
X100214581Y-73836479D01*
X100210150Y-73858179D01*
X100206512Y-73880517D01*
X100203672Y-73903482D01*
X100201636Y-73927059D01*
X100200410Y-73951236D01*
X100200000Y-73976000D01*
X100200000Y-74147979D01*
X100057530Y-74147979D01*
X100056633Y-74135906D01*
X100055019Y-74098826D01*
G37*
G36*
X174094131Y-73428451D02*
G01*
X174103004Y-73428863D01*
X174111515Y-73429542D01*
X174119668Y-73430483D01*
X174127469Y-73431680D01*
X174134922Y-73433126D01*
X174142031Y-73434817D01*
X174148803Y-73436746D01*
X174155241Y-73438908D01*
X174161351Y-73441296D01*
X174167137Y-73443905D01*
X174172605Y-73446730D01*
X174177758Y-73449764D01*
X174182603Y-73453001D01*
X174187143Y-73456436D01*
X174191384Y-73460062D01*
X174195330Y-73463875D01*
X174198986Y-73467868D01*
X174202358Y-73472036D01*
X174205450Y-73476372D01*
X174208266Y-73480870D01*
X174210812Y-73485526D01*
X174213093Y-73490333D01*
X174215113Y-73495285D01*
X174216877Y-73500377D01*
X174218390Y-73505602D01*
X174220683Y-73516431D01*
X174222031Y-73527725D01*
X174222471Y-73539437D01*
X174222471Y-73573833D01*
X174222362Y-73579972D01*
X174222031Y-73585982D01*
X174221473Y-73591859D01*
X174220683Y-73597599D01*
X174219658Y-73603198D01*
X174218390Y-73608651D01*
X174216877Y-73613954D01*
X174215113Y-73619102D01*
X174213093Y-73624091D01*
X174210812Y-73628917D01*
X174208266Y-73633576D01*
X174205450Y-73638062D01*
X174202358Y-73642372D01*
X174198986Y-73646501D01*
X174195330Y-73650446D01*
X174191384Y-73654200D01*
X174187143Y-73657762D01*
X174182603Y-73661125D01*
X174177758Y-73664285D01*
X174172605Y-73667238D01*
X174167137Y-73669981D01*
X174161351Y-73672508D01*
X174155241Y-73674814D01*
X174148803Y-73676897D01*
X174142031Y-73678751D01*
X174134922Y-73680371D01*
X174127469Y-73681755D01*
X174119668Y-73682896D01*
X174111515Y-73683792D01*
X174103004Y-73684437D01*
X174094131Y-73684827D01*
X174084891Y-73684958D01*
X174066777Y-73684437D01*
X174058266Y-73683792D01*
X174050113Y-73682896D01*
X174042313Y-73681755D01*
X174034860Y-73680371D01*
X174027751Y-73678751D01*
X174020979Y-73676897D01*
X174014541Y-73674814D01*
X174008432Y-73672508D01*
X174002646Y-73669981D01*
X173997179Y-73667238D01*
X173992026Y-73664285D01*
X173987182Y-73661125D01*
X173982642Y-73657762D01*
X173978401Y-73654200D01*
X173974456Y-73650446D01*
X173970799Y-73646501D01*
X173967428Y-73642372D01*
X173964337Y-73638062D01*
X173961521Y-73633576D01*
X173958975Y-73628917D01*
X173956694Y-73624091D01*
X173954675Y-73619102D01*
X173952911Y-73613954D01*
X173951398Y-73608651D01*
X173949105Y-73597599D01*
X173947758Y-73585982D01*
X173947317Y-73573833D01*
X173947317Y-73539437D01*
X173947427Y-73533532D01*
X173947758Y-73527725D01*
X173948316Y-73522023D01*
X173949105Y-73516431D01*
X173950131Y-73510956D01*
X173951398Y-73505602D01*
X173952912Y-73500377D01*
X173954676Y-73495285D01*
X173956696Y-73490333D01*
X173958976Y-73485526D01*
X173961522Y-73480870D01*
X173964339Y-73476372D01*
X173967430Y-73472036D01*
X173970802Y-73467868D01*
X173974458Y-73463875D01*
X173978404Y-73460062D01*
X173982645Y-73456436D01*
X173987185Y-73453001D01*
X173992029Y-73449764D01*
X173997182Y-73446730D01*
X174002649Y-73443905D01*
X174008435Y-73441296D01*
X174014545Y-73438908D01*
X174020983Y-73436746D01*
X174027754Y-73434817D01*
X174034863Y-73433126D01*
X174042315Y-73431680D01*
X174050115Y-73430483D01*
X174058268Y-73429542D01*
X174066778Y-73428863D01*
X174075651Y-73428451D01*
X174084891Y-73428312D01*
X174094131Y-73428451D01*
G37*
G36*
X177611784Y-74674500D02*
G01*
X177610467Y-74673177D01*
X177609144Y-74671854D01*
X177611784Y-74671854D01*
X177611784Y-74674500D01*
G37*
G36*
X175907858Y-74674500D02*
G01*
X175772932Y-74674500D01*
X175772932Y-73809312D01*
X175772456Y-73792236D01*
X175771048Y-73775731D01*
X175768738Y-73759795D01*
X175765553Y-73744427D01*
X175761523Y-73729626D01*
X175756677Y-73715388D01*
X175751044Y-73701712D01*
X175744654Y-73688596D01*
X175737535Y-73676039D01*
X175729716Y-73664037D01*
X175721227Y-73652590D01*
X175712097Y-73641695D01*
X175702354Y-73631350D01*
X175692028Y-73621554D01*
X175681147Y-73612304D01*
X175669742Y-73603599D01*
X175657840Y-73595436D01*
X175645471Y-73587814D01*
X175632665Y-73580731D01*
X175619449Y-73574185D01*
X175605854Y-73568173D01*
X175591908Y-73562694D01*
X175577640Y-73557747D01*
X175563079Y-73553328D01*
X175548255Y-73549436D01*
X175533197Y-73546070D01*
X175502493Y-73540905D01*
X175471200Y-73537817D01*
X175439551Y-73536792D01*
X175420467Y-73537126D01*
X175401916Y-73538131D01*
X175383901Y-73539813D01*
X175366428Y-73542176D01*
X175349502Y-73545225D01*
X175333127Y-73548965D01*
X175317308Y-73553401D01*
X175302050Y-73558537D01*
X175287358Y-73564379D01*
X175273236Y-73570930D01*
X175259690Y-73578197D01*
X175246725Y-73586184D01*
X175234345Y-73594895D01*
X175222555Y-73604337D01*
X175211359Y-73614512D01*
X175200764Y-73625427D01*
X175190773Y-73637086D01*
X175181392Y-73649494D01*
X175172625Y-73662656D01*
X175164477Y-73676576D01*
X175156953Y-73691260D01*
X175150058Y-73706713D01*
X175143796Y-73722938D01*
X175138173Y-73739942D01*
X175133194Y-73757729D01*
X175128862Y-73776303D01*
X175125184Y-73795670D01*
X175122164Y-73815834D01*
X175119806Y-73836801D01*
X175118116Y-73858574D01*
X175117099Y-73881160D01*
X175116759Y-73904562D01*
X175116759Y-74674500D01*
X174981817Y-74674500D01*
X174981817Y-73880750D01*
X174982273Y-73853350D01*
X174983635Y-73826716D01*
X174985894Y-73800855D01*
X174989042Y-73775774D01*
X174993069Y-73751481D01*
X174997968Y-73727980D01*
X175003728Y-73705280D01*
X175010343Y-73683387D01*
X175017802Y-73662308D01*
X175026098Y-73642050D01*
X175035221Y-73622619D01*
X175045162Y-73604023D01*
X175055914Y-73586267D01*
X175067467Y-73569359D01*
X175079813Y-73553306D01*
X175092942Y-73538115D01*
X175106847Y-73523791D01*
X175121518Y-73510342D01*
X175136947Y-73497775D01*
X175153124Y-73486097D01*
X175170042Y-73475314D01*
X175187692Y-73465433D01*
X175206064Y-73456461D01*
X175225151Y-73448404D01*
X175244942Y-73441270D01*
X175265431Y-73435065D01*
X175286607Y-73429796D01*
X175308463Y-73425470D01*
X175330989Y-73422094D01*
X175354176Y-73419673D01*
X175378017Y-73418216D01*
X175402502Y-73417729D01*
X175440030Y-73418945D01*
X175475263Y-73422499D01*
X175508263Y-73428246D01*
X175539094Y-73436043D01*
X175567816Y-73445747D01*
X175594491Y-73457215D01*
X175619182Y-73470303D01*
X175641951Y-73484867D01*
X175662859Y-73500765D01*
X175681969Y-73517852D01*
X175699343Y-73535986D01*
X175715042Y-73555023D01*
X175729129Y-73574820D01*
X175741665Y-73595232D01*
X175752713Y-73616118D01*
X175762335Y-73637333D01*
X175772917Y-73637333D01*
X175772917Y-72912375D01*
X175907858Y-72912375D01*
X175907858Y-74674500D01*
G37*
G36*
X94551146Y-74674500D02*
G01*
X94548500Y-74671854D01*
X94551146Y-74671854D01*
X94551146Y-74674500D01*
G37*
G36*
X115685812Y-70765705D02*
G01*
X115779757Y-70771975D01*
X115870371Y-70782246D01*
X115957671Y-70796371D01*
X116041676Y-70814203D01*
X116122401Y-70835595D01*
X116199864Y-70860401D01*
X116274081Y-70888474D01*
X116345070Y-70919667D01*
X116412847Y-70953832D01*
X116477430Y-70990825D01*
X116538835Y-71030496D01*
X116597079Y-71072701D01*
X116652180Y-71117291D01*
X116704154Y-71164121D01*
X116753018Y-71213043D01*
X116798790Y-71263911D01*
X116841485Y-71316578D01*
X116881122Y-71370896D01*
X116917716Y-71426720D01*
X116951286Y-71483903D01*
X116981847Y-71542297D01*
X117009418Y-71601755D01*
X117034014Y-71662132D01*
X117055653Y-71723280D01*
X117074352Y-71785053D01*
X117090127Y-71847303D01*
X117102997Y-71909885D01*
X117112977Y-71972650D01*
X117120084Y-72035452D01*
X117124336Y-72098146D01*
X117125750Y-72160582D01*
X117125316Y-72195709D01*
X117124014Y-72230630D01*
X117121843Y-72265326D01*
X117118805Y-72299778D01*
X117114898Y-72333967D01*
X117110123Y-72367872D01*
X117104480Y-72401475D01*
X117097969Y-72434757D01*
X117090589Y-72467697D01*
X117082342Y-72500278D01*
X117073226Y-72532478D01*
X117063242Y-72564279D01*
X117052390Y-72595661D01*
X117040670Y-72626606D01*
X117028081Y-72657093D01*
X117014625Y-72687103D01*
X117178708Y-73045779D01*
X117266284Y-73228838D01*
X117358914Y-73411400D01*
X117407444Y-73501798D01*
X117457621Y-73591234D01*
X117509574Y-73679430D01*
X117563429Y-73766107D01*
X117619315Y-73850985D01*
X117677360Y-73933787D01*
X117737692Y-74014231D01*
X117800438Y-74092041D01*
X117798210Y-73863325D01*
X117791545Y-73640585D01*
X117780469Y-73423907D01*
X117765009Y-73213376D01*
X117745193Y-73009077D01*
X117721048Y-72811096D01*
X117692600Y-72619517D01*
X117659878Y-72434426D01*
X117622908Y-72255909D01*
X117581718Y-72084050D01*
X117536333Y-71918934D01*
X117486783Y-71760648D01*
X117433093Y-71609276D01*
X117375291Y-71464904D01*
X117313404Y-71327617D01*
X117247459Y-71197499D01*
X117298632Y-71151234D01*
X117353731Y-71106802D01*
X117412466Y-71064362D01*
X117474546Y-71024073D01*
X117539679Y-70986094D01*
X117607576Y-70950584D01*
X117677946Y-70917702D01*
X117750498Y-70887606D01*
X117824941Y-70860456D01*
X117900985Y-70836410D01*
X117978338Y-70815628D01*
X118056712Y-70798268D01*
X118135813Y-70784489D01*
X118215353Y-70774450D01*
X118295040Y-70768310D01*
X118374584Y-70766228D01*
X118437664Y-70767275D01*
X118498968Y-70770388D01*
X118558584Y-70775524D01*
X118616594Y-70782641D01*
X118673085Y-70791695D01*
X118728143Y-70802645D01*
X118781851Y-70815447D01*
X118834296Y-70830059D01*
X118885563Y-70846439D01*
X118935737Y-70864543D01*
X118984903Y-70884329D01*
X119033147Y-70905755D01*
X119080554Y-70928777D01*
X119127209Y-70953354D01*
X119173197Y-70979442D01*
X119218603Y-71006999D01*
X119165794Y-71040965D01*
X119112636Y-71078183D01*
X119059276Y-71118370D01*
X119005862Y-71161243D01*
X118952541Y-71206519D01*
X118899460Y-71253914D01*
X118846767Y-71303147D01*
X118794609Y-71353934D01*
X118743133Y-71405992D01*
X118692486Y-71459039D01*
X118594270Y-71566965D01*
X118501139Y-71675449D01*
X118414271Y-71782228D01*
X118435437Y-71803395D01*
X118547516Y-71697562D01*
X119575791Y-71697562D01*
X119752979Y-72265837D01*
X119848983Y-72560300D01*
X119949515Y-72854453D01*
X120054263Y-73142900D01*
X120162918Y-73420248D01*
X120275170Y-73681100D01*
X120332548Y-73803655D01*
X120390708Y-73920062D01*
X120409229Y-73920062D01*
X120354552Y-73677325D01*
X120299731Y-73447347D01*
X120244872Y-73230360D01*
X120190079Y-73026597D01*
X120135456Y-72836291D01*
X120081109Y-72659674D01*
X120027141Y-72496979D01*
X119973658Y-72348437D01*
X119920764Y-72214283D01*
X119868564Y-72094747D01*
X119817162Y-71990064D01*
X119766663Y-71900465D01*
X119741785Y-71861394D01*
X119717172Y-71826182D01*
X119692837Y-71794858D01*
X119668793Y-71767449D01*
X119645053Y-71743987D01*
X119621631Y-71724499D01*
X119598539Y-71709014D01*
X119575791Y-71697562D01*
X118547516Y-71697562D01*
X118575646Y-71670999D01*
X118713498Y-71548522D01*
X118848993Y-71435772D01*
X118982132Y-71332561D01*
X119112915Y-71238698D01*
X119241341Y-71153993D01*
X119367411Y-71078256D01*
X119491125Y-71011299D01*
X119612482Y-70952929D01*
X119731482Y-70902959D01*
X119848126Y-70861197D01*
X119962414Y-70827455D01*
X120074345Y-70801541D01*
X120183920Y-70783266D01*
X120291138Y-70772440D01*
X120396000Y-70768874D01*
X120522377Y-70774029D01*
X120645015Y-70789249D01*
X120763897Y-70814166D01*
X120879004Y-70848409D01*
X120990319Y-70891612D01*
X121097823Y-70943404D01*
X121201500Y-71003418D01*
X121301330Y-71071285D01*
X121397296Y-71146635D01*
X121489379Y-71229101D01*
X121577563Y-71318314D01*
X121661829Y-71413904D01*
X121818536Y-71622745D01*
X121959356Y-71852673D01*
X122084147Y-72100740D01*
X122192763Y-72363996D01*
X122285063Y-72639492D01*
X122360903Y-72924277D01*
X122420139Y-73215403D01*
X122462628Y-73509921D01*
X122488226Y-73804880D01*
X122496791Y-74097332D01*
X122494379Y-74249640D01*
X122487169Y-74399634D01*
X122475199Y-74546799D01*
X122458509Y-74690619D01*
X122437137Y-74830579D01*
X122411122Y-74966163D01*
X122380502Y-75096856D01*
X122345317Y-75222142D01*
X122305605Y-75341506D01*
X122261404Y-75454433D01*
X122212755Y-75560406D01*
X122159695Y-75658911D01*
X122102263Y-75749432D01*
X122071919Y-75791538D01*
X122040498Y-75831454D01*
X122008002Y-75869116D01*
X121974438Y-75904460D01*
X121939811Y-75937422D01*
X121904124Y-75967936D01*
X122578811Y-75997040D01*
X122615067Y-75766760D01*
X122648099Y-75534433D01*
X122677410Y-75300246D01*
X122702504Y-75064385D01*
X122722885Y-74827035D01*
X122738058Y-74588383D01*
X122747525Y-74348615D01*
X122750791Y-74107916D01*
X122748870Y-73921404D01*
X122742993Y-73735009D01*
X122732984Y-73548846D01*
X122718669Y-73363032D01*
X122699873Y-73177682D01*
X122676423Y-72992915D01*
X122648144Y-72808844D01*
X122614861Y-72625588D01*
X122576400Y-72443262D01*
X122532587Y-72261983D01*
X122483247Y-72081866D01*
X122428206Y-71903028D01*
X122367289Y-71725585D01*
X122300323Y-71549654D01*
X122227131Y-71375351D01*
X122147541Y-71202791D01*
X122198715Y-71156526D01*
X122253814Y-71112094D01*
X122312549Y-71069654D01*
X122374629Y-71029365D01*
X122439762Y-70991386D01*
X122507659Y-70955876D01*
X122578029Y-70922994D01*
X122650581Y-70892898D01*
X122725024Y-70865748D01*
X122801068Y-70841702D01*
X122878422Y-70820920D01*
X122956795Y-70803560D01*
X123035896Y-70789781D01*
X123115436Y-70779742D01*
X123195123Y-70773602D01*
X123274666Y-70771521D01*
X123337746Y-70772568D01*
X123399051Y-70775680D01*
X123458667Y-70780817D01*
X123516677Y-70787933D01*
X123573169Y-70796987D01*
X123628226Y-70807937D01*
X123681935Y-70820739D01*
X123734380Y-70835351D01*
X123785647Y-70851731D01*
X123835821Y-70869835D01*
X123884987Y-70889621D01*
X123933231Y-70911047D01*
X123980637Y-70934069D01*
X124027292Y-70958646D01*
X124073280Y-70984734D01*
X124118687Y-71012291D01*
X124065878Y-71046258D01*
X124012719Y-71083476D01*
X123959359Y-71123663D01*
X123905945Y-71166535D01*
X123852624Y-71211811D01*
X123799544Y-71259207D01*
X123746850Y-71308439D01*
X123694692Y-71359226D01*
X123643216Y-71411285D01*
X123592569Y-71464331D01*
X123494353Y-71572257D01*
X123401221Y-71680742D01*
X123314353Y-71787521D01*
X123335521Y-71808687D01*
X123453204Y-71697562D01*
X124473229Y-71697562D01*
X124650418Y-72265837D01*
X124746422Y-72560300D01*
X124846953Y-72854453D01*
X124951701Y-73142900D01*
X125060356Y-73420248D01*
X125172607Y-73681100D01*
X125229985Y-73803655D01*
X125288145Y-73920062D01*
X125306666Y-73920062D01*
X125251989Y-73677325D01*
X125197169Y-73447347D01*
X125142310Y-73230360D01*
X125087517Y-73026597D01*
X125032895Y-72836291D01*
X124978547Y-72659674D01*
X124924580Y-72496979D01*
X124871097Y-72348437D01*
X124818203Y-72214283D01*
X124766002Y-72094747D01*
X124714600Y-71990064D01*
X124664102Y-71900465D01*
X124639223Y-71861394D01*
X124614610Y-71826182D01*
X124590275Y-71794858D01*
X124566231Y-71767449D01*
X124542492Y-71743987D01*
X124519069Y-71724499D01*
X124495977Y-71709014D01*
X124473229Y-71697562D01*
X123453204Y-71697562D01*
X123475729Y-71676291D01*
X123613581Y-71553814D01*
X123749077Y-71441064D01*
X123882216Y-71337853D01*
X124012999Y-71243990D01*
X124141425Y-71159285D01*
X124267495Y-71083549D01*
X124391209Y-71016591D01*
X124512566Y-70958222D01*
X124631566Y-70908251D01*
X124748210Y-70866490D01*
X124862498Y-70832747D01*
X124974429Y-70806833D01*
X125084004Y-70788558D01*
X125191222Y-70777733D01*
X125296084Y-70774166D01*
X125288143Y-70766229D01*
X125414520Y-70771385D01*
X125537159Y-70786605D01*
X125656041Y-70811521D01*
X125771148Y-70845765D01*
X125882463Y-70888967D01*
X125989967Y-70940759D01*
X126093644Y-71000773D01*
X126193474Y-71068640D01*
X126289440Y-71143990D01*
X126381524Y-71226456D01*
X126469708Y-71315669D01*
X126553974Y-71411260D01*
X126710681Y-71620100D01*
X126851501Y-71850029D01*
X126976291Y-72098096D01*
X127084908Y-72361352D01*
X127177208Y-72636847D01*
X127253047Y-72921633D01*
X127312283Y-73212759D01*
X127354772Y-73507276D01*
X127380371Y-73802236D01*
X127388935Y-74094688D01*
X127387905Y-74195951D01*
X127384819Y-74296246D01*
X127379681Y-74395425D01*
X127372497Y-74493340D01*
X127363273Y-74589845D01*
X127352013Y-74684791D01*
X127338724Y-74778032D01*
X127323410Y-74869421D01*
X127306077Y-74958809D01*
X127286729Y-75046051D01*
X127265374Y-75130998D01*
X127242015Y-75213503D01*
X127216658Y-75293419D01*
X127189308Y-75370599D01*
X127159971Y-75444896D01*
X127128652Y-75516162D01*
X127095357Y-75584249D01*
X127060090Y-75649011D01*
X127022857Y-75710301D01*
X126983664Y-75767970D01*
X126942515Y-75821873D01*
X126899416Y-75871861D01*
X126854373Y-75917787D01*
X126807390Y-75959504D01*
X126758474Y-75996865D01*
X126707628Y-76029722D01*
X126654860Y-76057928D01*
X126600173Y-76081336D01*
X126543574Y-76099799D01*
X126485067Y-76113169D01*
X126424658Y-76121299D01*
X126362353Y-76124042D01*
X126272610Y-76118270D01*
X126184440Y-76101181D01*
X126097819Y-76073119D01*
X126012721Y-76034424D01*
X125929123Y-75985440D01*
X125847001Y-75926507D01*
X125687088Y-75780166D01*
X125532786Y-75598137D01*
X125383902Y-75383157D01*
X125240243Y-75137961D01*
X125101615Y-74865286D01*
X124967824Y-74567869D01*
X124838675Y-74248445D01*
X124713976Y-73909752D01*
X124593533Y-73554524D01*
X124364637Y-72805412D01*
X124150439Y-72023000D01*
X124129271Y-72023000D01*
X124283639Y-72755482D01*
X124371768Y-73137071D01*
X124469260Y-73521203D01*
X124577667Y-73902110D01*
X124636447Y-74089552D01*
X124698538Y-74274025D01*
X124764132Y-74454809D01*
X124833423Y-74631182D01*
X124906606Y-74802423D01*
X124983874Y-74967812D01*
X125000803Y-75096735D01*
X125013640Y-75232726D01*
X125022012Y-75374671D01*
X125025547Y-75521453D01*
X125023872Y-75671955D01*
X125016617Y-75825062D01*
X125003408Y-75979657D01*
X124983874Y-76134625D01*
X125029191Y-76142625D01*
X125072878Y-76151716D01*
X125114946Y-76161856D01*
X125155409Y-76173005D01*
X125194279Y-76185120D01*
X125231568Y-76198161D01*
X125267290Y-76212087D01*
X125301457Y-76226857D01*
X125334081Y-76242428D01*
X125365176Y-76258761D01*
X125394752Y-76275814D01*
X125422825Y-76293545D01*
X125449405Y-76311914D01*
X125474505Y-76330879D01*
X125498138Y-76350400D01*
X125520317Y-76370434D01*
X125541055Y-76390942D01*
X125560363Y-76411881D01*
X125578254Y-76433210D01*
X125594742Y-76454889D01*
X125609838Y-76476876D01*
X125623555Y-76499130D01*
X125635906Y-76521610D01*
X125646904Y-76544274D01*
X125656560Y-76567081D01*
X125664889Y-76589991D01*
X125671901Y-76612962D01*
X125677610Y-76635953D01*
X125682028Y-76658923D01*
X125685169Y-76681829D01*
X125687044Y-76704633D01*
X125687666Y-76727291D01*
X125684708Y-76790368D01*
X125680997Y-76819776D01*
X125675786Y-76847806D01*
X125669065Y-76874489D01*
X125660825Y-76899856D01*
X125651057Y-76923940D01*
X125639752Y-76946772D01*
X125626900Y-76968382D01*
X125612493Y-76988803D01*
X125596521Y-77008067D01*
X125578975Y-77026203D01*
X125559846Y-77043245D01*
X125539124Y-77059224D01*
X125516801Y-77074171D01*
X125492867Y-77088117D01*
X125440129Y-77113134D01*
X125380838Y-77134527D01*
X125314918Y-77152549D01*
X125242298Y-77167450D01*
X125162903Y-77179484D01*
X125076660Y-77188901D01*
X124983495Y-77195955D01*
X124883334Y-77200895D01*
X124488732Y-77213257D01*
X124000617Y-77222393D01*
X123486209Y-77228057D01*
X123012729Y-77230000D01*
X123012729Y-77259104D01*
X124671665Y-77359646D01*
X124633835Y-77425927D01*
X124591893Y-77489674D01*
X124546004Y-77550646D01*
X124496338Y-77608602D01*
X124443059Y-77663303D01*
X124386334Y-77714508D01*
X124326331Y-77761977D01*
X124263215Y-77805469D01*
X124197154Y-77844744D01*
X124128314Y-77879562D01*
X124056861Y-77909683D01*
X123982963Y-77934867D01*
X123906786Y-77954872D01*
X123828497Y-77969459D01*
X123748262Y-77978387D01*
X123666249Y-77981417D01*
X123614672Y-77980537D01*
X123563629Y-77977909D01*
X123513130Y-77973555D01*
X123463181Y-77967495D01*
X123413790Y-77959749D01*
X123364965Y-77950337D01*
X123316713Y-77939280D01*
X123269043Y-77926598D01*
X123221962Y-77912312D01*
X123175477Y-77896441D01*
X123129598Y-77879007D01*
X123084331Y-77860029D01*
X123039683Y-77839528D01*
X122995664Y-77817524D01*
X122952280Y-77794037D01*
X122909540Y-77769089D01*
X122826021Y-77714887D01*
X122745168Y-77655080D01*
X122667043Y-77589832D01*
X122591710Y-77519305D01*
X122519228Y-77443663D01*
X122449661Y-77363067D01*
X122383071Y-77277681D01*
X122319519Y-77187667D01*
X122319550Y-77186915D01*
X122319638Y-77186148D01*
X122319781Y-77185367D01*
X122319974Y-77184572D01*
X122320496Y-77182941D01*
X122321173Y-77181259D01*
X122321974Y-77179531D01*
X122322868Y-77177761D01*
X122324811Y-77174107D01*
X122326754Y-77170329D01*
X122327648Y-77168403D01*
X122328449Y-77166458D01*
X122329127Y-77164498D01*
X122329648Y-77162526D01*
X122329842Y-77161536D01*
X122329984Y-77160546D01*
X122330073Y-77159554D01*
X122330103Y-77158562D01*
X122286853Y-77146690D01*
X122245390Y-77133910D01*
X122205687Y-77120241D01*
X122167715Y-77105707D01*
X122131450Y-77090328D01*
X122096862Y-77074125D01*
X122063925Y-77057120D01*
X122032613Y-77039334D01*
X122002897Y-77020788D01*
X121974751Y-77001504D01*
X121948147Y-76981503D01*
X121923059Y-76960806D01*
X121899459Y-76939435D01*
X121877320Y-76917411D01*
X121856615Y-76894755D01*
X121837317Y-76871488D01*
X121819399Y-76847633D01*
X121802834Y-76823210D01*
X121787593Y-76798240D01*
X121773652Y-76772745D01*
X121760981Y-76746746D01*
X121749555Y-76720265D01*
X121739346Y-76693323D01*
X121730326Y-76665940D01*
X121715748Y-76609941D01*
X121705604Y-76552438D01*
X121699677Y-76493602D01*
X121697749Y-76433603D01*
X121698392Y-76405363D01*
X121700282Y-76377219D01*
X121703365Y-76349208D01*
X121707589Y-76321362D01*
X121712897Y-76293719D01*
X121719237Y-76266311D01*
X121726553Y-76239176D01*
X121734791Y-76212346D01*
X121743898Y-76185857D01*
X121753819Y-76159744D01*
X121764499Y-76134042D01*
X121775885Y-76108786D01*
X121787921Y-76084011D01*
X121800555Y-76059751D01*
X121813731Y-76036041D01*
X121827396Y-76012916D01*
X121806901Y-76025471D01*
X121786101Y-76037328D01*
X121764998Y-76048472D01*
X121743597Y-76058887D01*
X121721901Y-76068559D01*
X121699915Y-76077470D01*
X121677642Y-76085607D01*
X121655086Y-76092953D01*
X121632251Y-76099492D01*
X121609140Y-76105210D01*
X121585759Y-76110091D01*
X121562110Y-76114119D01*
X121538197Y-76117279D01*
X121514025Y-76119556D01*
X121489597Y-76120933D01*
X121464917Y-76121395D01*
X121375174Y-76115623D01*
X121287004Y-76098535D01*
X121200382Y-76070473D01*
X121115284Y-76031778D01*
X121031686Y-75982793D01*
X120949564Y-75923861D01*
X120789650Y-75777520D01*
X120635348Y-75595491D01*
X120486464Y-75380510D01*
X120342805Y-75135315D01*
X120204177Y-74862640D01*
X120070385Y-74565223D01*
X119941237Y-74245799D01*
X119816538Y-73907106D01*
X119696094Y-73551878D01*
X119467199Y-72802766D01*
X119253000Y-72020354D01*
X119231833Y-72020354D01*
X119305384Y-72373888D01*
X119383679Y-72731794D01*
X119467492Y-73090754D01*
X119557601Y-73447450D01*
X119654778Y-73798566D01*
X119759800Y-74140782D01*
X119873442Y-74470783D01*
X119933737Y-74630165D01*
X119996478Y-74785249D01*
X119973463Y-74909260D01*
X119945800Y-75032573D01*
X119913059Y-75154180D01*
X119874812Y-75273075D01*
X119830627Y-75388249D01*
X119780074Y-75498694D01*
X119752275Y-75551829D01*
X119722722Y-75603404D01*
X119691363Y-75653292D01*
X119658143Y-75701369D01*
X119623008Y-75747508D01*
X119585905Y-75791583D01*
X119546780Y-75833469D01*
X119505579Y-75873038D01*
X119462248Y-75910166D01*
X119416733Y-75944727D01*
X119368982Y-75976593D01*
X119318939Y-76005640D01*
X119266551Y-76031742D01*
X119211765Y-76054771D01*
X119154527Y-76074604D01*
X119094782Y-76091113D01*
X119032477Y-76104172D01*
X118967559Y-76113657D01*
X118899973Y-76119440D01*
X118829666Y-76121395D01*
X118697958Y-76114528D01*
X118570708Y-76094425D01*
X118447896Y-76061833D01*
X118329500Y-76017500D01*
X118215500Y-75962173D01*
X118105873Y-75896601D01*
X118000599Y-75821530D01*
X117899656Y-75737708D01*
X117803022Y-75645883D01*
X117710677Y-75546802D01*
X117622600Y-75441212D01*
X117538768Y-75329862D01*
X117383757Y-75092870D01*
X117245473Y-74841804D01*
X117123747Y-74582646D01*
X117018407Y-74321376D01*
X116929283Y-74063974D01*
X116856205Y-73816420D01*
X116799002Y-73584694D01*
X116757503Y-73374778D01*
X116731538Y-73192650D01*
X116720937Y-73044291D01*
X116698332Y-73060347D01*
X116675162Y-73075752D01*
X116651418Y-73090475D01*
X116627092Y-73104484D01*
X116602178Y-73117749D01*
X116576666Y-73130240D01*
X116550551Y-73141924D01*
X116523822Y-73152771D01*
X116496474Y-73162749D01*
X116468498Y-73171829D01*
X116439886Y-73179978D01*
X116410630Y-73187166D01*
X116380724Y-73193363D01*
X116350158Y-73198535D01*
X116318926Y-73202654D01*
X116287020Y-73205687D01*
X115159895Y-71679042D01*
X115138728Y-71689625D01*
X115383551Y-72079059D01*
X115974150Y-73064797D01*
X116331679Y-73695704D01*
X116694726Y-74372996D01*
X117036317Y-75062442D01*
X117190637Y-75401026D01*
X117329478Y-75729812D01*
X117278136Y-75773888D01*
X117225329Y-75815766D01*
X117171080Y-75855357D01*
X117115413Y-75892572D01*
X117058351Y-75927323D01*
X116999916Y-75959519D01*
X116940133Y-75989072D01*
X116879024Y-76015893D01*
X116816614Y-76039892D01*
X116752924Y-76060981D01*
X116687978Y-76079069D01*
X116621800Y-76094069D01*
X116554412Y-76105891D01*
X116485839Y-76114445D01*
X116416103Y-76119643D01*
X116345228Y-76121396D01*
X116289714Y-76120569D01*
X116232387Y-76118006D01*
X116173354Y-76113582D01*
X116112725Y-76107174D01*
X116050608Y-76098658D01*
X115987110Y-76087909D01*
X115922342Y-76074804D01*
X115856410Y-76059219D01*
X115789425Y-76041028D01*
X115721493Y-76020110D01*
X115652725Y-75996339D01*
X115583228Y-75969591D01*
X115513111Y-75939743D01*
X115442482Y-75906670D01*
X115371450Y-75870248D01*
X115300124Y-75830354D01*
X115347225Y-75799043D01*
X115394164Y-75764787D01*
X115440778Y-75727802D01*
X115486903Y-75688306D01*
X115532377Y-75646515D01*
X115577037Y-75602647D01*
X115620720Y-75556918D01*
X115663264Y-75509546D01*
X115704506Y-75460748D01*
X115744283Y-75410741D01*
X115782431Y-75359742D01*
X115818790Y-75307967D01*
X115853195Y-75255634D01*
X115885483Y-75202961D01*
X115915493Y-75150163D01*
X115943061Y-75097458D01*
X115932477Y-75086874D01*
X115838380Y-75194417D01*
X115737063Y-75298448D01*
X115629118Y-75398495D01*
X115515138Y-75494085D01*
X115395717Y-75584745D01*
X115271448Y-75670002D01*
X115142923Y-75749383D01*
X115010735Y-75822416D01*
X114875478Y-75888628D01*
X114737744Y-75947545D01*
X114598127Y-75998696D01*
X114457219Y-76041607D01*
X114315613Y-76075805D01*
X114173903Y-76100818D01*
X114032681Y-76116172D01*
X113892540Y-76121395D01*
X113818646Y-76119692D01*
X113746788Y-76114650D01*
X113676968Y-76106372D01*
X113609193Y-76094963D01*
X113543466Y-76080524D01*
X113479792Y-76063160D01*
X113418175Y-76042974D01*
X113358620Y-76020068D01*
X113301130Y-75994546D01*
X113245710Y-75966511D01*
X113192364Y-75936067D01*
X113141098Y-75903315D01*
X113091915Y-75868361D01*
X113044819Y-75831306D01*
X112999815Y-75792255D01*
X112956908Y-75751309D01*
X112916101Y-75708573D01*
X112877399Y-75664150D01*
X112840807Y-75618142D01*
X112806328Y-75570653D01*
X112773967Y-75521787D01*
X112743729Y-75471646D01*
X112689637Y-75367953D01*
X112644088Y-75260399D01*
X112607115Y-75149811D01*
X112578755Y-75037014D01*
X112559041Y-74922833D01*
X112518757Y-75061431D01*
X112473284Y-75192351D01*
X112422578Y-75315419D01*
X112366598Y-75430461D01*
X112336616Y-75484917D01*
X112305300Y-75537301D01*
X112272643Y-75587591D01*
X112238642Y-75635766D01*
X112203289Y-75681803D01*
X112166581Y-75725681D01*
X112128511Y-75767378D01*
X112089074Y-75806872D01*
X112048266Y-75844141D01*
X112006080Y-75879164D01*
X111962512Y-75911918D01*
X111917555Y-75942383D01*
X111871205Y-75970536D01*
X111823457Y-75996354D01*
X111774304Y-76019818D01*
X111723743Y-76040904D01*
X111671766Y-76059591D01*
X111618370Y-76075857D01*
X111563548Y-76089681D01*
X111507296Y-76101040D01*
X111449608Y-76109913D01*
X111390478Y-76116277D01*
X111329902Y-76120112D01*
X111267874Y-76121395D01*
X111213166Y-76119290D01*
X111158222Y-76113020D01*
X111103101Y-76102653D01*
X111047862Y-76088255D01*
X110992562Y-76069894D01*
X110937261Y-76047638D01*
X110826888Y-75991708D01*
X110717213Y-75921004D01*
X110608705Y-75836064D01*
X110501832Y-75737427D01*
X110397064Y-75625632D01*
X110294870Y-75501218D01*
X110195717Y-75364723D01*
X110100077Y-75216686D01*
X110008416Y-75057646D01*
X109921205Y-74888142D01*
X109838912Y-74708711D01*
X109762007Y-74519894D01*
X109690957Y-74322229D01*
X109669791Y-74322229D01*
X109698947Y-74456970D01*
X109736350Y-74608888D01*
X109784295Y-74774573D01*
X109812938Y-74861512D01*
X109845077Y-74950614D01*
X109880999Y-75041452D01*
X109920990Y-75133601D01*
X109965337Y-75226632D01*
X110014328Y-75320121D01*
X110068248Y-75413642D01*
X110127386Y-75506766D01*
X110192026Y-75599070D01*
X110262457Y-75690125D01*
X110233792Y-75848534D01*
X110199826Y-76013826D01*
X110161208Y-76185443D01*
X110118590Y-76362828D01*
X110023960Y-76732666D01*
X109921145Y-77118875D01*
X109942312Y-77118875D01*
X110003099Y-76986609D01*
X110063978Y-76846064D01*
X110124300Y-76697645D01*
X110183413Y-76541752D01*
X110240665Y-76378791D01*
X110295406Y-76209163D01*
X110346984Y-76033272D01*
X110394749Y-75851521D01*
X110437802Y-75896042D01*
X110483560Y-75939179D01*
X110531938Y-75980728D01*
X110582851Y-76020482D01*
X110636214Y-76058236D01*
X110691940Y-76093785D01*
X110749946Y-76126923D01*
X110810145Y-76157445D01*
X110872452Y-76185146D01*
X110936783Y-76209819D01*
X111003052Y-76231260D01*
X111071173Y-76249264D01*
X111141061Y-76263624D01*
X111212632Y-76274136D01*
X111285799Y-76280593D01*
X111360478Y-76282791D01*
X111396528Y-76282626D01*
X111413684Y-76282233D01*
X111430593Y-76281468D01*
X111447501Y-76280207D01*
X111464658Y-76278326D01*
X111482311Y-76275701D01*
X111491401Y-76274070D01*
X111500707Y-76272207D01*
X111547716Y-76316170D01*
X111591524Y-76360734D01*
X111632153Y-76405879D01*
X111669627Y-76451586D01*
X111703970Y-76497836D01*
X111735205Y-76544609D01*
X111763354Y-76591886D01*
X111788442Y-76639647D01*
X111810491Y-76687874D01*
X111829525Y-76736546D01*
X111845566Y-76785644D01*
X111858639Y-76835149D01*
X111868766Y-76885042D01*
X111875971Y-76935304D01*
X111880277Y-76985914D01*
X111881707Y-77036853D01*
X111879372Y-77099915D01*
X111872417Y-77160628D01*
X111860920Y-77219014D01*
X111844960Y-77275097D01*
X111824615Y-77328899D01*
X111799963Y-77380443D01*
X111771080Y-77429751D01*
X111738047Y-77476847D01*
X111700940Y-77521753D01*
X111659838Y-77564492D01*
X111614818Y-77605087D01*
X111565959Y-77643561D01*
X111457035Y-77714234D01*
X111333689Y-77776695D01*
X111196546Y-77831125D01*
X111046229Y-77877707D01*
X110883362Y-77916622D01*
X110708570Y-77948054D01*
X110522476Y-77972183D01*
X110325704Y-77989193D01*
X110118879Y-77999266D01*
X109902624Y-78002583D01*
X109749998Y-78001000D01*
X109605032Y-77996278D01*
X109467541Y-77988454D01*
X109337341Y-77977566D01*
X109214247Y-77963654D01*
X109098075Y-77946755D01*
X108988639Y-77926907D01*
X108885756Y-77904149D01*
X108789241Y-77878520D01*
X108698909Y-77850057D01*
X108614576Y-77818798D01*
X108536057Y-77784782D01*
X108463167Y-77748048D01*
X108395722Y-77708632D01*
X108333538Y-77666575D01*
X108276429Y-77621913D01*
X108224212Y-77574686D01*
X108176701Y-77524932D01*
X108133712Y-77472688D01*
X108095061Y-77417993D01*
X108060562Y-77360886D01*
X108030032Y-77301404D01*
X108003285Y-77239586D01*
X107980137Y-77175470D01*
X107960404Y-77109095D01*
X107943901Y-77040499D01*
X107930443Y-76969719D01*
X107919846Y-76896795D01*
X107906496Y-76744665D01*
X107902375Y-76584416D01*
X107914085Y-76362838D01*
X107944956Y-76085759D01*
X108038635Y-75393129D01*
X108088668Y-74991593D01*
X108132314Y-74562586D01*
X108163186Y-74113114D01*
X108171835Y-73882895D01*
X108174895Y-73650187D01*
X108168823Y-73332206D01*
X108160821Y-73172547D01*
X108149140Y-73012830D01*
X108133506Y-72853346D01*
X108113643Y-72694384D01*
X108089277Y-72536237D01*
X108060132Y-72379194D01*
X108025934Y-72223547D01*
X107986406Y-72069585D01*
X107941273Y-71917600D01*
X107890262Y-71767883D01*
X107833095Y-71620723D01*
X107769499Y-71476412D01*
X107699198Y-71335241D01*
X107621916Y-71197499D01*
X107673097Y-71151234D01*
X107728246Y-71106802D01*
X107787115Y-71064362D01*
X107849458Y-71024073D01*
X107915025Y-70986094D01*
X107983569Y-70950584D01*
X108054841Y-70917702D01*
X108128593Y-70887606D01*
X108204578Y-70860456D01*
X108282548Y-70836410D01*
X108362253Y-70815628D01*
X108443447Y-70798268D01*
X108525882Y-70784489D01*
X108609308Y-70774450D01*
X108693479Y-70768310D01*
X108778145Y-70766228D01*
X108917804Y-70771646D01*
X109050162Y-70787646D01*
X109175409Y-70813850D01*
X109293731Y-70849882D01*
X109405318Y-70895363D01*
X109510356Y-70949915D01*
X109609035Y-71013160D01*
X109701541Y-71084720D01*
X109788063Y-71164219D01*
X109868789Y-71251276D01*
X109943907Y-71345516D01*
X110013605Y-71446559D01*
X110078070Y-71554028D01*
X110137491Y-71667545D01*
X110241953Y-71911213D01*
X110328493Y-72174538D01*
X110398615Y-72454497D01*
X110453823Y-72748069D01*
X110495622Y-73052228D01*
X110525514Y-73363953D01*
X110545004Y-73680221D01*
X110555595Y-73998008D01*
X110558791Y-74314291D01*
X110659333Y-74443936D01*
X110653876Y-74021223D01*
X110634528Y-73574946D01*
X110618250Y-73346846D01*
X110596825Y-73117506D01*
X110569695Y-72888476D01*
X110536302Y-72661306D01*
X110496087Y-72437547D01*
X110448493Y-72218749D01*
X110392961Y-72006463D01*
X110328934Y-71802237D01*
X110255854Y-71607624D01*
X110173161Y-71424173D01*
X110080298Y-71253434D01*
X109976708Y-71096957D01*
X110023353Y-71061850D01*
X110072924Y-71028052D01*
X110125309Y-70995696D01*
X110180396Y-70964914D01*
X110238071Y-70935837D01*
X110298223Y-70908597D01*
X110360739Y-70883326D01*
X110425507Y-70860155D01*
X110492415Y-70839217D01*
X110561349Y-70820644D01*
X110632198Y-70804566D01*
X110704849Y-70791116D01*
X110779190Y-70780425D01*
X110855109Y-70772626D01*
X110932492Y-70767850D01*
X111011229Y-70766228D01*
X111125744Y-70769935D01*
X111235670Y-70780934D01*
X111341071Y-70799045D01*
X111442009Y-70824090D01*
X111538545Y-70855889D01*
X111630743Y-70894261D01*
X111718665Y-70939027D01*
X111802374Y-70990008D01*
X111881932Y-71047023D01*
X111957401Y-71109893D01*
X112028845Y-71178438D01*
X112096325Y-71252478D01*
X112159904Y-71331833D01*
X112219645Y-71416325D01*
X112327861Y-71599996D01*
X112421474Y-71802055D01*
X112500983Y-72021061D01*
X112566887Y-72255579D01*
X112619688Y-72504169D01*
X112659886Y-72765394D01*
X112687979Y-73037816D01*
X112704468Y-73319997D01*
X112709853Y-73610499D01*
X112708820Y-73743948D01*
X112705554Y-73874421D01*
X112703006Y-73938541D01*
X112699807Y-74001917D01*
X112695927Y-74064549D01*
X112691333Y-74126437D01*
X112719364Y-74076137D01*
X112749887Y-74027523D01*
X112782914Y-73980731D01*
X112818457Y-73935895D01*
X112856526Y-73893153D01*
X112897134Y-73852640D01*
X112940292Y-73814490D01*
X112986012Y-73778841D01*
X113034306Y-73745826D01*
X113085185Y-73715583D01*
X113138660Y-73688247D01*
X113194744Y-73663954D01*
X113253448Y-73642838D01*
X113314783Y-73625036D01*
X113378762Y-73610684D01*
X113445395Y-73599916D01*
X113552179Y-73776298D01*
X113674591Y-73964710D01*
X113810396Y-74163044D01*
X113957364Y-74369192D01*
X114113261Y-74581045D01*
X114275856Y-74796494D01*
X114612208Y-75229749D01*
X114633375Y-75208583D01*
X114332618Y-74737211D01*
X114017366Y-74230503D01*
X113646148Y-73616452D01*
X113259427Y-72950064D01*
X112897667Y-72286342D01*
X112738791Y-71972670D01*
X112601328Y-71680291D01*
X112490337Y-71416081D01*
X112410875Y-71186916D01*
X112520067Y-71098839D01*
X112575179Y-71057459D01*
X112631058Y-71018079D01*
X112688022Y-70980869D01*
X112746389Y-70946000D01*
X112806477Y-70913643D01*
X112868604Y-70883968D01*
X112933087Y-70857145D01*
X113000244Y-70833346D01*
X113070394Y-70812740D01*
X113143853Y-70795498D01*
X113220940Y-70781791D01*
X113301973Y-70771789D01*
X113387269Y-70765662D01*
X113477146Y-70763582D01*
X113532593Y-70764438D01*
X113586111Y-70767081D01*
X113638124Y-70771623D01*
X113689060Y-70778176D01*
X113739345Y-70786853D01*
X113789406Y-70797766D01*
X113839668Y-70811028D01*
X113890557Y-70826752D01*
X113942501Y-70845048D01*
X113995926Y-70866031D01*
X114051257Y-70889812D01*
X114108921Y-70916503D01*
X114169345Y-70946218D01*
X114232955Y-70979068D01*
X114371437Y-71054624D01*
X114321291Y-71094307D01*
X114273004Y-71134950D01*
X114226516Y-71176524D01*
X114181764Y-71218996D01*
X114138687Y-71262337D01*
X114097222Y-71306516D01*
X114057307Y-71351500D01*
X114018880Y-71397259D01*
X113981880Y-71443763D01*
X113946244Y-71490980D01*
X113911910Y-71538879D01*
X113878816Y-71587429D01*
X113846901Y-71636599D01*
X113816102Y-71686358D01*
X113786357Y-71736675D01*
X113757604Y-71787520D01*
X113768188Y-71798103D01*
X113860923Y-71690561D01*
X113957422Y-71586530D01*
X114057478Y-71486483D01*
X114160887Y-71390893D01*
X114267443Y-71300233D01*
X114376941Y-71214976D01*
X114489175Y-71135595D01*
X114603940Y-71062562D01*
X114721031Y-70996350D01*
X114840241Y-70937432D01*
X114961366Y-70886282D01*
X115084200Y-70843371D01*
X115208538Y-70809173D01*
X115334175Y-70784160D01*
X115460904Y-70768806D01*
X115588521Y-70763582D01*
X115685812Y-70765705D01*
G37*
G36*
X94925325Y-74568129D02*
G01*
X94909435Y-74547361D01*
X94895161Y-74525481D01*
X94882461Y-74502569D01*
X94871292Y-74478708D01*
X94860709Y-74478708D01*
X94860709Y-74521042D01*
X94858809Y-74537560D01*
X94856058Y-74553350D01*
X94852407Y-74568364D01*
X94847810Y-74582557D01*
X94845143Y-74589331D01*
X94842221Y-74595882D01*
X94839040Y-74602204D01*
X94835594Y-74608292D01*
X94831876Y-74614140D01*
X94827881Y-74619741D01*
X94823603Y-74625090D01*
X94819037Y-74630182D01*
X94814175Y-74635010D01*
X94809014Y-74639569D01*
X94803546Y-74643853D01*
X94797767Y-74647855D01*
X94791669Y-74651571D01*
X94785248Y-74654995D01*
X94778497Y-74658119D01*
X94771412Y-74660940D01*
X94763985Y-74663450D01*
X94756211Y-74665645D01*
X94748085Y-74667518D01*
X94739600Y-74669064D01*
X94730750Y-74670276D01*
X94721531Y-74671149D01*
X94711936Y-74671677D01*
X94701958Y-74671854D01*
X94551146Y-74671854D01*
X94551146Y-74555437D01*
X94733709Y-74555437D01*
X94733709Y-74319958D01*
X94871292Y-74319958D01*
X94871761Y-74335165D01*
X94873155Y-74350022D01*
X94875454Y-74364521D01*
X94878635Y-74378652D01*
X94882679Y-74392408D01*
X94887564Y-74405778D01*
X94893270Y-74418756D01*
X94899776Y-74431331D01*
X94907061Y-74443496D01*
X94915104Y-74455240D01*
X94923884Y-74466557D01*
X94933381Y-74477437D01*
X94943574Y-74487871D01*
X94954441Y-74497850D01*
X94965963Y-74507367D01*
X94978117Y-74516411D01*
X94990885Y-74524975D01*
X95004243Y-74533050D01*
X95018172Y-74540626D01*
X95032652Y-74547696D01*
X95047660Y-74554250D01*
X95063176Y-74560281D01*
X95079180Y-74565778D01*
X95095650Y-74570733D01*
X95112566Y-74575139D01*
X95129907Y-74578985D01*
X95147652Y-74582263D01*
X95165780Y-74584965D01*
X95184271Y-74587082D01*
X95203103Y-74588604D01*
X95222256Y-74589524D01*
X95240033Y-74589806D01*
X95271574Y-74588937D01*
X95302578Y-74586262D01*
X95331993Y-74581828D01*
X95359738Y-74575653D01*
X95385730Y-74567758D01*
X95409890Y-74558161D01*
X95421256Y-74552730D01*
X95432134Y-74546882D01*
X95442513Y-74540617D01*
X95452383Y-74533940D01*
X95461734Y-74526852D01*
X95470554Y-74519355D01*
X95478836Y-74511452D01*
X95486567Y-74503146D01*
X95493738Y-74494439D01*
X95500339Y-74485332D01*
X95506360Y-74475830D01*
X95511790Y-74465934D01*
X95516620Y-74455646D01*
X95520838Y-74444969D01*
X95524436Y-74433906D01*
X95527402Y-74422458D01*
X95529726Y-74410629D01*
X95531400Y-74398420D01*
X95532411Y-74385835D01*
X95532750Y-74372875D01*
X95532750Y-74312021D01*
X95532431Y-74299759D01*
X95531470Y-74287783D01*
X95529859Y-74276100D01*
X95527593Y-74264716D01*
X95524664Y-74253638D01*
X95521065Y-74242874D01*
X95516790Y-74232429D01*
X95511832Y-74222310D01*
X95506184Y-74212525D01*
X95499839Y-74203080D01*
X95492791Y-74193982D01*
X95485032Y-74185238D01*
X95476557Y-74176854D01*
X95467358Y-74168837D01*
X95457428Y-74161194D01*
X95446761Y-74153932D01*
X95435349Y-74147058D01*
X95423187Y-74140578D01*
X95410267Y-74134499D01*
X95396583Y-74128828D01*
X95382127Y-74123571D01*
X95366893Y-74118737D01*
X95350875Y-74114330D01*
X95334065Y-74110358D01*
X95316456Y-74106829D01*
X95298042Y-74103748D01*
X95278817Y-74101122D01*
X95258772Y-74098959D01*
X95237902Y-74097264D01*
X95216200Y-74096045D01*
X95193658Y-74095309D01*
X95170271Y-74095062D01*
X94871292Y-74095062D01*
X94871292Y-74319958D01*
X94733709Y-74319958D01*
X94733709Y-73827833D01*
X94734210Y-73804077D01*
X94735707Y-73780934D01*
X94738187Y-73758414D01*
X94741636Y-73736526D01*
X94746042Y-73715280D01*
X94751394Y-73694685D01*
X94757677Y-73674749D01*
X94764880Y-73655482D01*
X94772990Y-73636894D01*
X94781994Y-73618993D01*
X94791880Y-73601788D01*
X94802635Y-73585290D01*
X94814246Y-73569507D01*
X94826702Y-73554448D01*
X94839989Y-73540122D01*
X94854094Y-73526539D01*
X94869006Y-73513708D01*
X94884711Y-73501638D01*
X94901197Y-73490339D01*
X94918452Y-73479818D01*
X94936462Y-73470087D01*
X94955216Y-73461153D01*
X94974700Y-73453027D01*
X94994902Y-73445717D01*
X95015810Y-73439233D01*
X95037410Y-73433583D01*
X95059690Y-73428777D01*
X95082638Y-73424824D01*
X95106241Y-73421734D01*
X95130487Y-73419515D01*
X95155362Y-73418177D01*
X95180855Y-73417729D01*
X95224480Y-73419011D01*
X95266059Y-73422778D01*
X95305591Y-73428909D01*
X95343077Y-73437284D01*
X95378517Y-73447782D01*
X95411910Y-73460285D01*
X95443257Y-73474671D01*
X95472558Y-73490820D01*
X95499812Y-73508613D01*
X95525020Y-73527929D01*
X95548181Y-73548648D01*
X95569296Y-73570650D01*
X95588364Y-73593815D01*
X95605387Y-73618022D01*
X95620362Y-73643151D01*
X95633292Y-73669083D01*
X95540688Y-73735229D01*
X95534339Y-73723005D01*
X95527696Y-73711140D01*
X95520757Y-73699635D01*
X95513521Y-73688493D01*
X95505990Y-73677715D01*
X95498161Y-73667303D01*
X95490035Y-73657259D01*
X95481611Y-73647586D01*
X95472889Y-73638284D01*
X95463867Y-73629357D01*
X95454547Y-73620806D01*
X95444926Y-73612632D01*
X95435005Y-73604838D01*
X95424783Y-73597426D01*
X95414260Y-73590398D01*
X95403435Y-73583755D01*
X95392308Y-73577500D01*
X95380878Y-73571635D01*
X95369144Y-73566160D01*
X95357107Y-73561080D01*
X95344766Y-73556394D01*
X95332120Y-73552106D01*
X95319168Y-73548217D01*
X95305911Y-73544729D01*
X95292348Y-73541644D01*
X95278478Y-73538965D01*
X95264301Y-73536692D01*
X95249817Y-73534828D01*
X95235024Y-73533375D01*
X95219922Y-73532335D01*
X95204512Y-73531709D01*
X95188792Y-73531500D01*
X95152059Y-73532709D01*
X95134430Y-73534219D01*
X95117303Y-73536332D01*
X95100683Y-73539048D01*
X95084577Y-73542366D01*
X95068993Y-73546285D01*
X95053937Y-73550806D01*
X95039416Y-73555928D01*
X95025436Y-73561650D01*
X95012005Y-73567972D01*
X94999129Y-73574893D01*
X94986815Y-73582412D01*
X94975070Y-73590531D01*
X94963900Y-73599247D01*
X94953313Y-73608560D01*
X94943314Y-73618470D01*
X94933912Y-73628977D01*
X94925112Y-73640079D01*
X94916922Y-73651777D01*
X94909348Y-73664070D01*
X94902397Y-73676957D01*
X94896076Y-73690438D01*
X94890391Y-73704513D01*
X94885350Y-73719180D01*
X94880959Y-73734440D01*
X94877225Y-73750293D01*
X94874155Y-73766736D01*
X94871755Y-73783771D01*
X94870032Y-73801396D01*
X94868994Y-73819612D01*
X94868646Y-73838417D01*
X94868646Y-73989229D01*
X95167625Y-73989229D01*
X95233907Y-73990797D01*
X95294930Y-73995451D01*
X95350829Y-74003112D01*
X95401740Y-74013703D01*
X95447799Y-74027147D01*
X95469051Y-74034914D01*
X95489140Y-74043365D01*
X95508085Y-74052491D01*
X95525901Y-74062282D01*
X95542606Y-74072727D01*
X95558216Y-74083818D01*
X95572749Y-74095544D01*
X95586222Y-74107896D01*
X95598651Y-74120865D01*
X95610053Y-74134440D01*
X95620446Y-74148612D01*
X95629846Y-74163371D01*
X95638270Y-74178708D01*
X95645735Y-74194612D01*
X95652259Y-74211074D01*
X95657858Y-74228085D01*
X95666349Y-74263714D01*
X95671344Y-74301419D01*
X95672979Y-74341125D01*
X95672524Y-74361944D01*
X95671163Y-74382228D01*
X95668907Y-74401968D01*
X95665765Y-74421156D01*
X95661748Y-74439785D01*
X95656864Y-74457845D01*
X95651124Y-74475328D01*
X95644537Y-74492227D01*
X95637112Y-74508533D01*
X95628861Y-74524237D01*
X95619791Y-74539332D01*
X95609913Y-74553810D01*
X95599237Y-74567661D01*
X95587773Y-74580878D01*
X95575529Y-74593453D01*
X95562516Y-74605378D01*
X95548743Y-74616643D01*
X95534220Y-74627241D01*
X95518957Y-74637164D01*
X95502964Y-74646403D01*
X95486249Y-74654951D01*
X95468824Y-74662798D01*
X95450697Y-74669938D01*
X95431878Y-74676360D01*
X95412377Y-74682058D01*
X95392203Y-74687023D01*
X95371367Y-74691247D01*
X95349878Y-74694721D01*
X95327745Y-74697437D01*
X95304978Y-74699388D01*
X95281588Y-74700564D01*
X95257583Y-74700958D01*
X95218974Y-74699887D01*
X95182492Y-74696726D01*
X95148096Y-74691558D01*
X95115742Y-74684463D01*
X95085388Y-74675524D01*
X95056991Y-74664821D01*
X95030509Y-74652436D01*
X95005899Y-74638450D01*
X94983118Y-74622946D01*
X94962123Y-74606003D01*
X94945114Y-74589833D01*
X95239063Y-74589833D01*
X95241709Y-74589833D01*
X95240033Y-74589806D01*
X95239063Y-74589833D01*
X94945114Y-74589833D01*
X94942873Y-74587704D01*
X94925325Y-74568129D01*
G37*
D11*
X141107142Y-129378380D02*
X141107142Y-128711714D01*
X141107142Y-128902190D02*
X141059523Y-128806952D01*
X141011904Y-128759333D01*
X140916666Y-128711714D01*
X140821428Y-128711714D01*
X140107142Y-129330761D02*
X140202380Y-129378380D01*
X140392857Y-129378380D01*
X140488095Y-129330761D01*
X140535714Y-129235523D01*
X140535714Y-128854571D01*
X140488095Y-128759333D01*
X140392857Y-128711714D01*
X140202380Y-128711714D01*
X140107142Y-128759333D01*
X140059523Y-128854571D01*
X140059523Y-128949809D01*
X140535714Y-129045047D01*
X139726190Y-128711714D02*
X139488095Y-129378380D01*
X139250000Y-128711714D01*
X138916666Y-128473619D02*
X138869047Y-128426000D01*
X138773809Y-128378380D01*
X138535714Y-128378380D01*
X138440476Y-128426000D01*
X138392857Y-128473619D01*
X138345238Y-128568857D01*
X138345238Y-128664095D01*
X138392857Y-128806952D01*
X138964285Y-129378380D01*
X138345238Y-129378380D01*
D12*
X135255000Y-84137500D03*
X125095000Y-84137500D03*
D13*
X130175000Y-84137500D03*
D14*
X126365000Y-81597500D03*
X132715000Y-79057500D03*
D13*
X220662500Y-122237500D03*
D12*
X225742500Y-122237500D03*
X215582500Y-122237500D03*
D14*
X216852500Y-119697500D03*
X223202500Y-117157500D03*
D12*
X177482500Y-65087500D03*
X187642500Y-65087500D03*
D13*
X182562500Y-65087500D03*
D14*
X178752500Y-62547500D03*
X185102500Y-60007500D03*
D12*
X144780000Y-122237500D03*
D13*
X92075000Y-113982500D03*
X139700000Y-122237500D03*
D15*
X187325000Y-129222500D03*
D13*
X187325000Y-113982500D03*
D12*
X134620000Y-122237500D03*
D15*
X92075000Y-129222500D03*
D14*
X135890000Y-119697500D03*
X142240000Y-117157500D03*
D12*
X168592500Y-65087500D03*
X158432500Y-65087500D03*
D13*
X163512500Y-65087500D03*
D14*
X159702500Y-62547500D03*
X166052500Y-60007500D03*
D12*
X161448750Y-122237500D03*
X151288750Y-122237500D03*
D13*
X156368750Y-122237500D03*
D14*
X152558750Y-119697500D03*
X158908750Y-117157500D03*
D12*
X144780000Y-103187500D03*
D13*
X139700000Y-103187500D03*
D12*
X134620000Y-103187500D03*
D14*
X135890000Y-100647500D03*
X142240000Y-98107500D03*
D12*
X222726250Y-84137500D03*
X232886250Y-84137500D03*
D13*
X227806250Y-84137500D03*
D14*
X223996250Y-81597500D03*
X230346250Y-79057500D03*
D12*
X53657500Y-122237500D03*
D13*
X58737500Y-122237500D03*
D12*
X63817500Y-122237500D03*
D14*
X54927500Y-119697500D03*
X61277500Y-117157500D03*
D12*
X63182500Y-65087500D03*
X73342500Y-65087500D03*
D13*
X68262500Y-65087500D03*
D14*
X64452500Y-62547500D03*
X70802500Y-60007500D03*
D12*
X54292500Y-65087500D03*
D13*
X49212500Y-65087500D03*
D12*
X44132500Y-65087500D03*
D14*
X45402500Y-62547500D03*
X51752500Y-60007500D03*
D12*
X172720000Y-103187500D03*
X182880000Y-103187500D03*
D13*
X177800000Y-103187500D03*
D14*
X173990000Y-100647500D03*
X180340000Y-98107500D03*
D13*
X92075000Y-113982500D03*
X111125000Y-122237500D03*
D15*
X130175000Y-129222500D03*
D12*
X116205000Y-122237500D03*
D13*
X130175000Y-113982500D03*
D15*
X92075000Y-129222500D03*
D12*
X106045000Y-122237500D03*
D14*
X107315000Y-119697500D03*
X113665000Y-117157500D03*
D12*
X225107500Y-122237500D03*
D13*
X230187500Y-122237500D03*
D12*
X235267500Y-122237500D03*
D14*
X226377500Y-119697500D03*
X232727500Y-117157500D03*
D12*
X51276250Y-103187500D03*
D13*
X56356250Y-103187500D03*
D12*
X61436250Y-103187500D03*
D14*
X52546250Y-100647500D03*
X58896250Y-98107500D03*
D13*
X149225000Y-113982500D03*
X187325000Y-113982500D03*
D12*
X163195000Y-122237500D03*
D15*
X187325000Y-129222500D03*
X149225000Y-129222500D03*
D13*
X168275000Y-122237500D03*
D12*
X173355000Y-122237500D03*
D14*
X164465000Y-119697500D03*
X170815000Y-117157500D03*
D13*
X70643750Y-122237500D03*
D12*
X75723750Y-122237500D03*
X65563750Y-122237500D03*
D14*
X66833750Y-119697500D03*
X73183750Y-117157500D03*
D12*
X196532500Y-65087500D03*
D13*
X201612500Y-65087500D03*
D12*
X206692500Y-65087500D03*
D14*
X197802500Y-62547500D03*
X204152500Y-60007500D03*
D15*
X196850000Y-129222500D03*
D13*
X82550000Y-113982500D03*
X196850000Y-113982500D03*
D15*
X73525000Y-129222500D03*
D12*
X144780000Y-122237500D03*
D13*
X73525000Y-113982500D03*
D15*
X205875000Y-129222500D03*
D12*
X134620000Y-122237500D03*
D15*
X82550000Y-129222500D03*
D13*
X205875000Y-113982500D03*
X139700000Y-122237500D03*
D14*
X135890000Y-119697500D03*
X142240000Y-117157500D03*
D13*
X106362500Y-65087500D03*
D12*
X111442500Y-65087500D03*
X101282500Y-65087500D03*
D14*
X102552500Y-62547500D03*
X108902500Y-60007500D03*
D12*
X211455000Y-84137500D03*
X201295000Y-84137500D03*
D13*
X206375000Y-84137500D03*
D14*
X202565000Y-81597500D03*
X208915000Y-79057500D03*
D12*
X194151253Y-103187500D03*
D13*
X199231253Y-103187500D03*
D12*
X204311253Y-103187500D03*
D14*
X195421253Y-100647500D03*
X201771253Y-98107500D03*
D12*
X106045000Y-84137500D03*
D13*
X111125000Y-84137500D03*
D12*
X116205000Y-84137500D03*
D14*
X107315000Y-81597500D03*
X113665000Y-79057500D03*
D13*
X101600000Y-103187500D03*
D12*
X106680000Y-103187500D03*
X96520000Y-103187500D03*
D14*
X97790000Y-100647500D03*
X104140000Y-98107500D03*
D12*
X182245000Y-84137500D03*
D13*
X187325000Y-84137500D03*
D12*
X192405000Y-84137500D03*
D14*
X183515000Y-81597500D03*
X189865000Y-79057500D03*
D13*
X208756250Y-122237500D03*
D12*
X203676250Y-122237500D03*
X213836250Y-122237500D03*
D14*
X204946250Y-119697500D03*
X211296250Y-117157500D03*
D12*
X173355000Y-84137500D03*
D13*
X168275000Y-84137500D03*
D12*
X163195000Y-84137500D03*
D14*
X164465000Y-81597500D03*
X170815000Y-79057500D03*
D12*
X230505000Y-65087500D03*
X220345000Y-65087500D03*
D13*
X225425000Y-65087500D03*
D14*
X221615000Y-62547500D03*
X227965000Y-60007500D03*
D12*
X86995000Y-84137500D03*
X97155000Y-84137500D03*
D13*
X92075000Y-84137500D03*
D14*
X88265000Y-81597500D03*
X94615000Y-79057500D03*
D12*
X89376250Y-122237500D03*
X99536250Y-122237500D03*
D13*
X94456250Y-122237500D03*
D14*
X90646250Y-119697500D03*
X96996250Y-117157500D03*
D12*
X128111250Y-122237500D03*
X117951250Y-122237500D03*
D13*
X123031250Y-122237500D03*
D14*
X119221250Y-119697500D03*
X125571250Y-117157500D03*
D12*
X163830000Y-103187500D03*
X153670000Y-103187500D03*
D13*
X158750000Y-103187500D03*
D14*
X154940000Y-100647500D03*
X161290000Y-98107500D03*
D13*
X125412500Y-65087500D03*
D12*
X130492500Y-65087500D03*
X120332500Y-65087500D03*
D14*
X121602500Y-62547500D03*
X127952500Y-60007500D03*
D12*
X191770000Y-103187500D03*
X201930000Y-103187500D03*
D13*
X196850000Y-103187500D03*
D14*
X193040000Y-100647500D03*
X199390000Y-98107500D03*
D12*
X44132500Y-122237500D03*
D13*
X49212500Y-122237500D03*
D12*
X54292500Y-122237500D03*
D14*
X45402500Y-119697500D03*
X51752500Y-117157500D03*
D12*
X78105000Y-84137500D03*
X67945000Y-84137500D03*
D13*
X73025000Y-84137500D03*
D14*
X69215000Y-81597500D03*
X75565000Y-79057500D03*
D12*
X85248748Y-103187500D03*
D13*
X80168748Y-103187500D03*
D12*
X75088748Y-103187500D03*
D14*
X76358748Y-100647500D03*
X82708748Y-98107500D03*
D12*
X217963750Y-103187500D03*
D13*
X223043750Y-103187500D03*
D12*
X228123750Y-103187500D03*
D14*
X219233750Y-100647500D03*
X225583750Y-98107500D03*
D13*
X236061250Y-62674500D03*
D15*
X220821250Y-86550500D03*
D12*
X232886250Y-74612500D03*
D13*
X227806250Y-74612500D03*
D12*
X222726250Y-74612500D03*
D16*
X220821250Y-62674500D03*
D13*
X236061250Y-86550500D03*
D14*
X223996250Y-72072500D03*
X230346250Y-69532500D03*
D12*
X190023750Y-122237500D03*
D13*
X184943750Y-122237500D03*
D12*
X179863750Y-122237500D03*
D14*
X181133750Y-119697500D03*
X187483750Y-117157500D03*
D13*
X120650000Y-103187500D03*
D12*
X115570000Y-103187500D03*
X125730000Y-103187500D03*
D14*
X116840000Y-100647500D03*
X123190000Y-98107500D03*
D13*
X87312500Y-65087500D03*
D12*
X82232500Y-65087500D03*
X92392500Y-65087500D03*
D14*
X83502500Y-62547500D03*
X89852500Y-60007500D03*
D13*
X53974998Y-103187500D03*
D12*
X48894998Y-103187500D03*
X59054998Y-103187500D03*
D14*
X50164998Y-100647500D03*
X56514998Y-98107500D03*
D12*
X87630000Y-103187500D03*
X77470000Y-103187500D03*
D13*
X82550000Y-103187500D03*
D14*
X78740000Y-100647500D03*
X85090000Y-98107500D03*
D12*
X230505003Y-103187500D03*
X220345003Y-103187500D03*
D13*
X225425003Y-103187500D03*
D14*
X221615003Y-100647500D03*
X227965003Y-98107500D03*
D13*
X51593750Y-84137500D03*
D12*
X56673750Y-84137500D03*
X46513750Y-84137500D03*
D14*
X47783750Y-81597500D03*
X54133750Y-79057500D03*
D13*
X144462500Y-65087500D03*
D12*
X139382500Y-65087500D03*
X149542500Y-65087500D03*
D14*
X140652500Y-62547500D03*
X147002500Y-60007500D03*
D12*
X154305000Y-84137500D03*
D13*
X149225000Y-84137500D03*
D12*
X144145000Y-84137500D03*
D14*
X145415000Y-81597500D03*
X151765000Y-79057500D03*
D17*
X65715000Y-97266000D03*
X64165000Y-97266000D03*
D18*
X175262500Y-123681250D03*
X177162500Y-123681250D03*
X176212500Y-125556250D03*
D19*
X211763500Y-72236500D03*
X211763500Y-71236500D03*
X211763500Y-70236500D03*
X211763500Y-69236500D03*
D20*
X207888500Y-67936500D03*
X207888500Y-73536500D03*
D18*
X110175000Y-103043750D03*
X112075000Y-103043750D03*
X111125000Y-104918750D03*
X67312500Y-103043750D03*
X69212500Y-103043750D03*
X68262500Y-104918750D03*
D21*
X61440000Y-106056000D03*
X60420000Y-106056000D03*
D22*
X218100000Y-71362500D03*
X217150000Y-71362500D03*
X216200000Y-71362500D03*
X216200000Y-69087500D03*
X217150000Y-69087500D03*
X218100000Y-69087500D03*
D23*
X42650000Y-89041000D03*
X42650000Y-87491000D03*
D24*
X67200000Y-98841000D03*
X67200000Y-97191000D03*
D18*
X186375000Y-103043750D03*
X188275000Y-103043750D03*
X187325000Y-104918750D03*
X147481250Y-123681250D03*
X149381250Y-123681250D03*
X148431250Y-125556250D03*
D25*
X212255000Y-75800000D03*
X211295000Y-75800000D03*
D26*
X42670000Y-90471000D03*
X42670000Y-92021000D03*
D17*
X65720000Y-98756000D03*
X64170000Y-98756000D03*
D18*
X57787500Y-65881250D03*
X59687500Y-65881250D03*
X58737500Y-67756250D03*
X101443750Y-122887500D03*
X103343750Y-122887500D03*
X102393750Y-124762500D03*
X62550000Y-83993750D03*
X64450000Y-83993750D03*
X63500000Y-85868750D03*
D27*
X219868750Y-69715000D03*
X219868750Y-70735000D03*
D18*
X100650000Y-83993750D03*
X102550000Y-83993750D03*
X101600000Y-85868750D03*
D28*
X209890724Y-72536500D03*
X209890724Y-71336500D03*
X209890724Y-70136500D03*
X209890724Y-68936500D03*
D29*
X206115724Y-73686500D03*
X206115724Y-67786500D03*
D18*
X133987500Y-65737500D03*
X135887500Y-65737500D03*
X134937500Y-67612500D03*
X95887500Y-65881250D03*
X97787500Y-65881250D03*
X96837500Y-67756250D03*
X192540000Y-65502500D03*
X194440000Y-65502500D03*
X193490000Y-67377500D03*
D26*
X54910000Y-87185000D03*
X54910000Y-88735000D03*
D30*
X213400000Y-81012500D03*
X211500000Y-81012500D03*
X212450000Y-79137500D03*
D31*
X67530000Y-108270000D03*
X67530000Y-114570000D03*
X63730000Y-114570000D03*
X63730000Y-108270000D03*
D18*
X214950000Y-83993750D03*
X216850000Y-83993750D03*
X215900000Y-85868750D03*
X61756250Y-124475000D03*
X63656250Y-124475000D03*
X62706250Y-126350000D03*
D32*
X57185000Y-106790000D03*
X57185000Y-108690000D03*
X55310000Y-107740000D03*
D18*
X148275000Y-103043750D03*
X150175000Y-103043750D03*
X149225000Y-104918750D03*
D27*
X214325000Y-67205000D03*
X214325000Y-68225000D03*
D33*
X211075000Y-65762500D03*
X211075000Y-64187500D03*
D18*
X172087500Y-65737500D03*
X173987500Y-65737500D03*
X173037500Y-67612500D03*
D34*
X69240000Y-114570000D03*
X69240000Y-113550000D03*
D18*
X176850000Y-83993750D03*
X178750000Y-83993750D03*
X177800000Y-85868750D03*
D35*
X55650000Y-111770000D03*
X55650000Y-110810000D03*
D18*
X138750000Y-83993750D03*
X140650000Y-83993750D03*
X139700000Y-85868750D03*
D21*
X61960000Y-108270000D03*
X60940000Y-108270000D03*
D17*
X44855000Y-97290000D03*
X43305000Y-97290000D03*
D36*
X44667500Y-95280000D03*
X44667500Y-94780000D03*
X44667500Y-94280000D03*
X44667500Y-93780000D03*
X44667500Y-93280000D03*
X44667500Y-92780000D03*
X44667500Y-92280000D03*
X44667500Y-91780000D03*
X44667500Y-91280000D03*
X44667500Y-90780000D03*
X44667500Y-90280000D03*
X44667500Y-89780000D03*
D37*
X46080000Y-88367500D03*
X46580000Y-88367500D03*
X47080000Y-88367500D03*
X47580000Y-88367500D03*
X48080000Y-88367500D03*
X48580000Y-88367500D03*
X49080000Y-88367500D03*
X49580000Y-88367500D03*
X50080000Y-88367500D03*
X50580000Y-88367500D03*
X51080000Y-88367500D03*
X51580000Y-88367500D03*
D36*
X52992500Y-89780000D03*
X52992500Y-90280000D03*
X52992500Y-90780000D03*
X52992500Y-91280000D03*
X52992500Y-91780000D03*
X52992500Y-92280000D03*
X52992500Y-92780000D03*
X52992500Y-93280000D03*
X52992500Y-93780000D03*
X52992500Y-94280000D03*
X52992500Y-94780000D03*
X52992500Y-95280000D03*
D37*
X51580000Y-96692500D03*
X51080000Y-96692500D03*
X50580000Y-96692500D03*
X50080000Y-96692500D03*
X49580000Y-96692500D03*
X49080000Y-96692500D03*
X48580000Y-96692500D03*
X48080000Y-96692500D03*
X47580000Y-96692500D03*
X47080000Y-96692500D03*
X46580000Y-96692500D03*
X46080000Y-96692500D03*
D38*
X216408750Y-60543750D03*
X210628750Y-60543750D03*
D39*
X210268750Y-61988750D03*
X211068750Y-61988750D03*
D40*
X212268750Y-61988750D03*
X213268750Y-61988750D03*
X213768750Y-61988750D03*
X214768750Y-61988750D03*
D39*
X215968750Y-61988750D03*
X216768750Y-61988750D03*
X216768750Y-61988750D03*
X215968750Y-61988750D03*
D40*
X215268750Y-61988750D03*
X214268750Y-61988750D03*
X212768750Y-61988750D03*
X211768750Y-61988750D03*
D39*
X211068750Y-61988750D03*
X210268750Y-61988750D03*
D41*
X217838750Y-61073750D03*
D42*
X209198750Y-56893750D03*
D41*
X209198750Y-61073750D03*
D42*
X217838750Y-56893750D03*
D18*
X215850000Y-125258500D03*
X217750000Y-125258500D03*
X216800000Y-127133500D03*
D43*
X63740000Y-105670000D03*
X63740000Y-106630000D03*
D44*
X210540000Y-82500000D03*
X211500000Y-82500000D03*
D18*
X210187500Y-103043750D03*
X212087500Y-103043750D03*
X211137500Y-104918750D03*
D45*
X204930000Y-76850000D03*
X201630000Y-76850000D03*
M02*
