%TF.GenerationSoftware,KiCad,Pcbnew,(6.0.10-0)*%
%TF.CreationDate,2023-01-05T17:16:11+09:00*%
%TF.ProjectId,Tiny Dimply Qazy,54696e79-2044-4696-9d70-6c792051617a,rev?*%
%TF.SameCoordinates,Original*%
%TF.FileFunction,Legend,Top*%
%TF.FilePolarity,Positive*%
%FSLAX46Y46*%
G04 Gerber Fmt 4.6, Leading zero omitted, Abs format (unit mm)*
G04 Created by KiCad (PCBNEW (6.0.10-0)) date 2023-01-05 17:16:11*
%MOMM*%
%LPD*%
G01*
G04 APERTURE LIST*
%ADD10C,0.150000*%
%ADD11C,1.750000*%
%ADD12C,3.987800*%
%ADD13C,2.250000*%
%ADD14C,3.048000*%
%ADD15C,0.650000*%
%ADD16O,1.000000X2.100000*%
%ADD17O,1.000000X1.600000*%
G04 APERTURE END LIST*
D10*
%TO.C,J3*%
X210852380Y-71033333D02*
X211566666Y-71033333D01*
X211709523Y-71080952D01*
X211804761Y-71176190D01*
X211852380Y-71319047D01*
X211852380Y-71414285D01*
X210852380Y-70652380D02*
X210852380Y-70033333D01*
X211233333Y-70366666D01*
X211233333Y-70223809D01*
X211280952Y-70128571D01*
X211328571Y-70080952D01*
X211423809Y-70033333D01*
X211661904Y-70033333D01*
X211757142Y-70080952D01*
X211804761Y-70128571D01*
X211852380Y-70223809D01*
X211852380Y-70509523D01*
X211804761Y-70604761D01*
X211757142Y-70652380D01*
%TD*%
%LPC*%
D11*
%TO.C,MX22*%
X135255000Y-84137500D03*
X125095000Y-84137500D03*
D12*
X130175000Y-84137500D03*
D13*
X126365000Y-81597500D03*
X132715000Y-79057500D03*
%TD*%
D12*
%TO.C,MX39*%
X225425000Y-122237500D03*
D11*
X230505000Y-122237500D03*
X220345000Y-122237500D03*
D13*
X221615000Y-119697500D03*
X227965000Y-117157500D03*
%TD*%
D11*
%TO.C,MX33*%
X177482500Y-65087500D03*
X187642500Y-65087500D03*
D12*
X182562500Y-65087500D03*
D13*
X178752500Y-62547500D03*
X185102500Y-60007500D03*
%TD*%
D11*
%TO.C,MX20*%
X144780000Y-122237500D03*
D12*
X92075000Y-113982500D03*
X139700000Y-122237500D03*
D14*
X187325000Y-129222500D03*
D12*
X187325000Y-113982500D03*
D11*
X134620000Y-122237500D03*
D14*
X92075000Y-129222500D03*
D13*
X135890000Y-119697500D03*
X142240000Y-117157500D03*
%TD*%
D11*
%TO.C,MX29*%
X168592500Y-65087500D03*
X158432500Y-65087500D03*
D12*
X163512500Y-65087500D03*
D13*
X159702500Y-62547500D03*
X166052500Y-60007500D03*
%TD*%
D11*
%TO.C,MX25*%
X161448750Y-122237500D03*
X151288750Y-122237500D03*
D12*
X156368750Y-122237500D03*
D13*
X152558750Y-119697500D03*
X158908750Y-117157500D03*
%TD*%
D11*
%TO.C,MX23*%
X144780000Y-103187500D03*
D12*
X139700000Y-103187500D03*
D11*
X134620000Y-103187500D03*
D13*
X135890000Y-100647500D03*
X142240000Y-98107500D03*
%TD*%
D11*
%TO.C,MX43*%
X222726250Y-84137500D03*
X232886250Y-84137500D03*
D12*
X227806250Y-84137500D03*
D13*
X223996250Y-81597500D03*
X230346250Y-79057500D03*
%TD*%
D11*
%TO.C,MX1*%
X48895000Y-122237500D03*
D12*
X53975000Y-122237500D03*
D11*
X59055000Y-122237500D03*
D13*
X50165000Y-119697500D03*
X56515000Y-117157500D03*
%TD*%
D11*
%TO.C,MX6*%
X63182500Y-65087500D03*
X73342500Y-65087500D03*
D12*
X68262500Y-65087500D03*
D13*
X64452500Y-62547500D03*
X70802500Y-60007500D03*
%TD*%
D11*
%TO.C,MX3*%
X54292500Y-65087500D03*
D12*
X49212500Y-65087500D03*
D11*
X44132500Y-65087500D03*
D13*
X45402500Y-62547500D03*
X51752500Y-60007500D03*
%TD*%
D11*
%TO.C,MX31*%
X172720000Y-103187500D03*
X182880000Y-103187500D03*
D12*
X177800000Y-103187500D03*
D13*
X173990000Y-100647500D03*
X180340000Y-98107500D03*
%TD*%
D12*
%TO.C,MX14*%
X92075000Y-113982500D03*
X111125000Y-122237500D03*
D14*
X130175000Y-129222500D03*
D11*
X116205000Y-122237500D03*
D12*
X130175000Y-113982500D03*
D14*
X92075000Y-129222500D03*
D11*
X106045000Y-122237500D03*
D13*
X107315000Y-119697500D03*
X113665000Y-117157500D03*
%TD*%
D11*
%TO.C,MX40*%
X225107500Y-122237500D03*
D12*
X230187500Y-122237500D03*
D11*
X235267500Y-122237500D03*
D13*
X226377500Y-119697500D03*
X232727500Y-117157500D03*
%TD*%
D11*
%TO.C,MX5*%
X51276250Y-103187500D03*
D12*
X56356250Y-103187500D03*
D11*
X61436250Y-103187500D03*
D13*
X52546250Y-100647500D03*
X58896250Y-98107500D03*
%TD*%
D12*
%TO.C,MX24*%
X149225000Y-113982500D03*
X187325000Y-113982500D03*
D11*
X163195000Y-122237500D03*
D14*
X187325000Y-129222500D03*
X149225000Y-129222500D03*
D12*
X168275000Y-122237500D03*
D11*
X173355000Y-122237500D03*
D13*
X164465000Y-119697500D03*
X170815000Y-117157500D03*
%TD*%
D12*
%TO.C,MX9*%
X70643750Y-122237500D03*
D11*
X75723750Y-122237500D03*
X65563750Y-122237500D03*
D13*
X66833750Y-119697500D03*
X73183750Y-117157500D03*
%TD*%
D11*
%TO.C,MX37*%
X196532500Y-65087500D03*
D12*
X201612500Y-65087500D03*
D11*
X206692500Y-65087500D03*
D13*
X197802500Y-62547500D03*
X204152500Y-60007500D03*
%TD*%
D14*
%TO.C,MX19*%
X196850000Y-129222500D03*
D12*
X82550000Y-113982500D03*
X196850000Y-113982500D03*
D14*
X73525000Y-129222500D03*
D11*
X144780000Y-122237500D03*
D12*
X73525000Y-113982500D03*
D14*
X205875000Y-129222500D03*
D11*
X134620000Y-122237500D03*
D14*
X82550000Y-129222500D03*
D12*
X205875000Y-113982500D03*
X139700000Y-122237500D03*
D13*
X135890000Y-119697500D03*
X142240000Y-117157500D03*
%TD*%
D12*
%TO.C,MX16*%
X106362500Y-65087500D03*
D11*
X111442500Y-65087500D03*
X101282500Y-65087500D03*
D13*
X102552500Y-62547500D03*
X108902500Y-60007500D03*
%TD*%
D11*
%TO.C,MX38*%
X211455000Y-84137500D03*
X201295000Y-84137500D03*
D12*
X206375000Y-84137500D03*
D13*
X202565000Y-81597500D03*
X208915000Y-79057500D03*
%TD*%
D11*
%TO.C,MX17*%
X106045000Y-84137500D03*
D12*
X111125000Y-84137500D03*
D11*
X116205000Y-84137500D03*
D13*
X107315000Y-81597500D03*
X113665000Y-79057500D03*
%TD*%
D12*
%TO.C,MX12*%
X101600000Y-103187500D03*
D11*
X106680000Y-103187500D03*
X96520000Y-103187500D03*
D13*
X97790000Y-100647500D03*
X104140000Y-98107500D03*
%TD*%
D11*
%TO.C,MX34*%
X182245000Y-84137500D03*
D12*
X187325000Y-84137500D03*
D11*
X192405000Y-84137500D03*
D13*
X183515000Y-81597500D03*
X189865000Y-79057500D03*
%TD*%
D12*
%TO.C,MX36*%
X208756250Y-122237500D03*
D11*
X203676250Y-122237500D03*
X213836250Y-122237500D03*
D13*
X204946250Y-119697500D03*
X211296250Y-117157500D03*
%TD*%
D11*
%TO.C,MX30*%
X173355000Y-84137500D03*
D12*
X168275000Y-84137500D03*
D11*
X163195000Y-84137500D03*
D13*
X164465000Y-81597500D03*
X170815000Y-79057500D03*
%TD*%
D11*
%TO.C,MX41*%
X230505000Y-65087500D03*
X220345000Y-65087500D03*
D12*
X225425000Y-65087500D03*
D13*
X221615000Y-62547500D03*
X227965000Y-60007500D03*
%TD*%
D11*
%TO.C,MX11*%
X86995000Y-84137500D03*
X97155000Y-84137500D03*
D12*
X92075000Y-84137500D03*
D13*
X88265000Y-81597500D03*
X94615000Y-79057500D03*
%TD*%
D11*
%TO.C,MX13*%
X89376250Y-122237500D03*
X99536250Y-122237500D03*
D12*
X94456250Y-122237500D03*
D13*
X90646250Y-119697500D03*
X96996250Y-117157500D03*
%TD*%
D11*
%TO.C,MX15*%
X128111250Y-122237500D03*
X117951250Y-122237500D03*
D12*
X123031250Y-122237500D03*
D13*
X119221250Y-119697500D03*
X125571250Y-117157500D03*
%TD*%
D11*
%TO.C,MX28*%
X163830000Y-103187500D03*
X153670000Y-103187500D03*
D12*
X158750000Y-103187500D03*
D13*
X154940000Y-100647500D03*
X161290000Y-98107500D03*
%TD*%
D12*
%TO.C,MX21*%
X125412500Y-65087500D03*
D11*
X130492500Y-65087500D03*
X120332500Y-65087500D03*
D13*
X121602500Y-62547500D03*
X127952500Y-60007500D03*
%TD*%
D11*
%TO.C,MX35*%
X191770000Y-103187500D03*
X201930000Y-103187500D03*
D12*
X196850000Y-103187500D03*
D13*
X193040000Y-100647500D03*
X199390000Y-98107500D03*
%TD*%
D11*
%TO.C,MX2*%
X44132500Y-122237500D03*
D12*
X49212500Y-122237500D03*
D11*
X54292500Y-122237500D03*
D13*
X45402500Y-119697500D03*
X51752500Y-117157500D03*
%TD*%
D11*
%TO.C,MX7*%
X78105000Y-84137500D03*
X67945000Y-84137500D03*
D12*
X73025000Y-84137500D03*
D13*
X69215000Y-81597500D03*
X75565000Y-79057500D03*
%TD*%
D11*
%TO.C,MX44*%
X217963750Y-103187500D03*
D12*
X223043750Y-103187500D03*
D11*
X228123750Y-103187500D03*
D13*
X219233750Y-100647500D03*
X225583750Y-98107500D03*
%TD*%
D12*
%TO.C,MX42*%
X236061250Y-62674500D03*
D14*
X220821250Y-86550500D03*
D11*
X232886250Y-74612500D03*
D12*
X227806250Y-74612500D03*
D11*
X222726250Y-74612500D03*
D14*
X220821250Y-62674500D03*
D12*
X236061250Y-86550500D03*
D13*
X223996250Y-72072500D03*
X230346250Y-69532500D03*
%TD*%
D11*
%TO.C,MX32*%
X179863750Y-122237500D03*
X190023750Y-122237500D03*
D12*
X184943750Y-122237500D03*
D13*
X181133750Y-119697500D03*
X187483750Y-117157500D03*
%TD*%
D12*
%TO.C,MX18*%
X120650000Y-103187500D03*
D11*
X115570000Y-103187500D03*
X125730000Y-103187500D03*
D13*
X116840000Y-100647500D03*
X123190000Y-98107500D03*
%TD*%
D12*
%TO.C,MX10*%
X87312500Y-65087500D03*
D11*
X82232500Y-65087500D03*
X92392500Y-65087500D03*
D13*
X83502500Y-62547500D03*
X89852500Y-60007500D03*
%TD*%
D11*
%TO.C,MX8*%
X87630000Y-103187500D03*
X77470000Y-103187500D03*
D12*
X82550000Y-103187500D03*
D13*
X78740000Y-100647500D03*
X85090000Y-98107500D03*
%TD*%
D12*
%TO.C,MX4*%
X51593750Y-84137500D03*
D11*
X56673750Y-84137500D03*
X46513750Y-84137500D03*
D13*
X47783750Y-81597500D03*
X54133750Y-79057500D03*
%TD*%
D12*
%TO.C,MX26*%
X144462500Y-65087500D03*
D11*
X139382500Y-65087500D03*
X149542500Y-65087500D03*
D13*
X140652500Y-62547500D03*
X147002500Y-60007500D03*
%TD*%
D11*
%TO.C,MX27*%
X154305000Y-84137500D03*
D12*
X149225000Y-84137500D03*
D11*
X144145000Y-84137500D03*
D13*
X145415000Y-81597500D03*
X151765000Y-79057500D03*
%TD*%
D15*
%TO.C,J2*%
X216408750Y-60543750D03*
X210628750Y-60543750D03*
D16*
X217838750Y-61073750D03*
D17*
X209198750Y-56893750D03*
D16*
X209198750Y-61073750D03*
D17*
X217838750Y-56893750D03*
%TD*%
M02*
