M48
; DRILL file {KiCad (6.0.10-0)} date 2023 January 05, Thursday 17:16:11
; FORMAT={-:-/ absolute / inch / decimal}
; #@! TF.CreationDate,2023-01-05T17:16:11+09:00
; #@! TF.GenerationSoftware,Kicad,Pcbnew,(6.0.10-0)
; #@! TF.FileFunction,NonPlated,1,2,NPTH
FMAT,2
INCH
; #@! TA.AperFunction,NonPlated,NPTH,ComponentDrill
T1C0.0256
; #@! TA.AperFunction,NonPlated,NPTH,ComponentDrill
T2C0.0689
; #@! TA.AperFunction,NonPlated,NPTH,ComponentDrill
T3C0.1200
; #@! TA.AperFunction,NonPlated,NPTH,ComponentDrill
T4C0.1570
%
G90
G05
T1
X8.2925Y-2.3836
X8.52Y-2.3836
T2
X1.7375Y-2.5625
X1.7375Y-4.8125
X1.8313Y-3.3125
X1.925Y-4.8125
X2.0187Y-4.0625
X2.1375Y-2.5625
X2.1375Y-4.8125
X2.2312Y-3.3125
X2.325Y-4.8125
X2.4187Y-4.0625
X2.4875Y-2.5625
X2.5812Y-4.8125
X2.675Y-3.3125
X2.8875Y-2.5625
X2.9812Y-4.8125
X3.05Y-4.0625
X3.075Y-3.3125
X3.2375Y-2.5625
X3.425Y-3.3125
X3.45Y-4.0625
X3.5187Y-4.8125
X3.6375Y-2.5625
X3.8Y-4.0625
X3.825Y-3.3125
X3.9187Y-4.8125
X3.9875Y-2.5625
X4.175Y-3.3125
X4.175Y-4.8125
X4.2Y-4.0625
X4.3875Y-2.5625
X4.55Y-4.0625
X4.575Y-3.3125
X4.575Y-4.8125
X4.6437Y-4.8125
X4.7375Y-2.5625
X4.925Y-3.3125
X4.95Y-4.0625
X5.0438Y-4.8125
X5.1375Y-2.5625
X5.3Y-4.0625
X5.3Y-4.8125
X5.3Y-4.8125
X5.325Y-3.3125
X5.4875Y-2.5625
X5.675Y-3.3125
X5.7Y-4.0625
X5.7Y-4.8125
X5.7Y-4.8125
X5.8875Y-2.5625
X5.9562Y-4.8125
X6.05Y-4.0625
X6.075Y-3.3125
X6.2375Y-2.5625
X6.3563Y-4.8125
X6.425Y-3.3125
X6.425Y-4.8125
X6.45Y-4.0625
X6.6375Y-2.5625
X6.8Y-4.0625
X6.825Y-3.3125
X6.825Y-4.8125
X6.9875Y-2.5625
X7.0812Y-4.8125
X7.175Y-3.3125
X7.2Y-4.0625
X7.3875Y-2.5625
X7.4813Y-4.8125
X7.55Y-4.0625
X7.575Y-3.3125
X7.7375Y-2.5625
X7.925Y-3.3125
X7.95Y-4.0625
X8.0187Y-4.8125
X8.1375Y-2.5625
X8.325Y-3.3125
X8.4187Y-4.8125
X8.5812Y-4.0625
X8.675Y-2.5625
X8.675Y-4.8125
X8.7687Y-2.9375
X8.7687Y-3.3125
X8.8625Y-4.8125
X8.9812Y-4.0625
X9.075Y-2.5625
X9.075Y-4.8125
X9.1687Y-2.9375
X9.1687Y-3.3125
X9.2625Y-4.8125
T3
X2.8947Y-5.0875
X3.25Y-5.0875
X3.625Y-5.0875
X3.625Y-5.0875
X5.125Y-5.0875
X5.875Y-5.0875
X7.375Y-5.0875
X7.375Y-5.0875
X7.75Y-5.0875
X8.1053Y-5.0875
X8.6937Y-2.4675
X8.6937Y-3.4075
T4
X1.9375Y-2.5625
X1.9375Y-4.8125
X2.0312Y-3.3125
X2.125Y-4.8125
X2.2188Y-4.0625
X2.6875Y-2.5625
X2.7812Y-4.8125
X2.875Y-3.3125
X2.8947Y-4.4875
X3.25Y-4.0625
X3.25Y-4.4875
X3.4375Y-2.5625
X3.625Y-3.3125
X3.625Y-4.4875
X3.625Y-4.4875
X3.7188Y-4.8125
X4.0Y-4.0625
X4.1875Y-2.5625
X4.375Y-3.3125
X4.375Y-4.8125
X4.75Y-4.0625
X4.8438Y-4.8125
X4.9375Y-2.5625
X5.125Y-3.3125
X5.125Y-4.4875
X5.5Y-4.0625
X5.5Y-4.8125
X5.5Y-4.8125
X5.6875Y-2.5625
X5.875Y-3.3125
X5.875Y-4.4875
X6.1562Y-4.8125
X6.25Y-4.0625
X6.4375Y-2.5625
X6.625Y-3.3125
X6.625Y-4.8125
X7.0Y-4.0625
X7.1875Y-2.5625
X7.2812Y-4.8125
X7.375Y-3.3125
X7.375Y-4.4875
X7.375Y-4.4875
X7.75Y-4.0625
X7.75Y-4.4875
X7.9375Y-2.5625
X8.1053Y-4.4875
X8.125Y-3.3125
X8.2188Y-4.8125
X8.7812Y-4.0625
X8.875Y-2.5625
X8.875Y-4.8125
X8.9688Y-2.9375
X8.9688Y-3.3125
X9.0625Y-4.8125
X9.2937Y-2.4675
X9.2937Y-3.4075
T0
M30
