%TF.GenerationSoftware,KiCad,Pcbnew,(6.0.4)*%
%TF.CreationDate,2022-12-31T18:56:14+01:00*%
%TF.ProjectId,PeppyQAZ,50657070-7951-4415-9a2e-6b696361645f,rev?*%
%TF.SameCoordinates,Original*%
%TF.FileFunction,Legend,Bot*%
%TF.FilePolarity,Positive*%
%FSLAX46Y46*%
G04 Gerber Fmt 4.6, Leading zero omitted, Abs format (unit mm)*
G04 Created by KiCad (PCBNEW (6.0.4)) date 2022-12-31 18:56:14*
%MOMM*%
%LPD*%
G01*
G04 APERTURE LIST*
%ADD10C,0.150000*%
%ADD11C,0.120000*%
G04 APERTURE END LIST*
D10*
%TO.C,C_VDDIO1*%
X57198095Y-95997142D02*
X57245714Y-96044761D01*
X57388571Y-96092380D01*
X57483809Y-96092380D01*
X57626666Y-96044761D01*
X57721904Y-95949523D01*
X57769523Y-95854285D01*
X57817142Y-95663809D01*
X57817142Y-95520952D01*
X57769523Y-95330476D01*
X57721904Y-95235238D01*
X57626666Y-95140000D01*
X57483809Y-95092380D01*
X57388571Y-95092380D01*
X57245714Y-95140000D01*
X57198095Y-95187619D01*
X57007619Y-96187619D02*
X56245714Y-96187619D01*
X56150476Y-95092380D02*
X55817142Y-96092380D01*
X55483809Y-95092380D01*
X55150476Y-96092380D02*
X55150476Y-95092380D01*
X54912380Y-95092380D01*
X54769523Y-95140000D01*
X54674285Y-95235238D01*
X54626666Y-95330476D01*
X54579047Y-95520952D01*
X54579047Y-95663809D01*
X54626666Y-95854285D01*
X54674285Y-95949523D01*
X54769523Y-96044761D01*
X54912380Y-96092380D01*
X55150476Y-96092380D01*
X54150476Y-96092380D02*
X54150476Y-95092380D01*
X53912380Y-95092380D01*
X53769523Y-95140000D01*
X53674285Y-95235238D01*
X53626666Y-95330476D01*
X53579047Y-95520952D01*
X53579047Y-95663809D01*
X53626666Y-95854285D01*
X53674285Y-95949523D01*
X53769523Y-96044761D01*
X53912380Y-96092380D01*
X54150476Y-96092380D01*
X53150476Y-96092380D02*
X53150476Y-95092380D01*
X52483809Y-95092380D02*
X52293333Y-95092380D01*
X52198095Y-95140000D01*
X52102857Y-95235238D01*
X52055238Y-95425714D01*
X52055238Y-95759047D01*
X52102857Y-95949523D01*
X52198095Y-96044761D01*
X52293333Y-96092380D01*
X52483809Y-96092380D01*
X52579047Y-96044761D01*
X52674285Y-95949523D01*
X52721904Y-95759047D01*
X52721904Y-95425714D01*
X52674285Y-95235238D01*
X52579047Y-95140000D01*
X52483809Y-95092380D01*
X51102857Y-96092380D02*
X51674285Y-96092380D01*
X51388571Y-96092380D02*
X51388571Y-95092380D01*
X51483809Y-95235238D01*
X51579047Y-95330476D01*
X51674285Y-95378095D01*
%TO.C,D13*%
X174264880Y-123404464D02*
X173264880Y-123404464D01*
X173264880Y-123642559D01*
X173312500Y-123785416D01*
X173407738Y-123880654D01*
X173502976Y-123928273D01*
X173693452Y-123975892D01*
X173836309Y-123975892D01*
X174026785Y-123928273D01*
X174122023Y-123880654D01*
X174217261Y-123785416D01*
X174264880Y-123642559D01*
X174264880Y-123404464D01*
X174264880Y-124928273D02*
X174264880Y-124356845D01*
X174264880Y-124642559D02*
X173264880Y-124642559D01*
X173407738Y-124547321D01*
X173502976Y-124452083D01*
X173550595Y-124356845D01*
X173264880Y-125261607D02*
X173264880Y-125880654D01*
X173645833Y-125547321D01*
X173645833Y-125690178D01*
X173693452Y-125785416D01*
X173741071Y-125833035D01*
X173836309Y-125880654D01*
X174074404Y-125880654D01*
X174169642Y-125833035D01*
X174217261Y-125785416D01*
X174264880Y-125690178D01*
X174264880Y-125404464D01*
X174217261Y-125309226D01*
X174169642Y-125261607D01*
%TO.C,J1*%
X213195880Y-70403166D02*
X213910166Y-70403166D01*
X214053023Y-70355547D01*
X214148261Y-70260309D01*
X214195880Y-70117452D01*
X214195880Y-70022214D01*
X214195880Y-71403166D02*
X214195880Y-70831738D01*
X214195880Y-71117452D02*
X213195880Y-71117452D01*
X213338738Y-71022214D01*
X213433976Y-70926976D01*
X213481595Y-70831738D01*
%TO.C,D7*%
X109177380Y-103243154D02*
X108177380Y-103243154D01*
X108177380Y-103481250D01*
X108225000Y-103624107D01*
X108320238Y-103719345D01*
X108415476Y-103766964D01*
X108605952Y-103814583D01*
X108748809Y-103814583D01*
X108939285Y-103766964D01*
X109034523Y-103719345D01*
X109129761Y-103624107D01*
X109177380Y-103481250D01*
X109177380Y-103243154D01*
X108177380Y-104147916D02*
X108177380Y-104814583D01*
X109177380Y-104386011D01*
%TO.C,D3*%
X66314880Y-103243154D02*
X65314880Y-103243154D01*
X65314880Y-103481250D01*
X65362500Y-103624107D01*
X65457738Y-103719345D01*
X65552976Y-103766964D01*
X65743452Y-103814583D01*
X65886309Y-103814583D01*
X66076785Y-103766964D01*
X66172023Y-103719345D01*
X66267261Y-103624107D01*
X66314880Y-103481250D01*
X66314880Y-103243154D01*
X65314880Y-104147916D02*
X65314880Y-104766964D01*
X65695833Y-104433630D01*
X65695833Y-104576488D01*
X65743452Y-104671726D01*
X65791071Y-104719345D01*
X65886309Y-104766964D01*
X66124404Y-104766964D01*
X66219642Y-104719345D01*
X66267261Y-104671726D01*
X66314880Y-104576488D01*
X66314880Y-104290773D01*
X66267261Y-104195535D01*
X66219642Y-104147916D01*
%TO.C,R2*%
X60846666Y-105312380D02*
X61180000Y-104836190D01*
X61418095Y-105312380D02*
X61418095Y-104312380D01*
X61037142Y-104312380D01*
X60941904Y-104360000D01*
X60894285Y-104407619D01*
X60846666Y-104502857D01*
X60846666Y-104645714D01*
X60894285Y-104740952D01*
X60941904Y-104788571D01*
X61037142Y-104836190D01*
X61418095Y-104836190D01*
X60465714Y-104407619D02*
X60418095Y-104360000D01*
X60322857Y-104312380D01*
X60084761Y-104312380D01*
X59989523Y-104360000D01*
X59941904Y-104407619D01*
X59894285Y-104502857D01*
X59894285Y-104598095D01*
X59941904Y-104740952D01*
X60513333Y-105312380D01*
X59894285Y-105312380D01*
%TO.C,U3*%
X219002380Y-69463095D02*
X219811904Y-69463095D01*
X219907142Y-69510714D01*
X219954761Y-69558333D01*
X220002380Y-69653571D01*
X220002380Y-69844047D01*
X219954761Y-69939285D01*
X219907142Y-69986904D01*
X219811904Y-70034523D01*
X219002380Y-70034523D01*
X219002380Y-70415476D02*
X219002380Y-71034523D01*
X219383333Y-70701190D01*
X219383333Y-70844047D01*
X219430952Y-70939285D01*
X219478571Y-70986904D01*
X219573809Y-71034523D01*
X219811904Y-71034523D01*
X219907142Y-70986904D01*
X219954761Y-70939285D01*
X220002380Y-70844047D01*
X220002380Y-70558333D01*
X219954761Y-70463095D01*
X219907142Y-70415476D01*
%TO.C,C_VDDA1*%
X44094761Y-88787142D02*
X44142380Y-88834761D01*
X44285238Y-88882380D01*
X44380476Y-88882380D01*
X44523333Y-88834761D01*
X44618571Y-88739523D01*
X44666190Y-88644285D01*
X44713809Y-88453809D01*
X44713809Y-88310952D01*
X44666190Y-88120476D01*
X44618571Y-88025238D01*
X44523333Y-87930000D01*
X44380476Y-87882380D01*
X44285238Y-87882380D01*
X44142380Y-87930000D01*
X44094761Y-87977619D01*
X43904285Y-88977619D02*
X43142380Y-88977619D01*
X43047142Y-87882380D02*
X42713809Y-88882380D01*
X42380476Y-87882380D01*
X42047142Y-88882380D02*
X42047142Y-87882380D01*
X41809047Y-87882380D01*
X41666190Y-87930000D01*
X41570952Y-88025238D01*
X41523333Y-88120476D01*
X41475714Y-88310952D01*
X41475714Y-88453809D01*
X41523333Y-88644285D01*
X41570952Y-88739523D01*
X41666190Y-88834761D01*
X41809047Y-88882380D01*
X42047142Y-88882380D01*
X41047142Y-88882380D02*
X41047142Y-87882380D01*
X40809047Y-87882380D01*
X40666190Y-87930000D01*
X40570952Y-88025238D01*
X40523333Y-88120476D01*
X40475714Y-88310952D01*
X40475714Y-88453809D01*
X40523333Y-88644285D01*
X40570952Y-88739523D01*
X40666190Y-88834761D01*
X40809047Y-88882380D01*
X41047142Y-88882380D01*
X40094761Y-88596666D02*
X39618571Y-88596666D01*
X40190000Y-88882380D02*
X39856666Y-87882380D01*
X39523333Y-88882380D01*
X38666190Y-88882380D02*
X39237619Y-88882380D01*
X38951904Y-88882380D02*
X38951904Y-87882380D01*
X39047142Y-88025238D01*
X39142380Y-88120476D01*
X39237619Y-88168095D01*
%TO.C,R_USB1*%
X58772380Y-93432380D02*
X58296190Y-93099047D01*
X58772380Y-92860952D02*
X57772380Y-92860952D01*
X57772380Y-93241904D01*
X57820000Y-93337142D01*
X57867619Y-93384761D01*
X57962857Y-93432380D01*
X58105714Y-93432380D01*
X58200952Y-93384761D01*
X58248571Y-93337142D01*
X58296190Y-93241904D01*
X58296190Y-92860952D01*
X58867619Y-93622857D02*
X58867619Y-94384761D01*
X57772380Y-94622857D02*
X58581904Y-94622857D01*
X58677142Y-94670476D01*
X58724761Y-94718095D01*
X58772380Y-94813333D01*
X58772380Y-95003809D01*
X58724761Y-95099047D01*
X58677142Y-95146666D01*
X58581904Y-95194285D01*
X57772380Y-95194285D01*
X58724761Y-95622857D02*
X58772380Y-95765714D01*
X58772380Y-96003809D01*
X58724761Y-96099047D01*
X58677142Y-96146666D01*
X58581904Y-96194285D01*
X58486666Y-96194285D01*
X58391428Y-96146666D01*
X58343809Y-96099047D01*
X58296190Y-96003809D01*
X58248571Y-95813333D01*
X58200952Y-95718095D01*
X58153333Y-95670476D01*
X58058095Y-95622857D01*
X57962857Y-95622857D01*
X57867619Y-95670476D01*
X57820000Y-95718095D01*
X57772380Y-95813333D01*
X57772380Y-96051428D01*
X57820000Y-96194285D01*
X58248571Y-96956190D02*
X58296190Y-97099047D01*
X58343809Y-97146666D01*
X58439047Y-97194285D01*
X58581904Y-97194285D01*
X58677142Y-97146666D01*
X58724761Y-97099047D01*
X58772380Y-97003809D01*
X58772380Y-96622857D01*
X57772380Y-96622857D01*
X57772380Y-96956190D01*
X57820000Y-97051428D01*
X57867619Y-97099047D01*
X57962857Y-97146666D01*
X58058095Y-97146666D01*
X58153333Y-97099047D01*
X58200952Y-97051428D01*
X58248571Y-96956190D01*
X58248571Y-96622857D01*
X58772380Y-98146666D02*
X58772380Y-97575238D01*
X58772380Y-97860952D02*
X57772380Y-97860952D01*
X57915238Y-97765714D01*
X58010476Y-97670476D01*
X58058095Y-97575238D01*
%TO.C,D16*%
X185377380Y-102766964D02*
X184377380Y-102766964D01*
X184377380Y-103005059D01*
X184425000Y-103147916D01*
X184520238Y-103243154D01*
X184615476Y-103290773D01*
X184805952Y-103338392D01*
X184948809Y-103338392D01*
X185139285Y-103290773D01*
X185234523Y-103243154D01*
X185329761Y-103147916D01*
X185377380Y-103005059D01*
X185377380Y-102766964D01*
X185377380Y-104290773D02*
X185377380Y-103719345D01*
X185377380Y-104005059D02*
X184377380Y-104005059D01*
X184520238Y-103909821D01*
X184615476Y-103814583D01*
X184663095Y-103719345D01*
X184377380Y-105147916D02*
X184377380Y-104957440D01*
X184425000Y-104862202D01*
X184472619Y-104814583D01*
X184615476Y-104719345D01*
X184805952Y-104671726D01*
X185186904Y-104671726D01*
X185282142Y-104719345D01*
X185329761Y-104766964D01*
X185377380Y-104862202D01*
X185377380Y-105052678D01*
X185329761Y-105147916D01*
X185282142Y-105195535D01*
X185186904Y-105243154D01*
X184948809Y-105243154D01*
X184853571Y-105195535D01*
X184805952Y-105147916D01*
X184758333Y-105052678D01*
X184758333Y-104862202D01*
X184805952Y-104766964D01*
X184853571Y-104719345D01*
X184948809Y-104671726D01*
%TO.C,D9*%
X146483630Y-123880654D02*
X145483630Y-123880654D01*
X145483630Y-124118750D01*
X145531250Y-124261607D01*
X145626488Y-124356845D01*
X145721726Y-124404464D01*
X145912202Y-124452083D01*
X146055059Y-124452083D01*
X146245535Y-124404464D01*
X146340773Y-124356845D01*
X146436011Y-124261607D01*
X146483630Y-124118750D01*
X146483630Y-123880654D01*
X146483630Y-124928273D02*
X146483630Y-125118750D01*
X146436011Y-125213988D01*
X146388392Y-125261607D01*
X146245535Y-125356845D01*
X146055059Y-125404464D01*
X145674107Y-125404464D01*
X145578869Y-125356845D01*
X145531250Y-125309226D01*
X145483630Y-125213988D01*
X145483630Y-125023511D01*
X145531250Y-124928273D01*
X145578869Y-124880654D01*
X145674107Y-124833035D01*
X145912202Y-124833035D01*
X146007440Y-124880654D01*
X146055059Y-124928273D01*
X146102678Y-125023511D01*
X146102678Y-125213988D01*
X146055059Y-125309226D01*
X146007440Y-125356845D01*
X145912202Y-125404464D01*
%TO.C,C3*%
X211941666Y-74997142D02*
X211989285Y-75044761D01*
X212132142Y-75092380D01*
X212227380Y-75092380D01*
X212370238Y-75044761D01*
X212465476Y-74949523D01*
X212513095Y-74854285D01*
X212560714Y-74663809D01*
X212560714Y-74520952D01*
X212513095Y-74330476D01*
X212465476Y-74235238D01*
X212370238Y-74140000D01*
X212227380Y-74092380D01*
X212132142Y-74092380D01*
X211989285Y-74140000D01*
X211941666Y-74187619D01*
X211608333Y-74092380D02*
X210989285Y-74092380D01*
X211322619Y-74473333D01*
X211179761Y-74473333D01*
X211084523Y-74520952D01*
X211036904Y-74568571D01*
X210989285Y-74663809D01*
X210989285Y-74901904D01*
X211036904Y-74997142D01*
X211084523Y-75044761D01*
X211179761Y-75092380D01*
X211465476Y-75092380D01*
X211560714Y-75044761D01*
X211608333Y-74997142D01*
%TO.C,C_VDDA2*%
X44079761Y-90297142D02*
X44127380Y-90344761D01*
X44270238Y-90392380D01*
X44365476Y-90392380D01*
X44508333Y-90344761D01*
X44603571Y-90249523D01*
X44651190Y-90154285D01*
X44698809Y-89963809D01*
X44698809Y-89820952D01*
X44651190Y-89630476D01*
X44603571Y-89535238D01*
X44508333Y-89440000D01*
X44365476Y-89392380D01*
X44270238Y-89392380D01*
X44127380Y-89440000D01*
X44079761Y-89487619D01*
X43889285Y-90487619D02*
X43127380Y-90487619D01*
X43032142Y-89392380D02*
X42698809Y-90392380D01*
X42365476Y-89392380D01*
X42032142Y-90392380D02*
X42032142Y-89392380D01*
X41794047Y-89392380D01*
X41651190Y-89440000D01*
X41555952Y-89535238D01*
X41508333Y-89630476D01*
X41460714Y-89820952D01*
X41460714Y-89963809D01*
X41508333Y-90154285D01*
X41555952Y-90249523D01*
X41651190Y-90344761D01*
X41794047Y-90392380D01*
X42032142Y-90392380D01*
X41032142Y-90392380D02*
X41032142Y-89392380D01*
X40794047Y-89392380D01*
X40651190Y-89440000D01*
X40555952Y-89535238D01*
X40508333Y-89630476D01*
X40460714Y-89820952D01*
X40460714Y-89963809D01*
X40508333Y-90154285D01*
X40555952Y-90249523D01*
X40651190Y-90344761D01*
X40794047Y-90392380D01*
X41032142Y-90392380D01*
X40079761Y-90106666D02*
X39603571Y-90106666D01*
X40175000Y-90392380D02*
X39841666Y-89392380D01*
X39508333Y-90392380D01*
X39222619Y-89487619D02*
X39175000Y-89440000D01*
X39079761Y-89392380D01*
X38841666Y-89392380D01*
X38746428Y-89440000D01*
X38698809Y-89487619D01*
X38651190Y-89582857D01*
X38651190Y-89678095D01*
X38698809Y-89820952D01*
X39270238Y-90392380D01*
X38651190Y-90392380D01*
%TO.C,C_VDDIO2*%
X57203095Y-97487142D02*
X57250714Y-97534761D01*
X57393571Y-97582380D01*
X57488809Y-97582380D01*
X57631666Y-97534761D01*
X57726904Y-97439523D01*
X57774523Y-97344285D01*
X57822142Y-97153809D01*
X57822142Y-97010952D01*
X57774523Y-96820476D01*
X57726904Y-96725238D01*
X57631666Y-96630000D01*
X57488809Y-96582380D01*
X57393571Y-96582380D01*
X57250714Y-96630000D01*
X57203095Y-96677619D01*
X57012619Y-97677619D02*
X56250714Y-97677619D01*
X56155476Y-96582380D02*
X55822142Y-97582380D01*
X55488809Y-96582380D01*
X55155476Y-97582380D02*
X55155476Y-96582380D01*
X54917380Y-96582380D01*
X54774523Y-96630000D01*
X54679285Y-96725238D01*
X54631666Y-96820476D01*
X54584047Y-97010952D01*
X54584047Y-97153809D01*
X54631666Y-97344285D01*
X54679285Y-97439523D01*
X54774523Y-97534761D01*
X54917380Y-97582380D01*
X55155476Y-97582380D01*
X54155476Y-97582380D02*
X54155476Y-96582380D01*
X53917380Y-96582380D01*
X53774523Y-96630000D01*
X53679285Y-96725238D01*
X53631666Y-96820476D01*
X53584047Y-97010952D01*
X53584047Y-97153809D01*
X53631666Y-97344285D01*
X53679285Y-97439523D01*
X53774523Y-97534761D01*
X53917380Y-97582380D01*
X54155476Y-97582380D01*
X53155476Y-97582380D02*
X53155476Y-96582380D01*
X52488809Y-96582380D02*
X52298333Y-96582380D01*
X52203095Y-96630000D01*
X52107857Y-96725238D01*
X52060238Y-96915714D01*
X52060238Y-97249047D01*
X52107857Y-97439523D01*
X52203095Y-97534761D01*
X52298333Y-97582380D01*
X52488809Y-97582380D01*
X52584047Y-97534761D01*
X52679285Y-97439523D01*
X52726904Y-97249047D01*
X52726904Y-96915714D01*
X52679285Y-96725238D01*
X52584047Y-96630000D01*
X52488809Y-96582380D01*
X51679285Y-96677619D02*
X51631666Y-96630000D01*
X51536428Y-96582380D01*
X51298333Y-96582380D01*
X51203095Y-96630000D01*
X51155476Y-96677619D01*
X51107857Y-96772857D01*
X51107857Y-96868095D01*
X51155476Y-97010952D01*
X51726904Y-97582380D01*
X51107857Y-97582380D01*
%TO.C,D1*%
X56789880Y-66080654D02*
X55789880Y-66080654D01*
X55789880Y-66318750D01*
X55837500Y-66461607D01*
X55932738Y-66556845D01*
X56027976Y-66604464D01*
X56218452Y-66652083D01*
X56361309Y-66652083D01*
X56551785Y-66604464D01*
X56647023Y-66556845D01*
X56742261Y-66461607D01*
X56789880Y-66318750D01*
X56789880Y-66080654D01*
X56789880Y-67604464D02*
X56789880Y-67033035D01*
X56789880Y-67318750D02*
X55789880Y-67318750D01*
X55932738Y-67223511D01*
X56027976Y-67128273D01*
X56075595Y-67033035D01*
%TO.C,D8*%
X100446130Y-123086904D02*
X99446130Y-123086904D01*
X99446130Y-123325000D01*
X99493750Y-123467857D01*
X99588988Y-123563095D01*
X99684226Y-123610714D01*
X99874702Y-123658333D01*
X100017559Y-123658333D01*
X100208035Y-123610714D01*
X100303273Y-123563095D01*
X100398511Y-123467857D01*
X100446130Y-123325000D01*
X100446130Y-123086904D01*
X99874702Y-124229761D02*
X99827083Y-124134523D01*
X99779464Y-124086904D01*
X99684226Y-124039285D01*
X99636607Y-124039285D01*
X99541369Y-124086904D01*
X99493750Y-124134523D01*
X99446130Y-124229761D01*
X99446130Y-124420238D01*
X99493750Y-124515476D01*
X99541369Y-124563095D01*
X99636607Y-124610714D01*
X99684226Y-124610714D01*
X99779464Y-124563095D01*
X99827083Y-124515476D01*
X99874702Y-124420238D01*
X99874702Y-124229761D01*
X99922321Y-124134523D01*
X99969940Y-124086904D01*
X100065178Y-124039285D01*
X100255654Y-124039285D01*
X100350892Y-124086904D01*
X100398511Y-124134523D01*
X100446130Y-124229761D01*
X100446130Y-124420238D01*
X100398511Y-124515476D01*
X100350892Y-124563095D01*
X100255654Y-124610714D01*
X100065178Y-124610714D01*
X99969940Y-124563095D01*
X99922321Y-124515476D01*
X99874702Y-124420238D01*
%TO.C,D2*%
X61552380Y-84193154D02*
X60552380Y-84193154D01*
X60552380Y-84431250D01*
X60600000Y-84574107D01*
X60695238Y-84669345D01*
X60790476Y-84716964D01*
X60980952Y-84764583D01*
X61123809Y-84764583D01*
X61314285Y-84716964D01*
X61409523Y-84669345D01*
X61504761Y-84574107D01*
X61552380Y-84431250D01*
X61552380Y-84193154D01*
X60647619Y-85145535D02*
X60600000Y-85193154D01*
X60552380Y-85288392D01*
X60552380Y-85526488D01*
X60600000Y-85621726D01*
X60647619Y-85669345D01*
X60742857Y-85716964D01*
X60838095Y-85716964D01*
X60980952Y-85669345D01*
X61552380Y-85097916D01*
X61552380Y-85716964D01*
%TO.C,R5*%
X219151130Y-70058333D02*
X218674940Y-69725000D01*
X219151130Y-69486904D02*
X218151130Y-69486904D01*
X218151130Y-69867857D01*
X218198750Y-69963095D01*
X218246369Y-70010714D01*
X218341607Y-70058333D01*
X218484464Y-70058333D01*
X218579702Y-70010714D01*
X218627321Y-69963095D01*
X218674940Y-69867857D01*
X218674940Y-69486904D01*
X218151130Y-70963095D02*
X218151130Y-70486904D01*
X218627321Y-70439285D01*
X218579702Y-70486904D01*
X218532083Y-70582142D01*
X218532083Y-70820238D01*
X218579702Y-70915476D01*
X218627321Y-70963095D01*
X218722559Y-71010714D01*
X218960654Y-71010714D01*
X219055892Y-70963095D01*
X219103511Y-70915476D01*
X219151130Y-70820238D01*
X219151130Y-70582142D01*
X219103511Y-70486904D01*
X219055892Y-70439285D01*
%TO.C,C2*%
X40956666Y-92137142D02*
X41004285Y-92184761D01*
X41147142Y-92232380D01*
X41242380Y-92232380D01*
X41385238Y-92184761D01*
X41480476Y-92089523D01*
X41528095Y-91994285D01*
X41575714Y-91803809D01*
X41575714Y-91660952D01*
X41528095Y-91470476D01*
X41480476Y-91375238D01*
X41385238Y-91280000D01*
X41242380Y-91232380D01*
X41147142Y-91232380D01*
X41004285Y-91280000D01*
X40956666Y-91327619D01*
X40575714Y-91327619D02*
X40528095Y-91280000D01*
X40432857Y-91232380D01*
X40194761Y-91232380D01*
X40099523Y-91280000D01*
X40051904Y-91327619D01*
X40004285Y-91422857D01*
X40004285Y-91518095D01*
X40051904Y-91660952D01*
X40623333Y-92232380D01*
X40004285Y-92232380D01*
%TO.C,D6*%
X99652380Y-84193154D02*
X98652380Y-84193154D01*
X98652380Y-84431250D01*
X98700000Y-84574107D01*
X98795238Y-84669345D01*
X98890476Y-84716964D01*
X99080952Y-84764583D01*
X99223809Y-84764583D01*
X99414285Y-84716964D01*
X99509523Y-84669345D01*
X99604761Y-84574107D01*
X99652380Y-84431250D01*
X99652380Y-84193154D01*
X98652380Y-85621726D02*
X98652380Y-85431250D01*
X98700000Y-85336011D01*
X98747619Y-85288392D01*
X98890476Y-85193154D01*
X99080952Y-85145535D01*
X99461904Y-85145535D01*
X99557142Y-85193154D01*
X99604761Y-85240773D01*
X99652380Y-85336011D01*
X99652380Y-85526488D01*
X99604761Y-85621726D01*
X99557142Y-85669345D01*
X99461904Y-85716964D01*
X99223809Y-85716964D01*
X99128571Y-85669345D01*
X99080952Y-85621726D01*
X99033333Y-85526488D01*
X99033333Y-85336011D01*
X99080952Y-85240773D01*
X99128571Y-85193154D01*
X99223809Y-85145535D01*
%TO.C,D10*%
X132989880Y-65460714D02*
X131989880Y-65460714D01*
X131989880Y-65698809D01*
X132037500Y-65841666D01*
X132132738Y-65936904D01*
X132227976Y-65984523D01*
X132418452Y-66032142D01*
X132561309Y-66032142D01*
X132751785Y-65984523D01*
X132847023Y-65936904D01*
X132942261Y-65841666D01*
X132989880Y-65698809D01*
X132989880Y-65460714D01*
X132989880Y-66984523D02*
X132989880Y-66413095D01*
X132989880Y-66698809D02*
X131989880Y-66698809D01*
X132132738Y-66603571D01*
X132227976Y-66508333D01*
X132275595Y-66413095D01*
X131989880Y-67603571D02*
X131989880Y-67698809D01*
X132037500Y-67794047D01*
X132085119Y-67841666D01*
X132180357Y-67889285D01*
X132370833Y-67936904D01*
X132608928Y-67936904D01*
X132799404Y-67889285D01*
X132894642Y-67841666D01*
X132942261Y-67794047D01*
X132989880Y-67698809D01*
X132989880Y-67603571D01*
X132942261Y-67508333D01*
X132894642Y-67460714D01*
X132799404Y-67413095D01*
X132608928Y-67365476D01*
X132370833Y-67365476D01*
X132180357Y-67413095D01*
X132085119Y-67460714D01*
X132037500Y-67508333D01*
X131989880Y-67603571D01*
%TO.C,D5*%
X94889880Y-66080654D02*
X93889880Y-66080654D01*
X93889880Y-66318750D01*
X93937500Y-66461607D01*
X94032738Y-66556845D01*
X94127976Y-66604464D01*
X94318452Y-66652083D01*
X94461309Y-66652083D01*
X94651785Y-66604464D01*
X94747023Y-66556845D01*
X94842261Y-66461607D01*
X94889880Y-66318750D01*
X94889880Y-66080654D01*
X93889880Y-67556845D02*
X93889880Y-67080654D01*
X94366071Y-67033035D01*
X94318452Y-67080654D01*
X94270833Y-67175892D01*
X94270833Y-67413988D01*
X94318452Y-67509226D01*
X94366071Y-67556845D01*
X94461309Y-67604464D01*
X94699404Y-67604464D01*
X94794642Y-67556845D01*
X94842261Y-67509226D01*
X94889880Y-67413988D01*
X94889880Y-67175892D01*
X94842261Y-67080654D01*
X94794642Y-67033035D01*
%TO.C,D18*%
X191542380Y-65225714D02*
X190542380Y-65225714D01*
X190542380Y-65463809D01*
X190590000Y-65606666D01*
X190685238Y-65701904D01*
X190780476Y-65749523D01*
X190970952Y-65797142D01*
X191113809Y-65797142D01*
X191304285Y-65749523D01*
X191399523Y-65701904D01*
X191494761Y-65606666D01*
X191542380Y-65463809D01*
X191542380Y-65225714D01*
X191542380Y-66749523D02*
X191542380Y-66178095D01*
X191542380Y-66463809D02*
X190542380Y-66463809D01*
X190685238Y-66368571D01*
X190780476Y-66273333D01*
X190828095Y-66178095D01*
X190970952Y-67320952D02*
X190923333Y-67225714D01*
X190875714Y-67178095D01*
X190780476Y-67130476D01*
X190732857Y-67130476D01*
X190637619Y-67178095D01*
X190590000Y-67225714D01*
X190542380Y-67320952D01*
X190542380Y-67511428D01*
X190590000Y-67606666D01*
X190637619Y-67654285D01*
X190732857Y-67701904D01*
X190780476Y-67701904D01*
X190875714Y-67654285D01*
X190923333Y-67606666D01*
X190970952Y-67511428D01*
X190970952Y-67320952D01*
X191018571Y-67225714D01*
X191066190Y-67178095D01*
X191161428Y-67130476D01*
X191351904Y-67130476D01*
X191447142Y-67178095D01*
X191494761Y-67225714D01*
X191542380Y-67320952D01*
X191542380Y-67511428D01*
X191494761Y-67606666D01*
X191447142Y-67654285D01*
X191351904Y-67701904D01*
X191161428Y-67701904D01*
X191066190Y-67654285D01*
X191018571Y-67606666D01*
X190970952Y-67511428D01*
%TO.C,C_VDD1*%
X53837142Y-85983809D02*
X53884761Y-85936190D01*
X53932380Y-85793333D01*
X53932380Y-85698095D01*
X53884761Y-85555238D01*
X53789523Y-85460000D01*
X53694285Y-85412380D01*
X53503809Y-85364761D01*
X53360952Y-85364761D01*
X53170476Y-85412380D01*
X53075238Y-85460000D01*
X52980000Y-85555238D01*
X52932380Y-85698095D01*
X52932380Y-85793333D01*
X52980000Y-85936190D01*
X53027619Y-85983809D01*
X54027619Y-86174285D02*
X54027619Y-86936190D01*
X52932380Y-87031428D02*
X53932380Y-87364761D01*
X52932380Y-87698095D01*
X53932380Y-88031428D02*
X52932380Y-88031428D01*
X52932380Y-88269523D01*
X52980000Y-88412380D01*
X53075238Y-88507619D01*
X53170476Y-88555238D01*
X53360952Y-88602857D01*
X53503809Y-88602857D01*
X53694285Y-88555238D01*
X53789523Y-88507619D01*
X53884761Y-88412380D01*
X53932380Y-88269523D01*
X53932380Y-88031428D01*
X53932380Y-89031428D02*
X52932380Y-89031428D01*
X52932380Y-89269523D01*
X52980000Y-89412380D01*
X53075238Y-89507619D01*
X53170476Y-89555238D01*
X53360952Y-89602857D01*
X53503809Y-89602857D01*
X53694285Y-89555238D01*
X53789523Y-89507619D01*
X53884761Y-89412380D01*
X53932380Y-89269523D01*
X53932380Y-89031428D01*
X53932380Y-90555238D02*
X53932380Y-89983809D01*
X53932380Y-90269523D02*
X52932380Y-90269523D01*
X53075238Y-90174285D01*
X53170476Y-90079047D01*
X53218095Y-89983809D01*
%TO.C,U2*%
X214302380Y-79313095D02*
X215111904Y-79313095D01*
X215207142Y-79360714D01*
X215254761Y-79408333D01*
X215302380Y-79503571D01*
X215302380Y-79694047D01*
X215254761Y-79789285D01*
X215207142Y-79836904D01*
X215111904Y-79884523D01*
X214302380Y-79884523D01*
X214397619Y-80313095D02*
X214350000Y-80360714D01*
X214302380Y-80455952D01*
X214302380Y-80694047D01*
X214350000Y-80789285D01*
X214397619Y-80836904D01*
X214492857Y-80884523D01*
X214588095Y-80884523D01*
X214730952Y-80836904D01*
X215302380Y-80265476D01*
X215302380Y-80884523D01*
%TO.C,SW1*%
X69784761Y-110086666D02*
X69832380Y-110229523D01*
X69832380Y-110467619D01*
X69784761Y-110562857D01*
X69737142Y-110610476D01*
X69641904Y-110658095D01*
X69546666Y-110658095D01*
X69451428Y-110610476D01*
X69403809Y-110562857D01*
X69356190Y-110467619D01*
X69308571Y-110277142D01*
X69260952Y-110181904D01*
X69213333Y-110134285D01*
X69118095Y-110086666D01*
X69022857Y-110086666D01*
X68927619Y-110134285D01*
X68880000Y-110181904D01*
X68832380Y-110277142D01*
X68832380Y-110515238D01*
X68880000Y-110658095D01*
X68832380Y-110991428D02*
X69832380Y-111229523D01*
X69118095Y-111420000D01*
X69832380Y-111610476D01*
X68832380Y-111848571D01*
X69832380Y-112753333D02*
X69832380Y-112181904D01*
X69832380Y-112467619D02*
X68832380Y-112467619D01*
X68975238Y-112372380D01*
X69070476Y-112277142D01*
X69118095Y-112181904D01*
%TO.C,D19*%
X213952380Y-83716964D02*
X212952380Y-83716964D01*
X212952380Y-83955059D01*
X213000000Y-84097916D01*
X213095238Y-84193154D01*
X213190476Y-84240773D01*
X213380952Y-84288392D01*
X213523809Y-84288392D01*
X213714285Y-84240773D01*
X213809523Y-84193154D01*
X213904761Y-84097916D01*
X213952380Y-83955059D01*
X213952380Y-83716964D01*
X213952380Y-85240773D02*
X213952380Y-84669345D01*
X213952380Y-84955059D02*
X212952380Y-84955059D01*
X213095238Y-84859821D01*
X213190476Y-84764583D01*
X213238095Y-84669345D01*
X213952380Y-85716964D02*
X213952380Y-85907440D01*
X213904761Y-86002678D01*
X213857142Y-86050297D01*
X213714285Y-86145535D01*
X213523809Y-86193154D01*
X213142857Y-86193154D01*
X213047619Y-86145535D01*
X213000000Y-86097916D01*
X212952380Y-86002678D01*
X212952380Y-85812202D01*
X213000000Y-85716964D01*
X213047619Y-85669345D01*
X213142857Y-85621726D01*
X213380952Y-85621726D01*
X213476190Y-85669345D01*
X213523809Y-85716964D01*
X213571428Y-85812202D01*
X213571428Y-86002678D01*
X213523809Y-86097916D01*
X213476190Y-86145535D01*
X213380952Y-86193154D01*
%TO.C,C_VDD3*%
X46061190Y-97737142D02*
X46108809Y-97784761D01*
X46251666Y-97832380D01*
X46346904Y-97832380D01*
X46489761Y-97784761D01*
X46585000Y-97689523D01*
X46632619Y-97594285D01*
X46680238Y-97403809D01*
X46680238Y-97260952D01*
X46632619Y-97070476D01*
X46585000Y-96975238D01*
X46489761Y-96880000D01*
X46346904Y-96832380D01*
X46251666Y-96832380D01*
X46108809Y-96880000D01*
X46061190Y-96927619D01*
X45870714Y-97927619D02*
X45108809Y-97927619D01*
X45013571Y-96832380D02*
X44680238Y-97832380D01*
X44346904Y-96832380D01*
X44013571Y-97832380D02*
X44013571Y-96832380D01*
X43775476Y-96832380D01*
X43632619Y-96880000D01*
X43537380Y-96975238D01*
X43489761Y-97070476D01*
X43442142Y-97260952D01*
X43442142Y-97403809D01*
X43489761Y-97594285D01*
X43537380Y-97689523D01*
X43632619Y-97784761D01*
X43775476Y-97832380D01*
X44013571Y-97832380D01*
X43013571Y-97832380D02*
X43013571Y-96832380D01*
X42775476Y-96832380D01*
X42632619Y-96880000D01*
X42537380Y-96975238D01*
X42489761Y-97070476D01*
X42442142Y-97260952D01*
X42442142Y-97403809D01*
X42489761Y-97594285D01*
X42537380Y-97689523D01*
X42632619Y-97784761D01*
X42775476Y-97832380D01*
X43013571Y-97832380D01*
X42108809Y-96832380D02*
X41489761Y-96832380D01*
X41823095Y-97213333D01*
X41680238Y-97213333D01*
X41585000Y-97260952D01*
X41537380Y-97308571D01*
X41489761Y-97403809D01*
X41489761Y-97641904D01*
X41537380Y-97737142D01*
X41585000Y-97784761D01*
X41680238Y-97832380D01*
X41965952Y-97832380D01*
X42061190Y-97784761D01*
X42108809Y-97737142D01*
%TO.C,D4*%
X60758630Y-123086904D02*
X59758630Y-123086904D01*
X59758630Y-123325000D01*
X59806250Y-123467857D01*
X59901488Y-123563095D01*
X59996726Y-123610714D01*
X60187202Y-123658333D01*
X60330059Y-123658333D01*
X60520535Y-123610714D01*
X60615773Y-123563095D01*
X60711011Y-123467857D01*
X60758630Y-123325000D01*
X60758630Y-123086904D01*
X60091964Y-124515476D02*
X60758630Y-124515476D01*
X59711011Y-124277380D02*
X60425297Y-124039285D01*
X60425297Y-124658333D01*
%TO.C,Q1*%
X56342738Y-105887619D02*
X56437976Y-105840000D01*
X56533214Y-105744761D01*
X56676071Y-105601904D01*
X56771309Y-105554285D01*
X56866547Y-105554285D01*
X56818928Y-105792380D02*
X56914166Y-105744761D01*
X57009404Y-105649523D01*
X57057023Y-105459047D01*
X57057023Y-105125714D01*
X57009404Y-104935238D01*
X56914166Y-104840000D01*
X56818928Y-104792380D01*
X56628452Y-104792380D01*
X56533214Y-104840000D01*
X56437976Y-104935238D01*
X56390357Y-105125714D01*
X56390357Y-105459047D01*
X56437976Y-105649523D01*
X56533214Y-105744761D01*
X56628452Y-105792380D01*
X56818928Y-105792380D01*
X55437976Y-105792380D02*
X56009404Y-105792380D01*
X55723690Y-105792380D02*
X55723690Y-104792380D01*
X55818928Y-104935238D01*
X55914166Y-105030476D01*
X56009404Y-105078095D01*
%TO.C,D12*%
X147277380Y-102766964D02*
X146277380Y-102766964D01*
X146277380Y-103005059D01*
X146325000Y-103147916D01*
X146420238Y-103243154D01*
X146515476Y-103290773D01*
X146705952Y-103338392D01*
X146848809Y-103338392D01*
X147039285Y-103290773D01*
X147134523Y-103243154D01*
X147229761Y-103147916D01*
X147277380Y-103005059D01*
X147277380Y-102766964D01*
X147277380Y-104290773D02*
X147277380Y-103719345D01*
X147277380Y-104005059D02*
X146277380Y-104005059D01*
X146420238Y-103909821D01*
X146515476Y-103814583D01*
X146563095Y-103719345D01*
X146372619Y-104671726D02*
X146325000Y-104719345D01*
X146277380Y-104814583D01*
X146277380Y-105052678D01*
X146325000Y-105147916D01*
X146372619Y-105195535D01*
X146467857Y-105243154D01*
X146563095Y-105243154D01*
X146705952Y-105195535D01*
X147277380Y-104624107D01*
X147277380Y-105243154D01*
%TO.C,R4*%
X213607380Y-67548333D02*
X213131190Y-67215000D01*
X213607380Y-66976904D02*
X212607380Y-66976904D01*
X212607380Y-67357857D01*
X212655000Y-67453095D01*
X212702619Y-67500714D01*
X212797857Y-67548333D01*
X212940714Y-67548333D01*
X213035952Y-67500714D01*
X213083571Y-67453095D01*
X213131190Y-67357857D01*
X213131190Y-66976904D01*
X212940714Y-68405476D02*
X213607380Y-68405476D01*
X212559761Y-68167380D02*
X213274047Y-67929285D01*
X213274047Y-68548333D01*
%TO.C,F1*%
X212433571Y-64641666D02*
X212433571Y-64308333D01*
X212957380Y-64308333D02*
X211957380Y-64308333D01*
X211957380Y-64784523D01*
X212957380Y-65689285D02*
X212957380Y-65117857D01*
X212957380Y-65403571D02*
X211957380Y-65403571D01*
X212100238Y-65308333D01*
X212195476Y-65213095D01*
X212243095Y-65117857D01*
%TO.C,D14*%
X171089880Y-65460714D02*
X170089880Y-65460714D01*
X170089880Y-65698809D01*
X170137500Y-65841666D01*
X170232738Y-65936904D01*
X170327976Y-65984523D01*
X170518452Y-66032142D01*
X170661309Y-66032142D01*
X170851785Y-65984523D01*
X170947023Y-65936904D01*
X171042261Y-65841666D01*
X171089880Y-65698809D01*
X171089880Y-65460714D01*
X171089880Y-66984523D02*
X171089880Y-66413095D01*
X171089880Y-66698809D02*
X170089880Y-66698809D01*
X170232738Y-66603571D01*
X170327976Y-66508333D01*
X170375595Y-66413095D01*
X170423214Y-67841666D02*
X171089880Y-67841666D01*
X170042261Y-67603571D02*
X170756547Y-67365476D01*
X170756547Y-67984523D01*
%TO.C,R3*%
X70862380Y-113893333D02*
X70386190Y-113560000D01*
X70862380Y-113321904D02*
X69862380Y-113321904D01*
X69862380Y-113702857D01*
X69910000Y-113798095D01*
X69957619Y-113845714D01*
X70052857Y-113893333D01*
X70195714Y-113893333D01*
X70290952Y-113845714D01*
X70338571Y-113798095D01*
X70386190Y-113702857D01*
X70386190Y-113321904D01*
X69862380Y-114226666D02*
X69862380Y-114845714D01*
X70243333Y-114512380D01*
X70243333Y-114655238D01*
X70290952Y-114750476D01*
X70338571Y-114798095D01*
X70433809Y-114845714D01*
X70671904Y-114845714D01*
X70767142Y-114798095D01*
X70814761Y-114750476D01*
X70862380Y-114655238D01*
X70862380Y-114369523D01*
X70814761Y-114274285D01*
X70767142Y-114226666D01*
%TO.C,D15*%
X175852380Y-83716964D02*
X174852380Y-83716964D01*
X174852380Y-83955059D01*
X174900000Y-84097916D01*
X174995238Y-84193154D01*
X175090476Y-84240773D01*
X175280952Y-84288392D01*
X175423809Y-84288392D01*
X175614285Y-84240773D01*
X175709523Y-84193154D01*
X175804761Y-84097916D01*
X175852380Y-83955059D01*
X175852380Y-83716964D01*
X175852380Y-85240773D02*
X175852380Y-84669345D01*
X175852380Y-84955059D02*
X174852380Y-84955059D01*
X174995238Y-84859821D01*
X175090476Y-84764583D01*
X175138095Y-84669345D01*
X174852380Y-86145535D02*
X174852380Y-85669345D01*
X175328571Y-85621726D01*
X175280952Y-85669345D01*
X175233333Y-85764583D01*
X175233333Y-86002678D01*
X175280952Y-86097916D01*
X175328571Y-86145535D01*
X175423809Y-86193154D01*
X175661904Y-86193154D01*
X175757142Y-86145535D01*
X175804761Y-86097916D01*
X175852380Y-86002678D01*
X175852380Y-85764583D01*
X175804761Y-85669345D01*
X175757142Y-85621726D01*
%TO.C,C2*%
X57167142Y-111123333D02*
X57214761Y-111075714D01*
X57262380Y-110932857D01*
X57262380Y-110837619D01*
X57214761Y-110694761D01*
X57119523Y-110599523D01*
X57024285Y-110551904D01*
X56833809Y-110504285D01*
X56690952Y-110504285D01*
X56500476Y-110551904D01*
X56405238Y-110599523D01*
X56310000Y-110694761D01*
X56262380Y-110837619D01*
X56262380Y-110932857D01*
X56310000Y-111075714D01*
X56357619Y-111123333D01*
X56357619Y-111504285D02*
X56310000Y-111551904D01*
X56262380Y-111647142D01*
X56262380Y-111885238D01*
X56310000Y-111980476D01*
X56357619Y-112028095D01*
X56452857Y-112075714D01*
X56548095Y-112075714D01*
X56690952Y-112028095D01*
X57262380Y-111456666D01*
X57262380Y-112075714D01*
%TO.C,D11*%
X137752380Y-83716964D02*
X136752380Y-83716964D01*
X136752380Y-83955059D01*
X136800000Y-84097916D01*
X136895238Y-84193154D01*
X136990476Y-84240773D01*
X137180952Y-84288392D01*
X137323809Y-84288392D01*
X137514285Y-84240773D01*
X137609523Y-84193154D01*
X137704761Y-84097916D01*
X137752380Y-83955059D01*
X137752380Y-83716964D01*
X137752380Y-85240773D02*
X137752380Y-84669345D01*
X137752380Y-84955059D02*
X136752380Y-84955059D01*
X136895238Y-84859821D01*
X136990476Y-84764583D01*
X137038095Y-84669345D01*
X137752380Y-86193154D02*
X137752380Y-85621726D01*
X137752380Y-85907440D02*
X136752380Y-85907440D01*
X136895238Y-85812202D01*
X136990476Y-85716964D01*
X137038095Y-85621726D01*
%TO.C,R1*%
X61616666Y-107552380D02*
X61950000Y-107076190D01*
X62188095Y-107552380D02*
X62188095Y-106552380D01*
X61807142Y-106552380D01*
X61711904Y-106600000D01*
X61664285Y-106647619D01*
X61616666Y-106742857D01*
X61616666Y-106885714D01*
X61664285Y-106980952D01*
X61711904Y-107028571D01*
X61807142Y-107076190D01*
X62188095Y-107076190D01*
X60664285Y-107552380D02*
X61235714Y-107552380D01*
X60950000Y-107552380D02*
X60950000Y-106552380D01*
X61045238Y-106695238D01*
X61140476Y-106790476D01*
X61235714Y-106838095D01*
%TO.C,C_VDD2*%
X46056190Y-96217142D02*
X46103809Y-96264761D01*
X46246666Y-96312380D01*
X46341904Y-96312380D01*
X46484761Y-96264761D01*
X46580000Y-96169523D01*
X46627619Y-96074285D01*
X46675238Y-95883809D01*
X46675238Y-95740952D01*
X46627619Y-95550476D01*
X46580000Y-95455238D01*
X46484761Y-95360000D01*
X46341904Y-95312380D01*
X46246666Y-95312380D01*
X46103809Y-95360000D01*
X46056190Y-95407619D01*
X45865714Y-96407619D02*
X45103809Y-96407619D01*
X45008571Y-95312380D02*
X44675238Y-96312380D01*
X44341904Y-95312380D01*
X44008571Y-96312380D02*
X44008571Y-95312380D01*
X43770476Y-95312380D01*
X43627619Y-95360000D01*
X43532380Y-95455238D01*
X43484761Y-95550476D01*
X43437142Y-95740952D01*
X43437142Y-95883809D01*
X43484761Y-96074285D01*
X43532380Y-96169523D01*
X43627619Y-96264761D01*
X43770476Y-96312380D01*
X44008571Y-96312380D01*
X43008571Y-96312380D02*
X43008571Y-95312380D01*
X42770476Y-95312380D01*
X42627619Y-95360000D01*
X42532380Y-95455238D01*
X42484761Y-95550476D01*
X42437142Y-95740952D01*
X42437142Y-95883809D01*
X42484761Y-96074285D01*
X42532380Y-96169523D01*
X42627619Y-96264761D01*
X42770476Y-96312380D01*
X43008571Y-96312380D01*
X42056190Y-95407619D02*
X42008571Y-95360000D01*
X41913333Y-95312380D01*
X41675238Y-95312380D01*
X41580000Y-95360000D01*
X41532380Y-95407619D01*
X41484761Y-95502857D01*
X41484761Y-95598095D01*
X41532380Y-95740952D01*
X42103809Y-96312380D01*
X41484761Y-96312380D01*
%TO.C,U1*%
X49591904Y-97832380D02*
X49591904Y-98641904D01*
X49544285Y-98737142D01*
X49496666Y-98784761D01*
X49401428Y-98832380D01*
X49210952Y-98832380D01*
X49115714Y-98784761D01*
X49068095Y-98737142D01*
X49020476Y-98641904D01*
X49020476Y-97832380D01*
X48020476Y-98832380D02*
X48591904Y-98832380D01*
X48306190Y-98832380D02*
X48306190Y-97832380D01*
X48401428Y-97975238D01*
X48496666Y-98070476D01*
X48591904Y-98118095D01*
%TO.C,J2*%
X213852083Y-63041130D02*
X213852083Y-63755416D01*
X213899702Y-63898273D01*
X213994940Y-63993511D01*
X214137797Y-64041130D01*
X214233035Y-64041130D01*
X213423511Y-63136369D02*
X213375892Y-63088750D01*
X213280654Y-63041130D01*
X213042559Y-63041130D01*
X212947321Y-63088750D01*
X212899702Y-63136369D01*
X212852083Y-63231607D01*
X212852083Y-63326845D01*
X212899702Y-63469702D01*
X213471130Y-64041130D01*
X212852083Y-64041130D01*
%TO.C,D17*%
X215539880Y-123404464D02*
X214539880Y-123404464D01*
X214539880Y-123642559D01*
X214587500Y-123785416D01*
X214682738Y-123880654D01*
X214777976Y-123928273D01*
X214968452Y-123975892D01*
X215111309Y-123975892D01*
X215301785Y-123928273D01*
X215397023Y-123880654D01*
X215492261Y-123785416D01*
X215539880Y-123642559D01*
X215539880Y-123404464D01*
X215539880Y-124928273D02*
X215539880Y-124356845D01*
X215539880Y-124642559D02*
X214539880Y-124642559D01*
X214682738Y-124547321D01*
X214777976Y-124452083D01*
X214825595Y-124356845D01*
X214539880Y-125261607D02*
X214539880Y-125928273D01*
X215539880Y-125499702D01*
%TO.C,C1*%
X62937142Y-105983333D02*
X62984761Y-105935714D01*
X63032380Y-105792857D01*
X63032380Y-105697619D01*
X62984761Y-105554761D01*
X62889523Y-105459523D01*
X62794285Y-105411904D01*
X62603809Y-105364285D01*
X62460952Y-105364285D01*
X62270476Y-105411904D01*
X62175238Y-105459523D01*
X62080000Y-105554761D01*
X62032380Y-105697619D01*
X62032380Y-105792857D01*
X62080000Y-105935714D01*
X62127619Y-105983333D01*
X63032380Y-106935714D02*
X63032380Y-106364285D01*
X63032380Y-106650000D02*
X62032380Y-106650000D01*
X62175238Y-106554761D01*
X62270476Y-106459523D01*
X62318095Y-106364285D01*
%TO.C,C4*%
X211186666Y-84017142D02*
X211234285Y-84064761D01*
X211377142Y-84112380D01*
X211472380Y-84112380D01*
X211615238Y-84064761D01*
X211710476Y-83969523D01*
X211758095Y-83874285D01*
X211805714Y-83683809D01*
X211805714Y-83540952D01*
X211758095Y-83350476D01*
X211710476Y-83255238D01*
X211615238Y-83160000D01*
X211472380Y-83112380D01*
X211377142Y-83112380D01*
X211234285Y-83160000D01*
X211186666Y-83207619D01*
X210329523Y-83445714D02*
X210329523Y-84112380D01*
X210567619Y-83064761D02*
X210805714Y-83779047D01*
X210186666Y-83779047D01*
%TO.C,D20*%
X209189880Y-102766964D02*
X208189880Y-102766964D01*
X208189880Y-103005059D01*
X208237500Y-103147916D01*
X208332738Y-103243154D01*
X208427976Y-103290773D01*
X208618452Y-103338392D01*
X208761309Y-103338392D01*
X208951785Y-103290773D01*
X209047023Y-103243154D01*
X209142261Y-103147916D01*
X209189880Y-103005059D01*
X209189880Y-102766964D01*
X208285119Y-103719345D02*
X208237500Y-103766964D01*
X208189880Y-103862202D01*
X208189880Y-104100297D01*
X208237500Y-104195535D01*
X208285119Y-104243154D01*
X208380357Y-104290773D01*
X208475595Y-104290773D01*
X208618452Y-104243154D01*
X209189880Y-103671726D01*
X209189880Y-104290773D01*
X208189880Y-104909821D02*
X208189880Y-105005059D01*
X208237500Y-105100297D01*
X208285119Y-105147916D01*
X208380357Y-105195535D01*
X208570833Y-105243154D01*
X208808928Y-105243154D01*
X208999404Y-105195535D01*
X209094642Y-105147916D01*
X209142261Y-105100297D01*
X209189880Y-105005059D01*
X209189880Y-104909821D01*
X209142261Y-104814583D01*
X209094642Y-104766964D01*
X208999404Y-104719345D01*
X208808928Y-104671726D01*
X208570833Y-104671726D01*
X208380357Y-104719345D01*
X208285119Y-104766964D01*
X208237500Y-104814583D01*
X208189880Y-104909821D01*
%TO.C,D_PWR1*%
X205970476Y-75302380D02*
X205970476Y-74302380D01*
X205732380Y-74302380D01*
X205589523Y-74350000D01*
X205494285Y-74445238D01*
X205446666Y-74540476D01*
X205399047Y-74730952D01*
X205399047Y-74873809D01*
X205446666Y-75064285D01*
X205494285Y-75159523D01*
X205589523Y-75254761D01*
X205732380Y-75302380D01*
X205970476Y-75302380D01*
X205208571Y-75397619D02*
X204446666Y-75397619D01*
X204208571Y-75302380D02*
X204208571Y-74302380D01*
X203827619Y-74302380D01*
X203732380Y-74350000D01*
X203684761Y-74397619D01*
X203637142Y-74492857D01*
X203637142Y-74635714D01*
X203684761Y-74730952D01*
X203732380Y-74778571D01*
X203827619Y-74826190D01*
X204208571Y-74826190D01*
X203303809Y-74302380D02*
X203065714Y-75302380D01*
X202875238Y-74588095D01*
X202684761Y-75302380D01*
X202446666Y-74302380D01*
X201494285Y-75302380D02*
X201827619Y-74826190D01*
X202065714Y-75302380D02*
X202065714Y-74302380D01*
X201684761Y-74302380D01*
X201589523Y-74350000D01*
X201541904Y-74397619D01*
X201494285Y-74492857D01*
X201494285Y-74635714D01*
X201541904Y-74730952D01*
X201589523Y-74778571D01*
X201684761Y-74826190D01*
X202065714Y-74826190D01*
X200541904Y-75302380D02*
X201113333Y-75302380D01*
X200827619Y-75302380D02*
X200827619Y-74302380D01*
X200922857Y-74445238D01*
X201018095Y-74540476D01*
X201113333Y-74588095D01*
D11*
%TO.C,C_VDDIO1*%
X54600580Y-96560000D02*
X54319420Y-96560000D01*
X54600580Y-97580000D02*
X54319420Y-97580000D01*
%TO.C,D13*%
X174652500Y-124618750D02*
X174652500Y-125268750D01*
X174652500Y-124618750D02*
X174652500Y-122943750D01*
X177772500Y-124618750D02*
X177772500Y-123968750D01*
X177772500Y-124618750D02*
X177772500Y-125268750D01*
%TO.C,J1*%
X211548500Y-72796500D02*
X212538500Y-72796500D01*
X209048500Y-73846500D02*
X211548500Y-73846500D01*
X207078500Y-72676500D02*
X207078500Y-68796500D01*
X209048500Y-67626500D02*
X211548500Y-67626500D01*
X211548500Y-73846500D02*
X211548500Y-72796500D01*
X211548500Y-67626500D02*
X211548500Y-68676500D01*
%TO.C,D7*%
X109565000Y-103981250D02*
X109565000Y-104631250D01*
X112685000Y-103981250D02*
X112685000Y-104631250D01*
X112685000Y-103981250D02*
X112685000Y-103331250D01*
X109565000Y-103981250D02*
X109565000Y-102306250D01*
%TO.C,D3*%
X69822500Y-103981250D02*
X69822500Y-103331250D01*
X66702500Y-103981250D02*
X66702500Y-102306250D01*
X69822500Y-103981250D02*
X69822500Y-104631250D01*
X66702500Y-103981250D02*
X66702500Y-104631250D01*
%TO.C,R2*%
X60833641Y-106410000D02*
X60526359Y-106410000D01*
X60833641Y-105650000D02*
X60526359Y-105650000D01*
%TO.C,U3*%
X215590000Y-70225000D02*
X215590000Y-69425000D01*
X218710000Y-70225000D02*
X218710000Y-69425000D01*
X215590000Y-70225000D02*
X215590000Y-71025000D01*
X218710000Y-70225000D02*
X218710000Y-72025000D01*
%TO.C,C_VDDA1*%
X41830580Y-90370000D02*
X41549420Y-90370000D01*
X41830580Y-89350000D02*
X41549420Y-89350000D01*
%TO.C,R_USB1*%
X57412500Y-95717258D02*
X57412500Y-95242742D01*
X56367500Y-95717258D02*
X56367500Y-95242742D01*
%TO.C,D16*%
X188885000Y-103981250D02*
X188885000Y-104631250D01*
X185765000Y-103981250D02*
X185765000Y-104631250D01*
X185765000Y-103981250D02*
X185765000Y-102306250D01*
X188885000Y-103981250D02*
X188885000Y-103331250D01*
%TO.C,D9*%
X146871250Y-124618750D02*
X146871250Y-125268750D01*
X149991250Y-124618750D02*
X149991250Y-125268750D01*
X146871250Y-124618750D02*
X146871250Y-122943750D01*
X149991250Y-124618750D02*
X149991250Y-123968750D01*
%TO.C,C3*%
X211882836Y-76160000D02*
X211667164Y-76160000D01*
X211882836Y-75440000D02*
X211667164Y-75440000D01*
%TO.C,C_VDDA2*%
X41815580Y-90860000D02*
X41534420Y-90860000D01*
X41815580Y-91880000D02*
X41534420Y-91880000D01*
%TO.C,C_VDDIO2*%
X54605580Y-98050000D02*
X54324420Y-98050000D01*
X54605580Y-99070000D02*
X54324420Y-99070000D01*
%TO.C,D1*%
X60297500Y-66818750D02*
X60297500Y-67468750D01*
X57177500Y-66818750D02*
X57177500Y-67468750D01*
X60297500Y-66818750D02*
X60297500Y-66168750D01*
X57177500Y-66818750D02*
X57177500Y-65143750D01*
%TO.C,D8*%
X103953750Y-123825000D02*
X103953750Y-124475000D01*
X100833750Y-123825000D02*
X100833750Y-122150000D01*
X103953750Y-123825000D02*
X103953750Y-123175000D01*
X100833750Y-123825000D02*
X100833750Y-124475000D01*
%TO.C,D2*%
X61940000Y-84931250D02*
X61940000Y-83256250D01*
X61940000Y-84931250D02*
X61940000Y-85581250D01*
X65060000Y-84931250D02*
X65060000Y-84281250D01*
X65060000Y-84931250D02*
X65060000Y-85581250D01*
%TO.C,R5*%
X219488750Y-70071359D02*
X219488750Y-70378641D01*
X220248750Y-70071359D02*
X220248750Y-70378641D01*
%TO.C,C2*%
X40897836Y-93300000D02*
X40682164Y-93300000D01*
X40897836Y-92580000D02*
X40682164Y-92580000D01*
%TO.C,D6*%
X100040000Y-84931250D02*
X100040000Y-85581250D01*
X100040000Y-84931250D02*
X100040000Y-83256250D01*
X103160000Y-84931250D02*
X103160000Y-84281250D01*
X103160000Y-84931250D02*
X103160000Y-85581250D01*
%TO.C,D10*%
X136497500Y-66675000D02*
X136497500Y-66025000D01*
X133377500Y-66675000D02*
X133377500Y-67325000D01*
X136497500Y-66675000D02*
X136497500Y-67325000D01*
X133377500Y-66675000D02*
X133377500Y-65000000D01*
%TO.C,D5*%
X98397500Y-66818750D02*
X98397500Y-66168750D01*
X98397500Y-66818750D02*
X98397500Y-67468750D01*
X95277500Y-66818750D02*
X95277500Y-65143750D01*
X95277500Y-66818750D02*
X95277500Y-67468750D01*
%TO.C,D18*%
X191930000Y-66440000D02*
X191930000Y-64765000D01*
X191930000Y-66440000D02*
X191930000Y-67090000D01*
X195050000Y-66440000D02*
X195050000Y-65790000D01*
X195050000Y-66440000D02*
X195050000Y-67090000D01*
%TO.C,C_VDD1*%
X54400000Y-87819420D02*
X54400000Y-88100580D01*
X55420000Y-87819420D02*
X55420000Y-88100580D01*
%TO.C,U2*%
X214010000Y-80075000D02*
X214010000Y-81750000D01*
X210890000Y-80075000D02*
X210890000Y-80725000D01*
X210890000Y-80075000D02*
X210890000Y-79425000D01*
X214010000Y-80075000D02*
X214010000Y-79425000D01*
%TO.C,SW1*%
X66630000Y-108670000D02*
X64630000Y-108670000D01*
X63330000Y-113120000D02*
X62880000Y-112670000D01*
X63330000Y-109720000D02*
X62880000Y-110170000D01*
X67930000Y-109720000D02*
X68380000Y-110170000D01*
X62880000Y-112670000D02*
X62880000Y-110170000D01*
X66630000Y-114170000D02*
X64630000Y-114170000D01*
X68380000Y-112670000D02*
X68380000Y-110170000D01*
X67930000Y-113120000D02*
X68380000Y-112670000D01*
%TO.C,D19*%
X214340000Y-84931250D02*
X214340000Y-85581250D01*
X217460000Y-84931250D02*
X217460000Y-84281250D01*
X217460000Y-84931250D02*
X217460000Y-85581250D01*
X214340000Y-84931250D02*
X214340000Y-83256250D01*
%TO.C,C_VDD3*%
X44225580Y-99320000D02*
X43944420Y-99320000D01*
X44225580Y-98300000D02*
X43944420Y-98300000D01*
%TO.C,D4*%
X61146250Y-123825000D02*
X61146250Y-124475000D01*
X64266250Y-123825000D02*
X64266250Y-123175000D01*
X64266250Y-123825000D02*
X64266250Y-124475000D01*
X61146250Y-123825000D02*
X61146250Y-122150000D01*
%TO.C,Q1*%
X56247500Y-106180000D02*
X57922500Y-106180000D01*
X56247500Y-109300000D02*
X55597500Y-109300000D01*
X56247500Y-106180000D02*
X55597500Y-106180000D01*
X56247500Y-109300000D02*
X56897500Y-109300000D01*
%TO.C,D12*%
X150785000Y-103981250D02*
X150785000Y-104631250D01*
X147665000Y-103981250D02*
X147665000Y-104631250D01*
X147665000Y-103981250D02*
X147665000Y-102306250D01*
X150785000Y-103981250D02*
X150785000Y-103331250D01*
%TO.C,R4*%
X214705000Y-67561359D02*
X214705000Y-67868641D01*
X213945000Y-67561359D02*
X213945000Y-67868641D01*
%TO.C,F1*%
X211585000Y-65137779D02*
X211585000Y-64812221D01*
X210565000Y-65137779D02*
X210565000Y-64812221D01*
%TO.C,D14*%
X171477500Y-66675000D02*
X171477500Y-67325000D01*
X171477500Y-66675000D02*
X171477500Y-65000000D01*
X174597500Y-66675000D02*
X174597500Y-66025000D01*
X174597500Y-66675000D02*
X174597500Y-67325000D01*
%TO.C,R3*%
X68860000Y-114213641D02*
X68860000Y-113906359D01*
X69620000Y-114213641D02*
X69620000Y-113906359D01*
%TO.C,D15*%
X179360000Y-84931250D02*
X179360000Y-85581250D01*
X176240000Y-84931250D02*
X176240000Y-85581250D01*
X176240000Y-84931250D02*
X176240000Y-83256250D01*
X179360000Y-84931250D02*
X179360000Y-84281250D01*
%TO.C,C2*%
X56010000Y-111397836D02*
X56010000Y-111182164D01*
X55290000Y-111397836D02*
X55290000Y-111182164D01*
%TO.C,D11*%
X138140000Y-84931250D02*
X138140000Y-83256250D01*
X138140000Y-84931250D02*
X138140000Y-85581250D01*
X141260000Y-84931250D02*
X141260000Y-84281250D01*
X141260000Y-84931250D02*
X141260000Y-85581250D01*
%TO.C,R1*%
X61603641Y-108650000D02*
X61296359Y-108650000D01*
X61603641Y-107890000D02*
X61296359Y-107890000D01*
%TO.C,C_VDD2*%
X44220580Y-96780000D02*
X43939420Y-96780000D01*
X44220580Y-97800000D02*
X43939420Y-97800000D01*
%TO.C,U1*%
X51990000Y-88920000D02*
X52440000Y-88920000D01*
X52440000Y-96140000D02*
X52440000Y-95690000D01*
X45220000Y-96140000D02*
X45220000Y-95690000D01*
X45220000Y-95690000D02*
X43930000Y-95690000D01*
X45670000Y-96140000D02*
X45220000Y-96140000D01*
X51990000Y-96140000D02*
X52440000Y-96140000D01*
X45220000Y-88920000D02*
X45220000Y-89370000D01*
X52440000Y-88920000D02*
X52440000Y-89370000D01*
X45670000Y-88920000D02*
X45220000Y-88920000D01*
%TO.C,J2*%
X218218750Y-59843750D02*
X218218750Y-57843750D01*
X208818750Y-54043750D02*
X218218750Y-54043750D01*
X218218750Y-55943750D02*
X218218750Y-54043750D01*
X208818750Y-55943750D02*
X208818750Y-54043750D01*
X208818750Y-59843750D02*
X208818750Y-57843750D01*
%TO.C,D17*%
X215927500Y-124618750D02*
X215927500Y-122943750D01*
X219047500Y-124618750D02*
X219047500Y-123968750D01*
X219047500Y-124618750D02*
X219047500Y-125268750D01*
X215927500Y-124618750D02*
X215927500Y-125268750D01*
%TO.C,C1*%
X63380000Y-106042164D02*
X63380000Y-106257836D01*
X64100000Y-106042164D02*
X64100000Y-106257836D01*
%TO.C,C4*%
X210912164Y-82860000D02*
X211127836Y-82860000D01*
X210912164Y-82140000D02*
X211127836Y-82140000D01*
%TO.C,D20*%
X209577500Y-103981250D02*
X209577500Y-102306250D01*
X212697500Y-103981250D02*
X212697500Y-103331250D01*
X209577500Y-103981250D02*
X209577500Y-104631250D01*
X212697500Y-103981250D02*
X212697500Y-104631250D01*
%TO.C,D_PWR1*%
X205530000Y-77850000D02*
X201630000Y-77850000D01*
X205530000Y-75850000D02*
X205530000Y-77850000D01*
X205530000Y-75850000D02*
X201630000Y-75850000D01*
%TD*%
M02*
