%TF.GenerationSoftware,KiCad,Pcbnew,(6.0.4)*%
%TF.CreationDate,2022-12-31T18:56:14+01:00*%
%TF.ProjectId,PeppyQAZ,50657070-7951-4415-9a2e-6b696361645f,rev?*%
%TF.SameCoordinates,Original*%
%TF.FileFunction,Legend,Top*%
%TF.FilePolarity,Positive*%
%FSLAX46Y46*%
G04 Gerber Fmt 4.6, Leading zero omitted, Abs format (unit mm)*
G04 Created by KiCad (PCBNEW (6.0.4)) date 2022-12-31 18:56:14*
%MOMM*%
%LPD*%
G01*
G04 APERTURE LIST*
G04 APERTURE END LIST*
%TO.C,G\u002A\u002A\u002A*%
G36*
X123083967Y-107356873D02*
G01*
X123353697Y-107250004D01*
X123492523Y-107239220D01*
X123652938Y-107210373D01*
X123664611Y-107141802D01*
X123540543Y-107085827D01*
X123349632Y-107095339D01*
X123169043Y-107113046D01*
X123102551Y-107040070D01*
X123094860Y-106927251D01*
X123110327Y-106795231D01*
X123187435Y-106730635D01*
X123372242Y-106709714D01*
X123519669Y-106708209D01*
X123793114Y-106729147D01*
X123998294Y-106782165D01*
X124050679Y-106814412D01*
X124108530Y-106961613D01*
X124145848Y-107242661D01*
X124156881Y-107557523D01*
X124156881Y-108194433D01*
X123680702Y-108200121D01*
X123346893Y-108182584D01*
X123138829Y-108112500D01*
X123061190Y-108047427D01*
X122918608Y-107791382D01*
X122922379Y-107725979D01*
X123360366Y-107725979D01*
X123421456Y-107835522D01*
X123559494Y-107842762D01*
X123715132Y-107787204D01*
X123758623Y-107725979D01*
X123683351Y-107646117D01*
X123559494Y-107609197D01*
X123397215Y-107630653D01*
X123360366Y-107725979D01*
X122922379Y-107725979D01*
X122932569Y-107549264D01*
X123083967Y-107356873D01*
G37*
G36*
X119761809Y-107305596D02*
G01*
X119624534Y-107670765D01*
X119492375Y-108030200D01*
X119403449Y-108279115D01*
X119298723Y-108522623D01*
X119184095Y-108633589D01*
X119059712Y-108655248D01*
X118897446Y-108621833D01*
X118846777Y-108560928D01*
X118885324Y-108407409D01*
X118925887Y-108317548D01*
X118942338Y-108150730D01*
X118870735Y-107862840D01*
X118753514Y-107548976D01*
X118604934Y-107171125D01*
X118526596Y-106926551D01*
X118516757Y-106786828D01*
X118573677Y-106723529D01*
X118695614Y-106708225D01*
X118702000Y-106708209D01*
X118845083Y-106742914D01*
X118958371Y-106873147D01*
X119072784Y-107128593D01*
X119234337Y-107548976D01*
X119365851Y-107128593D01*
X119457809Y-106874334D01*
X119551200Y-106749324D01*
X119685245Y-106709888D01*
X119743366Y-106708209D01*
X119989367Y-106708209D01*
X119761809Y-107305596D01*
G37*
G36*
X106525777Y-106714192D02*
G01*
X106590911Y-106755837D01*
X106620959Y-106868689D01*
X106625615Y-107088294D01*
X106614990Y-107438349D01*
X106598838Y-107798093D01*
X106574237Y-108017647D01*
X106530280Y-108133805D01*
X106456058Y-108183364D01*
X106390156Y-108196769D01*
X106294039Y-108201829D01*
X106235204Y-108161214D01*
X106204515Y-108041429D01*
X106192836Y-107808975D01*
X106191028Y-107466630D01*
X106192935Y-107100567D01*
X106205557Y-106876600D01*
X106239242Y-106759823D01*
X106304337Y-106715328D01*
X106411191Y-106708210D01*
X106415861Y-106708209D01*
X106525777Y-106714192D01*
G37*
G36*
X118227265Y-108212739D02*
G01*
X117784756Y-108212739D01*
X117784756Y-106088697D01*
X118227265Y-106088697D01*
X118227265Y-108212739D01*
G37*
G36*
X129321654Y-107055752D02*
G01*
X129496607Y-106824309D01*
X129792436Y-106717968D01*
X129953745Y-106708209D01*
X130302728Y-106765790D01*
X130533121Y-106949058D01*
X130664010Y-107273807D01*
X130669608Y-107300591D01*
X130667288Y-107651659D01*
X130533048Y-107932234D01*
X130303410Y-108120557D01*
X130014894Y-108194869D01*
X129704023Y-108133409D01*
X129495315Y-108000239D01*
X129326035Y-107813284D01*
X129261607Y-107595552D01*
X129260120Y-107526955D01*
X129702915Y-107526955D01*
X129782417Y-107720310D01*
X129850762Y-107784168D01*
X130017695Y-107807434D01*
X130168636Y-107693722D01*
X130220784Y-107588394D01*
X130223443Y-107381638D01*
X130137238Y-107184427D01*
X129999173Y-107069668D01*
X129953745Y-107062216D01*
X129797572Y-107134868D01*
X129710964Y-107310794D01*
X129702915Y-107526955D01*
X129260120Y-107526955D01*
X129257852Y-107422278D01*
X129321654Y-107055752D01*
G37*
G36*
X129069480Y-106045383D02*
G01*
X129112900Y-106209648D01*
X129112979Y-106221450D01*
X129066818Y-106399400D01*
X128980226Y-106442704D01*
X128862893Y-106513547D01*
X128847474Y-106575457D01*
X128918316Y-106692790D01*
X128980226Y-106708209D01*
X129088339Y-106781993D01*
X129112979Y-106885213D01*
X129059481Y-107028701D01*
X128984449Y-107062216D01*
X128906878Y-107112549D01*
X128858129Y-107282238D01*
X128830352Y-107599317D01*
X128829571Y-107615352D01*
X128808539Y-107920897D01*
X128771345Y-108091845D01*
X128701545Y-108170604D01*
X128604094Y-108196769D01*
X128497505Y-108200414D01*
X128437828Y-108148064D01*
X128411528Y-108002121D01*
X128405068Y-107724984D01*
X128404965Y-107643633D01*
X128396264Y-107319000D01*
X128365142Y-107137779D01*
X128304075Y-107067008D01*
X128272212Y-107062216D01*
X128164099Y-106988433D01*
X128139460Y-106885213D01*
X128194797Y-106741062D01*
X128272212Y-106708209D01*
X128379439Y-106632057D01*
X128404965Y-106500672D01*
X128483634Y-106254132D01*
X128680386Y-106068362D01*
X128920819Y-106000196D01*
X129069480Y-106045383D01*
G37*
G36*
X136898145Y-106715242D02*
G01*
X137029103Y-106751714D01*
X137073829Y-106840688D01*
X137078136Y-106933343D01*
X137041165Y-107099611D01*
X136967508Y-107144112D01*
X136791140Y-107141246D01*
X136689697Y-107214161D01*
X136638893Y-107398670D01*
X136617918Y-107659603D01*
X136594902Y-107950661D01*
X136552306Y-108108895D01*
X136471570Y-108178484D01*
X136392247Y-108196769D01*
X136296130Y-108201829D01*
X136237295Y-108161214D01*
X136206605Y-108041429D01*
X136194926Y-107808975D01*
X136193118Y-107466630D01*
X136193118Y-106708209D01*
X136635627Y-106708209D01*
X136898145Y-106715242D01*
G37*
G36*
X124574396Y-109864040D02*
G01*
X124932017Y-109863110D01*
X125172451Y-109993709D01*
X125292960Y-110253741D01*
X125307404Y-110425283D01*
X125278427Y-110689856D01*
X125169597Y-110857226D01*
X125085993Y-110920283D01*
X124867591Y-111011577D01*
X124687735Y-111019111D01*
X124553470Y-111019537D01*
X124511652Y-111146982D01*
X124510888Y-111185833D01*
X124463219Y-111357562D01*
X124378136Y-111398802D01*
X124311324Y-111366379D01*
X124270634Y-111248450D01*
X124250510Y-111014022D01*
X124245383Y-110658117D01*
X124245383Y-110407491D01*
X124510484Y-110407491D01*
X124558733Y-110598203D01*
X124617090Y-110673087D01*
X124737017Y-110765765D01*
X124776393Y-110779290D01*
X124877231Y-110724791D01*
X124935697Y-110673087D01*
X125035250Y-110474113D01*
X124992248Y-110272595D01*
X124878453Y-110167033D01*
X124696944Y-110140404D01*
X124565421Y-110237724D01*
X124510484Y-110407491D01*
X124245383Y-110407491D01*
X124245383Y-109917432D01*
X124574396Y-109864040D01*
G37*
G36*
X141700712Y-110675873D02*
G01*
X141700714Y-110675875D01*
X141737860Y-110819652D01*
X141690757Y-111022624D01*
X141589586Y-111210249D01*
X141464529Y-111307984D01*
X141443837Y-111310300D01*
X141363383Y-111268971D01*
X141398751Y-111164977D01*
X141448977Y-110959664D01*
X141439689Y-110865209D01*
X141456737Y-110703834D01*
X141564545Y-110625634D01*
X141700712Y-110675873D01*
G37*
G36*
X109761113Y-107305596D02*
G01*
X109623837Y-107670765D01*
X109491678Y-108030200D01*
X109402752Y-108279115D01*
X109298026Y-108522623D01*
X109183398Y-108633589D01*
X109059015Y-108655248D01*
X108897415Y-108616170D01*
X108847435Y-108544621D01*
X108893341Y-108374200D01*
X108927074Y-108310358D01*
X108940713Y-108144164D01*
X108866212Y-107840437D01*
X108782039Y-107602344D01*
X108633178Y-107209262D01*
X108544566Y-106952499D01*
X108513278Y-106803026D01*
X108536389Y-106731816D01*
X108610976Y-106709841D01*
X108691955Y-106708209D01*
X108841086Y-106740139D01*
X108957791Y-106862542D01*
X109079552Y-107115343D01*
X109083716Y-107125459D01*
X109254950Y-107542708D01*
X109371773Y-107125459D01*
X109454361Y-106872611D01*
X109542139Y-106748978D01*
X109674238Y-106710055D01*
X109738633Y-106708209D01*
X109988670Y-106708209D01*
X109761113Y-107305596D01*
G37*
G36*
X123278495Y-109888570D02*
G01*
X123518558Y-109805950D01*
X123531047Y-109805770D01*
X123763901Y-109884552D01*
X123929748Y-110083445D01*
X123979878Y-110298852D01*
X123960288Y-110435974D01*
X123868886Y-110497959D01*
X123656725Y-110513642D01*
X123615034Y-110513784D01*
X123391917Y-110521865D01*
X123314673Y-110557275D01*
X123352489Y-110636769D01*
X123363631Y-110650472D01*
X123543038Y-110746020D01*
X123728475Y-110731941D01*
X123915441Y-110715332D01*
X123978833Y-110787029D01*
X123979878Y-110807040D01*
X123908074Y-110957506D01*
X123729428Y-111032425D01*
X123499087Y-111027591D01*
X123272198Y-110938798D01*
X123183362Y-110867791D01*
X123044036Y-110627521D01*
X123024563Y-110350279D01*
X123065559Y-110221336D01*
X123387603Y-110221336D01*
X123494773Y-110247633D01*
X123537369Y-110248279D01*
X123678039Y-110230432D01*
X123663900Y-110163698D01*
X123643571Y-110142077D01*
X123523139Y-110081444D01*
X123431167Y-110142077D01*
X123387603Y-110221336D01*
X123065559Y-110221336D01*
X123108273Y-110086987D01*
X123278495Y-109888570D01*
G37*
G36*
X111499736Y-106177199D02*
G01*
X111823984Y-106189870D01*
X112042475Y-106242217D01*
X112225519Y-106355743D01*
X112304953Y-106423450D01*
X112510087Y-106663724D01*
X112606564Y-106955036D01*
X112620955Y-107065087D01*
X112595097Y-107495461D01*
X112423299Y-107829023D01*
X112110547Y-108061436D01*
X111661828Y-108188365D01*
X111302003Y-108212245D01*
X110970122Y-108212739D01*
X110970122Y-107150718D01*
X111412630Y-107150718D01*
X111416064Y-107474484D01*
X111435278Y-107659795D01*
X111483641Y-107745185D01*
X111574521Y-107769187D01*
X111627563Y-107770230D01*
X111852333Y-107717010D01*
X111975772Y-107636954D01*
X112138249Y-107372287D01*
X112164031Y-107081221D01*
X112061931Y-106816870D01*
X111840763Y-106632348D01*
X111806714Y-106618121D01*
X111609141Y-106554109D01*
X111491699Y-106566703D01*
X111433663Y-106683914D01*
X111414304Y-106933754D01*
X111412630Y-107150718D01*
X110970122Y-107150718D01*
X110970122Y-106177199D01*
X111499736Y-106177199D01*
G37*
G36*
X154644279Y-106143711D02*
G01*
X154732483Y-106284533D01*
X154734233Y-106311164D01*
X154665896Y-106457195D01*
X154513026Y-106521600D01*
X154353835Y-106489318D01*
X154279577Y-106398712D01*
X154276957Y-106227739D01*
X154314823Y-106162950D01*
X154478994Y-106093973D01*
X154644279Y-106143711D01*
G37*
G36*
X105443310Y-106179628D02*
G01*
X105701169Y-106191188D01*
X105846121Y-106218285D01*
X105910202Y-106267328D01*
X105925450Y-106344723D01*
X105925522Y-106354202D01*
X105890427Y-106476712D01*
X105753835Y-106525737D01*
X105619087Y-106531206D01*
X105312652Y-106531206D01*
X105287206Y-107349847D01*
X105272428Y-107734876D01*
X105251142Y-107977536D01*
X105214304Y-108112443D01*
X105152869Y-108174214D01*
X105066027Y-108196324D01*
X104974330Y-108200219D01*
X104915429Y-108158843D01*
X104880380Y-108039996D01*
X104860238Y-107811478D01*
X104846058Y-107441087D01*
X104844773Y-107399808D01*
X104819251Y-106575457D01*
X104487369Y-106547989D01*
X104260271Y-106508118D01*
X104166135Y-106422312D01*
X104155488Y-106348860D01*
X104168868Y-106270647D01*
X104230295Y-106220567D01*
X104371698Y-106192429D01*
X104625005Y-106180038D01*
X105022145Y-106177201D01*
X105040505Y-106177199D01*
X105443310Y-106179628D01*
G37*
G36*
X130707371Y-110364112D02*
G01*
X130883014Y-110275400D01*
X131051263Y-110200602D01*
X131050683Y-110155031D01*
X130888101Y-110146107D01*
X130772386Y-110155149D01*
X130646964Y-110112427D01*
X130625799Y-109997049D01*
X130712568Y-109882007D01*
X130757499Y-109859490D01*
X131069367Y-109806534D01*
X131303167Y-109906028D01*
X131446832Y-110146185D01*
X131488297Y-110515220D01*
X131485632Y-110570785D01*
X131462369Y-110828457D01*
X131411358Y-110958498D01*
X131296239Y-111010068D01*
X131148519Y-111026608D01*
X130889438Y-111011385D01*
X130683784Y-110938929D01*
X130675480Y-110933148D01*
X130539060Y-110749819D01*
X130545118Y-110668266D01*
X130812318Y-110668266D01*
X130853513Y-110720288D01*
X130995258Y-110779854D01*
X131118799Y-110728670D01*
X131148519Y-110646537D01*
X131074735Y-110538424D01*
X130971515Y-110513784D01*
X130817334Y-110558075D01*
X130812318Y-110668266D01*
X130545118Y-110668266D01*
X130554214Y-110545803D01*
X130707371Y-110364112D01*
G37*
G36*
X122203521Y-109451763D02*
G01*
X122584681Y-109497536D01*
X122819762Y-109637700D01*
X122915028Y-109876522D01*
X122917857Y-109938523D01*
X122841572Y-110202243D01*
X122629320Y-110371291D01*
X122336274Y-110425283D01*
X122132858Y-110439404D01*
X122049432Y-110517926D01*
X122032868Y-110715080D01*
X122032839Y-110735039D01*
X122004052Y-110964140D01*
X121912177Y-111044235D01*
X121900087Y-111044795D01*
X121835322Y-111013755D01*
X121794981Y-110900468D01*
X121774022Y-110674687D01*
X121767404Y-110306162D01*
X121767334Y-110248279D01*
X121767334Y-109938523D01*
X122032839Y-109938523D01*
X122061415Y-110096647D01*
X122182887Y-110154494D01*
X122298345Y-110159777D01*
X122488094Y-110135964D01*
X122557509Y-110034738D01*
X122563850Y-109938523D01*
X122535274Y-109780399D01*
X122413802Y-109722553D01*
X122298345Y-109717269D01*
X122108595Y-109741082D01*
X122039180Y-109842308D01*
X122032839Y-109938523D01*
X121767334Y-109938523D01*
X121767334Y-109451763D01*
X122203521Y-109451763D01*
G37*
G36*
X134783954Y-107351169D02*
G01*
X135035182Y-107249298D01*
X135136320Y-107239220D01*
X135322612Y-107213770D01*
X135346323Y-107140964D01*
X135219135Y-107083983D01*
X134985165Y-107091468D01*
X134981549Y-107092049D01*
X134779563Y-107113092D01*
X134703451Y-107068993D01*
X134705170Y-106946925D01*
X134750878Y-106823550D01*
X134874404Y-106758406D01*
X135123903Y-106727159D01*
X135142490Y-106725924D01*
X135458236Y-106731323D01*
X135664136Y-106814245D01*
X135781610Y-107001359D01*
X135832078Y-107319331D01*
X135839111Y-107593227D01*
X135839111Y-108200096D01*
X135346030Y-108200096D01*
X135005375Y-108179425D01*
X134785148Y-108108377D01*
X134682267Y-108029414D01*
X134553829Y-107855417D01*
X134511585Y-107725979D01*
X134511764Y-107725518D01*
X134961002Y-107725518D01*
X135016154Y-107802790D01*
X135160966Y-107845014D01*
X135317409Y-107782834D01*
X135374518Y-107703854D01*
X135331327Y-107617389D01*
X135182723Y-107593227D01*
X134995213Y-107628971D01*
X134961002Y-107725518D01*
X134511764Y-107725518D01*
X134589592Y-107525513D01*
X134783954Y-107351169D01*
G37*
G36*
X133613267Y-110477998D02*
G01*
X133793683Y-110335799D01*
X134011530Y-110252974D01*
X134076045Y-110246924D01*
X134211114Y-110230039D01*
X134181304Y-110176743D01*
X134169907Y-110169270D01*
X133986833Y-110125160D01*
X133882276Y-110136696D01*
X133742637Y-110124018D01*
X133715069Y-110039033D01*
X133790137Y-109910099D01*
X133972006Y-109839622D01*
X134195677Y-109843465D01*
X134326338Y-109889861D01*
X134433843Y-109976120D01*
X134490189Y-110120280D01*
X134510321Y-110372090D01*
X134511585Y-110506465D01*
X134511585Y-111023929D01*
X134166167Y-111028696D01*
X133845239Y-110982324D01*
X133679408Y-110877282D01*
X133568339Y-110720075D01*
X133545511Y-110653026D01*
X133892073Y-110653026D01*
X133952340Y-110749821D01*
X134080820Y-110754334D01*
X134199027Y-110673332D01*
X134223996Y-110624412D01*
X134183287Y-110535035D01*
X134076451Y-110513784D01*
X133924311Y-110570006D01*
X133892073Y-110653026D01*
X133545511Y-110653026D01*
X133538066Y-110631160D01*
X133613267Y-110477998D01*
G37*
G36*
X131676542Y-106715242D02*
G01*
X131807500Y-106751714D01*
X131852227Y-106840688D01*
X131856533Y-106933343D01*
X131819562Y-107099611D01*
X131745906Y-107144112D01*
X131569537Y-107141246D01*
X131468094Y-107214161D01*
X131417290Y-107398670D01*
X131396315Y-107659603D01*
X131373299Y-107950661D01*
X131330703Y-108108895D01*
X131249967Y-108178484D01*
X131170644Y-108196769D01*
X131074527Y-108201829D01*
X131015692Y-108161214D01*
X130985003Y-108041429D01*
X130973324Y-107808975D01*
X130971515Y-107466630D01*
X130971515Y-106708209D01*
X131414024Y-106708209D01*
X131676542Y-106715242D01*
G37*
G36*
X155875825Y-106718501D02*
G01*
X155986335Y-106767901D01*
X156016758Y-106884196D01*
X156017508Y-106927251D01*
X155997391Y-107076438D01*
X155901187Y-107115247D01*
X155752003Y-107093192D01*
X155549900Y-107077923D01*
X155499593Y-107130347D01*
X155599045Y-107230598D01*
X155776044Y-107327722D01*
X155994454Y-107498279D01*
X156100579Y-107723301D01*
X156081410Y-107949468D01*
X155963935Y-108097748D01*
X155748061Y-108179228D01*
X155458042Y-108204420D01*
X155189638Y-108166651D01*
X155154616Y-108154126D01*
X155068749Y-108040877D01*
X155043989Y-107897798D01*
X155062642Y-107752576D01*
X155153903Y-107733457D01*
X155271005Y-107772421D01*
X155539180Y-107843460D01*
X155667993Y-107820890D01*
X155646878Y-107732515D01*
X155465269Y-107606143D01*
X155353745Y-107554680D01*
X155140365Y-107437580D01*
X155054240Y-107292123D01*
X155043989Y-107172934D01*
X155089382Y-106915972D01*
X155242273Y-106768515D01*
X155527736Y-106710913D01*
X155636951Y-106708209D01*
X155875825Y-106718501D01*
G37*
G36*
X140972212Y-108212739D02*
G01*
X140750958Y-108212739D01*
X140619646Y-108198392D01*
X140554137Y-108125174D01*
X140531799Y-107947819D01*
X140529704Y-107770230D01*
X140529704Y-107327722D01*
X139644686Y-107327722D01*
X139644686Y-107770230D01*
X139634262Y-108037894D01*
X139592744Y-108171171D01*
X139504763Y-108211979D01*
X139482433Y-108212739D01*
X139314154Y-108183845D01*
X139261179Y-108153738D01*
X139237151Y-108046115D01*
X139217839Y-107800511D01*
X139205504Y-107455933D01*
X139202177Y-107135968D01*
X139203367Y-106714757D01*
X139211603Y-106439501D01*
X139233885Y-106279152D01*
X139277214Y-106202661D01*
X139348590Y-106178980D01*
X139418343Y-106177199D01*
X139556829Y-106198599D01*
X139626603Y-106294804D01*
X139658727Y-106513820D01*
X139661723Y-106553331D01*
X139688937Y-106929464D01*
X140109320Y-106956438D01*
X140529704Y-106983413D01*
X140529704Y-106580306D01*
X140538619Y-106332663D01*
X140582628Y-106214606D01*
X140687627Y-106178955D01*
X140750958Y-106177199D01*
X140972212Y-106177199D01*
X140972212Y-108212739D01*
G37*
G36*
X106499332Y-106143711D02*
G01*
X106587536Y-106284533D01*
X106589285Y-106311164D01*
X106520948Y-106457195D01*
X106368079Y-106521600D01*
X106208887Y-106489318D01*
X106134630Y-106398712D01*
X106132010Y-106227739D01*
X106169875Y-106162950D01*
X106334046Y-106093973D01*
X106499332Y-106143711D01*
G37*
G36*
X116673466Y-106708209D02*
G01*
X116997591Y-106716940D01*
X117195944Y-106752534D01*
X117319293Y-106829096D01*
X117381480Y-106904905D01*
X117514776Y-107211667D01*
X117526336Y-107533792D01*
X117433851Y-107830920D01*
X117255009Y-108062691D01*
X117007502Y-108188748D01*
X116816192Y-108194588D01*
X116627665Y-108183688D01*
X116555993Y-108257484D01*
X116545731Y-108405070D01*
X116518315Y-108587658D01*
X116404478Y-108651178D01*
X116324477Y-108655248D01*
X116103223Y-108655248D01*
X116103223Y-107410343D01*
X116546248Y-107410343D01*
X116558906Y-107614521D01*
X116608466Y-107714962D01*
X116768377Y-107773288D01*
X116938079Y-107706306D01*
X117048732Y-107547289D01*
X117059091Y-107497150D01*
X117024478Y-107272077D01*
X116894289Y-107117973D01*
X116714216Y-107083407D01*
X116679611Y-107093788D01*
X116589749Y-107208248D01*
X116546248Y-107410343D01*
X116103223Y-107410343D01*
X116103223Y-106708209D01*
X116673466Y-106708209D01*
G37*
G36*
X140412795Y-109440604D02*
G01*
X140441202Y-109634731D01*
X140458586Y-109819562D01*
X140532171Y-109869082D01*
X140614862Y-109851082D01*
X140831105Y-109846649D01*
X140968869Y-109892483D01*
X141072943Y-109977842D01*
X141127949Y-110123615D01*
X141147906Y-110378339D01*
X141149216Y-110516898D01*
X141138914Y-110824206D01*
X141102417Y-110988757D01*
X141031339Y-111043897D01*
X141016463Y-111044795D01*
X140932176Y-110996511D01*
X140891548Y-110829909D01*
X140883710Y-110611755D01*
X140860591Y-110305106D01*
X140787575Y-110149606D01*
X140752308Y-110128291D01*
X140610569Y-110152206D01*
X140503057Y-110320582D01*
X140446151Y-110601777D01*
X140441202Y-110729220D01*
X140413499Y-110960615D01*
X140324553Y-111043784D01*
X140308449Y-111044795D01*
X140245167Y-111014704D01*
X140205120Y-110904652D01*
X140183622Y-110684964D01*
X140175989Y-110325969D01*
X140175697Y-110204028D01*
X140180448Y-109803243D01*
X140197824Y-109549609D01*
X140232512Y-109413456D01*
X140289195Y-109365111D01*
X140308449Y-109363262D01*
X140412795Y-109440604D01*
G37*
G36*
X107886314Y-106737258D02*
G01*
X108126290Y-106841771D01*
X108258018Y-107047796D01*
X108303077Y-107381383D01*
X108297611Y-107651192D01*
X108274835Y-107945048D01*
X108233257Y-108105725D01*
X108154732Y-108177048D01*
X108071690Y-108196769D01*
X107957301Y-108198911D01*
X107897862Y-108136329D01*
X107875584Y-107968482D01*
X107872561Y-107742971D01*
X107844540Y-107377747D01*
X107758843Y-107169981D01*
X107736057Y-107147605D01*
X107596227Y-107083121D01*
X107498746Y-107166839D01*
X107437616Y-107408673D01*
X107412996Y-107681729D01*
X107388439Y-107965434D01*
X107342303Y-108117257D01*
X107254763Y-108182310D01*
X107186672Y-108196769D01*
X107090555Y-108201829D01*
X107031720Y-108161214D01*
X107001030Y-108041429D01*
X106989351Y-107808975D01*
X106987543Y-107466630D01*
X106987543Y-106708209D01*
X107516513Y-106708209D01*
X107886314Y-106737258D01*
G37*
G36*
X144492965Y-107128593D02*
G01*
X144480745Y-107571265D01*
X144465034Y-107867555D01*
X144439414Y-108048063D01*
X144397466Y-108143385D01*
X144332772Y-108184119D01*
X144268902Y-108196769D01*
X144185214Y-108202819D01*
X144129033Y-108173694D01*
X144094879Y-108080774D01*
X144077271Y-107895438D01*
X144070729Y-107589067D01*
X144069773Y-107156874D01*
X144069773Y-106088697D01*
X144517899Y-106088697D01*
X144492965Y-107128593D01*
G37*
G36*
X146612371Y-106764933D02*
G01*
X146728416Y-106951589D01*
X146843891Y-107263828D01*
X146920258Y-107420529D01*
X146978088Y-107432792D01*
X147037954Y-107311717D01*
X147093708Y-107148694D01*
X147195664Y-106896063D01*
X147309690Y-106770006D01*
X147473965Y-106723282D01*
X147644506Y-106719542D01*
X147680166Y-106784906D01*
X147657306Y-106856034D01*
X147598506Y-107005971D01*
X147494068Y-107276216D01*
X147361382Y-107621678D01*
X147279149Y-107836607D01*
X147129039Y-108216500D01*
X147016631Y-108458436D01*
X146922966Y-108592146D01*
X146829085Y-108647363D01*
X146757101Y-108655248D01*
X146599095Y-108631449D01*
X146554042Y-108588871D01*
X146588891Y-108459977D01*
X146630741Y-108345492D01*
X146638324Y-108140200D01*
X146554060Y-107789740D01*
X146447517Y-107476562D01*
X146331225Y-107155118D01*
X146242988Y-106903076D01*
X146197175Y-106761787D01*
X146193815Y-106746423D01*
X146269838Y-106717767D01*
X146417260Y-106708209D01*
X146612371Y-106764933D01*
G37*
G36*
X128976336Y-109458717D02*
G01*
X129181851Y-109483848D01*
X129274774Y-109533555D01*
X129289982Y-109584516D01*
X129210824Y-109689909D01*
X129024477Y-109717269D01*
X128758972Y-109717269D01*
X128758972Y-110381032D01*
X128752018Y-110731149D01*
X128726888Y-110936664D01*
X128677180Y-111029587D01*
X128626219Y-111044795D01*
X128556196Y-111010025D01*
X128515093Y-110884374D01*
X128496508Y-110635835D01*
X128493467Y-110381032D01*
X128493467Y-109717269D01*
X128227961Y-109717269D01*
X128017175Y-109677689D01*
X127962456Y-109584516D01*
X127997226Y-109514493D01*
X128122876Y-109473390D01*
X128371416Y-109454805D01*
X128626219Y-109451763D01*
X128976336Y-109458717D01*
G37*
G36*
X118674618Y-109795659D02*
G01*
X118692330Y-109544734D01*
X118727675Y-109411013D01*
X118785417Y-109364688D01*
X118802526Y-109363262D01*
X118908279Y-109441819D01*
X118935278Y-109616494D01*
X118955795Y-109793834D01*
X119047819Y-109841772D01*
X119147871Y-109829087D01*
X119388669Y-109863250D01*
X119592326Y-110029295D01*
X119714782Y-110282237D01*
X119731794Y-110425283D01*
X119657925Y-110733526D01*
X119447613Y-110938877D01*
X119117799Y-111026780D01*
X119029252Y-111028890D01*
X118669773Y-111023929D01*
X118669773Y-110438098D01*
X118938040Y-110438098D01*
X118967486Y-110626952D01*
X119045906Y-110720677D01*
X119220684Y-110764835D01*
X119327723Y-110687694D01*
X119374673Y-110608104D01*
X119453180Y-110437274D01*
X119433318Y-110327928D01*
X119330975Y-110214110D01*
X119167899Y-110125383D01*
X119065470Y-110128756D01*
X118971634Y-110243808D01*
X118938040Y-110438098D01*
X118669773Y-110438098D01*
X118669773Y-110193595D01*
X118674618Y-109795659D01*
G37*
G36*
X127068233Y-107432476D02*
G01*
X126932426Y-107797332D01*
X126810631Y-108126021D01*
X126723422Y-108362973D01*
X126705629Y-108411868D01*
X126580777Y-108604732D01*
X126405018Y-108655248D01*
X126243585Y-108616114D01*
X126193777Y-108544621D01*
X126239682Y-108374200D01*
X126273416Y-108310358D01*
X126287054Y-108144164D01*
X126212554Y-107840437D01*
X126128381Y-107602344D01*
X125977526Y-107204480D01*
X125887380Y-106944373D01*
X125855872Y-106794282D01*
X125880934Y-106726467D01*
X125960495Y-106713187D01*
X126062803Y-106723282D01*
X126230896Y-106772267D01*
X126344549Y-106902024D01*
X126441607Y-107144361D01*
X126571691Y-107536261D01*
X126715945Y-107144361D01*
X126829861Y-106890677D01*
X126954621Y-106765062D01*
X127101511Y-106724462D01*
X127342822Y-106696464D01*
X127068233Y-107432476D01*
G37*
G36*
X141418419Y-107369063D02*
G01*
X141677138Y-107255669D01*
X141847296Y-107239220D01*
X142043243Y-107214894D01*
X142074086Y-107143701D01*
X142072456Y-107140964D01*
X141945268Y-107083983D01*
X141711297Y-107091468D01*
X141707682Y-107092049D01*
X141505696Y-107113092D01*
X141429583Y-107068993D01*
X141431302Y-106946925D01*
X141480304Y-106819811D01*
X141612650Y-106753813D01*
X141844150Y-106724804D01*
X142170349Y-106732888D01*
X142385169Y-106829007D01*
X142508464Y-107037277D01*
X142560090Y-107381813D01*
X142565244Y-107600622D01*
X142565244Y-108200096D01*
X142072162Y-108200096D01*
X141731508Y-108179425D01*
X141511281Y-108108377D01*
X141408399Y-108029414D01*
X141264059Y-107791927D01*
X141266921Y-107725518D01*
X141687135Y-107725518D01*
X141742287Y-107802790D01*
X141887099Y-107845014D01*
X142043542Y-107782834D01*
X142100651Y-107703854D01*
X142057460Y-107617389D01*
X141908856Y-107593227D01*
X141721346Y-107628971D01*
X141687135Y-107725518D01*
X141266921Y-107725518D01*
X141274062Y-107559812D01*
X141418419Y-107369063D01*
G37*
G36*
X129521958Y-109903887D02*
G01*
X129753149Y-109813156D01*
X130008897Y-109861858D01*
X130175000Y-109982774D01*
X130312157Y-110220112D01*
X130332729Y-110496258D01*
X130252867Y-110759907D01*
X130088722Y-110959753D01*
X129856444Y-111044491D01*
X129840685Y-111044795D01*
X129650367Y-110995671D01*
X129486678Y-110907024D01*
X129341667Y-110741903D01*
X129291048Y-110485905D01*
X129289982Y-110425283D01*
X129555488Y-110425283D01*
X129612883Y-110601509D01*
X129741381Y-110743969D01*
X129835579Y-110779290D01*
X129925658Y-110710748D01*
X129997996Y-110602286D01*
X130033949Y-110416844D01*
X129991476Y-110220608D01*
X129893700Y-110089168D01*
X129835579Y-110071276D01*
X129696149Y-110143818D01*
X129583434Y-110306226D01*
X129555488Y-110425283D01*
X129289982Y-110425283D01*
X129354507Y-110114461D01*
X129521958Y-109903887D01*
G37*
G36*
X131772052Y-110103536D02*
G01*
X131932722Y-109909454D01*
X132155877Y-109822503D01*
X132263452Y-109829087D01*
X132415624Y-109833738D01*
X132470638Y-109734639D01*
X132476045Y-109616494D01*
X132517227Y-109414765D01*
X132608798Y-109363262D01*
X132672419Y-109393566D01*
X132712537Y-109504349D01*
X132733916Y-109725420D01*
X132741322Y-110086584D01*
X132741550Y-110193595D01*
X132741550Y-111023929D01*
X132382072Y-111028890D01*
X132032667Y-110977690D01*
X131851061Y-110862320D01*
X131712612Y-110626595D01*
X131697515Y-110425283D01*
X131945035Y-110425283D01*
X132014898Y-110571803D01*
X132170244Y-110692298D01*
X132329711Y-110726574D01*
X132345854Y-110721810D01*
X132441365Y-110605712D01*
X132476045Y-110425283D01*
X132434096Y-110228297D01*
X132345854Y-110128756D01*
X132191582Y-110148050D01*
X132031279Y-110261074D01*
X131946307Y-110407634D01*
X131945035Y-110425283D01*
X131697515Y-110425283D01*
X131692479Y-110358126D01*
X131772052Y-110103536D01*
G37*
G36*
X141711824Y-109993195D02*
G01*
X141755246Y-110120758D01*
X141692836Y-110225177D01*
X141598214Y-110248279D01*
X141446907Y-110189970D01*
X141414721Y-110064786D01*
X141462408Y-109923737D01*
X141568583Y-109910925D01*
X141711824Y-109993195D01*
G37*
G36*
X154019164Y-106731024D02*
G01*
X154042449Y-106819991D01*
X154027783Y-106863087D01*
X153966875Y-107020936D01*
X153865716Y-107287697D01*
X153745893Y-107606436D01*
X153742555Y-107615352D01*
X153614462Y-107933763D01*
X153511519Y-108116497D01*
X153409204Y-108197771D01*
X153314384Y-108212739D01*
X153203909Y-108189439D01*
X153107053Y-108098502D01*
X153002493Y-107908375D01*
X152868907Y-107587501D01*
X152837879Y-107507580D01*
X152714425Y-107181643D01*
X152620246Y-106921930D01*
X152570253Y-106770016D01*
X152565940Y-106749437D01*
X152641388Y-106719659D01*
X152802495Y-106724456D01*
X152964444Y-106775950D01*
X153077710Y-106914167D01*
X153170578Y-107148694D01*
X153244599Y-107358684D01*
X153301809Y-107443309D01*
X153362781Y-107391468D01*
X153448086Y-107192062D01*
X153535869Y-106951589D01*
X153653712Y-106763193D01*
X153850172Y-106708237D01*
X153856494Y-106708209D01*
X154019164Y-106731024D01*
G37*
G36*
X113245556Y-106715116D02*
G01*
X113310945Y-106759200D01*
X113344889Y-106875504D01*
X113357694Y-107099073D01*
X113359669Y-107460474D01*
X113357637Y-107824756D01*
X113344671Y-108047079D01*
X113310464Y-108162488D01*
X113244709Y-108206027D01*
X113138414Y-108212739D01*
X113031273Y-108205832D01*
X112965883Y-108161749D01*
X112931940Y-108045444D01*
X112919134Y-107821876D01*
X112917160Y-107460474D01*
X112919191Y-107096193D01*
X112932157Y-106873869D01*
X112966364Y-106758460D01*
X113032120Y-106714922D01*
X113138414Y-106708209D01*
X113245556Y-106715116D01*
G37*
G36*
X120961738Y-106666396D02*
G01*
X121165031Y-106380135D01*
X121400180Y-106239257D01*
X121725447Y-106174106D01*
X122067910Y-106191505D01*
X122311655Y-106272824D01*
X122523333Y-106476623D01*
X122664142Y-106788895D01*
X122721571Y-107151003D01*
X122683106Y-107504314D01*
X122612274Y-107681468D01*
X122540791Y-107906731D01*
X122576874Y-108007178D01*
X122594873Y-108120214D01*
X122486433Y-108206806D01*
X122324233Y-108252461D01*
X122259448Y-108221402D01*
X122147686Y-108179068D01*
X121933990Y-108175935D01*
X121877944Y-108181560D01*
X121497050Y-108154396D01*
X121190261Y-107993698D01*
X120970457Y-107732007D01*
X120850516Y-107401865D01*
X120844861Y-107114326D01*
X121324825Y-107114326D01*
X121350470Y-107379252D01*
X121412575Y-107591543D01*
X121416441Y-107599045D01*
X121528832Y-107714889D01*
X121671563Y-107768825D01*
X121784522Y-107753115D01*
X121807597Y-107660022D01*
X121803721Y-107648898D01*
X121832414Y-107530745D01*
X121959624Y-107450123D01*
X122107066Y-107452993D01*
X122122956Y-107461472D01*
X122207517Y-107446710D01*
X122252960Y-107314576D01*
X122251960Y-107121821D01*
X122197194Y-106925197D01*
X122193229Y-106916926D01*
X122015579Y-106652741D01*
X121818010Y-106559355D01*
X121585878Y-106630643D01*
X121555018Y-106649964D01*
X121383713Y-106816905D01*
X121326121Y-107054027D01*
X121324825Y-107114326D01*
X120844861Y-107114326D01*
X120843317Y-107035814D01*
X120961738Y-106666396D01*
G37*
G36*
X120877313Y-109907466D02*
G01*
X120903145Y-109968331D01*
X120876599Y-110108798D01*
X120793180Y-110360793D01*
X120703087Y-110608324D01*
X120584159Y-110935022D01*
X120493182Y-111192831D01*
X120444358Y-111341178D01*
X120439808Y-111360588D01*
X120365464Y-111391857D01*
X120265656Y-111398802D01*
X120144978Y-111369997D01*
X120147435Y-111251193D01*
X120165015Y-111200084D01*
X120181654Y-110988832D01*
X120106971Y-110667588D01*
X120030171Y-110447819D01*
X119922455Y-110153799D01*
X119876404Y-109988056D01*
X119889439Y-109913935D01*
X119958977Y-109894780D01*
X119991196Y-109894272D01*
X120141887Y-109968834D01*
X120264239Y-110203000D01*
X120272213Y-110226154D01*
X120383851Y-110558035D01*
X120512340Y-110226154D01*
X120651253Y-109977082D01*
X120803598Y-109894272D01*
X120877313Y-109907466D01*
G37*
G36*
X143624277Y-106715242D02*
G01*
X143755235Y-106751714D01*
X143799962Y-106840688D01*
X143804268Y-106933343D01*
X143767297Y-107099611D01*
X143693641Y-107144112D01*
X143517272Y-107141246D01*
X143415830Y-107214161D01*
X143365025Y-107398670D01*
X143344050Y-107659603D01*
X143321034Y-107950661D01*
X143278438Y-108108895D01*
X143197702Y-108178484D01*
X143118379Y-108196769D01*
X143022262Y-108201829D01*
X142963427Y-108161214D01*
X142932738Y-108041429D01*
X142921059Y-107808975D01*
X142919251Y-107466630D01*
X142919251Y-106708209D01*
X143361759Y-106708209D01*
X143624277Y-106715242D01*
G37*
G36*
X136108638Y-110103536D02*
G01*
X136269307Y-109909454D01*
X136492463Y-109822503D01*
X136600038Y-109829087D01*
X136752210Y-109833738D01*
X136807223Y-109734639D01*
X136812630Y-109616494D01*
X136853813Y-109414765D01*
X136945383Y-109363262D01*
X137009004Y-109393566D01*
X137049122Y-109504349D01*
X137070501Y-109725420D01*
X137077908Y-110086584D01*
X137078136Y-110193595D01*
X137078136Y-111023929D01*
X136718657Y-111028890D01*
X136369252Y-110977690D01*
X136187646Y-110862320D01*
X136049198Y-110626595D01*
X136031693Y-110393172D01*
X136281620Y-110393172D01*
X136319237Y-110502008D01*
X136400521Y-110654054D01*
X136478124Y-110765107D01*
X136498750Y-110779290D01*
X136599739Y-110751868D01*
X136672639Y-110725570D01*
X136776832Y-110606044D01*
X136810204Y-110409960D01*
X136771383Y-110220875D01*
X136682439Y-110128756D01*
X136536881Y-110147470D01*
X136374979Y-110248474D01*
X136283821Y-110374316D01*
X136281620Y-110393172D01*
X136031693Y-110393172D01*
X136029065Y-110358126D01*
X136108638Y-110103536D01*
G37*
G36*
X133353824Y-106177199D02*
G01*
X133663543Y-106186383D01*
X133915572Y-106210094D01*
X134024367Y-106233520D01*
X134194466Y-106383793D01*
X134277176Y-106631454D01*
X134252294Y-106910133D01*
X134240601Y-106943875D01*
X134197136Y-107173384D01*
X134242791Y-107271332D01*
X134315105Y-107439785D01*
X134328630Y-107679198D01*
X134280031Y-107892435D01*
X134265049Y-107919572D01*
X134086295Y-108059786D01*
X133777602Y-108161073D01*
X133384165Y-108210157D01*
X133266799Y-108212739D01*
X132830052Y-108212739D01*
X132830052Y-107548976D01*
X133272561Y-107548976D01*
X133292536Y-107706753D01*
X133388351Y-107760417D01*
X133560191Y-107753712D01*
X133768516Y-107705136D01*
X133844542Y-107595161D01*
X133847822Y-107548976D01*
X133801525Y-107416312D01*
X133634729Y-107353445D01*
X133560191Y-107344240D01*
X133362593Y-107341332D01*
X133284765Y-107411268D01*
X133272561Y-107548976D01*
X132830052Y-107548976D01*
X132830052Y-106752460D01*
X133272561Y-106752460D01*
X133302595Y-106912630D01*
X133428465Y-106969483D01*
X133528597Y-106973715D01*
X133728089Y-106935868D01*
X133831437Y-106851746D01*
X133817643Y-106686237D01*
X133669468Y-106567235D01*
X133476115Y-106531206D01*
X133319821Y-106572503D01*
X133272904Y-106727773D01*
X133272561Y-106752460D01*
X132830052Y-106752460D01*
X132830052Y-106177199D01*
X133353824Y-106177199D01*
G37*
G36*
X149526628Y-106183038D02*
G01*
X149591272Y-106222657D01*
X149626787Y-106329212D01*
X149641897Y-106535858D01*
X149645327Y-106875749D01*
X149645383Y-107017966D01*
X149640421Y-107425118D01*
X149620839Y-107695936D01*
X149579591Y-107870929D01*
X149509634Y-107990603D01*
X149468379Y-108035736D01*
X149278764Y-108146956D01*
X149025186Y-108209122D01*
X148784250Y-108211288D01*
X148642363Y-108153738D01*
X148595936Y-108027221D01*
X148583362Y-107886547D01*
X148607334Y-107741023D01*
X148714950Y-107715564D01*
X148814116Y-107736272D01*
X148984664Y-107753076D01*
X149097810Y-107685362D01*
X149164399Y-107508688D01*
X149195274Y-107198611D01*
X149201519Y-106863087D01*
X149204763Y-106518649D01*
X149220746Y-106314526D01*
X149261374Y-106214036D01*
X149338553Y-106180492D01*
X149424129Y-106177199D01*
X149526628Y-106183038D01*
G37*
G36*
X126893060Y-109894272D02*
G01*
X127034129Y-109959934D01*
X127153203Y-110172572D01*
X127184965Y-110261103D01*
X127307242Y-110627934D01*
X127417147Y-110261103D01*
X127521617Y-110006291D01*
X127646041Y-109900938D01*
X127696537Y-109894272D01*
X127779989Y-109904589D01*
X127809909Y-109958930D01*
X127782849Y-110092382D01*
X127695359Y-110340031D01*
X127637807Y-110491659D01*
X127518178Y-110810249D01*
X127421042Y-111078821D01*
X127366817Y-111240869D01*
X127365945Y-111243924D01*
X127252593Y-111374786D01*
X127158470Y-111398802D01*
X127045457Y-111367020D01*
X127053772Y-111240896D01*
X127066720Y-111203952D01*
X127080345Y-110986052D01*
X126995202Y-110653008D01*
X126931116Y-110479157D01*
X126811198Y-110173276D01*
X126750059Y-109997681D01*
X126745366Y-109916537D01*
X126794790Y-109894011D01*
X126893060Y-109894272D01*
G37*
G36*
X144954791Y-106885213D02*
G01*
X145173539Y-106761183D01*
X145459210Y-106708099D01*
X145723038Y-106737378D01*
X145804434Y-106775941D01*
X145955440Y-106951268D01*
X146070138Y-107207815D01*
X146105313Y-107410405D01*
X146084442Y-107517940D01*
X145993135Y-107573295D01*
X145788356Y-107593663D01*
X145640679Y-107596042D01*
X145378801Y-107602218D01*
X145267438Y-107624125D01*
X145280156Y-107673116D01*
X145341829Y-107724400D01*
X145582017Y-107808808D01*
X145762213Y-107799025D01*
X145944332Y-107782560D01*
X146010981Y-107852762D01*
X146016812Y-107926702D01*
X145943236Y-108097824D01*
X145754261Y-108195148D01*
X145497512Y-108213815D01*
X145220617Y-108148967D01*
X145010977Y-108029312D01*
X144836801Y-107790972D01*
X144766345Y-107475703D01*
X144802994Y-107152396D01*
X144803935Y-107150718D01*
X145264547Y-107150718D01*
X145296290Y-107215963D01*
X145441550Y-107239220D01*
X145595352Y-107211693D01*
X145618554Y-107150718D01*
X145490132Y-107068391D01*
X145441550Y-107062216D01*
X145293099Y-107118325D01*
X145264547Y-107150718D01*
X144803935Y-107150718D01*
X144950129Y-106889938D01*
X144954791Y-106885213D01*
G37*
G36*
X137915398Y-106395687D02*
G01*
X137963153Y-106531206D01*
X138018491Y-106675357D01*
X138095906Y-106708209D01*
X138204019Y-106781993D01*
X138228658Y-106885213D01*
X138173321Y-107029364D01*
X138095906Y-107062216D01*
X138021443Y-107100621D01*
X137980056Y-107237849D01*
X137964125Y-107506922D01*
X137963153Y-107637478D01*
X137959273Y-107946713D01*
X137937381Y-108118954D01*
X137882095Y-108194189D01*
X137778035Y-108212407D01*
X137741899Y-108212739D01*
X137622962Y-108202652D01*
X137556715Y-108145731D01*
X137527779Y-108001987D01*
X137520772Y-107731432D01*
X137520644Y-107637478D01*
X137511782Y-107314805D01*
X137480114Y-107135462D01*
X137418020Y-107066429D01*
X137387892Y-107062216D01*
X137279779Y-106988433D01*
X137255139Y-106885213D01*
X137310477Y-106741062D01*
X137387892Y-106708209D01*
X137496005Y-106634426D01*
X137520644Y-106531206D01*
X137572500Y-106392406D01*
X137741899Y-106354202D01*
X137915398Y-106395687D01*
G37*
G36*
X113160278Y-106114902D02*
G01*
X113298971Y-106218380D01*
X113343699Y-106332077D01*
X113331113Y-106481913D01*
X113202418Y-106529814D01*
X113149793Y-106531206D01*
X112962092Y-106502426D01*
X112877845Y-106450691D01*
X112862889Y-106306961D01*
X112883886Y-106224757D01*
X112998585Y-106111582D01*
X113160278Y-106114902D01*
G37*
G36*
X125849477Y-109861084D02*
G01*
X126102045Y-109817040D01*
X126252501Y-109825222D01*
X126371588Y-109899780D01*
X126457927Y-109982774D01*
X126598844Y-110220226D01*
X126621639Y-110489719D01*
X126544429Y-110745007D01*
X126385330Y-110939847D01*
X126162460Y-111027994D01*
X126051007Y-111021478D01*
X125891030Y-111020360D01*
X125840203Y-111133278D01*
X125838414Y-111189820D01*
X125789984Y-111358543D01*
X125705662Y-111398802D01*
X125638870Y-111366393D01*
X125598183Y-111248510D01*
X125578051Y-111014168D01*
X125572909Y-110657600D01*
X125572909Y-110438098D01*
X125841176Y-110438098D01*
X125870622Y-110626952D01*
X125949042Y-110720677D01*
X126060924Y-110766198D01*
X126075473Y-110772303D01*
X126141462Y-110724253D01*
X126230351Y-110640215D01*
X126341869Y-110498030D01*
X126369425Y-110425283D01*
X126299562Y-110278762D01*
X126144215Y-110158267D01*
X125984748Y-110123991D01*
X125968606Y-110128756D01*
X125874770Y-110243808D01*
X125841176Y-110438098D01*
X125572909Y-110438098D01*
X125572909Y-109916398D01*
X125849477Y-109861084D01*
G37*
G36*
X139697180Y-109844182D02*
G01*
X139874288Y-109954287D01*
X139910191Y-110076076D01*
X139888449Y-110197870D01*
X139790432Y-110188159D01*
X139723686Y-110154692D01*
X139527633Y-110104114D01*
X139451476Y-110140583D01*
X139456694Y-110227212D01*
X139629745Y-110318280D01*
X139637981Y-110321182D01*
X139843761Y-110435817D01*
X139909841Y-110606245D01*
X139910191Y-110624233D01*
X139840180Y-110875967D01*
X139652634Y-111017985D01*
X139381286Y-111032485D01*
X139224303Y-110986182D01*
X139132069Y-110871311D01*
X139113676Y-110768801D01*
X139139279Y-110650132D01*
X139247082Y-110668338D01*
X139284861Y-110687674D01*
X139501995Y-110770973D01*
X139627035Y-110750253D01*
X139644686Y-110699446D01*
X139570268Y-110618209D01*
X139390079Y-110530912D01*
X139379181Y-110527046D01*
X139175854Y-110394125D01*
X139107929Y-110216292D01*
X139156196Y-110034802D01*
X139301443Y-109890909D01*
X139524458Y-109825867D01*
X139697180Y-109844182D01*
G37*
G36*
X135587940Y-109888010D02*
G01*
X135685865Y-109990136D01*
X135779989Y-110185119D01*
X135825146Y-110439013D01*
X135822642Y-110696269D01*
X135773784Y-110901338D01*
X135679877Y-110998670D01*
X135662108Y-111000544D01*
X135565920Y-110932929D01*
X135503311Y-110717174D01*
X135485104Y-110577989D01*
X135446950Y-110332850D01*
X135399315Y-110181471D01*
X135374477Y-110157606D01*
X135228148Y-110159768D01*
X135219599Y-110159777D01*
X135169114Y-110239373D01*
X135137070Y-110442888D01*
X135131097Y-110602286D01*
X135116886Y-110880563D01*
X135067681Y-111016478D01*
X134998345Y-111044795D01*
X134923325Y-111005900D01*
X134881928Y-110867145D01*
X134866379Y-110595422D01*
X134865592Y-110479383D01*
X134865592Y-109913971D01*
X135194871Y-109852198D01*
X135434496Y-109828386D01*
X135587940Y-109888010D01*
G37*
G36*
X137949852Y-110477998D02*
G01*
X138130268Y-110335799D01*
X138348115Y-110252974D01*
X138412630Y-110246924D01*
X138547700Y-110230039D01*
X138517889Y-110176743D01*
X138506492Y-110169270D01*
X138323418Y-110125160D01*
X138218861Y-110136696D01*
X138079223Y-110124018D01*
X138051655Y-110039033D01*
X138126722Y-109910099D01*
X138308592Y-109839622D01*
X138532262Y-109843465D01*
X138662924Y-109889861D01*
X138770429Y-109976120D01*
X138826774Y-110120280D01*
X138846907Y-110372090D01*
X138848170Y-110506465D01*
X138848170Y-111023929D01*
X138502753Y-111028696D01*
X138181825Y-110982324D01*
X138015993Y-110877282D01*
X137904924Y-110720075D01*
X137879886Y-110646537D01*
X138228658Y-110646537D01*
X138290103Y-110745955D01*
X138414597Y-110755675D01*
X138512378Y-110675324D01*
X138520964Y-110647749D01*
X138463858Y-110560336D01*
X138383536Y-110530633D01*
X138251919Y-110565150D01*
X138228658Y-110646537D01*
X137879886Y-110646537D01*
X137874651Y-110631160D01*
X137949852Y-110477998D01*
G37*
G36*
X125347260Y-106715610D02*
G01*
X125568525Y-106735086D01*
X125660924Y-106762548D01*
X125661411Y-106764798D01*
X125618500Y-106865287D01*
X125507629Y-107066027D01*
X125395906Y-107252887D01*
X125251951Y-107493746D01*
X125155530Y-107668293D01*
X125130400Y-107727309D01*
X125207455Y-107757470D01*
X125393056Y-107770228D01*
X125395906Y-107770230D01*
X125585655Y-107794043D01*
X125655070Y-107895270D01*
X125661411Y-107991485D01*
X125652301Y-108107078D01*
X125599258Y-108173234D01*
X125463711Y-108203729D01*
X125207092Y-108212336D01*
X125041899Y-108212739D01*
X124736533Y-108206005D01*
X124515266Y-108188285D01*
X124422873Y-108163300D01*
X124422386Y-108161254D01*
X124463967Y-108064515D01*
X124573080Y-107859870D01*
X124726283Y-107591252D01*
X124729364Y-107585993D01*
X125036341Y-107062216D01*
X124729364Y-107062216D01*
X124517042Y-107042023D01*
X124431961Y-106963389D01*
X124422386Y-106885213D01*
X124439100Y-106792192D01*
X124514474Y-106738902D01*
X124686353Y-106714529D01*
X124992586Y-106708259D01*
X125041899Y-106708209D01*
X125347260Y-106715610D01*
G37*
G36*
X154575870Y-106715116D02*
G01*
X154641259Y-106759200D01*
X154675203Y-106875504D01*
X154688008Y-107099073D01*
X154689982Y-107460474D01*
X154686105Y-107827869D01*
X154669572Y-108052435D01*
X154633029Y-108168268D01*
X154569121Y-108209464D01*
X154527729Y-108212739D01*
X154359450Y-108183845D01*
X154306475Y-108153738D01*
X154278577Y-108042908D01*
X154257798Y-107802367D01*
X154247843Y-107479374D01*
X154247474Y-107401473D01*
X154249955Y-107054791D01*
X154265165Y-106848618D01*
X154304749Y-106746460D01*
X154380355Y-106711825D01*
X154468728Y-106708209D01*
X154575870Y-106715116D01*
G37*
G36*
X150090166Y-107354229D02*
G01*
X150347431Y-107247197D01*
X150453443Y-107239220D01*
X150635044Y-107213353D01*
X150657643Y-107141802D01*
X150533575Y-107085827D01*
X150342663Y-107095339D01*
X150162075Y-107113046D01*
X150095583Y-107040070D01*
X150087892Y-106927251D01*
X150103359Y-106795231D01*
X150180466Y-106730635D01*
X150365273Y-106709714D01*
X150512700Y-106708209D01*
X150786146Y-106729147D01*
X150991325Y-106782165D01*
X151043710Y-106814412D01*
X151101561Y-106961613D01*
X151138879Y-107242661D01*
X151149913Y-107557523D01*
X151149913Y-108194433D01*
X150673734Y-108200121D01*
X150339924Y-108182584D01*
X150131860Y-108112500D01*
X150054221Y-108047427D01*
X149922142Y-107797704D01*
X149927728Y-107725979D01*
X150353397Y-107725979D01*
X150414487Y-107835522D01*
X150552526Y-107842762D01*
X150708163Y-107787204D01*
X150751655Y-107725979D01*
X150676382Y-107646117D01*
X150552526Y-107609197D01*
X150390246Y-107630653D01*
X150353397Y-107725979D01*
X149927728Y-107725979D01*
X149941263Y-107552184D01*
X150090166Y-107354229D01*
G37*
G36*
X151946428Y-106721772D02*
G01*
X152209099Y-106731066D01*
X152340125Y-106769014D01*
X152384775Y-106858703D01*
X152388937Y-106947428D01*
X152355478Y-107109443D01*
X152266969Y-107122852D01*
X152101729Y-107131755D01*
X151994834Y-107304457D01*
X151948362Y-107636932D01*
X151946428Y-107743680D01*
X151940166Y-108016077D01*
X151907521Y-108155628D01*
X151827706Y-108206405D01*
X151725174Y-108212739D01*
X151617745Y-108205763D01*
X151552318Y-108161394D01*
X151518479Y-108044469D01*
X151505817Y-107819828D01*
X151503920Y-107465542D01*
X151503920Y-106718345D01*
X151946428Y-106721772D01*
G37*
G36*
X114620819Y-106718633D02*
G01*
X115012410Y-106730535D01*
X115342497Y-106755920D01*
X115567815Y-106790609D01*
X115638589Y-106816947D01*
X115703814Y-106964847D01*
X115741185Y-107268295D01*
X115749216Y-107565968D01*
X115746188Y-107901685D01*
X115729603Y-108096054D01*
X115688211Y-108184713D01*
X115610760Y-108203304D01*
X115550087Y-108196769D01*
X115436546Y-108160017D01*
X115368880Y-108061650D01*
X115328389Y-107858697D01*
X115306707Y-107637478D01*
X115267255Y-107320677D01*
X115209506Y-107152951D01*
X115129704Y-107106467D01*
X115050732Y-107151992D01*
X115001508Y-107308962D01*
X114973233Y-107607968D01*
X114970602Y-107659603D01*
X114951110Y-107961957D01*
X114917536Y-108127894D01*
X114852347Y-108197966D01*
X114738008Y-108212725D01*
X114731446Y-108212739D01*
X114614491Y-108199510D01*
X114547472Y-108132789D01*
X114512855Y-107972023D01*
X114493107Y-107676659D01*
X114492289Y-107659603D01*
X114466119Y-107339590D01*
X114420161Y-107165647D01*
X114345614Y-107107182D01*
X114333188Y-107106467D01*
X114249637Y-107158675D01*
X114193115Y-107333764D01*
X114156184Y-107637478D01*
X114123512Y-107936725D01*
X114076456Y-108101992D01*
X113996317Y-108176250D01*
X113912805Y-108196769D01*
X113816636Y-108201823D01*
X113757793Y-108161156D01*
X113727123Y-108041251D01*
X113715469Y-107808589D01*
X113713676Y-107467654D01*
X113713676Y-106710258D01*
X114620819Y-106718633D01*
G37*
%TO.C,Geon*%
G36*
X234032128Y-129421749D02*
G01*
X234299387Y-129302667D01*
X234394426Y-129295017D01*
X234631700Y-129364881D01*
X234859985Y-129537509D01*
X235019485Y-129757455D01*
X235058189Y-129910507D01*
X235038410Y-130014432D01*
X234951106Y-130068883D01*
X234754323Y-130089259D01*
X234564940Y-130091533D01*
X234280774Y-130099950D01*
X234136742Y-130132790D01*
X234096456Y-130201441D01*
X234100306Y-130236925D01*
X234215577Y-130438282D01*
X234435655Y-130519159D01*
X234701548Y-130473625D01*
X234922439Y-130418876D01*
X235027076Y-130466798D01*
X235019117Y-130588140D01*
X234877855Y-130699732D01*
X234646416Y-130777613D01*
X234428185Y-130799547D01*
X234149484Y-130758190D01*
X233949068Y-130608626D01*
X233914089Y-130566357D01*
X233767944Y-130267319D01*
X233749904Y-129947753D01*
X233809910Y-129757645D01*
X234121783Y-129757645D01*
X234132220Y-129860974D01*
X234307837Y-129911718D01*
X234387050Y-129914530D01*
X234594737Y-129895437D01*
X234700694Y-129848355D01*
X234704182Y-129836864D01*
X234630107Y-129687925D01*
X234464430Y-129597617D01*
X234291968Y-129610230D01*
X234281647Y-129616228D01*
X234121783Y-129757645D01*
X233809910Y-129757645D01*
X233843466Y-129651337D01*
X234032128Y-129421749D01*
G37*
G36*
X217108340Y-126351830D02*
G01*
X217171498Y-126147661D01*
X217310611Y-125966465D01*
X217351032Y-125925143D01*
X217572533Y-125747758D01*
X217815491Y-125675260D01*
X218002860Y-125666446D01*
X218417852Y-125741064D01*
X218734320Y-125948207D01*
X218934329Y-126262806D01*
X218999947Y-126659793D01*
X218951336Y-126992248D01*
X218779604Y-127327990D01*
X218497836Y-127567973D01*
X218151723Y-127691986D01*
X217786956Y-127679818D01*
X217579095Y-127599264D01*
X217298000Y-127376471D01*
X217142301Y-127069713D01*
X217104438Y-126742791D01*
X217602631Y-126742791D01*
X217650884Y-127010342D01*
X217713997Y-127129316D01*
X217898298Y-127238108D01*
X218127692Y-127246758D01*
X218310019Y-127152338D01*
X218313408Y-127148355D01*
X218403567Y-126981675D01*
X218466753Y-126793703D01*
X218469095Y-126524821D01*
X218360408Y-126302259D01*
X218179972Y-126154091D01*
X217967068Y-126108391D01*
X217760974Y-126193234D01*
X217705365Y-126249518D01*
X217620498Y-126459277D01*
X217602631Y-126742791D01*
X217104438Y-126742791D01*
X217094303Y-126655283D01*
X217108340Y-126351830D01*
G37*
G36*
X227643734Y-126866238D02*
G01*
X227884775Y-126760847D01*
X228093618Y-126728467D01*
X228277780Y-126696778D01*
X228308339Y-126617840D01*
X228197095Y-126544662D01*
X227956644Y-126514918D01*
X227898954Y-126515128D01*
X227660954Y-126506203D01*
X227561022Y-126456309D01*
X227554677Y-126382376D01*
X227652141Y-126287209D01*
X227859588Y-126226390D01*
X228112215Y-126206352D01*
X228345217Y-126233525D01*
X228471350Y-126291386D01*
X228550872Y-126443471D01*
X228591116Y-126744022D01*
X228597561Y-127003817D01*
X228593540Y-127324059D01*
X228573017Y-127505808D01*
X228523305Y-127587534D01*
X228431716Y-127607705D01*
X228398432Y-127607593D01*
X228148553Y-127624691D01*
X227978049Y-127653492D01*
X227746811Y-127657094D01*
X227601917Y-127609743D01*
X227472626Y-127441541D01*
X227451922Y-127207506D01*
X227472721Y-127150713D01*
X227723972Y-127150713D01*
X227728674Y-127259325D01*
X227743084Y-127299911D01*
X227794656Y-127404767D01*
X227875244Y-127426197D01*
X228045626Y-127372639D01*
X228105040Y-127350170D01*
X228285896Y-127220170D01*
X228332056Y-127090842D01*
X228310324Y-126978295D01*
X228211735Y-126959443D01*
X228054531Y-126997419D01*
X227820628Y-127075030D01*
X227723972Y-127150713D01*
X227472721Y-127150713D01*
X227535826Y-126978404D01*
X227643734Y-126866238D01*
G37*
G36*
X233375572Y-128820213D02*
G01*
X233448261Y-128920708D01*
X233443058Y-128963182D01*
X233333480Y-129076904D01*
X233172102Y-129096769D01*
X233065162Y-129026701D01*
X233061242Y-128883378D01*
X233095212Y-128833046D01*
X233231816Y-128781238D01*
X233375572Y-128820213D01*
G37*
G36*
X223685715Y-129367416D02*
G01*
X223798853Y-129431601D01*
X223865026Y-129524711D01*
X223896724Y-129690021D01*
X223906439Y-129970804D01*
X223906969Y-130133887D01*
X223900048Y-130484575D01*
X223875032Y-130690634D01*
X223825542Y-130784047D01*
X223774216Y-130799547D01*
X223696441Y-130758108D01*
X223655078Y-130611542D01*
X223641610Y-130326474D01*
X223641464Y-130279373D01*
X223617486Y-129908224D01*
X223538872Y-129693516D01*
X223395606Y-129620403D01*
X223221081Y-129656365D01*
X223109122Y-129719250D01*
X223049010Y-129831104D01*
X223025251Y-130039337D01*
X223021952Y-130265685D01*
X223015561Y-130563231D01*
X222987463Y-130724357D01*
X222924267Y-130789451D01*
X222844948Y-130799547D01*
X222757269Y-130784957D01*
X222704477Y-130717611D01*
X222677859Y-130562143D01*
X222668700Y-130283187D01*
X222667945Y-130081211D01*
X222670599Y-129727726D01*
X222684697Y-129518073D01*
X222719444Y-129419098D01*
X222784043Y-129397644D01*
X222853856Y-129411492D01*
X223077747Y-129413186D01*
X223252114Y-129363357D01*
X223503243Y-129313336D01*
X223685715Y-129367416D01*
G37*
G36*
X219684704Y-125712180D02*
G01*
X219869478Y-125865416D01*
X220106155Y-126150204D01*
X220120653Y-126169374D01*
X220499652Y-126672303D01*
X220526194Y-126169374D01*
X220547415Y-125884344D01*
X220586094Y-125733842D01*
X220662774Y-125675419D01*
X220769574Y-125666446D01*
X220986412Y-125666446D01*
X220986412Y-127613484D01*
X220743032Y-127610827D01*
X220592634Y-127580963D01*
X220445236Y-127474981D01*
X220267136Y-127262959D01*
X220123520Y-127060774D01*
X219747387Y-126513378D01*
X219747387Y-127063431D01*
X219743075Y-127364221D01*
X219719179Y-127528901D01*
X219659263Y-127598335D01*
X219546888Y-127613390D01*
X219526133Y-127613484D01*
X219304878Y-127613484D01*
X219304878Y-125666446D01*
X219523266Y-125666446D01*
X219684704Y-125712180D01*
G37*
G36*
X236317305Y-129363766D02*
G01*
X236454789Y-129482575D01*
X236474216Y-129564533D01*
X236455343Y-129704237D01*
X236370530Y-129722838D01*
X236196958Y-129642734D01*
X235980376Y-129613764D01*
X235766841Y-129710750D01*
X235619545Y-129893175D01*
X235589199Y-130032407D01*
X235650649Y-130325175D01*
X235830656Y-130487233D01*
X236122708Y-130513122D01*
X236156782Y-130508181D01*
X236370902Y-130485264D01*
X236455481Y-130520524D01*
X236456920Y-130605075D01*
X236354779Y-130726877D01*
X236145625Y-130786872D01*
X235888708Y-130783965D01*
X235643280Y-130717062D01*
X235500890Y-130622736D01*
X235357461Y-130366582D01*
X235325201Y-130044892D01*
X235398247Y-129724922D01*
X235570733Y-129473928D01*
X235603371Y-129447459D01*
X235837422Y-129338925D01*
X236093459Y-129313455D01*
X236317305Y-129363766D01*
G37*
G36*
X226143606Y-125516833D02*
G01*
X226195532Y-125629421D01*
X226208014Y-125869929D01*
X226208014Y-126250416D01*
X226518989Y-126214111D01*
X226786097Y-126211053D01*
X226957825Y-126294060D01*
X227052924Y-126488960D01*
X227090146Y-126821582D01*
X227093032Y-127004809D01*
X227084987Y-127338029D01*
X227056102Y-127527456D01*
X226999250Y-127605767D01*
X226960279Y-127613484D01*
X226876184Y-127565420D01*
X226835520Y-127399438D01*
X226827527Y-127178214D01*
X226810588Y-126803098D01*
X226753747Y-126577154D01*
X226647969Y-126475261D01*
X226570253Y-126462962D01*
X226373300Y-126522155D01*
X226256029Y-126710818D01*
X226209601Y-127045581D01*
X226208014Y-127144425D01*
X226199736Y-127419446D01*
X226164194Y-127560377D01*
X226085330Y-127609777D01*
X226031011Y-127613484D01*
X225956293Y-127603065D01*
X225906185Y-127552251D01*
X225875799Y-127431710D01*
X225860245Y-127212112D01*
X225854636Y-126864123D01*
X225854007Y-126551463D01*
X225855744Y-126103155D01*
X225864213Y-125802508D01*
X225884303Y-125620190D01*
X225920903Y-125526871D01*
X225978901Y-125493216D01*
X226031011Y-125489443D01*
X226143606Y-125516833D01*
G37*
G36*
X228901894Y-129418501D02*
G01*
X229084858Y-129428482D01*
X229172622Y-129383844D01*
X229313913Y-129302780D01*
X229530468Y-129312687D01*
X229751736Y-129404197D01*
X229836586Y-129472021D01*
X229970472Y-129697010D01*
X230013553Y-130034524D01*
X230013589Y-130047282D01*
X229954715Y-130427449D01*
X229778468Y-130675466D01*
X229485414Y-130790694D01*
X229349826Y-130799547D01*
X229141713Y-130814348D01*
X229056354Y-130889421D01*
X229040070Y-131065052D01*
X229012254Y-131259394D01*
X228908758Y-131327818D01*
X228863067Y-131330557D01*
X228785916Y-131319447D01*
X228735149Y-131265811D01*
X228705282Y-131139199D01*
X228690832Y-130909155D01*
X228686316Y-130545228D01*
X228686063Y-130347444D01*
X228686063Y-130132932D01*
X229040070Y-130132932D01*
X229047570Y-130378934D01*
X229091351Y-130495871D01*
X229203337Y-130531629D01*
X229307473Y-130534042D01*
X229538535Y-130485133D01*
X229672712Y-130319314D01*
X229726494Y-130077214D01*
X229698582Y-129833059D01*
X229601766Y-129658925D01*
X229549719Y-129626165D01*
X229384317Y-129621453D01*
X229239199Y-129657802D01*
X229112525Y-129735287D01*
X229053905Y-129879494D01*
X229040070Y-130132932D01*
X228686063Y-130132932D01*
X228686063Y-129364331D01*
X228901894Y-129418501D01*
G37*
G36*
X231494149Y-129585839D02*
G01*
X231558347Y-129512249D01*
X231829352Y-129335250D01*
X232105872Y-129305555D01*
X232362006Y-129396277D01*
X232571853Y-129580525D01*
X232709513Y-129831412D01*
X232749085Y-130122048D01*
X232664669Y-130425544D01*
X232573716Y-130566357D01*
X232385711Y-130736372D01*
X232138803Y-130797066D01*
X232049129Y-130799547D01*
X231771216Y-130762451D01*
X231575336Y-130626317D01*
X231524542Y-130566357D01*
X231366406Y-130242027D01*
X231360746Y-130037865D01*
X231683947Y-130037865D01*
X231732527Y-130273419D01*
X231857924Y-130458535D01*
X232047873Y-130534039D01*
X232049129Y-130534042D01*
X232234959Y-130474997D01*
X232296934Y-130427840D01*
X232388331Y-130229644D01*
X232388031Y-129971567D01*
X232300051Y-129742619D01*
X232264062Y-129699597D01*
X232132026Y-129585006D01*
X232019103Y-129578926D01*
X231866308Y-129652138D01*
X231724451Y-129811046D01*
X231683947Y-130037865D01*
X231360746Y-130037865D01*
X231356849Y-129897279D01*
X231494149Y-129585839D01*
G37*
G36*
X214589839Y-128870148D02*
G01*
X214878361Y-128890995D01*
X215034754Y-128930024D01*
X215103839Y-129009679D01*
X215129050Y-129140139D01*
X215127065Y-129314828D01*
X215045268Y-129374736D01*
X214851502Y-129332897D01*
X214747006Y-129295005D01*
X214455313Y-129263426D01*
X214216415Y-129392679D01*
X214081230Y-129610155D01*
X214049430Y-129876869D01*
X214129907Y-130128694D01*
X214290505Y-130321618D01*
X214499067Y-130411631D01*
X214652126Y-130391503D01*
X214773997Y-130286013D01*
X214770614Y-130161888D01*
X214648722Y-130092665D01*
X214624603Y-130091533D01*
X214472273Y-130012986D01*
X214415622Y-129870279D01*
X214402265Y-129738077D01*
X214456106Y-129672866D01*
X214618477Y-129651074D01*
X214803562Y-129649024D01*
X215233798Y-129649024D01*
X215233798Y-130170566D01*
X215222497Y-130482807D01*
X215164692Y-130669958D01*
X215024529Y-130763848D01*
X214766156Y-130796309D01*
X214525336Y-130799547D01*
X214193740Y-130769464D01*
X213942565Y-130659763D01*
X213824561Y-130570425D01*
X213663759Y-130414494D01*
X213582457Y-130253056D01*
X213554461Y-130017348D01*
X213552265Y-129855604D01*
X213566291Y-129549403D01*
X213625806Y-129344714D01*
X213756970Y-129167101D01*
X213815449Y-129106720D01*
X213984283Y-128956263D01*
X214145531Y-128881784D01*
X214367530Y-128862409D01*
X214589839Y-128870148D01*
G37*
G36*
X224561383Y-128794351D02*
G01*
X224669694Y-128888741D01*
X224664000Y-129021801D01*
X224527673Y-129113039D01*
X224377117Y-129068919D01*
X224316188Y-128981911D01*
X224337344Y-128837802D01*
X224401170Y-128793156D01*
X224561383Y-128794351D01*
G37*
G36*
X222956169Y-125515902D02*
G01*
X223008364Y-125625432D01*
X223021922Y-125863263D01*
X223021952Y-125882136D01*
X223021952Y-126274830D01*
X223330959Y-126224685D01*
X223596471Y-126210364D01*
X223768498Y-126286825D01*
X223864920Y-126478285D01*
X223903620Y-126808963D01*
X223906969Y-127004809D01*
X223898925Y-127338029D01*
X223870040Y-127527456D01*
X223813187Y-127605767D01*
X223774216Y-127613484D01*
X223690121Y-127565420D01*
X223649457Y-127399438D01*
X223641464Y-127178214D01*
X223624525Y-126803098D01*
X223567684Y-126577154D01*
X223461906Y-126475261D01*
X223384190Y-126462962D01*
X223187237Y-126522155D01*
X223069966Y-126710818D01*
X223023539Y-127045581D01*
X223021952Y-127144425D01*
X223013673Y-127419446D01*
X222978132Y-127560377D01*
X222899267Y-127609777D01*
X222844948Y-127613484D01*
X222770230Y-127603065D01*
X222720122Y-127552251D01*
X222689736Y-127431710D01*
X222674183Y-127212112D01*
X222668574Y-126864123D01*
X222667945Y-126551463D01*
X222669681Y-126103155D01*
X222678150Y-125802508D01*
X222698240Y-125620190D01*
X222734840Y-125526871D01*
X222792838Y-125493216D01*
X222844948Y-125489443D01*
X222956169Y-125515902D01*
G37*
G36*
X217180993Y-129317518D02*
G01*
X217334952Y-129127422D01*
X217351032Y-129111206D01*
X217550431Y-128945601D01*
X217762655Y-128869736D01*
X218046978Y-128852509D01*
X218355519Y-128874687D01*
X218567507Y-128958570D01*
X218708212Y-129076494D01*
X218929565Y-129415235D01*
X219001535Y-129812367D01*
X218919105Y-130208057D01*
X218702372Y-130547177D01*
X218389584Y-130741426D01*
X217995103Y-130799547D01*
X217695931Y-130768310D01*
X217469700Y-130648624D01*
X217351032Y-130540850D01*
X217189529Y-130348717D01*
X217112907Y-130146406D01*
X217092411Y-129854457D01*
X217092335Y-129826028D01*
X217097643Y-129733715D01*
X217593343Y-129733715D01*
X217603032Y-129985008D01*
X217707748Y-130212799D01*
X217861819Y-130347204D01*
X218009546Y-130426433D01*
X218108290Y-130424698D01*
X218238496Y-130359373D01*
X218403091Y-130181920D01*
X218476027Y-129918214D01*
X218457860Y-129633085D01*
X218349143Y-129391365D01*
X218229334Y-129287780D01*
X217996677Y-129235953D01*
X217803942Y-129319475D01*
X217664905Y-129498633D01*
X217593343Y-129733715D01*
X217097643Y-129733715D01*
X217109707Y-129523900D01*
X217180993Y-129317518D01*
G37*
G36*
X231130787Y-129319233D02*
G01*
X231195849Y-129427072D01*
X231160944Y-129566887D01*
X230984063Y-129694850D01*
X230831803Y-129789204D01*
X230753530Y-129906385D01*
X230724986Y-130103714D01*
X230721603Y-130315060D01*
X230713848Y-130595557D01*
X230680346Y-130741381D01*
X230605744Y-130794558D01*
X230544600Y-130799547D01*
X230456409Y-130784766D01*
X230403554Y-130716685D01*
X230377134Y-130559700D01*
X230368248Y-130278206D01*
X230367596Y-130091533D01*
X230373849Y-129728257D01*
X230396536Y-129510242D01*
X230441549Y-129406058D01*
X230500349Y-129383519D01*
X230618083Y-129433961D01*
X230633101Y-129477039D01*
X230692736Y-129502914D01*
X230829797Y-129432788D01*
X231022620Y-129316774D01*
X231130787Y-129319233D01*
G37*
G36*
X225946504Y-129339552D02*
G01*
X226137433Y-129430972D01*
X226208014Y-129573518D01*
X226187775Y-129677366D01*
X226103027Y-129706396D01*
X225917725Y-129661625D01*
X225710541Y-129587539D01*
X225562617Y-129613681D01*
X225423767Y-129760532D01*
X225335364Y-129974771D01*
X225322997Y-130087018D01*
X225382923Y-130354759D01*
X225563024Y-130492785D01*
X225863788Y-130501436D01*
X225904822Y-130494399D01*
X226113045Y-130466532D01*
X226193565Y-130500419D01*
X226192627Y-130594994D01*
X226090551Y-130713179D01*
X225879480Y-130780048D01*
X225620809Y-130792224D01*
X225375933Y-130746330D01*
X225214599Y-130648805D01*
X225041012Y-130348844D01*
X224998141Y-130018143D01*
X225078178Y-129706466D01*
X225273315Y-129463576D01*
X225413246Y-129382796D01*
X225687599Y-129319292D01*
X225946504Y-129339552D01*
G37*
G36*
X224349763Y-126978404D02*
G01*
X224457672Y-126866238D01*
X224698712Y-126760847D01*
X224907556Y-126728467D01*
X225091717Y-126696778D01*
X225122277Y-126617840D01*
X225011032Y-126544662D01*
X224770581Y-126514918D01*
X224712891Y-126515128D01*
X224474909Y-126506209D01*
X224374996Y-126456334D01*
X224368679Y-126382376D01*
X224443045Y-126289304D01*
X224642434Y-126234873D01*
X224859618Y-126214942D01*
X225134636Y-126206815D01*
X225286987Y-126236483D01*
X225370093Y-126323765D01*
X225411925Y-126419832D01*
X225462736Y-126642445D01*
X225494558Y-126953039D01*
X225500000Y-127133892D01*
X225494988Y-127410535D01*
X225465260Y-127553319D01*
X225388777Y-127605369D01*
X225256621Y-127610153D01*
X224979586Y-127624461D01*
X224791986Y-127653654D01*
X224560715Y-127657124D01*
X224415854Y-127609743D01*
X224286563Y-127441541D01*
X224273523Y-127294136D01*
X224561697Y-127294136D01*
X224612770Y-127346611D01*
X224809850Y-127379420D01*
X225007630Y-127293908D01*
X225124132Y-127128263D01*
X225128532Y-127106347D01*
X225118721Y-126980318D01*
X225003110Y-126959476D01*
X224932106Y-126970903D01*
X224710921Y-127051745D01*
X224576783Y-127172041D01*
X224561697Y-127294136D01*
X224273523Y-127294136D01*
X224265860Y-127207506D01*
X224349763Y-126978404D01*
G37*
G36*
X219725648Y-128883277D02*
G01*
X219881168Y-128998063D01*
X220065261Y-129230586D01*
X220109668Y-129294846D01*
X220279347Y-129528971D01*
X220414936Y-129689386D01*
X220477527Y-129737355D01*
X220515396Y-129657831D01*
X220539429Y-129454319D01*
X220543903Y-129295017D01*
X220551076Y-129032393D01*
X220587685Y-128901376D01*
X220676363Y-128856701D01*
X220765157Y-128852509D01*
X220986412Y-128852509D01*
X220986412Y-130799547D01*
X220768207Y-130799547D01*
X220618517Y-130759839D01*
X220453584Y-130623243D01*
X220244341Y-130363552D01*
X220170820Y-130260902D01*
X219791638Y-129722256D01*
X219765290Y-130260902D01*
X219745491Y-130558213D01*
X219710784Y-130719678D01*
X219642587Y-130786416D01*
X219522323Y-130799547D01*
X219304878Y-130799547D01*
X219304878Y-128852509D01*
X219556533Y-128852509D01*
X219725648Y-128883277D01*
G37*
G36*
X226660605Y-129476009D02*
G01*
X226910507Y-129323502D01*
X227074929Y-129297832D01*
X227296874Y-129366774D01*
X227516726Y-129540029D01*
X227673314Y-129758819D01*
X227712544Y-129910507D01*
X227692493Y-130014969D01*
X227604221Y-130069389D01*
X227405544Y-130089454D01*
X227225784Y-130091533D01*
X226902662Y-130115346D01*
X226746679Y-130188926D01*
X226754204Y-130315481D01*
X226845227Y-130427840D01*
X227008366Y-130507188D01*
X227228813Y-130531243D01*
X227421774Y-130497682D01*
X227491290Y-130445540D01*
X227604454Y-130358730D01*
X227694385Y-130424041D01*
X227712544Y-130524573D01*
X227658458Y-130679435D01*
X227481255Y-130767587D01*
X227158515Y-130799086D01*
X227099510Y-130799547D01*
X226800550Y-130751689D01*
X226626884Y-130644669D01*
X226461437Y-130355868D01*
X226421573Y-130035771D01*
X226477538Y-129793898D01*
X226749238Y-129793898D01*
X226799336Y-129881303D01*
X227017470Y-129914250D01*
X227048781Y-129914530D01*
X227282800Y-129883166D01*
X227358537Y-129787741D01*
X227285428Y-129659490D01*
X227117411Y-129594737D01*
X226931451Y-129614675D01*
X226867530Y-129652549D01*
X226749238Y-129793898D01*
X226477538Y-129793898D01*
X226492795Y-129727958D01*
X226660605Y-129476009D01*
G37*
G36*
X233310911Y-129464151D02*
G01*
X233357819Y-129676899D01*
X233384795Y-129978037D01*
X233392005Y-130323842D01*
X233379617Y-130670590D01*
X233347798Y-130974556D01*
X233296716Y-131192016D01*
X233236665Y-131276838D01*
X233000953Y-131328453D01*
X232865752Y-131275649D01*
X232845645Y-131207274D01*
X232917033Y-131070648D01*
X232978398Y-131033048D01*
X233044545Y-130969165D01*
X233085482Y-130818522D01*
X233106051Y-130550109D01*
X233111150Y-130182812D01*
X233116295Y-129793449D01*
X233135075Y-129550668D01*
X233172508Y-129424256D01*
X233233612Y-129384000D01*
X233243903Y-129383519D01*
X233310911Y-129464151D01*
G37*
G36*
X224550345Y-129416867D02*
G01*
X224591223Y-129537863D01*
X224610757Y-129777936D01*
X224614983Y-130091533D01*
X224608730Y-130454809D01*
X224586044Y-130672824D01*
X224541030Y-130777008D01*
X224482230Y-130799547D01*
X224414116Y-130766199D01*
X224373238Y-130645203D01*
X224353704Y-130405131D01*
X224349478Y-130091533D01*
X224355730Y-129728257D01*
X224378417Y-129510242D01*
X224423431Y-129406058D01*
X224482230Y-129383519D01*
X224550345Y-129416867D01*
G37*
G36*
X237154871Y-128931667D02*
G01*
X237182230Y-129118014D01*
X237210046Y-129312356D01*
X237313542Y-129380780D01*
X237359234Y-129383519D01*
X237503385Y-129438857D01*
X237536237Y-129516272D01*
X237462454Y-129624385D01*
X237359234Y-129649024D01*
X237253066Y-129672322D01*
X237200117Y-129771210D01*
X237182988Y-129989181D01*
X237182230Y-130091533D01*
X237191549Y-130356952D01*
X237231105Y-130489326D01*
X237318293Y-130532148D01*
X237359234Y-130534042D01*
X237503385Y-130589379D01*
X237536237Y-130666794D01*
X237461962Y-130754046D01*
X237290715Y-130800538D01*
X237099870Y-130796088D01*
X236975726Y-130740546D01*
X236943868Y-130626404D01*
X236922445Y-130392106D01*
X236916725Y-130165285D01*
X236906006Y-129861829D01*
X236868126Y-129701015D01*
X236794501Y-129649459D01*
X236783973Y-129649024D01*
X236666531Y-129583044D01*
X236651220Y-129525740D01*
X236722608Y-129389115D01*
X236783973Y-129351515D01*
X236885002Y-129233643D01*
X236916725Y-129076541D01*
X236962402Y-128896512D01*
X237049478Y-128852509D01*
X237154871Y-128931667D01*
G37*
G36*
X216530979Y-125669700D02*
G01*
X216716217Y-125688644D01*
X216801601Y-125737053D01*
X216825702Y-125828703D01*
X216826830Y-125887700D01*
X216807507Y-126030251D01*
X216716368Y-126093609D01*
X216503652Y-126108876D01*
X216472823Y-126108955D01*
X216241219Y-126123798D01*
X216138858Y-126183792D01*
X216118816Y-126285958D01*
X216153466Y-126407953D01*
X216288735Y-126457176D01*
X216428572Y-126462962D01*
X216642062Y-126482762D01*
X216728203Y-126560058D01*
X216738328Y-126639965D01*
X216703678Y-126761960D01*
X216568409Y-126811183D01*
X216428572Y-126816969D01*
X216219097Y-126833499D01*
X216133341Y-126907888D01*
X216118816Y-127038223D01*
X216135323Y-127174754D01*
X216216461Y-127239442D01*
X216409655Y-127258632D01*
X216517074Y-127259477D01*
X216765953Y-127271059D01*
X216883641Y-127319148D01*
X216915179Y-127423765D01*
X216915331Y-127436481D01*
X216899654Y-127526980D01*
X216828169Y-127580080D01*
X216664194Y-127605562D01*
X216371050Y-127613207D01*
X216251568Y-127613484D01*
X215587805Y-127613484D01*
X215587805Y-125666446D01*
X216207318Y-125666446D01*
X216530979Y-125669700D01*
G37*
G36*
X216530979Y-128855762D02*
G01*
X216716217Y-128874706D01*
X216801601Y-128923116D01*
X216825702Y-129014765D01*
X216826830Y-129073763D01*
X216807507Y-129216313D01*
X216716368Y-129279672D01*
X216503652Y-129294938D01*
X216472823Y-129295017D01*
X216223260Y-129329222D01*
X216111804Y-129408963D01*
X216146528Y-129499933D01*
X216335506Y-129567824D01*
X216406446Y-129577041D01*
X216621423Y-129629946D01*
X216712853Y-129755790D01*
X216722358Y-129803902D01*
X216718653Y-129937098D01*
X216624960Y-129992794D01*
X216434727Y-130003031D01*
X216218662Y-130022000D01*
X216130195Y-130096456D01*
X216118816Y-130180035D01*
X216144874Y-130290648D01*
X216253076Y-130342954D01*
X216488463Y-130356971D01*
X216517074Y-130357038D01*
X216762830Y-130366209D01*
X216879267Y-130411285D01*
X216913810Y-130518616D01*
X216915331Y-130578293D01*
X216907059Y-130690832D01*
X216857387Y-130756800D01*
X216729030Y-130788624D01*
X216484704Y-130798734D01*
X216251568Y-130799547D01*
X215587805Y-130799547D01*
X215587805Y-128852509D01*
X216207318Y-128852509D01*
X216530979Y-128855762D01*
G37*
G36*
X214887789Y-125691547D02*
G01*
X215073472Y-125776896D01*
X215142889Y-125937556D01*
X215145297Y-125988719D01*
X215133471Y-126115834D01*
X215067542Y-126170352D01*
X214901834Y-126169344D01*
X214721074Y-126147278D01*
X214378994Y-126141063D01*
X214167387Y-126243834D01*
X214065350Y-126472841D01*
X214047875Y-126702856D01*
X214117432Y-127009692D01*
X214314542Y-127200956D01*
X214586951Y-127259477D01*
X214751579Y-127210619D01*
X214791290Y-127082474D01*
X214728709Y-126934560D01*
X214614286Y-126905470D01*
X214466373Y-126842890D01*
X214437283Y-126728467D01*
X214463341Y-126617854D01*
X214571542Y-126565548D01*
X214806930Y-126551531D01*
X214835541Y-126551463D01*
X215233798Y-126551463D01*
X215233798Y-127029565D01*
X215226917Y-127308412D01*
X215188998Y-127463814D01*
X215094128Y-127549255D01*
X214955087Y-127604827D01*
X214576823Y-127690869D01*
X214231547Y-127649907D01*
X214023868Y-127572972D01*
X213801412Y-127437373D01*
X213650776Y-127277994D01*
X213647735Y-127272498D01*
X213580901Y-127037440D01*
X213555509Y-126714014D01*
X213571867Y-126384614D01*
X213630280Y-126131636D01*
X213643391Y-126104052D01*
X213839374Y-125896921D01*
X214145494Y-125741203D01*
X214496016Y-125668337D01*
X214558402Y-125666446D01*
X214887789Y-125691547D01*
G37*
%TD*%
M02*
