<?xml version="1.0" encoding="UTF-8"?>
<svg id="Layer_2" data-name="Layer 2" xmlns="http://www.w3.org/2000/svg" viewBox="0 0 242.43 36.63">
  <g id="Layer_3" data-name="Layer 3">
    <g>
      <path d="m21.54,7.56c2.2,0,4.41-3,4.41-4.94,0-1.79-1.9-2.62-3.99-2.62-2.39,0-3.65.99-3.65,2.89,0,1.71,1.06,4.67,3.23,4.67Z"/>
      <path d="m63.27,10.9c-.99-.95-2.66-1.63-4.37-1.63-5.78,0-6.73,7.07-6.73,13.41l-.38.49c0-4.1.38-9.65,2.58-12.65-.91-.72-2.32-1.25-3.91-1.25-4.2,0-6.01,3.84-6.36,8.88-.58,1.3-1.23,2.61-2.08,3.7,1.25-3.19,1.75-6.92,1.75-8.43,0-2.66-1.14-4.14-3.72-4.14-6.46,0-8.21,9.38-8.74,15.43h-.08c.27-5.89,1.41-10.75,3.72-13.6-.99-1.03-2.51-1.82-4.52-1.82-3.89,0-6,3.17-6.14,10.11-.52.99-1.11,1.95-1.61,2.47,0-4.71.72-8.4,2.05-10.94,0,0-1.6-1.63-4.14-1.63-1.25,0-2.32.4-3.23,1.07,0-.01,0-.03,0-.04,0-.65-.27-1.29-.61-1.79l-2.89.15c.3-.91.76-2.05,1.06-2.66-1.22-1.03-2.81-1.44-4.52-1.44-3.04,0-5.21,1.41-6.57,4.83-2.7,0-3.84,1.25-3.84,2.32s.8,1.6,2.36,1.6h7.29v.08c-2.43.27-4.64.42-6.88.49-.23,1.6-.46,3.31-.46,5.55,0,5.28,1.29,10.11,6.46,10.11,2.55,0,4.39-1.76,5.67-3.93.88,2.32,2.39,3.93,4.51,3.93,2.45,0,4.43-2.31,5.78-4.98.79,3.33,2.58,4.98,5.01,4.98,2.58,0,3.69-1.79,4.07-3-.3-1.03-.49-2.09-.49-3.12,0-2.47.46-6.34,2.74-10.3l.11.04c-1.29,2.74-2.36,6.8-2.36,10.11s1.44,6.27,4.56,6.27c2.88,0,4.82-2.61,6.01-5.42.66,3.41,2.3,5.42,5.08,5.42,2.2,0,4.6-2.74,5.97-6.8h.08c-.27,1.25-.76,3.34-2.24,5.17.27,1.56.76,3.42,1.29,5.4h-.08c-.61-1.29-1.25-2.93-1.71-4.79-.84.91-2.13,1.63-3.65,1.63-.19,0-.34,0-.53-.04-.99.87-1.44,1.86-1.44,2.89,0,2.58,3.04,3.65,7.48,3.65,6.31,0,7.56-2.05,7.56-5.36,0-1.94-1.03-6.38-1.03-11.09,0-3.19.46-6.54,2.09-9.27ZM12.5,21.77c-.57,0-.87-.87-.87-2.09,0-2.05.34-4.25.95-6.38,1.08,0,1.94-.12,2.61-.32-1.09,2.06-1.62,4.71-1.62,7.27,0,.21,0,.43.02.64-.39.54-.76.88-1.08.88Z"/>
      <path d="m88.69,7.56c2.2,0,4.41-3,4.41-4.94,0-1.79-1.9-2.62-3.99-2.62-2.39,0-3.65.99-3.65,2.89,0,1.71,1.06,4.67,3.23,4.67Z"/>
      <path d="m134.9,9.27c-3.72,0-6.27,7.52-8.36,15.54h-.11c.99-5.17,2.62-10.3,4.83-13.87-.95-.99-2.47-1.67-4.29-1.67-3.54,0-5.9,2.58-6.42,8.29-.61,1.37-1.58,3.41-2.36,4.29,1.25-3.19,1.75-6.92,1.75-8.43,0-2.66-1.14-4.14-3.72-4.14-6.73,0-8.28,10.3-8.74,15.43h-.08c0-2.28.53-9.73,3.72-13.6,0,0-1.25-1.82-3.91-1.82-6.46,0-8.21,9.38-8.74,15.43h-.08c.27-5.89,1.41-10.68,3.72-13.6-.99-1.03-2.51-1.82-4.52-1.82-3.89,0-6,3.17-6.14,10.11-.52.99-1.11,1.95-1.61,2.47,0-4.71.72-8.4,2.05-10.94,0,0-1.6-1.63-4.14-1.63-4.79,0-7.03,5.7-7.03,10.98,0,.05,0,.09,0,.14-.34.55-.69,1.06-1.03,1.45-.08-.76-.11-1.6-.11-2.43,0-4.71,1.22-10.41,3-14.36,0,0-1.86-1.44-4.26-1.44-3.04,0-5.32,2.2-6.54,5.47,2.01.65,3.88,2.24,5.17,3.61l-.08.08c-2.01-1.86-4.48-3.5-7.03-3.5-5.09,0-7.9,6.73-7.9,12.58,0,4.1,1.33,7.67,3.91,7.67,3.5,0,6.23-7.52,8.32-15.5h.08c-.72,3.53-1.41,6.92-2.89,10.45.8,2.96,2.2,5.05,4.79,5.05,2.17,0,3.99-1.97,5.3-4.34.85,2.55,2.41,4.34,4.66,4.34,2.45,0,4.43-2.31,5.78-4.98.79,3.33,2.58,4.98,5.01,4.98,2.58,0,3.61-1.71,4.03-2.93-.3-1.1-.46-2.13-.46-3.19,0-2.47.46-6.34,2.74-10.3l.11.04c-1.29,2.74-2.36,6.76-2.36,10.11s1.44,6.27,4.94,6.27c2.58,0,3.61-1.71,4.03-2.93-.27-.72-.46-1.86-.46-3.12,0-2.43.46-6.42,2.74-10.37l.11.04c-1.29,2.74-2.36,6.8-2.36,10.11s1.48,6.27,4.56,6.27c2.92,0,4.87-2.65,6.06-5.49.26,3.29.8,6.49,1.51,8.99l-.11.04c-.61-1.44-1.18-3.19-1.6-4.71-1.06.53-2.28,1.6-2.28,3.53,0,3.57,4.26,4.75,8.25,4.75,1.75,0,3.57-.23,4.56-.76l-1.33-5.93c-2.62-.53-4.86-2.7-6.08-4.25l.08-.08c1.82,1.82,4.41,3.91,7.29,3.91,4.9,0,8.44-6.31,8.44-12.2,0-3.65-1.56-8.05-4.41-8.05Zm-64.98,11.89h-.08c1.1-5.02,2.24-8.02,3.15-8.4-.84,2.74-1.9,6.12-3.08,8.4Zm57.8,4.86c1.06-3.23,1.98-6.31,3.08-8.4h.08c-1.41,6.23-2.32,7.86-3.15,8.4Z"/>
      <path d="m169.06,10.9c-.99-.95-2.66-1.63-4.37-1.63-5.78,0-6.73,7.07-6.73,13.41l-.38.49c0-4.1.38-9.65,2.58-12.65-.91-.72-2.32-1.25-3.91-1.25-4.71,0-6.42,4.83-6.42,10.75,0,.32,0,.63.02.93-.22.33-.45.64-.66.89-.08-.76-.11-1.6-.11-2.43,0-4.71,1.22-10.41,3-14.36-1.48-.76-3-1.44-4.86-1.44-5.09,0-7.14,8.17-7.14,15.31,0,5.62,1.56,10.6,5.59,10.6,2,0,3.69-1.65,4.97-3.76.83,2.39,2.35,3.76,4.65,3.76s4.6-2.74,5.97-6.8h.08c-.27,1.25-.76,3.34-2.24,5.17.27,1.56.76,3.42,1.29,5.4h-.08c-.61-1.29-1.25-2.93-1.71-4.79-.84.91-2.13,1.63-3.65,1.63-.19,0-.34,0-.53-.04-.99.87-1.44,1.86-1.44,2.89,0,2.58,3.04,3.65,7.48,3.65,6.31,0,7.56-2.05,7.56-5.36,0-1.94-1.03-6.38-1.03-11.09,0-3.19.46-6.54,2.09-9.27Z"/>
      <path d="m242.43,10.9c-.99-.95-2.66-1.63-4.37-1.63-5.78,0-6.73,7.07-6.73,13.41l-.38.49c0-4.1.38-9.65,2.58-12.65-.91-.72-2.32-1.25-3.91-1.25-4.71,0-6.42,4.83-6.42,10.75,0,.68.03,1.33.07,1.95-.54-1.03-1.47-1.81-2.85-1.99-.99,1.71-2.7,3.99-4.41,6.16l-.08-.08s7.14-10.98,8.4-15.2c-1.1-.91-2.17-1.6-4.03-1.6-1.14,0-1.9.27-3.38,1.1,1.03.8,1.75,1.75,2.32,2.77l-.04.04c-1.82-2.2-4.29-3.91-6.88-3.91-3.99,0-5.81,2.77-5.81,5.28,0,.71.15,1.39.42,1.99-.8,1.76-1.68,3.76-2.97,5.31,0-4.67.72-8.4,2.09-10.94-.99-.95-2.66-1.63-4.26-1.63-1.29,0-2.28.34-3.19.91,1.06.65,2.2,1.86,3.04,2.93l-.08.08c-2.85-2.77-5.32-3.91-7.41-3.91-5.17,0-7.94,6.73-7.94,12.58,0,3.1.78,5.89,2.24,7.07l-2.55.11c-.38-2.32-.65-4.71-.65-7.14,0-3.76.61-7.52,2.28-10.98-.99-.95-2.66-1.63-4.26-1.63-1.29,0-2.28.34-3.19.91,1.06.65,2.2,1.86,3.04,2.93l-.08.08c-2.85-2.77-5.32-3.91-7.41-3.91-5.17,0-7.94,6.73-7.94,12.58,0,4.1,1.33,7.67,3.88,7.67,3.65,0,6.27-7.52,8.36-15.5h.08c-.72,3.53-1.63,7.87-3.23,11.13-.19,1.25-.23,2.85,0,4.41-1.86.3-2.66,1.33-2.66,2.24,0,1.33.95,1.71,3.04,1.79,1.63.08,4.9.11,7.07.11v.11l-6.27.38c.72,1.37,2.13,2.35,3.8,2.35,2.09,0,3.84-1.14,5.09-3,0-.04-.04-.08-.04-.11,1.79-.46,2.39-1.52,2.39-2.74,0-.57-.21-1.13-.49-1.59.41.26.86.41,1.37.41,3.65,0,6.27-7.52,8.36-15.5h.08c-.72,3.53-1.6,7.37-2.89,10.45.42,2.51,1.52,5.05,4.41,5.05,5.4,0,7.91-9.02,7.97-11.63.45.33,1,.56,1.64.61l4.26-5.77.08.04s-5.66,8.78-8.28,15.27c1.03.91,2.28,1.48,3.72,1.48,1.1,0,2.51-.27,3.95-1.1-.95-.61-1.9-1.71-2.43-2.77l.04-.04c1.82,2.2,4.9,3.91,7.71,3.91,3.02,0,4.73-2.23,5.04-4.53.76,2.87,2.35,4.53,4.88,4.53,2.2,0,4.6-2.74,5.96-6.8h.08c-.27,1.25-.76,3.34-2.24,5.17.27,1.56.76,3.42,1.29,5.4h-.08c-.61-1.29-1.25-2.93-1.71-4.79-.84.91-2.13,1.63-3.65,1.63-.19,0-.34,0-.53-.04-.99.87-1.44,1.86-1.44,2.89,0,2.58,3.04,3.65,7.48,3.65,6.31,0,7.56-2.05,7.56-5.36,0-1.94-1.03-6.38-1.03-11.09,0-3.19.46-6.54,2.09-9.27Zm-66.73,10.26h-.08c1.1-5.02,2.24-8.02,3.15-8.4-.84,2.74-1.9,6.12-3.08,8.4Zm18.51,0h-.08c1.1-5.02,2.24-8.02,3.15-8.4-.84,2.74-1.9,6.12-3.08,8.4Z"/>
    </g>
  </g>
</svg>