<?xml version="1.0" encoding="UTF-8"?>
<svg id="Layer_2" data-name="Layer 2" xmlns="http://www.w3.org/2000/svg" viewBox="0 0 322.9 8.46">
  <g id="Layer_3" data-name="Layer 3">
    <g>
      <g>
        <path d="m318.65,6.66v-.45h.69s0-2.75,0-2.75c0-.97.65-1.55,1.69-1.55.9,0,1.47.42,1.71.95l-.35.25c-.25-.5-.69-.77-1.33-.77-.76,0-1.21.39-1.21,1.16v.57s1.13,0,1.13,0c1.39,0,1.91.51,1.91,1.33,0,.85-.59,1.36-1.57,1.36-.8,0-1.25-.35-1.46-.84h-.04s0,.16,0,.16c-.03.34-.19.57-.6.57h-.58Zm2.6-.32c.67,0,1.11-.29,1.11-.82v-.23c0-.5-.41-.82-1.37-.82h-1.13s0,.85,0,.85c0,.62.61,1.02,1.4,1.02Z"/>
        <path d="m315.56,6.77c-1.12,0-1.89-.49-1.89-1.41s.8-1.13,1.53-1.24l.73-.11c.56-.08.99-.23.99-.8s-.47-.86-1.25-.86c-.85,0-1.28.33-1.53.63l-.34-.32c.41-.42.98-.74,1.85-.74,1.02,0,1.79.41,1.79,1.33,0,.94-.81,1.13-1.54,1.24l-.72.1c-.57.08-1,.23-1,.8,0,.65.57.95,1.38.95s1.31-.26,1.77-.78l.35.31c-.5.58-1.18.91-2.12.91Z"/>
        <path d="m312.21,6.66h-.51v-3.27c0-.7-.62-1.03-1.26-1.03-.78,0-1.22.43-1.22,1.39v2.91h-.51v-3c0-1.12.59-1.75,1.59-1.75.78,0,1.18.4,1.36.83h.04s0-2.74,0-2.74h.51v6.66Z"/>
        <path d="m306.09,8.04h-.43s-.91-2.39-.91-2.39h.86s.48,2.39.48,2.39Zm-.77-5.12c-.38,0-.52-.17-.52-.42v-.13c0-.24.14-.42.52-.42s.52.18.52.42v.13c0,.25-.14.42-.52.42Z"/>
      </g>
      <g>
        <path d="m44.87,8.46h-.51v-2.54s-.03,0-.03,0c-.26.5-.74.85-1.44.85-1.15,0-1.85-.87-1.85-2.43s.69-2.43,1.85-2.43c.7,0,1.18.34,1.44.85h.03s0-.74,0-.74h.51v6.45Zm-1.81-2.15c.69,0,1.3-.4,1.3-1.05v-1.84c0-.66-.6-1.05-1.3-1.05-.94,0-1.47.64-1.47,1.65v.65c0,1.01.53,1.65,1.47,1.65Z"/>
        <path d="m37.89,6.77c-.91,0-1.55-.46-1.83-1.13l.39-.24c.26.6.76.93,1.44.93.96,0,1.54-.67,1.54-1.66v-.22s-3.48,0-3.48,0v-.22c0-1.37.75-2.3,1.99-2.3s2.03.9,2.03,2.44-.79,2.42-2.08,2.42Zm.04-4.43c-.89,0-1.44.64-1.44,1.64v.07s2.93,0,2.93,0v-.05c0-.99-.59-1.66-1.49-1.66Z"/>
        <path d="m34.53,8.46h-.51v-2.54s-.03,0-.03,0c-.26.5-.74.85-1.44.85-1.15,0-1.85-.87-1.85-2.43s.69-2.43,1.85-2.43c.7,0,1.18.34,1.44.85h.03s0-.74,0-.74h.51v6.45Zm-1.81-2.15c.69,0,1.3-.4,1.3-1.05v-1.84c0-.66-.6-1.05-1.3-1.05-.94,0-1.47.64-1.47,1.65v.65c0,1.01.53,1.65,1.47,1.65Z"/>
        <path d="m29.35,8.46h-.51v-2.54s-.03,0-.03,0c-.26.5-.74.85-1.44.85-1.15,0-1.85-.87-1.85-2.43s.69-2.43,1.85-2.43c.7,0,1.18.34,1.44.85h.03s0-.74,0-.74h.51v6.45Zm-1.81-2.15c.69,0,1.3-.4,1.3-1.05v-1.84c0-.66-.6-1.05-1.3-1.05-.94,0-1.47.64-1.47,1.65v.65c0,1.01.53,1.65,1.47,1.65Z"/>
        <path d="m22.41,5.92h.04s1.58-3.9,1.58-3.9h.53s-1.86,4.52-1.86,4.52l.61,1.49h1.05v.44h-.77c-.49,0-.68-.17-.84-.54l-2.42-5.91h.51s1.58,3.9,1.58,3.9Z"/>
        <path d="m15.25,6.66v-.44h2.21s0-3.76,0-3.76h-2.21v-.44h2.21s0-1.64,0-1.64h.5v1.28c0,.26.1.36.36.36h1.3v.44h-1.65s0,3.46,0,3.46c0,.45-.23.75-.73.75h-2Z"/>
        <path d="m12.09,6.77c-1.26,0-2.03-.9-2.03-2.43s.76-2.43,2.03-2.43,2.03.9,2.03,2.43-.76,2.43-2.03,2.43Zm0-.45c.91,0,1.48-.59,1.48-1.69v-.58c0-1.1-.57-1.69-1.48-1.69s-1.48.59-1.48,1.69v.58c0,1.1.57,1.69,1.48,1.69Z"/>
        <path d="m4.72,6.66v-.45h.69s0-2.75,0-2.75c0-.97.65-1.55,1.69-1.55.9,0,1.47.42,1.71.95l-.35.25c-.25-.5-.69-.77-1.33-.77-.76,0-1.21.39-1.21,1.16v.57s1.13,0,1.13,0c1.39,0,1.91.51,1.91,1.33,0,.85-.59,1.36-1.57,1.36-.8,0-1.25-.35-1.46-.84h-.04s0,.16,0,.16c-.03.34-.19.57-.6.57h-.58Zm2.6-.32c.67,0,1.11-.29,1.11-.82v-.23c0-.5-.41-.82-1.37-.82h-1.13s0,.85,0,.85c0,.62.61,1.02,1.4,1.02Z"/>
        <path d="m.51,6.66h-.51V0h.51v2.75s.03,0,.03,0c.26-.5.74-.85,1.44-.85,1.15,0,1.84.87,1.84,2.43s-.69,2.43-1.84,2.43c-.7,0-1.18-.34-1.44-.85h-.03s0,.74,0,.74Zm1.3-.35c.94,0,1.47-.64,1.47-1.65v-.65c0-1.01-.53-1.65-1.47-1.65-.69,0-1.3.4-1.3,1.05v1.84c0,.66.6,1.05,1.3,1.05Z"/>
      </g>
    </g>
  </g>
</svg>