0
SECTION
2
HEADER
9
$INSUNITS
70
4
9
$ACADVER
1
AC1014
9
$HANDSEED
5
FFFF
0
ENDSEC
0
SECTION
2
TABLES
0
TABLE
2
VPORT
5
8
100
AcDbSymbolTable
0
ENDTAB
0
TABLE
2
LTYPE
5
5
100
AcDbSymbolTable
0
LTYPE
5
14
100
AcDbSymbolTableRecord
100
AcDbLinetypeTableRecord
2
BYBLOCK
70
0
0
LTYPE
5
15
100
AcDbSymbolTableRecord
100
AcDbLinetypeTableRecord
2
BYLAYER
70
0
0
ENDTAB
0
TABLE
2
LAYER
5
2
100
AcDbSymbolTable
70
2
0
LAYER
5
50
100
AcDbSymbolTableRecord
100
AcDbLayerTableRecord
2
0
70
0
6
CONTINUOUS
0
ENDTAB
0
TABLE
2
STYLE
5
3
100
AcDbSymbolTable
70
1
0
STYLE
5
11
100
AcDbSymbolTableRecord
100
AcDbTextStyleTableRecord
2
STANDARD
70
0
0
ENDTAB
0
TABLE
2
VIEW
5
6
100
AcDbSymbolTable
70
0
0
ENDTAB
0
TABLE
2
UCS
5
7
100
AcDbSymbolTable
70
0
0
ENDTAB
0
TABLE
2
APPID
5
9
100
AcDbSymbolTable
70
2
0
APPID
5
12
100
AcDbSymbolTableRecord
100
AcDbRegAppTableRecord
2
ACAD
70
0
0
ENDTAB
0
TABLE
2
DIMSTYLE
5
A
100
AcDbSymbolTable
70
1
0
ENDTAB
0
TABLE
2
BLOCK_RECORD
5
1
100
AcDbSymbolTable
70
1
0
BLOCK_RECORD
5
1F
100
AcDbSymbolTableRecord
100
AcDbBlockTableRecord
2
*MODEL_SPACE
0
BLOCK_RECORD
5
1B
100
AcDbSymbolTableRecord
100
AcDbBlockTableRecord
2
*PAPER_SPACE
0
ENDTAB
0
ENDSEC
0
SECTION
2
BLOCKS
0
BLOCK
5
20
100
AcDbEntity
100
AcDbBlockBegin
2
*MODEL_SPACE
0
ENDBLK
5
21
100
AcDbEntity
100
AcDbBlockEnd
0
BLOCK
5
1C
100
AcDbEntity
100
AcDbBlockBegin
2
*PAPER_SPACE
0
ENDBLK
5
1D
100
AcDbEntity
100
AcDbBlockEnd
0
ENDSEC
0
SECTION
2
ENTITIES
0
CIRCLE
5
100
100
AcDbEntity
8
0
100
AcDbCircle
10
-116.68125499973415
20
66.675000000000011
30
0
40
0.99999999999999645
210
0
220
-0
230
1
0
CIRCLE
5
101
100
AcDbEntity
8
0
100
AcDbCircle
10
-71.4375
20
66.675000000000011
30
0
40
0.99999999999999645
210
0
220
-0
230
1
0
CIRCLE
5
102
100
AcDbEntity
8
0
100
AcDbCircle
10
-159.54375499973415
20
47.625
30
0
40
0.99999999999999645
210
0
220
-0
230
1
0
CIRCLE
5
103
100
AcDbEntity
8
0
100
AcDbCircle
10
-183.35625499973415
20
47.625
30
0
40
0.99999999999997868
210
0
220
-0
230
1
0
CIRCLE
5
104
100
AcDbEntity
8
0
100
AcDbCircle
10
-14.287500000000001
20
47.625
30
0
40
0.99999999999999645
210
0
220
-0
230
1
0
CIRCLE
5
105
100
AcDbEntity
8
0
100
AcDbCircle
10
-142.875
20
9.5250000000000021
30
0
40
0.99999999999999645
210
0
220
-0
230
1
0
CIRCLE
5
106
100
AcDbEntity
8
0
100
AcDbCircle
10
-19.050000000000004
20
66.675000000000011
30
0
40
0.99999999999999645
210
0
220
-0
230
1
0
CIRCLE
5
107
100
AcDbEntity
8
0
100
AcDbCircle
10
-100.0125
20
66.675000000000011
30
0
40
0.99999999999999645
210
0
220
-0
230
1
0
CIRCLE
5
108
100
AcDbEntity
8
0
100
AcDbCircle
10
-185.73750499973414
20
47.625
30
0
40
1.0000000000000142
210
0
220
-0
230
1
0
CIRCLE
5
109
100
AcDbEntity
8
0
100
AcDbCircle
10
-11.906250000000004
20
28.574999999999999
30
0
40
0.99999999999999867
210
0
220
-0
230
1
0
CIRCLE
5
110
100
AcDbEntity
8
0
100
AcDbCircle
10
-9.5250000000000004
20
66.675000000000011
30
0
40
0.99999999999999756
210
0
220
-0
230
1
0
CIRCLE
5
111
100
AcDbEntity
8
0
100
AcDbCircle
10
-188.11875000000001
20
28.574999999999999
30
0
40
1.0000000000000142
210
0
220
-0
230
1
0
CIRCLE
5
112
100
AcDbEntity
8
0
100
AcDbCircle
10
-30.956250000000001
20
66.675000000000011
30
0
40
0.99999999999999645
210
0
220
-0
230
1
0
CIRCLE
5
113
100
AcDbEntity
8
0
100
AcDbCircle
10
-147.63749999999999
20
28.574999999999999
30
0
40
0.99999999999999645
210
0
220
-0
230
1
0
CIRCLE
5
114
100
AcDbEntity
8
0
100
AcDbCircle
10
-166.68750000000003
20
28.574999999999999
30
0
40
1.0000000000000142
210
0
220
-0
230
1
0
CIRCLE
5
115
100
AcDbEntity
8
0
100
AcDbCircle
10
-42.862499999999997
20
47.625
30
0
40
0.99999999999999645
210
0
220
-0
230
1
0
CIRCLE
5
116
100
AcDbEntity
8
0
100
AcDbCircle
10
-61.912500000000001
20
47.625
30
0
40
0.99999999999999645
210
0
220
-0
230
1
0
CIRCLE
5
117
100
AcDbEntity
8
0
100
AcDbCircle
10
-80.962500000000006
20
47.625
30
0
40
0.99999999999999645
210
0
220
-0
230
1
0
CIRCLE
5
118
100
AcDbEntity
8
0
100
AcDbCircle
10
-100.0125
20
47.625
30
0
40
0.99999999999999645
210
0
220
-0
230
1
0
CIRCLE
5
119
100
AcDbEntity
8
0
100
AcDbCircle
10
-119.0625
20
47.625
30
0
40
0.99999999999999645
210
0
220
-0
230
1
0
CIRCLE
5
120
100
AcDbEntity
8
0
100
AcDbCircle
10
-40.481250000000003
20
47.625
30
0
40
1.0000000000000053
210
0
220
-0
230
1
0
CIRCLE
5
121
100
AcDbEntity
8
0
100
AcDbCircle
10
-138.11250000000001
20
47.625
30
0
40
0.99999999999999645
210
0
220
-0
230
1
0
CIRCLE
5
122
100
AcDbEntity
8
0
100
AcDbCircle
10
-157.16250000000002
20
47.625
30
0
40
0.99999999999999645
210
0
220
-0
230
1
0
CIRCLE
5
123
100
AcDbEntity
8
0
100
AcDbCircle
10
-90.487499999999997
20
28.574999999999999
30
0
40
0.99999999999999645
210
0
220
-0
230
1
0
CIRCLE
5
124
100
AcDbEntity
8
0
100
AcDbCircle
10
-128.58750000000001
20
28.574999999999999
30
0
40
0.99999999999999645
210
0
220
-0
230
1
0
CIRCLE
5
125
100
AcDbEntity
8
0
100
AcDbCircle
10
-71.4375
20
28.574999999999999
30
0
40
0.99999999999999645
210
0
220
-0
230
1
0
CIRCLE
5
126
100
AcDbEntity
8
0
100
AcDbCircle
10
-52.387500000000003
20
28.574999999999999
30
0
40
0.99999999999999645
210
0
220
-0
230
1
0
CIRCLE
5
127
100
AcDbEntity
8
0
100
AcDbCircle
10
-33.337500000000006
20
28.574999999999999
30
0
40
0.99999999999999645
210
0
220
-0
230
1
0
CIRCLE
5
128
100
AcDbEntity
8
0
100
AcDbCircle
10
-185.73750000000015
20
9.5250000000000075
30
0
40
1.0000000000000142
210
0
220
-0
230
1
0
CIRCLE
5
129
100
AcDbEntity
8
0
100
AcDbCircle
10
-161.92500000000001
20
9.5250000000000021
30
0
40
1.0000000000000142
210
0
220
-0
230
1
0
CIRCLE
5
130
100
AcDbEntity
8
0
100
AcDbCircle
10
-109.53749999999999
20
28.574999999999999
30
0
40
0.99999999999999645
210
0
220
-0
230
1
0
CIRCLE
5
131
100
AcDbEntity
8
0
100
AcDbCircle
10
-104.77500000000003
20
9.5250000000000021
30
0
40
0.99999999999999645
210
0
220
-0
230
1
0
CIRCLE
5
132
100
AcDbEntity
8
0
100
AcDbCircle
10
-66.675000000000011
20
9.5250000000000021
30
0
40
0.99999999999999645
210
0
220
-0
230
1
0
CIRCLE
5
133
100
AcDbEntity
8
0
100
AcDbCircle
10
-85.725000000000023
20
9.5250000000000021
30
0
40
0.99999999999999645
210
0
220
-0
230
1
0
CIRCLE
5
134
100
AcDbEntity
8
0
100
AcDbCircle
10
-123.82500000000002
20
9.5250000000000021
30
0
40
0.99999999999999645
210
0
220
-0
230
1
0
CIRCLE
5
135
100
AcDbEntity
8
0
100
AcDbCircle
10
-47.625000000000014
20
9.5250000000000021
30
0
40
0.99999999999999645
210
0
220
-0
230
1
0
CIRCLE
5
136
100
AcDbEntity
8
0
100
AcDbCircle
10
-28.575000000000003
20
9.5250000000000021
30
0
40
1.0000000000000009
210
0
220
-0
230
1
0
CIRCLE
5
137
100
AcDbEntity
8
0
100
AcDbCircle
10
-54.768749999999997
20
66.675000000000011
30
0
40
1.0000000000000053
210
0
220
-0
230
1
0
CIRCLE
5
138
100
AcDbEntity
8
0
100
AcDbCircle
10
-9.5250000000000021
20
9.5250000000000021
30
0
40
0.99999999999999978
210
0
220
-0
230
1
0
CIRCLE
5
139
100
AcDbEntity
8
0
100
AcDbCircle
10
-16.668750000000003
20
47.625
30
0
40
0.99999999999999645
210
0
220
-0
230
1
0
CIRCLE
5
140
100
AcDbEntity
8
0
100
AcDbCircle
10
-190.50000499973413
20
66.675000000000011
30
0
40
1.0000000000000142
210
0
220
-0
230
1
0
CIRCLE
5
141
100
AcDbEntity
8
0
100
AcDbCircle
10
-128.58750499973414
20
66.675000000000011
30
0
40
0.99999999999999645
210
0
220
-0
230
1
0
LWPOLYLINE
5
142
100
AcDbEntity
8
0
100
AcDbPolyline
90
8
70
1
43
0.0
10
-22.921875000000021
20
37.600000000000001
42
0.41421356237309509
10
-22.621875000000024
20
37.899999999999999
10
-22.621875000000017
20
38.299999999999997
42
0.41421356237309936
10
-22.921875000000007
20
38.599999999999994
10
-177.10312500000001
20
38.600000000000001
42
0.41421356237308637
10
-177.40312500000002
20
38.299999999999997
10
-177.40312500000002
20
37.900000000000013
42
0.41421356237305162
10
-177.10312500000001
20
37.600000000000001
0
CIRCLE
5
143
100
AcDbEntity
8
0
100
AcDbCircle
10
-169.06875499973415
20
66.675000000000011
30
0
40
1.0000000000000142
210
0
220
-0
230
1
0
CIRCLE
5
144
100
AcDbEntity
8
0
100
AcDbCircle
10
-180.97500499973415
20
66.675000000000011
30
0
40
1.0000000000000142
210
0
220
-0
230
1
0
CIRCLE
5
145
100
AcDbEntity
8
0
100
AcDbCircle
10
-83.34375
20
66.675000000000011
30
0
40
0.99999999999999645
210
0
220
-0
230
1
0
CIRCLE
5
146
100
AcDbEntity
8
0
100
AcDbCircle
10
-145.25625499973415
20
66.675000000000011
30
0
40
1.0000000000000142
210
0
220
-0
230
1
0
LWPOLYLINE
5
147
100
AcDbEntity
8
0
100
AcDbPolyline
90
24
70
1
43
0.0
10
-189.20160578984277
20
74.199998571008308
42
0.26794908189821914
10
-191.79968138242424
20
75.699997499264512
10
-195.52499999972511
20
75.699997499264512
42
0.41421356237309509
10
-198.52499999972511
20
72.699997499264526
10
-198.52499999972508
20
24.411898451098608
42
0.22167060970504907
10
-197.45357357115756
20
22.113941972056345
42
-0.46625183650741114
10
-197.45357357115756
20
15.986058027943654
42
0.22167060970504848
10
-198.52499999972511
20
13.688101548901395
10
-198.52499999972508
20
3.4999999999999698
42
0.41421356237309515
10
-195.52499999972511
20
0.49999999999996214
10
-4.5000050000090397
20
0.49999999999997158
42
0.41421356237309442
10
-1.5000050000090459
20
3.4999999999999698
10
-1.5000050000090503
20
13.688101548901397
42
0.22167060970504981
10
-2.571431428576596
20
15.986058027943653
42
-0.46625183650740964
10
-2.571431428576596
20
22.113941972056349
42
0.22167060970504809
10
-1.5000050000090464
20
24.411898451098608
10
-1.5000050000090503
20
72.699997499264484
42
0.41421356237309848
10
-4.500005000009045
20
75.699997499264512
10
-8.2253236173099253
20
75.699997499264512
42
0.26794908189821887
10
-10.823399209891381
20
74.199998571008308
42
-0.57734999418004629
10
-17.751600790108622
20
74.199998571008308
42
0.26794908189822025
10
-20.349676382690092
20
75.699997499264512
10
-179.67532861704404
20
75.699997499264512
42
0.26794908189821914
10
-182.27340420962548
20
74.199998571008308
42
-0.5773499941800414
0
ENDSEC
0
SECTION
2
OBJECTS
0
DICTIONARY
5
C
100
AcDbDictionary
3
ACAD_GROUP
350
D
3
ACAD_MLINESTYLE
350
17
0
DICTIONARY
5
D
100
AcDbDictionary
0
DICTIONARY
5
1A
330
C
100
AcDbDictionary
0
DICTIONARY
5
17
100
AcDbDictionary
0
ENDSEC
0
EOF
