<?xml version="1.0" encoding="UTF-8"?>
<svg id="Layer_2" data-name="Layer 2" xmlns="http://www.w3.org/2000/svg" viewBox="0 0 242.43 36.63">
  <g id="Layer_3" data-name="Layer 3">
    <g>
      <path d="m240.08,13.3c1.56,0,2.36-.53,2.36-1.6s-1.14-2.32-3.84-2.32c-1.37-3.42-3.53-4.83-6.57-4.83-1.71,0-3.31.42-4.52,1.44.3.61.76,1.75,1.06,2.66l-2.89-.15c-.34.49-.61,1.14-.61,1.79,0,.01,0,.03,0,.04-.91-.67-1.98-1.07-3.23-1.07-2.55,0-4.14,1.63-4.14,1.63,1.33,2.55,2.05,6.23,2.05,10.94-.5-.52-1.09-1.48-1.61-2.47-.14-6.93-2.25-10.11-6.14-10.11-2.01,0-3.53.8-4.52,1.82,2.32,2.85,3.46,7.71,3.72,13.6h-.08c-.53-6.04-2.28-15.43-8.74-15.43-2.58,0-3.72,1.48-3.72,4.14,0,1.52.49,5.24,1.75,8.43-.86-1.08-1.5-2.4-2.08-3.7-.34-5.04-2.15-8.88-6.36-8.88-1.6,0-3,.53-3.91,1.25,2.2,3,2.58,8.55,2.58,12.65l-.38-.49c0-6.34-.95-13.41-6.73-13.41-1.71,0-3.38.68-4.37,1.63,1.63,2.74,2.09,6.08,2.09,9.27,0,4.71-1.03,9.16-1.03,11.09,0,3.31,1.25,5.36,7.56,5.36,4.45,0,7.48-1.06,7.48-3.65,0-1.03-.46-2.01-1.44-2.89-.19.04-.34.04-.53.04-1.52,0-2.81-.72-3.65-1.63-.46,1.86-1.1,3.5-1.71,4.79h-.08c.53-1.98,1.03-3.84,1.29-5.4-1.48-1.82-1.98-3.91-2.24-5.17h.08c1.37,4.07,3.76,6.8,5.97,6.8,2.78,0,4.42-2,5.08-5.42,1.19,2.81,3.13,5.42,6.01,5.42,3.12,0,4.56-2.89,4.56-6.27s-1.06-7.37-2.36-10.11l.11-.04c2.28,3.95,2.74,7.83,2.74,10.3,0,1.03-.19,2.09-.49,3.12.38,1.22,1.48,3,4.07,3,2.43,0,4.21-1.66,5.01-4.98,1.35,2.67,3.33,4.98,5.78,4.98,2.12,0,3.63-1.61,4.51-3.93,1.29,2.17,3.13,3.93,5.67,3.93,5.17,0,6.46-4.83,6.46-10.11,0-2.24-.23-3.95-.46-5.55-2.24-.08-4.45-.23-6.88-.49v-.08h7.29Zm-10.14,8.47c-.32,0-.69-.34-1.08-.88,0-.21.02-.43.02-.64,0-2.56-.53-5.21-1.62-7.27.67.2,1.53.32,2.61.32.61,2.13.95,4.33.95,6.38,0,1.22-.3,2.09-.87,2.09Z"/>
      <path d="m220.89,7.56c2.17,0,3.23-2.96,3.23-4.67,0-1.9-1.25-2.89-3.65-2.89-2.09,0-3.99.84-3.99,2.62,0,1.94,2.2,4.94,4.41,4.94Z"/>
      <path d="m172.59,9.27c-2.55,0-5.02,1.63-7.03,3.5l-.08-.08c1.29-1.37,3.15-2.96,5.17-3.61-1.22-3.27-3.5-5.47-6.54-5.47-2.39,0-4.26,1.44-4.26,1.44,1.79,3.95,3,9.65,3,14.36,0,.84-.04,1.67-.11,2.43-.34-.4-.69-.9-1.03-1.45,0-.05,0-.09,0-.14,0-5.28-2.24-10.98-7.03-10.98-2.55,0-4.14,1.63-4.14,1.63,1.33,2.55,2.05,6.23,2.05,10.94-.5-.52-1.09-1.48-1.61-2.47-.14-6.93-2.25-10.11-6.14-10.11-2.01,0-3.53.8-4.52,1.82,2.32,2.92,3.46,7.71,3.72,13.6h-.08c-.53-6.04-2.28-15.43-8.74-15.43-2.66,0-3.91,1.82-3.91,1.82,3.19,3.88,3.72,11.32,3.72,13.6h-.08c-.46-5.13-2.01-15.43-8.74-15.43-2.58,0-3.72,1.48-3.72,4.14,0,1.52.49,5.24,1.75,8.43-.78-.87-1.75-2.92-2.36-4.29-.52-5.71-2.89-8.29-6.42-8.29-1.82,0-3.34.68-4.29,1.67,2.2,3.57,3.84,8.7,4.83,13.87h-.11c-2.09-8.02-4.64-15.54-8.36-15.54-2.85,0-4.41,4.41-4.41,8.05,0,5.89,3.53,12.2,8.44,12.2,2.89,0,5.47-2.09,7.29-3.91l.08.08c-1.22,1.56-3.46,3.72-6.08,4.25l-1.33,5.93c.99.53,2.81.76,4.56.76,3.99,0,8.25-1.18,8.25-4.75,0-1.94-1.22-3-2.28-3.53-.42,1.52-.99,3.27-1.6,4.71l-.11-.04c.71-2.5,1.25-5.7,1.51-8.99,1.19,2.84,3.14,5.49,6.06,5.49,3.08,0,4.56-2.81,4.56-6.27s-1.06-7.37-2.36-10.11l.11-.04c2.28,3.95,2.74,7.94,2.74,10.37,0,1.25-.19,2.39-.46,3.12.42,1.22,1.44,2.93,4.03,2.93,3.5,0,4.94-2.89,4.94-6.27s-1.06-7.37-2.36-10.11l.11-.04c2.28,3.95,2.74,7.83,2.74,10.3,0,1.06-.15,2.09-.46,3.19.42,1.22,1.44,2.93,4.03,2.93,2.43,0,4.21-1.66,5.01-4.98,1.35,2.67,3.33,4.98,5.78,4.98,2.25,0,3.81-1.8,4.66-4.34,1.31,2.38,3.12,4.34,5.3,4.34,2.58,0,3.99-2.09,4.79-5.05-1.48-3.53-2.17-6.92-2.89-10.45h.08c2.09,7.98,4.83,15.5,8.32,15.5,2.58,0,3.91-3.57,3.91-7.67,0-5.85-2.81-12.58-7.9-12.58Zm-61.03,8.36h.08c1.1,2.09,2.01,5.17,3.08,8.4-.84-.53-1.75-2.17-3.15-8.4Zm60.95,3.53c-1.18-2.28-2.24-5.66-3.08-8.4.91.38,2.05,3.38,3.15,8.4h-.08Z"/>
      <path d="m153.74,7.56c2.17,0,3.23-2.96,3.23-4.67,0-1.9-1.25-2.89-3.65-2.89-2.09,0-3.99.84-3.99,2.62,0,1.94,2.2,4.94,4.41,4.94Z"/>
      <path d="m95.23,3.61c-1.86,0-3.38.68-4.86,1.44,1.79,3.95,3,9.65,3,14.36,0,.84-.04,1.67-.11,2.43-.22-.25-.44-.56-.66-.89.01-.31.02-.61.02-.93,0-5.93-1.71-10.75-6.42-10.75-1.6,0-3,.53-3.91,1.25,2.2,3,2.58,8.55,2.58,12.65l-.38-.49c0-6.34-.95-13.41-6.73-13.41-1.71,0-3.38.68-4.37,1.63,1.63,2.74,2.09,6.08,2.09,9.27,0,4.71-1.03,9.16-1.03,11.09,0,3.31,1.25,5.36,7.56,5.36,4.45,0,7.48-1.06,7.48-3.65,0-1.03-.46-2.01-1.44-2.89-.19.04-.34.04-.53.04-1.52,0-2.81-.72-3.65-1.63-.46,1.86-1.1,3.5-1.71,4.79h-.08c.53-1.98,1.03-3.84,1.29-5.4-1.48-1.82-1.98-3.91-2.24-5.17h.08c1.37,4.07,3.76,6.8,5.97,6.8s3.81-1.37,4.65-3.76c1.28,2.11,2.97,3.76,4.97,3.76,4.03,0,5.59-4.98,5.59-10.6,0-7.14-2.05-15.31-7.14-15.31Z"/>
      <path d="m66.76,9.27c-2.09,0-4.56,1.14-7.41,3.91l-.08-.08c.84-1.06,1.98-2.28,3.04-2.93-.91-.57-1.9-.91-3.19-.91-1.6,0-3.27.68-4.26,1.63,1.67,3.46,2.28,7.22,2.28,10.98,0,2.43-.27,4.83-.65,7.14l-2.55-.11c1.46-1.18,2.24-3.98,2.24-7.07,0-5.85-2.77-12.58-7.94-12.58-2.09,0-4.56,1.14-7.41,3.91l-.08-.08c.84-1.06,1.98-2.28,3.04-2.93-.91-.57-1.9-.91-3.19-.91-1.6,0-3.27.68-4.26,1.63,1.37,2.55,2.09,6.27,2.09,10.94-1.29-1.54-2.17-3.55-2.97-5.31.28-.6.42-1.28.42-1.99,0-2.51-1.82-5.28-5.81-5.28-2.58,0-5.05,1.71-6.88,3.91l-.04-.04c.57-1.03,1.29-1.98,2.32-2.77-1.48-.83-2.24-1.1-3.38-1.1-1.86,0-2.93.68-4.03,1.6,1.25,4.22,8.4,15.2,8.4,15.2l-.08.08c-1.71-2.17-3.42-4.45-4.41-6.16-1.37.18-2.31.96-2.85,1.99.05-.62.07-1.27.07-1.95,0-5.93-1.71-10.75-6.42-10.75-1.6,0-3,.53-3.91,1.25,2.2,3,2.58,8.55,2.58,12.65l-.38-.49c0-6.34-.95-13.41-6.73-13.41-1.71,0-3.38.68-4.37,1.63,1.63,2.74,2.09,6.08,2.09,9.27,0,4.71-1.03,9.16-1.03,11.09,0,3.31,1.25,5.36,7.56,5.36,4.45,0,7.48-1.06,7.48-3.65,0-1.03-.46-2.01-1.44-2.89-.19.04-.34.04-.53.04-1.52,0-2.81-.72-3.65-1.63-.46,1.86-1.1,3.5-1.71,4.79h-.08c.53-1.98,1.03-3.84,1.29-5.4-1.48-1.82-1.98-3.91-2.24-5.17h.08c1.37,4.07,3.76,6.8,5.96,6.8,2.53,0,4.12-1.66,4.88-4.53.31,2.31,2.02,4.53,5.04,4.53,2.81,0,5.89-1.71,7.71-3.91l.04.04c-.53,1.06-1.48,2.17-2.43,2.77,1.44.84,2.85,1.1,3.95,1.1,1.44,0,2.7-.57,3.72-1.48-2.62-6.5-8.28-15.27-8.28-15.27l.08-.04,4.26,5.77c.65-.05,1.19-.28,1.64-.61.06,2.61,2.57,11.63,7.97,11.63,2.89,0,3.99-2.55,4.41-5.05-1.29-3.08-2.17-6.92-2.89-10.45h.08c2.09,7.98,4.71,15.5,8.36,15.5.5,0,.96-.15,1.37-.41-.28.46-.49,1.02-.49,1.59,0,1.22.61,2.28,2.39,2.74,0,.04-.04.08-.04.11,1.25,1.86,3,3,5.09,3,1.67,0,3.08-.99,3.8-2.35l-6.27-.38v-.11c2.17,0,5.43-.04,7.07-.11,2.09-.08,3.04-.46,3.04-1.79,0-.91-.8-1.94-2.66-2.24.23-1.56.19-3.15,0-4.41-1.6-3.27-2.51-7.6-3.23-11.13h.08c2.09,7.98,4.71,15.5,8.36,15.5,2.55,0,3.88-3.57,3.88-7.67,0-5.85-2.77-12.58-7.94-12.58Zm-18.54,11.89c-1.18-2.28-2.24-5.66-3.08-8.4.91.38,2.05,3.38,3.15,8.4h-.08Zm18.51,0c-1.18-2.28-2.24-5.66-3.08-8.4.91.38,2.05,3.38,3.15,8.4h-.08Z"/>
    </g>
  </g>
</svg>